<svg width="277" height="168" viewBox="0 0 277 168" fill="none" xmlns="http://www.w3.org/2000/svg">
<path d="M39.4535 58.7273C49.8052 56.9653 56.7686 47.1451 55.0066 36.7933C53.2446 26.4416 43.4244 19.4782 33.0726 21.2402C22.7209 23.0023 15.7575 32.8224 17.5195 43.1742C19.2815 53.526 29.1017 60.4893 39.4535 58.7273Z" fill="#EAECF0"/>
<path d="M256.823 111.951C267.69 111.71 276.305 102.705 276.064 91.837C275.823 80.9693 266.818 72.3546 255.95 72.5955C245.082 72.8364 236.468 81.8418 236.709 92.7095C236.95 103.577 245.955 112.192 256.823 111.951Z" fill="#F5F5F5"/>
<path d="M201.69 101.195C199.175 87.1469 187.112 74.8926 172.889 73.721C165.138 73.0913 157.347 75.5342 149.628 74.6017C143.086 73.785 137.065 70.6113 132.695 65.675C126.319 58.422 124.163 48.1045 117.412 41.2022C108.111 31.6817 91.8791 31.5342 80.5613 38.5361C69.2435 45.538 62.401 58.1749 59.2687 71.1067L59.1452 75.04C58.4637 88.454 61.9945 104.064 69.7775 116.019C77.6641 128.134 82.8488 133.155 97.2192 141.847C109.422 149.243 133.317 152.495 147.583 152.838C161.85 153.181 176.504 148.933 187.236 139.52C197.968 130.107 204.208 115.242 201.69 101.195Z" fill="#EAECF0"/>
<path d="M160.62 97.4692C160.75 111.194 157.759 121.688 151.645 128.952C145.532 136.215 137.163 139.895 126.539 139.991C115.859 140.094 107.369 136.577 101.07 129.438C94.7708 122.299 91.5535 111.869 91.418 98.1467L91.1869 74.0126C91.054 60.341 94.0455 49.8467 100.161 42.53C106.277 35.2133 114.674 31.5098 125.351 31.4194C135.979 31.3158 144.444 34.8586 150.749 42.0478C157.053 49.237 160.269 59.6661 160.397 73.3352L160.62 97.4692ZM142.755 70.8006C142.667 62.1582 141.162 55.7766 138.239 51.656C135.317 47.5354 131.066 45.5003 125.487 45.5508C119.926 45.6039 115.73 47.72 112.898 51.8991C110.066 56.0782 108.683 62.4876 108.749 71.1274L109.028 100.454C109.111 109.142 110.634 115.559 113.599 119.706C116.564 123.854 120.824 125.901 126.38 125.847C131.935 125.794 136.118 123.678 138.929 119.499C141.74 115.32 143.104 108.863 143.022 100.127L142.755 70.8006Z" fill="#AF282B"/>
<path d="M170.766 97.3734C170.899 111.096 167.908 121.59 161.792 128.856C155.676 136.122 147.307 139.802 136.685 139.895C126.005 139.998 117.515 136.48 111.216 129.338C104.917 122.197 101.704 111.764 101.576 98.0389L101.345 73.9049C101.212 60.2332 104.204 49.7389 110.32 42.4222C116.435 35.1055 124.832 31.4006 135.51 31.3077C146.137 31.2094 154.603 34.7521 160.907 41.936C167.212 49.1199 170.416 59.5543 170.519 73.2393L170.766 97.3734ZM152.901 70.7048C152.816 62.065 151.304 55.6888 148.366 51.5761C145.427 47.4634 141.177 45.4283 135.613 45.4709C130.053 45.5266 125.856 47.6428 123.024 51.8192C120.192 55.9956 118.816 62.4064 118.896 71.0515L119.179 100.374C119.264 109.064 120.787 115.483 123.75 119.63C126.712 123.778 130.972 125.825 136.53 125.771C142.085 125.716 146.268 123.6 149.079 119.423C151.89 115.247 153.253 108.788 153.168 100.047L152.901 70.7048Z" fill="#D33044"/>
<path d="M219.328 143.346C211.307 143.556 204.106 142.433 197.725 139.976C191.377 137.484 186.319 133.995 182.55 129.511C178.781 125.027 176.752 119.886 176.465 114.086C176.243 109.614 177.046 105.483 178.875 101.692C180.736 97.8647 183.359 94.6651 186.744 92.0927C190.126 89.4854 193.971 87.7756 198.277 86.9632L198.24 86.2295C192.488 85.2257 187.732 82.5691 183.971 78.2598C180.209 73.9156 178.182 68.8087 177.891 62.9393C177.616 57.3843 178.985 52.3984 182 47.9817C185.013 43.53 189.27 39.9902 194.773 37.3623C200.308 34.6987 206.67 33.2727 213.859 33.0845C221.047 32.8962 227.516 33.9862 233.267 36.3544C239.052 38.7216 243.667 42.0465 247.114 46.3291C250.558 50.5767 252.434 55.4601 252.743 60.9792C253.001 66.8845 251.451 72.085 248.093 76.5807C244.734 81.0765 240.288 83.974 234.755 85.2733L234.791 86.007C239.097 86.5939 243.049 88.0996 246.646 90.5241C250.276 92.9128 253.21 95.967 255.446 99.6865C257.715 103.37 258.977 107.448 259.234 111.919C259.487 117.719 257.956 122.954 254.641 127.624C251.326 132.293 246.609 136.037 240.49 138.856C234.404 141.639 227.35 143.136 219.328 143.346ZM218.502 126.681C222.079 126.587 225.172 125.859 227.782 124.496C230.39 123.099 232.383 121.227 233.762 118.882C235.174 116.502 235.804 113.792 235.653 110.752C235.499 107.643 234.582 104.92 232.901 102.586C231.219 100.216 229.007 98.3848 226.266 97.0923C223.522 95.7648 220.415 95.1466 216.942 95.2375C213.504 95.3275 210.465 96.1067 207.826 97.5752C205.185 99.0086 203.143 100.951 201.7 103.403C200.29 105.818 199.662 108.581 199.816 111.69C199.967 114.73 200.847 117.401 202.456 119.702C204.064 121.969 206.255 123.731 209.03 124.987C211.802 126.209 214.96 126.774 218.502 126.681ZM216.123 78.7297C219.109 78.6515 221.736 77.9706 224.002 76.6869C226.268 75.4031 228.007 73.6609 229.219 71.4603C230.431 69.2596 230.967 66.7444 230.826 63.9145C230.688 61.1195 229.907 58.6912 228.483 56.6295C227.058 54.5329 225.17 52.9207 222.819 51.7928C220.466 50.6301 217.762 50.0887 214.706 50.1687C211.685 50.2478 209.041 50.9292 206.775 52.2129C204.508 53.4617 202.767 55.169 201.553 57.3347C200.372 59.4646 199.851 61.927 199.99 64.7219C200.13 67.5518 200.914 70.0326 202.341 72.1641C203.768 74.2957 205.675 75.9424 208.062 77.1042C210.45 78.2661 213.137 78.8079 216.123 78.7297Z" fill="#AF282B"/>
<path d="M192.57 95.9584C192.441 96.0465 192.301 96.1185 192.152 96.173C191.877 96.2978 191.473 96.4697 190.988 96.6759C189.99 97.0906 188.594 97.6378 187.033 98.2099C185.472 98.7821 184.049 99.2601 183.011 99.5928C182.492 99.7571 182.067 99.8839 181.773 99.9679C181.624 100.021 181.468 100.059 181.307 100.08C181.442 99.9993 181.588 99.9357 181.742 99.8904L182.949 99.4498L186.928 98.0007L190.906 96.5277L192.116 96.0834C192.261 96.0257 192.413 95.9839 192.57 95.9584Z" fill="#FF725E"/>
<path d="M188.57 105.677C188.441 105.765 188.301 105.837 188.152 105.892C187.877 106.017 187.473 106.189 186.988 106.395C185.99 106.81 184.594 107.357 183.033 107.929C181.472 108.501 180.049 108.979 179.011 109.312C178.492 109.476 178.067 109.603 177.773 109.687C177.624 109.74 177.468 109.778 177.307 109.799C177.442 109.718 177.588 109.655 177.742 109.609L178.949 109.169L182.928 107.72L186.906 106.247L188.116 105.802C188.261 105.745 188.413 105.703 188.57 105.677Z" fill="#FF725E"/>
<path d="M189.57 115.677C189.441 115.765 189.301 115.837 189.152 115.892C188.877 116.017 188.473 116.189 187.988 116.395C186.99 116.81 185.594 117.357 184.033 117.929C182.472 118.501 181.049 118.979 180.011 119.312C179.492 119.476 179.067 119.603 178.773 119.687C178.624 119.74 178.468 119.778 178.307 119.799C178.442 119.718 178.588 119.655 178.742 119.609L179.949 119.169L183.928 117.72L187.906 116.247L189.116 115.802C189.261 115.745 189.413 115.703 189.57 115.677Z" fill="#FF725E"/>
<path d="M193.57 123.677C193.441 123.765 193.301 123.837 193.152 123.892C192.877 124.017 192.473 124.189 191.988 124.395C190.99 124.81 189.594 125.357 188.033 125.929C186.472 126.501 185.049 126.979 184.011 127.312C183.492 127.476 183.067 127.603 182.773 127.687C182.624 127.74 182.468 127.778 182.307 127.799C182.442 127.718 182.588 127.655 182.742 127.609L183.949 127.169L187.928 125.72L191.906 124.247L193.116 123.802C193.261 123.745 193.413 123.703 193.57 123.677Z" fill="#FF725E"/>
<path d="M200.57 130.677C200.441 130.765 200.301 130.837 200.152 130.892C199.877 131.017 199.473 131.189 198.988 131.395C197.99 131.81 196.594 132.357 195.033 132.929C193.472 133.501 192.049 133.979 191.011 134.312C190.492 134.476 190.067 134.603 189.773 134.687C189.624 134.74 189.468 134.778 189.307 134.799C189.442 134.718 189.588 134.655 189.742 134.609L190.949 134.169L194.928 132.72L198.906 131.247L200.116 130.802C200.261 130.745 200.413 130.703 200.57 130.677Z" fill="#FF725E"/>
<path d="M210.57 135.677C210.441 135.765 210.301 135.837 210.152 135.892C209.877 136.017 209.473 136.189 208.988 136.395C207.99 136.81 206.594 137.357 205.033 137.929C203.472 138.501 202.049 138.979 201.011 139.312C200.492 139.476 200.067 139.603 199.773 139.687C199.624 139.74 199.468 139.778 199.307 139.799C199.442 139.718 199.588 139.655 199.742 139.609L200.949 139.169L204.928 137.72L208.906 136.247L210.116 135.802C210.261 135.745 210.413 135.703 210.57 135.677Z" fill="#FF725E"/>
<path d="M204.904 85.3189C204.717 85.4247 204.522 85.5166 204.319 85.594C203.931 85.759 203.38 85.9926 202.689 86.2806C201.301 86.8323 199.375 87.567 197.242 88.3516C195.109 89.1361 193.132 89.7961 191.725 90.2672C191.015 90.5063 190.438 90.6906 190.031 90.8108C189.828 90.8861 189.616 90.9413 189.398 90.9755C189.591 90.8801 189.792 90.7992 190 90.7333L191.662 90.1282L197.156 88.1357L202.637 86.1145L204.299 85.5054C204.492 85.4237 204.695 85.3612 204.904 85.3189Z" fill="#FF725E"/>
<path d="M202.612 74.7129C202.418 74.8235 202.213 74.9163 202 74.9902C201.611 75.1552 201.016 75.386 200.293 75.6718C198.842 76.2234 196.829 76.9523 194.593 77.7301C192.356 78.5079 190.304 79.1788 188.826 79.6492C188.084 79.8823 187.479 80.0648 187.061 80.1842C186.848 80.2592 186.626 80.3137 186.399 80.3471C186.602 80.2526 186.812 80.1723 187.029 80.1067L188.767 79.5065L194.503 77.5299L200.227 75.5246L201.964 74.9204C202.173 74.8339 202.389 74.7645 202.612 74.7129Z" fill="#FF725E"/>
<path d="M196.608 66.6819C196.414 66.7892 196.21 66.8819 196 66.9594C195.611 67.1244 195.016 67.3512 194.289 67.6408C192.842 68.1926 190.829 68.9216 188.589 69.6991C186.348 70.4766 184.301 71.1518 182.826 71.6184C182.084 71.8515 181.479 72.034 181.061 72.1534C180.846 72.2245 180.625 72.2803 180.399 72.3203C180.599 72.22 180.81 72.1382 181.029 72.0759L182.767 71.4797L188.503 69.4872L194.226 67.4819L195.96 66.8775C196.17 66.7974 196.386 66.732 196.608 66.6819Z" fill="#FF725E"/>
<path d="M194.608 55.647C194.414 55.7576 194.209 55.8503 193.996 55.9242C193.607 56.0892 193.012 56.32 192.289 56.6059C190.842 57.1537 188.825 57.8864 186.588 58.6602C184.352 59.434 182.3 60.1129 180.825 60.5795C180.08 60.8163 179.479 60.9991 179.057 61.1182C178.845 61.1923 178.625 61.2469 178.399 61.2814C178.599 61.1852 178.809 61.1047 179.025 61.0408L180.763 60.4406L186.499 58.4639L192.227 56.4589L193.96 55.8505C194.169 55.7661 194.386 55.6981 194.608 55.647Z" fill="#FF725E"/>
<path d="M197.608 44.616C197.412 44.7236 197.208 44.8163 196.996 44.8932C196.607 45.0582 196.012 45.285 195.289 45.5749C193.842 46.1267 191.825 46.8554 189.589 47.6332C187.352 48.411 185.301 49.0858 183.826 49.5525C183.084 49.7856 182.479 49.9681 182.061 50.0875C181.846 50.1586 181.625 50.2143 181.399 50.2544C181.599 50.1541 181.81 50.0723 182.029 50.01L183.767 49.4138L189.504 47.4372L195.227 45.4319L196.961 44.8275C197.168 44.7372 197.384 44.6664 197.608 44.616Z" fill="#FF725E"/>
<path d="M209.612 34.0079C209.416 34.1143 209.211 34.207 209 34.2851C208.611 34.4501 208.016 34.6769 207.293 34.9667C205.842 35.5183 203.829 36.2473 201.593 37.025C199.356 37.8028 197.305 38.4777 195.826 38.9441C195.084 39.1772 194.483 39.36 194.061 39.4791C193.846 39.5515 193.625 39.6073 193.399 39.646C193.6 39.5467 193.811 39.465 194.029 39.4016L195.767 38.8054L201.499 36.8086L207.222 34.8034L208.96 34.1992C209.17 34.1187 209.388 34.0548 209.612 34.0079Z" fill="#FF725E"/>
<path d="M243.746 77.3286C243.624 77.4399 243.491 77.5374 243.348 77.6195C243.089 77.7989 242.702 78.0459 242.228 78.3488C241.271 78.9546 239.94 79.7675 238.45 80.6363C236.959 81.505 235.589 82.2542 234.588 82.7803C234.09 83.0473 233.684 83.2545 233.393 83.394C233.25 83.4763 233.099 83.5431 232.942 83.5933C233.065 83.4891 233.199 83.3982 233.341 83.3223L234.501 82.6528L238.322 80.453L242.128 78.2253L243.288 77.5518C243.432 77.4601 243.585 77.3852 243.746 77.3286Z" fill="#FF725E"/>
<path d="M241.065 68.9233C240.895 69.048 240.71 69.1584 240.512 69.2526C240.147 69.4484 239.616 69.7288 238.952 70.067C237.624 70.739 235.776 71.6512 233.707 72.6169C231.637 73.5826 229.734 74.4237 228.351 75.0155C227.653 75.3092 227.089 75.5451 226.691 75.7008C226.493 75.7928 226.283 75.8674 226.065 75.9233C226.237 75.808 226.422 75.7067 226.619 75.6207L228.223 74.8731L233.535 72.4167L238.819 69.9246L240.424 69.177C240.626 69.0745 240.841 68.9895 241.065 68.9233Z" fill="#FF725E"/>
<path d="M241.873 61.2168C241.752 61.3297 241.618 61.4287 241.475 61.5117C241.212 61.687 240.829 61.9341 240.351 62.237C239.398 62.8427 238.067 63.6597 236.573 64.5245C235.078 65.3892 233.715 66.1424 232.715 66.6725C232.217 66.9355 231.811 67.1467 231.52 67.2862C231.378 67.3699 231.227 67.4356 231.069 67.4814C231.192 67.3779 231.326 67.2884 231.468 67.2144L232.624 66.5409L236.449 64.3451L240.255 62.1135L241.411 61.44C241.557 61.35 241.712 61.2752 241.873 61.2168Z" fill="#FF725E"/>
<path d="M240.94 54.1626C240.826 54.2696 240.7 54.3632 240.565 54.4416C240.314 54.6129 239.947 54.8401 239.493 55.139C238.589 55.7168 237.321 56.4939 235.907 57.3188C234.492 58.1438 233.181 58.8611 232.228 59.3632L231.092 59.945C230.956 60.0231 230.812 60.0859 230.662 60.1323C230.786 60.0328 230.919 59.946 231.061 59.8733L232.161 59.2317L235.807 57.1395L239.429 55.0114L240.533 54.3738C240.661 54.2886 240.797 54.2177 240.94 54.1626Z" fill="#FF725E"/>
<path d="M236.94 48.1626C236.826 48.2696 236.7 48.3632 236.565 48.4416C236.314 48.6129 235.947 48.8401 235.493 49.139C234.589 49.7168 233.321 50.4939 231.907 51.3188C230.492 52.1438 229.181 52.8611 228.228 53.3632L227.092 53.945C226.956 54.0231 226.812 54.0859 226.662 54.1323C226.786 54.0328 226.919 53.946 227.061 53.8733L228.161 53.2317L231.807 51.1395L235.429 49.0114L236.533 48.3738C236.661 48.2886 236.797 48.2177 236.94 48.1626Z" fill="#FF725E"/>
<path d="M245.6 115.138C245.421 115.279 245.222 115.406 245.008 115.519C244.616 115.749 244.045 116.08 243.33 116.48C241.899 117.277 239.906 118.363 237.67 119.523C235.434 120.684 233.373 121.704 231.874 122.426C231.118 122.786 230.506 123.075 230.073 123.268C229.859 123.378 229.63 123.473 229.391 123.55C229.574 123.418 229.773 123.299 229.985 123.195L231.719 122.296L237.461 119.34L243.169 116.351L244.903 115.452C245.121 115.331 245.355 115.226 245.6 115.138Z" fill="#FF725E"/>
<path d="M246.873 108.217C246.752 108.33 246.618 108.429 246.475 108.512C246.212 108.687 245.829 108.934 245.351 109.237C244.398 109.843 243.067 110.66 241.573 111.524C240.078 112.389 238.715 113.142 237.715 113.672C237.217 113.935 236.811 114.147 236.52 114.286C236.378 114.37 236.227 114.436 236.069 114.481C236.192 114.378 236.326 114.288 236.468 114.214L237.624 113.541L241.449 111.345L245.255 109.113L246.411 108.44C246.557 108.35 246.712 108.275 246.873 108.217Z" fill="#FF725E"/>
<path d="M245.94 101.163C245.826 101.27 245.7 101.363 245.565 101.442C245.314 101.613 244.947 101.84 244.493 102.139C243.589 102.717 242.321 103.494 240.907 104.319C239.492 105.144 238.181 105.861 237.228 106.363L236.092 106.945C235.956 107.023 235.812 107.086 235.662 107.132C235.786 107.033 235.919 106.946 236.061 106.873L237.161 106.232L240.807 104.14L244.429 102.011L245.533 101.374C245.661 101.289 245.797 101.218 245.94 101.163Z" fill="#FF725E"/>
<path d="M241.94 95.1626C241.826 95.2696 241.7 95.3632 241.565 95.4416C241.314 95.6129 240.947 95.8401 240.493 96.139C239.589 96.7168 238.321 97.4939 236.907 98.3188C235.492 99.1438 234.181 99.8611 233.228 100.363L232.092 100.945C231.956 101.023 231.812 101.086 231.662 101.132C231.786 101.033 231.919 100.946 232.061 100.873L233.161 100.232L236.807 98.1395L240.429 96.0114L241.533 95.3738C241.661 95.2886 241.797 95.2177 241.94 95.1626Z" fill="#FF725E"/>
<path d="M240.781 45.5352C240.199 45.9686 239.577 46.3449 238.923 46.659C238.301 47.0325 237.646 47.3487 236.967 47.6034C237.548 47.17 238.17 46.7937 238.824 46.4796C239.446 46.1053 240.101 45.7892 240.781 45.5352Z" fill="#FF725E"/>
<path d="M229.328 143.346C221.307 143.556 214.106 142.433 207.725 139.976C201.377 137.484 196.319 133.995 192.55 129.511C188.781 125.027 186.752 119.886 186.465 114.086C186.243 109.614 187.046 105.483 188.875 101.692C190.736 97.8647 193.359 94.6651 196.744 92.0927C200.126 89.4854 203.971 87.7756 208.277 86.9632L208.24 86.2295C202.488 85.2257 197.732 82.5691 193.971 78.2598C190.209 73.9156 188.182 68.8087 187.891 62.9393C187.616 57.3843 188.985 52.3984 192 47.9817C195.013 43.53 199.27 39.9902 204.773 37.3623C210.308 34.6987 216.67 33.2727 223.859 33.0845C231.047 32.8962 237.516 33.9862 243.267 36.3544C249.052 38.7216 253.667 42.0465 257.114 46.3291C260.558 50.5767 262.434 55.4601 262.743 60.9792C263.001 66.8845 261.451 72.085 258.093 76.5807C254.734 81.0765 250.288 83.974 244.755 85.2733L244.791 86.007C249.097 86.5939 253.049 88.0996 256.646 90.5241C260.276 92.9128 263.21 95.967 265.446 99.6865C267.715 103.37 268.977 107.448 269.234 111.919C269.487 117.719 267.956 122.954 264.641 127.624C261.326 132.293 256.609 136.037 250.49 138.856C244.404 141.639 237.35 143.136 229.328 143.346ZM228.502 126.681C232.079 126.587 235.172 125.859 237.782 124.496C240.39 123.099 242.383 121.227 243.762 118.882C245.174 116.502 245.804 113.792 245.653 110.752C245.499 107.643 244.582 104.92 242.901 102.586C241.219 100.216 239.007 98.3848 236.266 97.0923C233.522 95.7648 230.415 95.1466 226.942 95.2375C223.504 95.3275 220.465 96.1067 217.826 97.5752C215.185 99.0086 213.143 100.951 211.7 103.403C210.29 105.818 209.662 108.581 209.816 111.69C209.967 114.73 210.847 117.401 212.456 119.702C214.064 121.969 216.255 123.731 219.03 124.987C221.802 126.209 224.96 126.774 228.502 126.681ZM226.123 78.7297C229.109 78.6515 231.736 77.9706 234.002 76.6869C236.268 75.4031 238.007 73.6609 239.219 71.4603C240.431 69.2596 240.967 66.7444 240.826 63.9145C240.688 61.1195 239.907 58.6912 238.483 56.6295C237.058 54.5329 235.17 52.9207 232.819 51.7928C230.466 50.6301 227.762 50.0887 224.706 50.1687C221.685 50.2478 219.041 50.9292 216.775 52.2129C214.508 53.4617 212.767 55.169 211.553 57.3347C210.372 59.4646 209.851 61.927 209.99 64.7219C210.13 67.5518 210.914 70.0326 212.341 72.1641C213.768 74.2957 215.675 75.9424 218.062 77.1042C220.45 78.2661 223.137 78.8079 226.123 78.7297Z" fill="#D33044"/>
<path d="M258.065 92.423C258.065 92.423 258.006 92.4971 257.862 92.6226C257.719 92.748 257.516 92.9362 257.224 93.1472C256.417 93.7676 255.551 94.3154 254.639 94.7837C251.614 96.362 248.184 97.0922 244.744 96.8905C241.304 96.6887 237.994 95.5631 235.194 93.6433C234.349 93.0736 233.562 92.4303 232.842 91.7216C232.579 91.4764 232.4 91.2655 232.245 91.1514C232.173 91.0842 232.113 91.0073 232.065 90.9233C232.065 90.9233 232.364 91.1857 232.895 91.6646C233.641 92.3328 234.439 92.9448 235.283 93.495C238.072 95.3421 241.336 96.4249 244.723 96.6259C248.109 96.827 251.489 96.1386 254.495 94.6355C255.407 94.1874 256.281 93.6727 257.11 93.0959C257.415 92.8547 257.734 92.6301 258.065 92.423Z" fill="white"/>
<path d="M263.065 129.218C263.015 129.17 262.968 129.12 262.923 129.066C262.833 128.954 262.713 128.791 262.548 128.582C262.081 127.954 261.568 127.366 261.012 126.821L260.42 126.278L260.105 125.987L259.73 125.712L258.981 125.13L258.108 124.575C256.727 123.735 255.242 123.093 253.693 122.667C251.817 122.148 249.869 121.967 247.934 122.132C245.712 122.335 243.558 123.026 241.616 124.16C239.566 125.362 237.655 127.003 235.62 128.62C234.588 129.455 233.507 130.223 232.383 130.92C231.214 131.643 229.952 132.19 228.635 132.546C227.316 132.879 225.953 132.993 224.599 132.883C223.288 132.771 221.993 132.511 220.736 132.107C218.375 131.329 216.093 130.317 213.92 129.086C211.821 127.961 209.839 126.875 207.898 126.057C206.106 125.261 204.213 124.739 202.277 124.505C200.681 124.345 199.07 124.476 197.518 124.893C196.344 125.196 195.233 125.714 194.235 126.421C193.61 126.878 193.043 127.415 192.549 128.019L192.193 128.516C192.11 128.628 192.065 128.683 192.065 128.683C192.065 128.683 192.099 128.62 192.174 128.504L192.519 127.996C193.001 127.374 193.564 126.824 194.19 126.359C195.188 125.63 196.307 125.096 197.492 124.785C199.056 124.356 200.681 124.218 202.292 124.377C204.237 124.609 206.139 125.132 207.939 125.929C209.895 126.743 211.885 127.829 213.983 128.946C216.149 130.167 218.421 131.172 220.77 131.948C222.014 132.34 223.295 132.591 224.592 132.697C225.926 132.806 227.268 132.694 228.568 132.363C229.862 132.011 231.103 131.472 232.251 130.761C233.37 130.071 234.445 129.308 235.47 128.477C237.509 126.867 239.431 125.223 241.5 124.013C242.011 123.714 242.539 123.449 243.081 123.218C243.347 123.101 243.606 122.977 243.876 122.876L244.685 122.613C245.731 122.291 246.806 122.079 247.893 121.98C249.847 121.818 251.815 122.004 253.708 122.531C255.266 122.965 256.759 123.618 258.145 124.47L259.018 125.033L259.768 125.63L260.143 125.905L260.457 126.204L261.046 126.755C261.591 127.309 262.093 127.908 262.545 128.547C262.694 128.764 262.814 128.935 262.897 129.047L263.065 129.218Z" fill="white"/>
<path d="M263.065 59.9233C263.027 59.9964 262.982 60.0658 262.932 60.1307C262.8 60.3294 262.656 60.5192 262.5 60.6988C261.936 61.3671 261.279 61.9471 260.55 62.42C259.466 63.1254 258.253 63.5989 256.985 63.8118C256.236 63.9339 255.474 63.9559 254.72 63.8771C253.913 63.7864 253.117 63.6084 252.347 63.346C250.759 62.8262 249.322 62.1473 247.948 61.727C246.741 61.3309 245.468 61.1851 244.205 61.2981C243.353 61.3773 242.531 61.6605 241.806 62.1246C241.61 62.2551 241.424 62.4003 241.249 62.5592C241.193 62.6191 241.132 62.6733 241.065 62.7211C241.115 62.6557 241.17 62.5949 241.23 62.5393C241.395 62.3688 241.575 62.2139 241.767 62.0763C242.491 61.5867 243.321 61.2845 244.185 61.1958C245.466 61.0586 246.761 61.1901 247.99 61.5821C249.383 61.9996 250.82 62.6728 252.391 63.1926C253.153 63.4504 253.939 63.6275 254.737 63.7209C255.479 63.7983 256.228 63.7783 256.965 63.6613C258.218 63.4581 259.418 63.0013 260.494 62.3178C261.217 61.8555 261.873 61.2934 262.444 60.6476C262.603 60.4742 262.753 60.2922 262.893 60.1023C262.946 60.0385 263.004 59.9787 263.065 59.9233Z" fill="white"/>
<path d="M216.065 97.9233C216.018 98.0147 215.963 98.1014 215.901 98.1825C215.74 98.4309 215.563 98.6681 215.371 98.8926C214.68 99.728 213.874 100.453 212.978 101.044C211.648 101.926 210.16 102.518 208.603 102.784C207.684 102.937 206.749 102.964 205.823 102.866C204.833 102.752 203.856 102.53 202.911 102.202C200.962 101.552 199.198 100.703 197.513 100.178C196.031 99.6828 194.469 99.5006 192.918 99.6418C191.872 99.7408 190.864 100.095 189.975 100.675C189.734 100.838 189.506 101.02 189.291 101.218C189.222 101.293 189.147 101.361 189.065 101.421C189.126 101.339 189.194 101.263 189.267 101.193C189.47 100.98 189.691 100.787 189.927 100.615C190.815 100.003 191.834 99.6247 192.894 99.5139C194.466 99.3425 196.055 99.5068 197.564 99.9968C199.273 100.519 201.037 101.36 202.965 102.01C203.9 102.332 204.865 102.553 205.844 102.67C206.755 102.767 207.674 102.742 208.579 102.596C210.116 102.342 211.589 101.771 212.91 100.916C213.797 100.339 214.602 99.636 215.303 98.8287C215.498 98.6119 215.682 98.3844 215.853 98.147C215.919 98.0673 215.99 97.9926 216.065 97.9233Z" fill="white"/>
<path d="M248.275 38.9233C248.134 39.0579 247.98 39.1792 247.817 39.286C247.514 39.5131 247.06 39.812 246.482 40.1587C245.804 40.5649 245.104 40.9334 244.386 41.2626C243.503 41.6614 242.598 42.0087 241.676 42.3027C240.75 42.5877 239.808 42.8179 238.854 42.9922C238.076 43.1285 237.291 43.2243 236.503 43.2791C235.83 43.3229 235.284 43.3309 234.909 43.319C234.713 43.3272 234.517 43.3152 234.323 43.2831C234.515 43.2503 234.71 43.2356 234.905 43.2393C235.28 43.2393 235.822 43.1914 236.499 43.1317C237.177 43.0719 237.958 42.9643 238.826 42.8049C239.768 42.6198 240.699 42.3871 241.616 42.1075C242.532 41.8157 243.431 41.4751 244.31 41.0873C245.107 40.7246 245.828 40.366 246.41 40.0312C246.992 39.6965 247.458 39.4215 247.773 39.2342C247.931 39.1162 248.099 39.0122 248.275 38.9233Z" fill="white"/>
<path d="M209.965 55.9523C209.678 55.904 209.396 55.8297 209.122 55.7303L206.843 55.041C204.329 54.3163 201.777 53.7277 199.199 53.2776C197.793 53.0237 196.364 52.9223 194.936 52.9753C193.771 53.0232 192.623 53.2682 191.54 53.6997C190.55 54.1224 189.642 54.7174 188.859 55.4569C188.859 55.4569 188.898 55.3854 188.992 55.2694C189.13 55.0956 189.284 54.935 189.452 54.7898C190.044 54.2422 190.723 53.7971 191.461 53.4728C192.56 52.9976 193.735 52.7226 194.931 52.661C196.389 52.5915 197.85 52.6914 199.284 52.9586C201.876 53.4046 204.433 54.0304 206.938 54.8317C207.909 55.1319 208.669 55.4161 209.188 55.6177C209.458 55.7013 209.718 55.8135 209.965 55.9523Z" fill="white"/>
<path d="M101.396 75.3395C101.416 75.3913 99.0607 76.3278 96.1356 77.4277C93.2105 78.5276 90.8154 79.3565 90.8154 79.3207C90.8154 79.2848 93.1507 78.3324 96.0758 77.2325C99.0009 76.1326 101.376 75.2837 101.396 75.3395Z" fill="#FF725E"/>
<path d="M101.975 84.8761C101.994 84.9279 99.6393 85.8644 96.7102 86.9643C93.7811 88.0642 91.398 88.9091 91.3781 88.8573C91.3581 88.8055 93.7133 87.869 96.6384 86.7691C99.5635 85.6692 101.975 84.8203 101.975 84.8761Z" fill="#FF725E"/>
<path d="M102.568 94.4125C102.588 94.4643 100.232 95.4008 97.3033 96.5007C94.3742 97.6006 92.011 98.4455 91.9712 98.3937C91.9313 98.3419 94.3065 97.4054 97.2316 96.3055C100.157 95.2056 102.548 94.3567 102.568 94.4125Z" fill="#FF725E"/>
<path d="M103.17 103.949C103.19 104.001 100.835 104.937 97.9056 106.037C94.9765 107.137 92.5894 107.982 92.5695 107.93C92.5495 107.878 94.9087 106.942 97.8338 105.842C100.759 104.742 103.134 103.893 103.17 103.949Z" fill="#FF725E"/>
<path d="M103.74 113.485C103.625 113.559 103.502 113.619 103.373 113.665C103.134 113.768 102.783 113.912 102.353 114.083C101.484 114.43 100.285 114.88 98.9538 115.394C97.6227 115.908 96.4112 116.335 95.5305 116.646C95.0921 116.801 94.7335 116.925 94.4864 117.004C94.3592 117.058 94.225 117.093 94.0879 117.108C94.2021 117.033 94.3253 116.973 94.4545 116.929C94.6936 116.825 95.0403 116.681 95.4747 116.53C96.3395 116.183 97.543 115.733 98.8741 115.219C100.205 114.705 101.417 114.274 102.297 113.968C102.736 113.812 103.094 113.689 103.341 113.609C103.467 113.548 103.602 113.506 103.74 113.485Z" fill="#FF725E"/>
<path d="M106.461 122.209C106.077 122.416 105.677 122.593 105.266 122.739C104.509 123.042 103.46 123.448 102.301 123.887C101.141 124.325 100.081 124.708 99.3159 124.975C98.9074 125.141 98.4863 125.274 98.0566 125.373C98.4404 125.165 98.8402 124.988 99.2522 124.843C100.005 124.536 101.053 124.13 102.217 123.695C103.381 123.261 104.433 122.875 105.202 122.607C105.61 122.439 106.031 122.306 106.461 122.209Z" fill="#FF725E"/>
<path d="M112.292 130.211C111.949 130.402 111.59 130.563 111.22 130.693C110.546 130.964 109.626 131.327 108.582 131.717C107.538 132.108 106.589 132.447 105.92 132.682C105.556 132.829 105.18 132.945 104.796 133.028C105.138 132.836 105.497 132.674 105.868 132.546C106.537 132.275 107.462 131.913 108.506 131.522C109.55 131.132 110.499 130.793 111.168 130.554C111.532 130.406 111.908 130.292 112.292 130.211Z" fill="#FF725E"/>
<path d="M121.979 135.459C121.636 135.648 121.277 135.808 120.907 135.938C120.234 136.213 119.313 136.575 118.269 136.962C117.225 137.348 116.277 137.691 115.607 137.93C115.244 138.078 114.867 138.192 114.483 138.273C114.826 138.082 115.185 137.921 115.555 137.791C116.229 137.52 117.149 137.157 118.194 136.767C119.238 136.376 120.186 136.037 120.856 135.802C121.218 135.652 121.595 135.538 121.979 135.459Z" fill="#FF725E"/>
<path d="M151.199 115.107C151.223 115.159 148.198 116.57 144.444 118.259C140.69 119.949 137.626 121.272 137.602 121.22C137.578 121.169 140.603 119.758 144.376 118.068C148.15 116.378 151.175 115.055 151.199 115.107Z" fill="#FF725E"/>
<path d="M153.184 106.938C153.208 106.99 150.709 108.161 147.604 109.556C144.5 110.951 141.965 112.043 141.942 111.991C141.918 111.939 144.412 110.764 147.521 109.369C150.629 107.974 153.16 106.886 153.184 106.938Z" fill="#FF725E"/>
<path d="M154.096 97.7599C154.12 97.8117 151.621 98.9833 148.517 100.378C145.412 101.773 142.878 102.865 142.854 102.813C142.83 102.761 145.324 101.586 148.433 100.191C151.541 98.796 154.072 97.6882 154.096 97.7599Z" fill="#FF725E"/>
<path d="M155.009 88.5782C155.033 88.63 152.538 89.8056 149.43 91.2004C146.321 92.5952 143.791 93.6832 143.767 93.6314C143.743 93.5796 146.242 92.4079 149.346 91.0131C152.45 89.6183 154.977 88.5224 155.009 88.5782Z" fill="#FF725E"/>
<path d="M155.925 79.4005C155.945 79.4523 153.45 80.6279 150.346 82.0227C147.241 83.4175 144.707 84.5054 144.683 84.4536C144.659 84.4018 147.158 83.2302 150.262 81.8314C153.366 80.4326 155.901 79.3566 155.925 79.4005Z" fill="#FF725E"/>
<path d="M154.096 71.2269C154.12 71.2787 151.621 72.4543 148.517 73.8491C145.412 75.2439 142.878 76.3318 142.854 76.28C142.83 76.2282 145.324 75.0526 148.433 73.6578C151.541 72.263 154.072 71.1751 154.096 71.2269Z" fill="#FF725E"/>
<path d="M154.096 62.4278C154.12 62.4796 151.621 63.6552 148.517 65.05C145.412 66.4448 142.878 67.5328 142.854 67.481C142.83 67.4292 145.324 66.2535 148.433 64.8587C151.541 63.4639 154.072 62.376 154.096 62.4278Z" fill="#FF725E"/>
<path d="M153.184 54.1426C153.208 54.1945 150.709 55.3661 147.604 56.7609C144.5 58.1557 141.965 59.2476 141.942 59.1958C141.918 59.144 144.412 57.9684 147.521 56.5736C150.629 55.1788 153.16 54.0908 153.184 54.1426Z" fill="#FF725E"/>
<path d="M145.313 48.3682C144.219 48.9744 143.092 49.5199 141.938 50.0021C140.811 50.5461 139.655 51.0278 138.475 51.4447C139.567 50.8356 140.694 50.29 141.85 49.8108C142.977 49.2667 144.133 48.7851 145.313 48.3682Z" fill="#FF725E"/>
<path d="M141.104 44.8333C140.009 45.4362 138.882 45.9803 137.729 46.4632C136.602 47.0073 135.446 47.4889 134.266 47.9058C135.36 47.3023 136.487 46.7595 137.641 46.2799C138.768 45.7344 139.924 45.2515 141.104 44.8333Z" fill="#FF725E"/>
<path d="M101.847 63.7786C101.867 63.8304 99.5113 64.7669 96.5862 65.8668C93.6611 66.9667 91.2701 67.8156 91.2501 67.7598C91.2302 67.704 93.5854 66.7715 96.5145 65.6716C99.4436 64.5717 101.827 63.7268 101.847 63.7786Z" fill="#FF725E"/>
<path d="M104.764 51.8869C104.788 51.9387 102.229 52.947 99.0609 54.1425C95.8927 55.338 93.2984 56.2546 93.2784 56.2028C93.2585 56.151 95.813 55.1388 98.9852 53.9472C102.157 52.7557 104.764 51.8311 104.764 51.8869Z" fill="#FF725E"/>
<path d="M112.443 40.1149C112.463 40.1707 109.223 41.434 105.206 42.9444C101.189 44.4548 97.9175 45.6344 97.8976 45.5825C97.8776 45.5307 101.118 44.2595 105.135 42.7491C109.152 41.2387 112.423 40.0631 112.443 40.1149Z" fill="#FF725E"/>
<path d="M169.049 115.223L168.881 115.167L168.403 114.98C168.192 114.904 167.917 114.844 167.606 114.757C167.234 114.684 166.857 114.638 166.478 114.617C164.776 114.51 162.226 115.127 159.759 116.976C158.424 117.988 157.227 119.171 156.2 120.495C155.057 121.894 153.937 123.476 152.666 125.07C151.372 126.78 149.824 128.281 148.075 129.522C146.16 130.813 143.996 131.69 141.722 132.096C139.449 132.505 137.114 132.428 134.872 131.869C132.803 131.326 130.792 130.58 128.87 129.641C127.017 128.784 125.284 127.912 123.634 127.19C122.099 126.513 120.507 125.975 118.876 125.584C117.531 125.266 116.153 125.109 114.771 125.114C113.728 125.122 112.69 125.263 111.682 125.532C111.049 125.718 110.433 125.96 109.841 126.254L109.387 126.493C109.337 126.524 109.283 126.549 109.228 126.569L109.375 126.477L109.821 126.218C110.407 125.905 111.023 125.65 111.658 125.457C112.671 125.171 113.715 125.017 114.767 124.998C116.16 124.98 117.55 125.129 118.907 125.441C120.546 125.827 122.147 126.36 123.69 127.035C125.355 127.752 127.089 128.629 128.938 129.474C130.853 130.403 132.855 131.14 134.916 131.674C137.133 132.227 139.442 132.303 141.691 131.897C143.936 131.495 146.074 130.63 147.967 129.358C149.703 128.132 151.241 126.647 152.526 124.955C153.797 123.361 154.917 121.79 156.077 120.388C157.113 119.06 158.318 117.874 159.664 116.861C162.166 115.012 164.753 114.406 166.474 114.541C166.857 114.567 167.238 114.618 167.614 114.697C167.933 114.796 168.208 114.86 168.411 114.944L168.885 115.151L169.049 115.223Z" fill="white"/>
<path d="M171.563 88.642C171.563 88.6619 171.28 88.6978 170.786 88.8612C170.099 89.1126 169.451 89.4601 168.861 89.8933C168.104 90.4234 167.267 91.1646 166.307 91.9297C165.247 92.7565 164.099 93.4635 162.884 94.0379C160.678 95.0951 158.288 95.7124 155.846 95.8551C155.38 95.895 154.953 95.883 154.583 95.891C154.212 95.8989 153.893 95.8671 153.634 95.8471L153.032 95.7874C152.963 95.7863 152.895 95.7742 152.829 95.7515C152.898 95.742 152.968 95.742 153.036 95.7515L153.638 95.7714H154.583C154.953 95.7515 155.38 95.7714 155.834 95.7077C158.249 95.5212 160.61 94.8903 162.796 93.8466C163.997 93.276 165.135 92.5815 166.191 91.7743C167.16 91.0251 168.001 90.2879 168.782 89.7818C169.39 89.3507 170.063 89.0173 170.774 88.7934C170.968 88.7382 171.165 88.6956 171.364 88.6659C171.429 88.6477 171.496 88.6397 171.563 88.642Z" fill="white"/>
<path d="M119.509 97.8757C119.436 97.8723 119.364 97.8617 119.293 97.8438C119.15 97.8119 118.939 97.78 118.672 97.7043C117.923 97.4829 117.206 97.1682 116.536 96.7678C115.553 96.1645 114.62 95.4836 113.746 94.7314C112.746 93.9025 111.678 92.958 110.454 92.1132C109.312 91.3059 108.03 90.718 106.673 90.3796C104.808 89.9207 102.859 89.9289 100.998 90.4035C100.468 90.539 100.181 90.6426 100.177 90.6227C100.238 90.5824 100.305 90.5515 100.376 90.5311C100.512 90.4793 100.711 90.3996 100.978 90.3238C101.724 90.1054 102.493 89.9717 103.269 89.9253C104.426 89.8399 105.589 89.9354 106.716 90.2083C108.1 90.5438 109.407 91.1374 110.57 91.9577C111.809 92.8146 112.877 93.767 113.87 94.5999C114.731 95.3544 115.647 96.0431 116.611 96.6602C117.267 97.0648 117.967 97.395 118.696 97.6446C118.971 97.7072 119.242 97.7843 119.509 97.8757Z" fill="white"/>
<path d="M119.577 60.204C119.362 60.3036 119.14 60.3849 118.911 60.4471C118.65 60.5392 118.384 60.6177 118.114 60.6822C117.799 60.7619 117.445 60.8695 117.042 60.9412C116.64 61.013 116.205 61.1126 115.727 61.1724C115.249 61.2321 114.743 61.2879 114.205 61.3358C113.036 61.4099 111.864 61.3952 110.698 61.2919C109.533 61.1754 108.378 60.9715 107.243 60.6822C106.725 60.5347 106.227 60.3993 105.776 60.2359C105.326 60.0725 104.903 59.921 104.529 59.7656C104.154 59.6102 103.82 59.4468 103.525 59.3113C103.23 59.1758 102.987 59.0443 102.787 58.9327C102.577 58.8275 102.374 58.7063 102.182 58.5701C102.402 58.6514 102.617 58.7486 102.823 58.861C103.026 58.9606 103.278 59.0842 103.572 59.2077C103.867 59.3312 104.202 59.4906 104.585 59.6261C104.967 59.7616 105.382 59.933 105.832 60.0725C106.282 60.2119 106.773 60.3554 107.291 60.4949C109.545 61.0633 111.872 61.2824 114.193 61.1445C114.727 61.1006 115.233 61.0727 115.707 61.001C116.181 60.9293 116.616 60.8695 117.014 60.7978C117.413 60.726 117.768 60.6384 118.082 60.5706C118.397 60.5029 118.668 60.4311 118.879 60.3714C119.108 60.2989 119.341 60.243 119.577 60.204Z" fill="white"/>
<path d="M169.3 60.1045C169.241 60.0829 169.185 60.0548 169.132 60.0208L168.67 59.7538C168.43 59.6078 168.183 59.4747 167.929 59.3552C167.601 59.1796 167.265 59.0213 166.92 58.881L166.323 58.63C166.111 58.5463 165.888 58.4825 165.657 58.4028C165.203 58.2354 164.697 58.1199 164.167 57.9804C161.85 57.4532 159.446 57.4328 157.121 57.9206C156.615 58.0277 156.115 58.1607 155.623 58.3191C155.391 58.3948 155.164 58.4546 154.953 58.5343L154.351 58.7734C154.005 58.9089 153.666 59.0618 153.335 59.2317C153.078 59.3484 152.829 59.4816 152.59 59.6302L152.12 59.8893C152.012 59.945 151.952 59.9729 151.948 59.965C151.994 59.9213 152.045 59.8838 152.1 59.8534L152.546 59.5585C152.782 59.4014 153.028 59.2602 153.283 59.1361C153.61 58.9524 153.949 58.7887 154.295 58.6459L154.897 58.3908C155.108 58.3072 155.34 58.2434 155.571 58.1637C156.066 57.9966 156.57 57.8569 157.081 57.7453C159.432 57.2296 161.869 57.2514 164.211 57.809C164.745 57.9525 165.255 58.076 165.713 58.2514C165.944 58.335 166.171 58.4028 166.378 58.4945L166.98 58.7575C167.323 58.9092 167.658 59.0781 167.984 59.2636C168.235 59.3938 168.478 59.5402 168.71 59.702L169.156 60.0048C169.256 60.0566 169.323 60.0965 169.3 60.1045Z" fill="white"/>
<path d="M144.934 33.0332C144.844 33.1009 144.748 33.1596 144.647 33.2085L143.818 33.6668C143.081 34.0654 142.013 34.6193 140.674 35.2888C138.004 36.6079 134.254 38.4131 129.814 39.537C127.727 40.0616 125.589 40.3582 123.438 40.4217C121.682 40.473 119.927 40.3219 118.205 39.9713C117.045 39.7384 115.911 39.3927 114.818 38.9392C114.42 38.7877 114.145 38.6283 113.945 38.5407C113.842 38.4963 113.742 38.4443 113.646 38.3853C113.755 38.4135 113.861 38.4536 113.961 38.5048C114.169 38.5805 114.455 38.728 114.85 38.8674C115.947 39.2898 117.079 39.6126 118.233 39.8319C119.947 40.1591 121.691 40.2928 123.434 40.2304C125.568 40.1563 127.688 39.8557 129.758 39.3337C134.17 38.2179 137.924 36.4445 140.606 35.1573L143.794 33.5911L144.615 33.1687C144.718 33.1166 144.825 33.0714 144.934 33.0332Z" fill="white"/>
<path d="M64.9365 102.471L78.2589 103.052L77.6412 117.172L64.3188 116.59L63.2946 140.05L45.76 139.285L46.7842 115.825L1.54883 113.848L1.58469 103.088L49.8049 33.8264L67.9054 34.6234L64.9365 102.471ZM19.1074 100.478L47.4019 101.713L49.2669 58.9209L48.8405 58.7575L47.2465 61.8061L19.1074 100.478Z" fill="#AF282B"/>
<path d="M76.0707 102.957L89.393 103.538L88.7753 117.658L75.453 117.076L74.4288 140.536L56.8942 139.771L57.9184 116.311L12.6631 114.318L12.699 103.558L60.9272 34.3245L79.0317 35.1215L76.0707 102.957ZM30.2416 100.964L58.556 102.199L60.421 59.407L59.9946 59.2436L58.4006 62.2922L30.2416 100.964Z" fill="#D33044"/>
<path d="M12.9421 105.627C12.8082 105.724 12.6639 105.805 12.5117 105.87C12.2288 106.013 11.8143 106.213 11.3162 106.452C10.292 106.934 8.86132 107.575 7.26328 108.253C5.66523 108.93 4.21066 109.504 3.15061 109.907C2.62058 110.106 2.1862 110.261 1.88732 110.365C1.73436 110.428 1.57551 110.476 1.41309 110.509C1.5529 110.418 1.70267 110.345 1.85942 110.289L3.09482 109.767L7.16763 108.05L11.2404 106.308L12.4798 105.782C12.6282 105.715 12.7831 105.663 12.9421 105.627Z" fill="#FF725E"/>
<path d="M19.4304 93.7031C19.2373 93.8217 19.0362 93.9269 18.8287 94.018C18.4302 94.2092 17.8643 94.4802 17.1549 94.815C15.7322 95.4606 13.7596 96.3254 11.5757 97.2539C9.39187 98.1824 7.3714 98.9755 5.93276 99.5414C5.20747 99.8283 4.61766 100.051 4.20321 100.199C3.99494 100.288 3.7788 100.357 3.55762 100.406C3.75667 100.298 3.96307 100.203 4.17531 100.123L5.87697 99.4059L11.5 97.0427L17.1111 94.6516L18.8127 93.9303C19.0111 93.8355 19.2179 93.7594 19.4304 93.7031Z" fill="#FF725E"/>
<path d="M27.3488 83.0508C27.1483 83.1746 26.9376 83.2813 26.7191 83.3696C26.3206 83.5609 25.7109 83.8319 24.9696 84.1666C23.4832 84.8162 21.4229 85.681 19.1354 86.6095C16.8479 87.538 14.7517 88.347 13.2414 88.9169C12.4842 89.1999 11.8665 89.423 11.4401 89.5705C11.2224 89.6599 10.9969 89.7292 10.7666 89.7777C10.9754 89.6695 11.1911 89.575 11.4122 89.4948L13.1896 88.7774L19.0557 86.4142L24.9099 84.0232L26.6872 83.3018C26.901 83.2012 27.1221 83.1173 27.3488 83.0508Z" fill="#FF725E"/>
<path d="M59.0659 95.3411C58.9301 95.435 58.7845 95.5139 58.6316 95.5762C58.3486 95.7157 57.9342 95.907 57.4161 96.1381C56.3879 96.6044 54.9533 97.2221 53.3552 97.8716C51.7572 98.5212 50.2946 99.0672 49.2346 99.4657C48.7006 99.657 48.2702 99.8084 47.9713 99.908C47.8177 99.9667 47.6589 100.011 47.4971 100.04C47.6359 99.9533 47.7843 99.8838 47.9394 99.8323L49.1828 99.3302L53.2795 97.6883L57.3603 96.0146L58.5997 95.5084C58.7485 95.4357 58.9048 95.3796 59.0659 95.3411Z" fill="#FF725E"/>
<path d="M57.7745 117.235C57.6442 117.329 57.5039 117.408 57.3561 117.47C57.0811 117.606 56.6786 117.801 56.1804 118.032C55.1842 118.499 53.7894 119.116 52.2471 119.762C50.7049 120.408 49.2782 120.957 48.262 121.356C47.7439 121.547 47.3255 121.699 47.0345 121.794C46.8859 121.856 46.7309 121.902 46.5723 121.93C46.7073 121.843 46.8517 121.773 47.0027 121.719L48.1982 121.217L52.1833 119.579L56.1366 117.905L57.3322 117.403C57.4733 117.332 57.6216 117.276 57.7745 117.235Z" fill="#FF725E"/>
<path d="M57.5919 124.911C57.4682 125.002 57.3345 125.08 57.1934 125.142C56.9184 125.281 56.5159 125.473 55.9978 125.708C55.0015 126.17 53.6067 126.788 52.0605 127.437C50.5143 128.087 49.0956 128.633 48.0754 129.031C47.5613 129.223 47.1428 129.374 46.8479 129.474C46.7016 129.537 46.5475 129.582 46.3896 129.605C46.526 129.522 46.6702 129.453 46.82 129.398L48.0156 128.896L52.0007 127.258L55.958 125.584L57.1535 125.082C57.292 125.007 57.4392 124.949 57.5919 124.911Z" fill="#FF725E"/>
<path d="M57.4083 132.582C57.2836 132.674 57.1501 132.752 57.0098 132.817C56.7348 132.957 56.3323 133.148 55.8142 133.379C54.814 133.846 53.4231 134.463 51.8769 135.109C50.3307 135.754 48.912 136.304 47.8918 136.703C47.3777 136.894 46.9553 137.046 46.6643 137.141C46.5167 137.202 46.3631 137.248 46.2061 137.277C46.341 137.19 46.4854 137.119 46.6365 137.066L47.832 136.567L51.8171 134.926L55.7744 133.252L56.9699 132.75C57.1095 132.678 57.2565 132.622 57.4083 132.582Z" fill="#FF725E"/>
<path d="M59.2736 87.2354C59.1366 87.3274 58.9911 87.4062 58.8392 87.4705C58.5562 87.61 58.1418 87.8012 57.6436 88.0324C56.6155 88.4986 55.1808 89.1163 53.5828 89.7659C51.9847 90.4155 50.5222 90.9615 49.4621 91.36C48.9281 91.5513 48.4977 91.7027 48.1988 91.7983C48.0457 91.8592 47.8868 91.9046 47.7246 91.9338C47.8626 91.8451 48.0112 91.7741 48.167 91.7226L49.4103 91.2205L53.5071 89.5826L57.5878 87.9088L58.8272 87.4067C58.9695 87.3339 59.1191 87.2765 59.2736 87.2354Z" fill="#FF725E"/>
<path d="M59.481 79.1294C59.344 79.2215 59.1986 79.3002 59.0466 79.3645C58.7637 79.5 58.3492 79.6953 57.8311 79.9264C56.803 80.3927 55.3683 81.0104 53.7703 81.656C52.1722 82.3016 50.7137 82.8515 49.6496 83.25C49.1156 83.4413 48.6852 83.5888 48.3863 83.6884C48.2332 83.7492 48.0743 83.7946 47.9121 83.8239C48.0512 83.7347 48.2013 83.6637 48.3584 83.6127L49.5978 83.1106L53.6946 81.4727L57.7753 79.7989L59.0147 79.2968C59.1635 79.224 59.3199 79.1679 59.481 79.1294Z" fill="#FF725E"/>
<path d="M59.6884 71.0237C59.5634 71.1112 59.4299 71.186 59.2899 71.2468C59.0229 71.3784 58.6284 71.5617 58.1382 71.7848C57.1539 72.2312 55.791 72.825 54.2687 73.4387C52.7463 74.0524 51.3515 74.5824 50.3393 74.9451C49.8332 75.1244 49.4227 75.2679 49.1438 75.3436C48.9976 75.4029 48.8452 75.4457 48.6895 75.4711C48.8233 75.3871 48.9664 75.3189 49.1159 75.2679L50.3114 74.7896L54.2129 73.2315L58.1024 71.6374L59.2979 71.1592C59.4226 71.0995 59.5536 71.054 59.6884 71.0237Z" fill="#FF725E"/>
<path d="M60.6048 63.448C59.9685 63.7924 59.3014 64.0766 58.6122 64.2968C57.9451 64.5808 57.2526 64.801 56.5439 64.9544C57.1802 64.6088 57.8473 64.3233 58.5365 64.1016C59.2033 63.8176 59.8959 63.5987 60.6048 63.448Z" fill="#FF725E"/>
<path d="M35.251 72.02C35.0501 72.1406 34.841 72.2471 34.6254 72.3388C34.2269 72.5301 33.6171 72.7971 32.8719 73.1359C31.3894 73.7854 29.3291 74.6502 27.0377 75.5788C24.7462 76.5073 22.654 77.3203 21.1476 77.8862C20.3904 78.1691 19.7728 78.3923 19.3463 78.5397C19.1269 78.6253 18.9019 78.6958 18.6729 78.7509C18.8794 78.637 19.0954 78.541 19.3184 78.464L21.0958 77.7507L26.9619 75.3715L32.8161 72.9804L34.5895 72.2591C34.8045 72.1648 35.0255 72.085 35.251 72.02Z" fill="#FF725E"/>
<path d="M43.1573 60.9851C42.9568 61.109 42.7461 61.2156 42.5276 61.3039C42.1291 61.4952 41.5194 61.7662 40.7782 62.1009C39.2957 62.7465 37.2314 63.6153 34.9439 64.5399C32.6564 65.4644 30.5603 66.2814 29.0539 66.8473C28.2927 67.1342 27.679 67.3574 27.2486 67.5048C27.0319 67.5932 26.8079 67.6625 26.5791 67.712C26.7858 67.6021 27.0002 67.5076 27.2207 67.4291L28.9981 66.7118L34.8642 64.3486L40.7224 61.9575L42.4958 61.2322C42.7099 61.1336 42.931 61.0511 43.1573 60.9851Z" fill="#FF725E"/>
<path d="M50.462 49.9543C50.2599 50.0753 50.0495 50.1819 49.8323 50.2732C49.4338 50.4644 48.8241 50.7314 48.0829 51.0702C46.6004 51.7198 44.5361 52.5845 42.2486 53.5131C39.9611 54.4416 37.8649 55.2546 36.3586 55.8205C35.6014 56.1034 34.9837 56.3266 34.5573 56.474C34.3378 56.5596 34.1128 56.6302 33.8838 56.6853C34.0904 56.5713 34.3064 56.4753 34.5294 56.3983L36.3068 55.685L42.1729 53.3218L48.0271 50.9307L49.8005 50.2094C50.013 50.1051 50.2344 50.0197 50.462 49.9543Z" fill="#FF725E"/>
<path d="M58.0656 39.3457C57.8629 39.4656 57.6525 39.5721 57.4359 39.6645C57.0374 39.8558 56.4277 40.1228 55.6864 40.4615C54.2 41.1111 52.1397 41.9759 49.8522 42.9044C47.5647 43.833 45.4685 44.6459 43.9582 45.2118C43.201 45.4948 42.5873 45.7179 42.1569 45.8654C41.9379 45.9523 41.7128 46.0229 41.4834 46.0766C41.6905 45.9637 41.9064 45.8677 42.129 45.7897L43.9064 45.0763L49.7685 42.6932L55.6227 40.3021L57.4001 39.5808C57.6158 39.4862 57.8383 39.4076 58.0656 39.3457Z" fill="#FF725E"/>
<path d="M78.2389 55.5534C78.1723 55.6497 78.0947 55.738 78.0078 55.8164C77.7824 56.0639 77.5415 56.2969 77.2865 56.5138C76.3569 57.3253 75.3138 57.9966 74.19 58.5064C72.514 59.2595 70.703 59.6662 68.8659 59.7019C67.78 59.7219 66.6962 59.6 65.6419 59.3393C64.5165 59.051 63.425 58.6436 62.386 58.1238C60.242 57.0797 58.3371 55.8483 56.4761 54.9915C54.8448 54.1918 53.0695 53.7283 51.2555 53.6286C50.0333 53.5659 48.8137 53.794 47.6968 54.2941C47.3957 54.4352 47.1065 54.6005 46.832 54.7882C46.7383 54.8576 46.6397 54.9202 46.5371 54.9755C46.6221 54.8961 46.7127 54.8229 46.8081 54.7564C47.0757 54.553 47.3611 54.3743 47.6609 54.2223C48.7788 53.6884 50.0096 53.434 51.2476 53.4811C53.0871 53.5684 54.8895 54.0308 56.5438 54.84C58.4248 55.6968 60.3377 56.9243 62.4617 57.9604C63.4906 58.4698 64.5698 58.8704 65.6817 59.1559C66.7176 59.4141 67.7825 59.5374 68.8499 59.5226C71.9093 59.4805 74.8622 58.3936 77.2187 56.4421C77.5575 56.1711 77.7966 55.932 77.9639 55.7765C78.0496 55.695 78.1415 55.6204 78.2389 55.5534Z" fill="white"/>
<path d="M72.6915 35.8508C72.5309 35.9624 72.3616 36.061 72.1854 36.1457C71.8546 36.3251 71.3605 36.5442 70.7388 36.8232C70.0101 37.1297 69.2651 37.3957 68.5071 37.6202C66.65 38.1746 64.7294 38.488 62.7924 38.5528C61.9951 38.5818 61.1968 38.5659 60.4013 38.5049C59.7278 38.4531 59.2058 38.3894 58.8073 38.3216C58.613 38.2998 58.421 38.2612 58.2334 38.2061C58.4294 38.1992 58.6255 38.2112 58.8192 38.2419C59.1898 38.2858 59.7318 38.3256 60.4133 38.3575C61.0947 38.3894 61.8838 38.3973 62.7685 38.3575C63.7268 38.31 64.682 38.2116 65.6298 38.0626C66.57 37.9011 67.5011 37.6909 68.4194 37.4329C69.2683 37.1859 70.0135 36.9308 70.6471 36.6837C71.2808 36.4366 71.7709 36.2254 72.1137 36.07C72.2989 35.9787 72.4923 35.9053 72.6915 35.8508Z" fill="white"/>
<path d="M44.3973 80.1097C44.2659 79.988 44.1459 79.8546 44.0386 79.7112L43.0981 78.5874C42.0484 77.3659 40.9336 76.2019 39.7586 75.1004C39.1206 74.4953 38.4191 73.9608 37.6664 73.5063C37.0506 73.1379 36.3769 72.8765 35.6738 72.7332C35.0214 72.6166 34.3536 72.6166 33.7012 72.7332C33.7012 72.7332 33.745 72.7093 33.8327 72.6814C33.9624 72.6385 34.0958 72.6078 34.2312 72.5897C34.7206 72.5075 35.2203 72.5075 35.7097 72.5897C36.4359 72.716 37.1336 72.9711 37.77 73.3429C38.5437 73.799 39.2618 74.3433 39.91 74.9649C41.0936 76.0689 42.1988 77.2541 43.2177 78.5116C43.6162 78.9938 43.9111 79.3963 44.1104 79.6753C44.2212 79.8095 44.3174 79.9551 44.3973 80.1097Z" fill="white"/>
<path d="M76.1862 92.149C76.1862 92.149 76.1344 92.1969 76.0308 92.2686C75.9272 92.3403 75.7717 92.4559 75.5565 92.5755C74.9582 92.9263 74.3301 93.2237 73.6795 93.4641C71.5244 94.278 69.1828 94.4648 66.9259 94.0028C64.669 93.5409 62.5891 92.4491 60.9271 90.8539C60.4232 90.3806 59.9643 89.8616 59.5562 89.3036C59.4087 89.1084 59.3131 88.945 59.2414 88.8374C59.1696 88.7298 59.1378 88.67 59.1457 88.666C59.3144 88.8539 59.4727 89.0508 59.62 89.2558C60.0507 89.7873 60.5209 90.2856 61.0267 90.7463C62.6902 92.2837 64.7426 93.3367 66.9617 93.7912C69.1807 94.2457 71.4818 94.0843 73.6158 93.3246C74.262 93.1007 74.8896 92.8262 75.4928 92.5037C75.7173 92.3729 75.9488 92.2545 76.1862 92.149Z" fill="white"/>
<path d="M87.7948 117.383C87.7948 117.383 87.755 117.323 87.6832 117.196C87.6115 117.068 87.4999 116.885 87.3644 116.646C86.9646 115.937 86.5088 115.261 86.0015 114.625L85.4595 113.988L85.1686 113.641L84.8299 113.31L84.1125 112.601L83.2757 111.907C81.9391 110.845 80.4644 109.97 78.892 109.305C76.9939 108.502 74.9718 108.032 72.9143 107.914C70.5459 107.787 68.1777 108.168 65.9682 109.03C63.6369 109.947 61.3853 111.33 59.0022 112.669C57.7952 113.366 56.5454 113.986 55.2601 114.526C53.9281 115.086 52.5233 115.455 51.0877 115.622C49.651 115.766 48.2005 115.679 46.7917 115.362C45.428 115.063 44.1011 114.615 42.8344 114.027C40.4617 112.879 38.2038 111.508 36.0916 109.931C34.0472 108.476 32.1064 107.069 30.1896 105.946C28.4272 104.866 26.5168 104.05 24.5187 103.523C22.863 103.115 21.1485 103.002 19.4536 103.188C18.1739 103.321 16.9283 103.681 15.7753 104.252C15.054 104.621 14.3841 105.084 13.7827 105.627L13.3205 106.057C13.2208 106.157 13.165 106.205 13.165 106.205C13.165 106.205 13.2089 106.149 13.3085 106.041L13.7429 105.575C14.3406 105.016 15.0108 104.54 15.7355 104.16C16.894 103.571 18.1496 103.195 19.4416 103.052C21.1507 102.852 22.8818 102.956 24.5546 103.359C26.5687 103.884 28.4962 104.697 30.2772 105.774C32.218 106.898 34.1548 108.301 36.2032 109.759C38.3075 111.324 40.556 112.685 42.9181 113.824C44.1698 114.411 45.4821 114.859 46.8315 115.159C48.2209 115.47 49.6511 115.556 51.0677 115.414C52.481 115.25 53.8642 114.888 55.1764 114.338C56.4535 113.801 57.6965 113.186 58.8985 112.497C61.2896 111.162 63.5372 109.775 65.8885 108.855C66.4685 108.627 67.0621 108.435 67.6659 108.281C67.9647 108.205 68.2596 108.114 68.5545 108.054L69.4472 107.906C70.5945 107.735 71.7562 107.682 72.9143 107.747C74.9965 107.871 77.0417 108.354 78.9598 109.174C80.5333 109.855 82.0078 110.745 83.3434 111.82C83.6303 112.063 83.9093 112.302 84.1803 112.525L84.8936 113.246L85.2284 113.581C85.328 113.701 85.4276 113.816 85.5193 113.932C85.7106 114.159 85.8899 114.374 86.0573 114.581C86.5606 115.224 87.0073 115.91 87.3923 116.63C87.5225 116.874 87.6221 117.061 87.6912 117.192C87.7669 117.315 87.7948 117.383 87.7948 117.383Z" fill="white"/>
<path d="M75.7524 134.029C75.6872 134.055 75.6189 134.072 75.5491 134.081L74.9593 134.192C74.6498 134.255 74.3372 134.301 74.0228 134.332C73.6562 134.368 73.2258 134.427 72.7715 134.439L72.0382 134.471C71.7872 134.471 71.5202 134.471 71.2412 134.471C70.6952 134.471 70.1094 134.419 69.4957 134.372C68.1656 134.226 66.85 133.97 65.5624 133.606C64.2809 133.221 63.0333 132.73 61.8323 132.14C61.2903 131.849 60.7682 131.582 60.306 131.283C60.0748 131.14 59.8437 131.008 59.6325 130.885L59.0347 130.466C58.6362 130.207 58.3293 129.932 58.0384 129.701C57.787 129.508 57.5462 129.302 57.3171 129.083C57.1457 128.916 56.9983 128.78 56.8827 128.685C56.8286 128.639 56.7804 128.587 56.7393 128.529C56.801 128.564 56.8585 128.605 56.9106 128.653L57.3729 129.051C57.5682 129.219 57.8113 129.422 58.1101 129.637C58.409 129.852 58.7278 130.123 59.1184 130.374L59.7201 130.773C59.9314 130.912 60.1625 131.04 60.3936 131.171C60.8559 131.462 61.378 131.721 61.9199 132.004C64.3034 133.179 66.8741 133.928 69.5156 134.216C70.1254 134.268 70.7112 134.332 71.2492 134.336C71.5201 134.336 71.7832 134.36 72.0462 134.336H72.7715C73.2338 134.336 73.6522 134.284 74.0188 134.26C74.3855 134.236 74.7003 134.196 74.9553 134.156L75.5491 134.085C75.6137 134.056 75.6822 134.037 75.7524 134.029Z" fill="white"/>
<path d="M204.321 76.6626C204.141 76.8109 203.949 76.9442 203.747 77.0611C203.348 77.3082 202.81 77.6589 202.121 78.0853C200.746 78.9341 198.825 80.0779 196.689 81.3212C194.553 82.5646 192.605 83.6605 191.182 84.4336C190.472 84.8321 189.891 85.131 189.488 85.3382C189.284 85.4523 189.072 85.5522 188.854 85.6371C189.043 85.4976 189.243 85.3736 189.452 85.2665L191.11 84.3061L196.586 81.1419L202.045 77.9538L203.703 76.9894C203.901 76.8657 204.107 76.7565 204.321 76.6626Z" fill="#FF725E"/>
<path d="M210.597 64.6116C210.415 64.7591 210.222 64.8923 210.019 65.0101C209.621 65.2572 209.087 65.6079 208.397 66.0343C207.019 66.8831 205.098 68.0268 202.966 69.2702C200.834 70.5136 198.877 71.6095 197.454 72.3826C196.745 72.7811 196.167 73.08 195.765 73.2872C195.56 73.4028 195.347 73.5027 195.127 73.5861C195.317 73.4478 195.516 73.3239 195.725 73.2155L197.383 72.2551L202.858 69.0909L208.322 65.9028L209.98 64.9384C210.177 64.8137 210.383 64.7045 210.597 64.6116Z" fill="#FF725E"/>
<path d="M214.514 83.3855C214.371 83.2806 214.238 83.1633 214.116 83.0348L213.024 82.0585C211.814 80.9959 210.547 79.9995 209.23 79.0736C208.513 78.5583 207.742 78.1227 206.931 77.7744C206.269 77.4969 205.566 77.3338 204.85 77.2922C204.188 77.2646 203.525 77.3536 202.894 77.5552C202.894 77.5552 202.933 77.5234 203.017 77.4835C203.138 77.4261 203.263 77.3781 203.392 77.34C203.866 77.1935 204.362 77.1275 204.858 77.1448C205.594 77.1679 206.32 77.3217 207.002 77.5991C207.831 77.9414 208.617 78.3787 209.346 78.9022C210.674 79.8299 211.936 80.8486 213.123 81.9509C213.578 82.3733 213.92 82.7479 214.172 82.979C214.301 83.1011 214.416 83.2374 214.514 83.3855Z" fill="white"/>
<path d="M170.152 73.9925L167.363 73.5542L150.079 67.975L139.973 65.0539C138.553 64.5417 137.042 64.3304 135.536 64.4333C134.031 64.5362 132.563 64.9511 131.226 65.6516C126.443 68.0826 113.269 80.3489 113.269 80.3489L122.757 90.1324L118.29 109.931C123.291 124.15 133.083 125.779 133.083 125.779C137.869 125.984 142.645 125.194 147.11 123.46C156.201 120.005 165.737 111.871 166.932 108.376C167.65 106.28 168.244 101.873 168.714 96.8952L183.108 91.029L187.01 71.1033L170.152 73.9925Z" fill="#CD9798"/>
<path d="M149.126 109.245C149.126 109.245 149.082 109.293 148.986 109.369C148.891 109.444 148.751 109.56 148.556 109.687C148.012 110.054 147.433 110.365 146.827 110.616C144.81 111.475 142.575 111.686 140.433 111.219C138.291 110.752 136.347 109.63 134.871 108.01C134.422 107.527 134.021 107.001 133.676 106.44C133.552 106.244 133.476 106.081 133.417 105.973C133.385 105.92 133.36 105.864 133.341 105.806C133.486 105.994 133.619 106.191 133.739 106.396C134.104 106.934 134.514 107.439 134.967 107.906C136.442 109.472 138.355 110.555 140.457 111.014C142.558 111.474 144.749 111.288 146.743 110.48C147.347 110.244 147.93 109.954 148.484 109.616C148.907 109.365 149.114 109.221 149.126 109.245Z" fill="#263238"/>
<path d="M143.659 68.7998C143.675 68.8297 143.685 68.862 143.691 68.8955C143.711 68.9712 143.734 69.0628 143.762 69.1784C143.822 69.4255 143.906 69.7961 144.005 70.2703C144.3 71.6125 144.491 72.9755 144.575 74.3471C144.626 75.2987 144.572 76.253 144.412 77.1925C144.219 78.2761 143.834 79.3165 143.276 80.2651C142.629 81.2904 141.833 82.2132 140.913 83.0029C139.976 83.8397 138.94 84.5969 137.884 85.4179C135.637 87.1036 133.453 88.6299 131.508 90.0167C129.563 91.4035 127.83 92.6429 126.451 93.687L126.407 93.7229L126.363 93.687C125.39 92.9152 124.467 92.0833 123.598 91.1963C123.363 90.9576 123.145 90.7018 122.948 90.4312C122.88 90.3395 122.84 90.2638 122.808 90.216C122.792 90.1904 122.778 90.1637 122.765 90.1363C122.765 90.1363 122.84 90.2319 122.98 90.4073C123.189 90.665 123.413 90.9111 123.649 91.1445C124.536 92.0046 125.467 92.8174 126.439 93.5794H126.351C127.722 92.5194 129.436 91.2561 131.388 89.8653C133.341 88.4745 135.517 86.9402 137.765 85.2545C138.817 84.4574 139.853 83.6803 140.781 82.8634C141.689 82.0887 142.476 81.1834 143.117 80.1774C143.669 79.2528 144.051 78.2363 144.245 77.1766C144.41 76.2484 144.473 75.3049 144.432 74.3631C144.361 72.998 144.193 71.6396 143.93 70.2982C143.842 69.832 143.774 69.4653 143.723 69.1983C143.701 69.0841 143.685 68.9884 143.675 68.9114C143.663 68.8755 143.657 68.8377 143.659 68.7998Z" fill="#263238"/>
<path d="M218.711 77.7626C222.756 74.2915 224.127 68.0468 221.899 63.2048L216.201 62.619C217.635 61.8288 218.797 60.6236 219.534 59.1615C220.272 57.6994 220.55 56.0487 220.333 54.4256C218.757 56.0572 216.709 57.1552 214.478 57.5661C212.246 57.9769 209.942 57.6801 207.888 56.717C205.226 55.4019 203.066 52.9511 200.141 52.437C197.486 51.9707 194.876 53.234 192.334 54.1187C189.791 55.0034 186.715 55.5175 184.61 53.8318C182.945 52.4968 182.427 50.1575 182.534 48.0214C182.642 45.8854 183.26 43.8052 183.391 41.6731C183.486 39.5754 183.122 37.4821 182.325 35.5396C181.527 33.5971 180.314 31.8523 178.772 30.427C178.256 28.7297 177.336 27.1831 176.09 25.9206C174.843 24.6582 173.309 23.7176 171.618 23.18C169.928 22.6423 168.132 22.5237 166.385 22.8344C164.639 23.1451 162.994 23.8758 161.592 24.9634C160.345 25.9278 159.293 27.1752 157.878 27.8726C156.284 28.6696 154.423 28.6696 152.697 29.0681C150.972 29.4666 149.151 30.6383 148.967 32.4116L148.27 36.0421C148.154 36.3011 148.031 36.5562 147.871 36.8073C146.405 39.3817 143.4 41.0753 142.743 43.9805C142.376 45.6025 142.83 47.3599 142.284 48.9301C141.563 50.9983 139.331 52.162 138.299 54.0868C136.872 56.733 137.841 61.3677 140.124 63.3204C142.408 65.2731 147.114 67.3454 150.055 67.9711C150.852 64.9145 151.558 61.6466 152.239 58.3031C153.435 59.4548 154.698 60.5507 155.949 61.6387C159.221 64.4841 162.565 67.3733 164.836 71.0675C169.152 78.0933 169.22 87.4066 174.66 93.5995C175.724 94.815 177.019 95.895 178.565 96.3652C180.111 96.8354 181.944 96.5844 183.088 95.4446C184.439 94.0977 184.614 91.8261 186.109 90.6425C188.101 89.0684 190.995 90.3237 193.127 91.6906C194.673 92.679 196.219 93.7231 197.969 94.265C199.718 94.807 201.759 94.7711 203.249 93.7031C204.739 92.6351 205.393 90.3556 204.317 88.8692C203.887 88.2754 203.245 87.8609 202.819 87.2751C202.392 86.6893 202.269 85.7328 202.854 85.2825C203.44 84.8322 204.401 85.2825 205.098 85.681C206.809 86.6866 208.722 87.2984 210.699 87.472C212.676 87.6457 214.667 87.3768 216.527 86.6849C218.387 85.993 220.07 84.8955 221.453 83.4721C222.835 82.0488 223.884 80.3352 224.522 78.456C222.558 78.7499 220.551 78.5104 218.711 77.7626Z" fill="#0C111D"/>
<path d="M215.152 46.4991C215.335 46.6317 215.507 46.7782 215.666 46.9375C216.147 47.385 216.551 47.9087 216.862 48.4877C217.078 48.9095 217.226 49.3627 217.3 49.8307C217.392 50.4369 217.307 51.0567 217.055 51.6158C216.804 52.1749 216.396 52.6495 215.882 52.9829C215.579 53.179 215.235 53.303 214.877 53.3456C214.498 53.3858 214.114 53.331 213.761 53.1862C212.283 52.5804 211.538 50.8708 209.94 50.1096C208.381 49.2847 206.389 49.2289 204.476 49.6673C202.563 50.1056 200.694 51.1458 198.809 52.2058C196.924 53.2659 194.92 54.4016 192.612 54.7962C191.48 55.0155 190.315 55.0074 189.185 54.7722C188.63 54.6458 188.094 54.4475 187.591 54.1824C187.102 53.9148 186.652 53.5823 186.252 53.1941C185.492 52.4217 184.908 51.4947 184.538 50.4763C184.177 49.5098 183.938 48.5016 183.829 47.4755C183.618 45.4829 183.785 43.57 183.805 41.8046C183.885 40.1664 183.722 38.5255 183.323 36.9347C183.133 36.2479 182.878 35.5807 182.562 34.9422C182.285 34.3678 181.961 33.8173 181.593 33.2963C181.011 32.4583 180.327 31.6954 179.557 31.0248C179.067 30.6039 178.546 30.2202 177.999 29.8771L177.564 29.618L177.421 29.5264C177.475 29.5464 177.527 29.5718 177.576 29.6021L178.023 29.8412C179.471 30.6988 180.721 31.8548 181.689 33.2326C182.486 34.3437 183.086 35.584 183.462 36.8989C183.878 38.5006 184.051 40.1555 183.976 41.8086C183.976 43.586 183.805 45.4829 184.02 47.4555C184.129 48.4638 184.363 49.4545 184.718 50.4045C185.08 51.395 185.651 52.2961 186.391 53.0467C186.776 53.4232 187.21 53.745 187.683 54.0031C188.169 54.2557 188.684 54.4472 189.217 54.573C190.321 54.7988 191.458 54.8056 192.564 54.5929C194.828 54.1944 196.813 53.0825 198.698 52.0265C200.583 50.9704 202.444 49.9303 204.42 49.48C205.377 49.2546 206.361 49.1714 207.341 49.2329C207.811 49.2658 208.277 49.3418 208.732 49.4601C209.174 49.5795 209.602 49.7465 210.007 49.9582C211.661 50.7552 212.398 52.4848 213.805 53.0467C214.126 53.1833 214.476 53.2388 214.823 53.2082C215.171 53.1777 215.506 53.0619 215.798 52.8713C216.334 52.5335 216.751 52.0378 216.993 51.4526C217.203 50.9492 217.272 50.3982 217.193 49.8586C217.131 49.4003 216.997 48.9549 216.794 48.5395C216.499 47.9648 216.118 47.4392 215.662 46.9813C215.507 46.8219 215.383 46.7063 215.3 46.6306C215.216 46.5549 215.152 46.4991 215.152 46.4991Z" fill="#263238"/>
<path d="M150.015 69.5013C150.015 69.5013 150.015 69.4415 149.983 69.3219C149.963 69.1452 149.927 68.9705 149.876 68.7999C149.692 68.1398 149.358 67.5314 148.899 67.0225C148.159 66.2293 147.259 65.603 146.257 65.1854C145.102 64.6553 143.667 64.3883 142.097 64.1014C140.527 63.8145 138.745 63.4718 137.143 62.4037C136.254 61.8029 135.507 61.0145 134.954 60.0941C134.402 59.1736 134.058 58.1434 133.946 57.0757C133.834 56.0081 133.958 54.929 134.308 53.9141C134.658 52.8993 135.226 51.9734 135.972 51.2015C137.621 49.5078 139.957 48.6669 141.862 47.1805C142.329 46.8059 142.749 46.3764 143.113 45.9013C143.456 45.4166 143.714 44.8777 143.878 44.3072C144.197 43.1754 144.169 41.9918 144.277 40.8401C144.32 40.2629 144.427 39.6922 144.595 39.1385C144.772 38.59 145.058 38.083 145.436 37.648C146.22 36.8626 147.206 36.3106 148.286 36.054C149.31 35.7551 150.33 35.5678 151.291 35.3048C152.23 35.0649 153.119 34.6601 153.917 34.1092C154.653 33.5882 155.314 32.9688 155.881 32.2681C156.413 31.6403 156.91 30.983 157.368 30.2994C158.249 28.9684 159.002 27.721 159.803 26.7128C160.466 25.8425 161.248 25.0698 162.126 24.4174C162.684 24.0078 163.305 23.6903 163.963 23.4769C164.19 23.3973 164.423 23.3386 164.661 23.3015C164.661 23.3015 164.418 23.3573 163.975 23.5167C163.328 23.7442 162.721 24.0709 162.174 24.4851C161.311 25.1414 160.543 25.9154 159.894 26.7845C159.097 27.7808 158.364 29.0242 157.503 30.3712C157.05 31.079 156.555 31.759 156.021 32.4076C155.445 33.1221 154.775 33.755 154.028 34.2886C153.215 34.8407 152.312 35.2454 151.358 35.4841C150.386 35.7551 149.366 35.9424 148.357 36.2413C147.313 36.4857 146.358 37.0171 145.6 37.7756C145.242 38.1902 144.97 38.6726 144.803 39.1943C144.639 39.7338 144.536 40.2898 144.496 40.8521C144.388 41.9918 144.42 43.1834 144.097 44.359C143.927 44.9475 143.657 45.5027 143.3 46.0009C142.925 46.49 142.491 46.9316 142.009 47.316C141.033 48.0347 140.009 48.6858 138.945 49.2647C137.93 49.8251 136.992 50.515 136.155 51.3171C135.428 52.0688 134.874 52.9704 134.532 53.9586C134.19 54.9469 134.069 55.998 134.176 57.0382C134.283 58.0785 134.616 59.0828 135.152 59.9807C135.688 60.8786 136.414 61.6485 137.279 62.2364C138.833 63.2845 140.602 63.6192 142.161 63.934C143.719 64.2489 145.173 64.5079 146.337 65.0539C147.349 65.4843 148.256 66.1287 148.995 66.9428C149.454 67.4654 149.782 68.0897 149.952 68.764C149.997 68.9375 150.027 69.115 150.039 69.294C150.015 69.4415 150.015 69.5013 150.015 69.5013Z" fill="#263238"/>
<path d="M181.833 33.7268C181.728 33.7164 181.626 33.6895 181.53 33.6471C181.258 33.5581 180.992 33.4516 180.733 33.3283C179.008 32.5157 177.535 31.2499 176.473 29.6659C176.313 29.4278 176.168 29.1803 176.039 28.9247C175.982 28.8352 175.94 28.7369 175.915 28.6338C175.943 28.6338 176.17 29.0004 176.593 29.5783C177.699 31.09 179.137 32.3279 180.797 33.1968C181.43 33.5275 181.849 33.6949 181.833 33.7268Z" fill="#455A64"/>
<path d="M195.083 60.9094C195.083 60.9094 194.832 60.8456 194.382 60.75C193.744 60.6152 193.096 60.5352 192.445 60.5109C191.48 60.4846 190.514 60.5126 189.552 60.5946C188.46 60.6703 187.257 60.7819 185.985 60.754C184.781 60.754 183.588 60.5297 182.466 60.0924C181.556 59.7121 180.747 59.1222 180.107 58.3709C179.678 57.8633 179.368 57.2653 179.203 56.6214C179.159 56.4475 179.131 56.2702 179.119 56.0914C179.11 56.0292 179.11 55.9662 179.119 55.9041C179.143 55.9041 179.155 56.1591 179.282 56.6015C179.476 57.2194 179.798 57.7896 180.227 58.2752C180.862 58.9946 181.656 59.5566 182.546 59.9171C183.648 60.3329 184.816 60.5462 185.993 60.5467C187.249 60.5746 188.448 60.471 189.544 60.4033C190.513 60.3278 191.486 60.3145 192.457 60.3634C193.115 60.4018 193.768 60.5046 194.406 60.6703C194.579 60.7161 194.749 60.7707 194.916 60.8337C194.975 60.8499 195.032 60.8755 195.083 60.9094Z" fill="#455A64"/>
<path d="M218.568 79.0299C218.568 79.0299 218.532 79.0299 218.452 79.0817C218.339 79.1334 218.22 79.1722 218.098 79.1973C217.624 79.2982 217.133 79.2763 216.671 79.1335C215.944 78.9 215.287 78.4891 214.758 77.938C214.087 77.1834 213.565 76.3085 213.22 75.3596C212.785 74.3394 212.423 73.1678 211.709 72.0838C211.35 71.5225 210.926 71.005 210.446 70.5416C209.929 70.0572 209.363 69.6284 208.757 69.2623C206.254 67.752 202.966 67.1343 199.591 67.3335C196.215 67.5328 193.039 68.1704 190.102 68.3737C187.498 68.6527 184.864 68.3811 182.371 67.5766C180.684 67.0284 179.16 66.0699 177.935 64.787C177.746 64.5872 177.569 64.3755 177.405 64.1534C177.278 63.9968 177.163 63.8302 177.063 63.6552C176.983 63.5237 176.919 63.4161 176.867 63.3364C176.843 63.302 176.823 63.2645 176.808 63.2249C176.808 63.2249 176.84 63.2567 176.887 63.3245L177.095 63.6313C177.204 63.7994 177.324 63.9605 177.453 64.1135C177.62 64.331 177.801 64.5373 177.995 64.7312C179.228 65.9741 180.745 66.8986 182.415 67.4252C184.893 68.2018 187.505 68.4569 190.086 68.1744C193.007 67.9592 196.179 67.2897 199.579 67.1144C202.978 66.939 206.294 67.5408 208.836 69.087C209.453 69.4625 210.029 69.902 210.554 70.3981C211.042 70.8779 211.473 71.4129 211.837 71.9922C212.558 73.104 212.913 74.2876 213.339 75.3038C213.668 76.2414 214.171 77.1083 214.822 77.8583C215.332 78.4031 215.968 78.8137 216.675 79.0538C217.124 79.2049 217.604 79.2392 218.07 79.1535C218.409 79.0977 218.564 79.014 218.568 79.0299Z" fill="#455A64"/>
<path d="M155.796 33.889C155.05 33.8704 154.324 34.1323 153.762 34.623C153.2 35.1137 152.842 35.7974 152.759 36.5391L149.535 70.098C148.977 74.8164 155.15 84.9347 160.207 85.4926C165.312 86.0545 165.815 83.5797 166.476 79.1163C167.584 71.6482 167.955 68.8347 167.951 68.8785C167.947 68.9223 174.526 68.6593 176.965 60.438C178.161 56.3492 178.87 49.4749 179.256 43.8319C179.603 38.7508 177.081 32.1315 171.988 32L155.796 33.889Z" fill="#FFBF9D"/>
<path d="M177.126 48.1092C177.093 48.3934 176.949 48.6529 176.725 48.8308C176.5 49.0086 176.215 49.0902 175.931 49.0577C175.792 49.0506 175.656 49.016 175.532 48.9557C175.407 48.8955 175.295 48.8109 175.203 48.707C175.112 48.603 175.042 48.4818 174.998 48.3504C174.953 48.219 174.936 48.0801 174.946 47.9418C174.981 47.6582 175.126 47.3996 175.35 47.2215C175.573 47.0435 175.857 46.9601 176.142 46.9894C176.281 46.9964 176.417 47.0312 176.542 47.0917C176.667 47.1521 176.779 47.2371 176.87 47.3415C176.962 47.4459 177.032 47.5676 177.076 47.6995C177.12 47.8313 177.137 47.9706 177.126 48.1092Z" fill="#263238"/>
<path d="M177.585 45.9372C177.457 46.0887 176.596 45.5387 175.429 45.6224C174.261 45.7061 173.436 46.3477 173.313 46.2162C173.249 46.1564 173.364 45.8934 173.711 45.5945C174.191 45.21 174.779 44.9832 175.393 44.9449C175.999 44.8997 176.603 45.0491 177.118 45.3713C177.505 45.6224 177.644 45.8814 177.585 45.9372Z" fill="#263238"/>
<path d="M166.872 48.7147C166.733 48.8542 165.928 48.2206 164.76 48.1927C163.592 48.1648 162.72 48.7227 162.596 48.5912C162.536 48.5234 162.68 48.2724 163.062 48.0133C163.577 47.6754 164.185 47.5068 164.8 47.5311C165.407 47.5465 165.993 47.7545 166.474 48.1249C166.824 48.3959 166.932 48.6709 166.872 48.7147Z" fill="#263238"/>
<path d="M169.048 54.8878C169.048 54.8201 169.789 54.7922 170.977 54.7962C171.276 54.7962 171.562 54.7962 171.642 54.585C171.706 54.2832 171.677 53.9691 171.559 53.6843C171.375 52.9298 171.183 52.1328 170.981 51.2932C170.184 47.9258 169.654 45.1721 169.785 45.1402C169.917 45.1083 170.674 47.8182 171.467 51.1856C171.658 52.0145 171.837 52.8036 172.009 53.5767C172.152 53.9624 172.152 54.3865 172.009 54.7723C171.952 54.8706 171.874 54.9547 171.78 55.0182C171.686 55.0818 171.579 55.123 171.467 55.1389C171.296 55.1607 171.123 55.1607 170.953 55.1389C169.773 55.0472 169.044 54.9516 169.048 54.8878Z" fill="#263238"/>
<path d="M168.044 68.7044C164.08 68.2424 160.323 66.6874 157.192 64.2131C157.192 64.2131 159.269 70.3582 167.777 70.681L168.044 68.7044Z" fill="#FF9A6C"/>
<path d="M167.036 46.7182C166.852 47.0012 165.748 46.5867 164.377 46.4353C163.007 46.2839 161.839 46.3954 161.727 46.0766C161.68 45.9252 161.935 45.6781 162.441 45.4828C163.105 45.2431 163.817 45.1665 164.517 45.2597C165.22 45.3366 165.895 45.5798 166.486 45.969C166.932 46.2799 167.119 46.5827 167.036 46.7182Z" fill="#263238"/>
<path d="M177.409 44.3711C177.217 44.6461 176.401 44.4149 175.416 44.4508C174.432 44.4867 173.639 44.7178 173.424 44.4508C173.336 44.3193 173.452 44.0523 173.794 43.7813C174.258 43.445 174.816 43.2637 175.388 43.2632C175.953 43.2462 176.51 43.4034 176.982 43.7135C177.369 43.9686 177.492 44.2396 177.409 44.3711Z" fill="#263238"/>
<path d="M166.227 57.0039C166.762 56.6386 167.418 56.4957 168.056 56.6054C168.382 56.6503 168.682 56.8066 168.905 57.0477C169.146 57.4043 169.252 57.8353 169.204 58.2632C169.206 58.5214 169.167 58.7783 169.088 59.0243C169.007 59.2703 168.832 59.4747 168.602 59.5942C168.346 59.6865 168.069 59.7004 167.805 59.6341C167.367 59.5779 166.946 59.4255 166.574 59.1877C166.388 59.0688 166.231 58.911 166.112 58.7252C165.994 58.5394 165.918 58.3301 165.888 58.1117C165.864 57.8921 165.91 57.6704 166.022 57.4795C166.133 57.2885 166.303 57.1385 166.506 57.0517" fill="#F36A57"/>
<path d="M169.371 59.5624C169.287 59.5943 169.132 59.3392 168.853 58.9925C168.506 58.5373 168.071 58.1566 167.574 57.8731C167.077 57.5897 166.528 57.4092 165.959 57.3426C165.517 57.2789 165.222 57.2749 165.202 57.1872C165.182 57.0996 165.461 56.9521 165.967 56.9003C166.635 56.8481 167.303 56.998 167.884 57.3307C168.467 57.6598 168.936 58.1589 169.227 58.7614C169.442 59.2197 169.446 59.5385 169.371 59.5624Z" fill="#263238"/>
<path d="M149.178 67.6244C151.948 67.0705 154.084 64.6914 155.037 62.0452C155.989 59.3991 155.937 56.486 155.686 53.6764C155.693 53.4946 155.663 53.3133 155.598 53.1434C155.533 52.9735 155.434 52.8186 155.308 52.6881C154.889 52.3653 154.287 52.6283 153.833 52.9033C152.087 53.9651 150.413 55.142 148.824 56.4262C147.341 57.6217 145.875 58.9966 145.305 60.8098C144.432 63.5994 146.277 66.927 149.103 67.6603" fill="#263238"/>
<path d="M212.841 66.9748L199.781 45.981L196.171 38.5926C196.171 38.5926 195.019 37.0663 193.824 35.7631C191.863 33.6231 189.922 35.2849 189.922 35.2849C189.813 35.0323 189.629 34.8198 189.394 34.6769C189.159 34.5341 188.885 34.468 188.611 34.4879C188.259 34.4877 187.911 34.571 187.598 34.731C187.284 34.891 187.012 35.1232 186.806 35.4084C186.806 35.4084 186.272 34.8147 184.789 34.723C184.452 34.719 184.123 34.8253 183.853 35.0259C183.366 34.5995 182.474 33.9857 181.617 34.2966C180.948 34.5397 176.887 37.6282 175.886 39.1824C175.392 39.9515 176.309 40.9478 177.544 40.4815C178.052 40.3173 178.548 40.1162 179.027 39.8798C179.402 39.6691 179.741 39.4 180.031 39.0827C180.031 39.0827 179.007 40.8761 180.031 41.1909C180.366 41.2581 180.712 41.2512 181.045 41.1707C181.377 41.0902 181.688 40.9379 181.956 40.7246C182.354 40.3978 182.793 39.9714 183.219 39.553L183.171 39.6247C182.605 40.4616 184.08 41.701 184.793 41.1989C185.125 40.9649 185.443 40.7121 185.746 40.4417C187.403 41.6372 185.104 43.1874 184.132 43.1077C182.635 42.9943 181.133 42.9943 179.636 43.1077C178.792 43.1755 178.042 43.3787 177.58 43.845C177.03 44.4109 177.608 45.5985 178.377 45.718C179.808 45.9412 181.633 46.256 183.53 46.7462C185.762 47.32 191.608 49.221 191.608 49.221L192.178 49.6832L200.12 69.055L186.523 71.9363L183.486 89.168L208.035 82.5049C213.558 79.5957 216.192 72.2351 212.841 66.9748Z" fill="#FFBF9D"/>
<path d="M191.612 49.185C191.506 49.1698 191.402 49.1444 191.301 49.1093L190.421 48.8582L187.189 47.8978L184.961 47.2243C184.164 46.9773 183.307 46.7222 182.398 46.4911C181.452 46.2357 180.491 46.0374 179.521 45.8973C178.989 45.8881 178.461 45.7925 177.959 45.6143C177.825 45.5536 177.706 45.4654 177.608 45.3553C177.555 45.2917 177.515 45.2187 177.489 45.1401L177.461 44.9289C177.419 44.6468 177.436 44.3589 177.513 44.084C177.61 43.8016 177.813 43.5676 178.079 43.4305C178.32 43.305 178.574 43.2036 178.836 43.1276C179.354 42.9793 179.891 42.9134 180.43 42.9323C181.466 42.9323 182.442 43.0917 183.375 43.0519C183.828 43.0412 184.279 42.9973 184.726 42.9204C185.16 42.8407 185.575 42.7291 185.981 42.6255C186.732 42.3906 187.518 42.2894 188.304 42.3266C188.95 42.3884 189.582 42.5497 190.177 42.8048C190.626 42.9916 191.062 43.2059 191.485 43.4464C191.831 43.6417 192.094 43.8051 192.282 43.9127C192.374 43.9658 192.462 44.0257 192.545 44.092C192.445 44.0537 192.348 44.0057 192.258 43.9485L191.461 43.5182C191.035 43.2918 190.598 43.0896 190.15 42.9124C189.562 42.6731 188.941 42.5253 188.308 42.474C187.54 42.4462 186.773 42.5527 186.041 42.7889C185.642 42.8965 185.22 43.016 184.778 43.0997C184.321 43.1826 183.859 43.2306 183.395 43.2432C182.446 43.287 181.458 43.1475 180.446 43.1356C179.934 43.1201 179.424 43.1833 178.931 43.3229C178.445 43.4823 177.891 43.6536 177.736 44.1478C177.671 44.3948 177.656 44.6522 177.692 44.905L177.72 45.0883C177.734 45.1376 177.76 45.1827 177.796 45.2198C177.876 45.3074 177.972 45.3791 178.079 45.431C178.56 45.5948 179.064 45.6835 179.573 45.694C180.552 45.8394 181.52 46.0443 182.474 46.3078C183.387 46.5429 184.24 46.8059 185.037 47.0609L187.26 47.7583L190.472 48.7825L191.341 49.0695C191.435 49.0997 191.525 49.1384 191.612 49.185Z" fill="#923720"/>
<path d="M181.542 34.3245C181.566 34.3563 180.928 34.723 179.988 35.4363C179.439 35.8546 178.917 36.3072 178.425 36.7913C177.867 37.3332 177.282 37.9868 176.588 38.5647C176.241 38.802 175.983 39.1484 175.855 39.549C175.806 39.7255 175.829 39.9142 175.918 40.074C176.008 40.2338 176.157 40.3517 176.333 40.4018C176.676 40.4978 177.039 40.5047 177.385 40.4217C177.698 40.3635 178.005 40.2755 178.302 40.1587C178.884 39.9114 179.428 39.5812 179.916 39.1784C179.818 39.3224 179.697 39.449 179.557 39.553C179.197 39.8578 178.794 40.1088 178.362 40.2982C178.06 40.4265 177.746 40.5253 177.425 40.5931C177.049 40.6906 176.654 40.6906 176.277 40.5931C176.053 40.5306 175.862 40.3822 175.747 40.18C175.631 39.9778 175.6 39.7382 175.66 39.5131C175.796 39.068 176.076 38.681 176.457 38.4132C177.138 37.8314 177.724 37.2177 178.298 36.6598C178.796 36.1775 179.329 35.7326 179.892 35.3287C180.378 34.982 180.789 34.7349 181.087 34.5676C181.231 34.4722 181.383 34.3908 181.542 34.3245Z" fill="#923720"/>
<path d="M186.527 35.9664C186.385 36.1582 186.231 36.3406 186.065 36.5123L184.754 37.955L182.789 40.079C182.396 40.5098 181.929 40.8662 181.41 41.1311C181.125 41.2744 180.812 41.352 180.494 41.3583C180.324 41.3611 180.156 41.3302 179.998 41.2672C179.841 41.2043 179.698 41.1106 179.577 40.9916C179.453 40.8534 179.377 40.6785 179.362 40.4935C179.348 40.3217 179.366 40.1489 179.414 39.9834C179.505 39.6709 179.647 39.3758 179.836 39.1107C180.541 38.3654 181.195 37.664 181.781 37.0185C182.367 36.3729 182.952 35.8667 183.423 35.4244C183.625 35.2131 183.854 35.0295 184.104 34.8784C184.306 34.7889 184.525 34.7401 184.746 34.735C185.1 34.7111 185.308 34.735 185.288 34.7828C185.11 34.7614 184.929 34.7695 184.754 34.8067C184.545 34.8246 184.342 34.8785 184.152 34.9661C183.917 35.1252 183.702 35.3111 183.51 35.52C183.056 35.9743 182.494 36.5004 181.916 37.138C181.338 37.7756 180.689 38.5009 179.988 39.2541C179.813 39.4967 179.678 39.7658 179.589 40.0511C179.548 40.1934 179.532 40.3417 179.541 40.4895C179.557 40.6297 179.616 40.7618 179.709 40.8681C179.914 41.0646 180.189 41.172 180.474 41.167C180.76 41.1615 181.042 41.0921 181.299 40.9637C181.797 40.7116 182.246 40.3729 182.626 39.9635L184.618 37.8713L185.977 36.4765L186.356 36.1019C186.462 36.0062 186.519 35.9611 186.527 35.9664Z" fill="#923720"/>
<path d="M192.632 37.8871C192.632 37.8871 192.632 38.0107 192.473 38.1222C192.38 38.1946 192.273 38.2467 192.159 38.2754C192.045 38.3041 191.926 38.3086 191.81 38.2887C191.694 38.2688 191.584 38.225 191.486 38.1599C191.388 38.0949 191.305 38.0101 191.241 37.911C191.15 37.7596 191.15 37.644 191.174 37.64C191.198 37.6361 191.253 37.7158 191.357 37.8194C191.489 37.9542 191.658 38.0459 191.843 38.0824C192.031 38.1101 192.222 38.0809 192.393 37.9987C192.529 37.9349 192.608 37.8672 192.632 37.8871Z" fill="#923720"/>
<path d="M193.11 39.7165C193.066 39.7524 192.768 39.4535 192.505 39.0032C192.313 38.7499 192.198 38.447 192.174 38.1304C192.226 38.1105 192.425 38.4692 192.684 38.8996C192.866 39.1492 193.01 39.4245 193.11 39.7165Z" fill="#923720"/>
<path d="M193.991 46.8419C193.817 46.5903 193.689 46.3096 193.613 46.013C193.385 45.3091 193.275 44.5727 193.286 43.8331C193.301 43.0937 193.435 42.3615 193.684 41.6652C193.767 41.3698 193.902 41.0917 194.083 40.8442C193.747 41.8088 193.553 42.8168 193.505 43.8371C193.52 44.857 193.684 45.8692 193.991 46.8419Z" fill="#923720"/>
<path d="M204.72 74.4549C204.68 74.4549 204.64 74.0325 204.433 73.3829C204.309 73.0044 204.151 72.6376 203.962 72.287C203.492 71.4313 202.839 70.6897 202.049 70.1151C201.727 69.8809 201.385 69.6768 201.025 69.5054C200.412 69.2145 199.993 69.1069 200.001 69.083C200.102 69.079 200.203 69.0924 200.3 69.1228C200.573 69.181 200.839 69.2637 201.097 69.3699C201.475 69.5285 201.836 69.7262 202.173 69.9597C203.003 70.5332 203.679 71.3024 204.142 72.1993C204.33 72.5635 204.478 72.947 204.584 73.3431C204.657 73.6038 204.706 73.8705 204.731 74.1401C204.744 74.245 204.74 74.3513 204.72 74.4549Z" fill="#923720"/>
<path d="M159.137 112.832C158.013 112.636 156.856 112.783 155.817 113.254C154.044 112.457 151.856 113.824 151.856 113.824C151.214 113.517 147.349 116.044 147.349 116.044L142.535 118.316L116.819 99.2067L124.107 91.635L113.893 81.0066L101.938 93.3207C100.474 94.9055 99.6253 96.9626 99.547 99.1191C99.4321 101.415 99.9906 103.694 101.154 105.676C102.317 107.659 104.034 109.258 106.095 110.277L136.382 125.82C138.708 125.69 141.016 125.331 143.272 124.748C145.886 124.066 150.354 122.081 150.354 122.081C150.354 122.081 150.354 122.217 151.151 123.767C152.589 126.557 154.697 123.544 154.697 123.544C154.907 124.034 155.183 124.493 155.518 124.907C157.34 126.672 158.603 124.301 158.603 124.301C158.603 124.301 159.149 125.254 160.775 124.544C162.401 123.835 160.54 118.941 160.54 118.941C160.54 118.941 161.086 120.005 162.134 118.658C163.182 117.311 160.878 113.199 159.137 112.832Z" fill="#FFBF9D"/>
<path d="M155.499 113.505C155.599 113.436 155.713 113.391 155.834 113.374C156.157 113.303 156.492 113.314 156.81 113.406C157.278 113.539 157.715 113.762 158.097 114.063C158.327 114.234 158.542 114.425 158.739 114.633C158.937 114.878 159.106 115.145 159.241 115.43C159.713 116.381 160.106 117.368 160.417 118.383C160.536 118.782 160.616 119.088 160.668 119.312C160.705 119.425 160.722 119.543 160.72 119.662C160.692 119.662 160.548 119.188 160.277 118.427C159.926 117.436 159.517 116.466 159.054 115.522C158.928 115.257 158.77 115.01 158.584 114.785C158.398 114.584 158.197 114.399 157.982 114.231C157.625 113.939 157.221 113.713 156.786 113.561C156.368 113.438 155.926 113.418 155.499 113.505Z" fill="#923720"/>
<path d="M158.595 124.313C158.504 124.174 158.428 124.026 158.368 123.871L157.806 122.651C157.332 121.619 156.639 120.208 155.977 118.602C155.711 117.839 155.359 117.107 154.929 116.422C154.558 115.885 154.046 115.459 153.451 115.191C153.055 114.999 152.613 114.921 152.175 114.964C151.865 115.004 151.705 115.087 151.697 115.068C151.689 115.048 151.733 115.04 151.809 115C151.919 114.944 152.038 114.905 152.159 114.884C152.617 114.806 153.087 114.866 153.51 115.056C154.143 115.319 154.688 115.756 155.085 116.315C155.532 117.005 155.896 117.746 156.169 118.523C156.826 120.117 157.5 121.543 157.942 122.591C158.161 123.114 158.34 123.544 158.444 123.839C158.512 123.991 158.562 124.15 158.595 124.313Z" fill="#923720"/>
<path d="M146.791 118.164C146.916 118.075 147.049 117.999 147.19 117.937L148.337 117.383C148.584 117.267 148.843 117.14 149.134 117.012C149.462 116.882 149.815 116.83 150.166 116.861C150.557 116.892 150.932 117.03 151.25 117.259C151.571 117.522 151.841 117.84 152.047 118.2C152.267 118.558 152.446 118.929 152.605 119.272C152.765 119.614 152.952 119.945 153.127 120.256C153.474 120.874 153.801 121.428 154.04 121.914C154.237 122.294 154.407 122.686 154.55 123.089C154.614 123.233 154.657 123.384 154.678 123.54C154.646 123.54 154.431 122.922 153.912 121.982C153.653 121.511 153.319 120.969 152.96 120.352C152.781 120.041 152.601 119.71 152.426 119.363C152.251 119.017 152.083 118.654 151.872 118.307C151.679 117.971 151.43 117.67 151.135 117.419C150.851 117.201 150.514 117.064 150.158 117.02C149.836 116.985 149.51 117.026 149.206 117.14C148.919 117.255 148.644 117.383 148.409 117.482L147.233 118.012C147.093 118.081 146.944 118.131 146.791 118.164Z" fill="#923720"/>
<path d="M147.349 116.048C147.243 116.136 147.125 116.21 146.999 116.267C146.768 116.399 146.429 116.582 146.006 116.805C145.166 117.251 143.994 117.857 142.695 118.511C141.396 119.164 140.216 119.746 139.355 120.161L138.335 120.639C138.209 120.705 138.075 120.755 137.937 120.786C138.045 120.698 138.164 120.623 138.291 120.563C138.522 120.435 138.861 120.252 139.284 120.029C140.124 119.583 141.296 118.981 142.595 118.323C143.894 117.666 145.074 117.088 145.931 116.677C146.361 116.47 146.728 116.307 146.955 116.195C147.079 116.127 147.211 116.078 147.349 116.048Z" fill="#923720"/>
<path d="M117.162 99.2543C116.157 99.1025 115.138 99.0691 114.125 99.1546C113.12 99.3061 112.136 99.5735 111.192 99.9517C111.432 99.7607 111.701 99.61 111.989 99.5053C112.663 99.2161 113.374 99.0256 114.102 98.9395C114.831 98.8535 115.569 98.8722 116.293 98.9952C116.595 99.034 116.888 99.1215 117.162 99.2543Z" fill="#923720"/>
<path d="M173.954 30.2238C167.585 30.1326 161.228 30.8015 155.017 32.2163C153.578 32.5471 152.056 32.9695 151.083 34.0774C150.051 35.249 149.888 36.9188 149.737 38.4611C149.572 40.3553 149.407 42.2483 149.242 44.1399C148.969 44.6085 148.667 45.0597 148.338 45.4909C146.839 47.4476 144.93 49.0775 143.556 51.1338C142.181 53.1902 141.439 55.916 142.547 58.1158C143.221 59.4468 144.464 60.3873 145.373 61.5669C146.915 63.5595 147.417 66.1538 148.318 68.517C149.218 70.8802 150.844 73.2992 153.327 73.7615C154.523 73.9886 155.742 73.7376 156.934 73.9129C158.715 74.1719 160.213 75.3396 161.628 76.4514C163.043 77.5633 164.581 78.6951 166.374 78.8744C168.168 79.0537 170.22 77.8383 170.256 76.037C169.591 76.4118 168.837 76.5987 168.074 76.5776C167.31 76.5566 166.567 76.3284 165.924 75.9174C164.88 75.228 164.207 74.1122 163.31 73.2434C161.106 71.1074 157.559 70.4299 156.025 67.7718C154.83 65.6716 155.296 63.0374 155.846 60.6743C156.32 58.6259 156.806 56.4062 156.212 54.4375C156.26 54.1208 156.285 53.8012 156.288 53.4811C156.288 51.3849 155.471 49.1373 156.447 47.2842C157.739 44.8293 161.461 44.5185 162.764 42.0756C163.525 40.6529 163.258 38.8357 164.087 37.4528C164.864 36.1537 166.422 35.5559 167.905 35.2331C169.387 34.9103 170.945 34.7629 172.253 33.9977C173.56 33.2326 174.548 31.6146 173.954 30.2238Z" fill="#0C111D"/>
<path d="M178.784 72.9805C178.769 73.0164 178.749 73.05 178.724 73.0801L178.529 73.3551C178.261 73.6996 177.953 74.0113 177.612 74.2836C177.064 74.7088 176.449 75.0389 175.791 75.26C174.922 75.5618 173.997 75.6693 173.081 75.5748C171.963 75.4662 170.901 75.031 170.029 74.3235C169.08 73.5942 168.235 72.6258 167.163 71.8567C166.626 71.4563 166 71.1923 165.338 71.0875C164.64 71.0303 163.939 71.1581 163.306 71.4582C162.632 71.7763 161.925 72.0195 161.198 72.1835C160.417 72.2959 159.622 72.1562 158.926 71.7849C158.246 71.4267 157.604 71.0008 157.009 70.5137C156.414 70.0669 155.852 69.5782 155.328 69.0511C154.809 68.54 154.401 67.9266 154.132 67.2499C153.892 66.5858 153.845 65.8672 153.997 65.1776C154.142 64.5382 154.344 63.9129 154.598 63.3085C154.829 62.7227 155.029 62.1449 155.204 61.579C155.524 60.535 155.771 59.4696 155.941 58.3909C156.188 56.8189 156.275 55.226 156.2 53.6366C156.176 53.0747 156.141 52.6363 156.109 52.3414C156.109 52.202 156.109 52.0944 156.081 52.0067C156.075 51.9684 156.075 51.9294 156.081 51.8911C156.095 51.9268 156.103 51.9645 156.105 52.0027L156.152 52.3374C156.196 52.6323 156.248 53.0667 156.284 53.6326C156.389 55.229 156.325 56.8319 156.093 58.4148C155.93 59.5077 155.69 60.5877 155.375 61.6467C155.2 62.2126 155.001 62.7984 154.774 63.3922C154.524 63.98 154.326 64.5879 154.18 65.2095C154.035 65.8651 154.082 66.5484 154.315 67.1781C154.577 67.8283 154.97 68.4172 155.471 68.9077C155.99 69.4264 156.545 69.9072 157.133 70.3463C157.716 70.8241 158.347 71.242 159.014 71.5937C159.669 71.9534 160.422 72.0931 161.162 71.9922C161.874 71.8295 162.566 71.5903 163.226 71.2788C163.892 70.9704 164.627 70.8412 165.358 70.9042C166.051 71.0109 166.707 71.2845 167.271 71.7013C168.363 72.4983 169.2 73.4707 170.132 74.192C170.976 74.8879 172.006 75.319 173.093 75.4313C174.678 75.6049 176.271 75.1783 177.557 74.2358C178.014 73.8678 178.426 73.4463 178.784 72.9805Z" fill="#263238"/>
<path d="M138.968 60.3078C138.853 60.1667 138.747 60.019 138.649 59.8654C138.378 59.4184 138.186 58.9275 138.083 58.4148C137.926 57.5999 137.94 56.7614 138.123 55.952C138.362 54.8779 138.833 53.8688 139.502 52.995C140.325 51.9554 141.294 51.04 142.379 50.2772C143.523 49.4243 144.822 48.6313 146.117 47.7107C147.499 46.7861 148.7 45.618 149.664 44.2636C150.139 43.5242 150.502 42.7184 150.74 41.8725C150.995 41.0197 151.17 40.127 151.378 39.2264C151.557 38.3284 151.824 37.4502 152.175 36.6041C152.525 35.773 153.061 35.0328 153.741 34.4402C154.405 33.8808 155.173 33.457 156 33.1928C156.786 32.9385 157.6 32.778 158.423 32.7146C159.939 32.6377 161.459 32.6857 162.966 32.8581C164.272 32.9976 165.587 33.015 166.896 32.9099C167.972 32.8063 169.018 32.495 169.976 31.9933C170.7 31.6169 171.341 31.0993 171.861 30.471C172.19 30.0723 172.448 29.621 172.626 29.136C172.738 28.8012 172.782 28.6179 172.79 28.6219C172.761 28.8012 172.72 28.9783 172.666 29.1519C172.501 29.6485 172.25 30.1124 171.925 30.5228C171.408 31.1762 170.764 31.7184 170.032 32.1169C169.064 32.6366 168.004 32.9629 166.912 33.0773C165.593 33.193 164.267 33.1837 162.95 33.0494C161.453 32.8864 159.944 32.8451 158.439 32.9258C157.626 32.9892 156.823 33.1497 156.048 33.4041C155.247 33.6567 154.503 34.0628 153.856 34.5996C153.201 35.1748 152.684 35.8916 152.346 36.6958C151.996 37.5295 151.729 38.3959 151.549 39.2821C151.342 40.1788 151.15 41.0755 150.903 41.9402C150.661 42.8017 150.288 43.6214 149.8 44.3712C148.826 45.7432 147.611 46.9262 146.213 47.8622C144.906 48.7867 143.607 49.5718 142.467 50.4126C141.39 51.1604 140.426 52.0597 139.606 53.0827C138.938 53.9324 138.466 54.9189 138.223 55.9719C138.029 56.7656 138.004 57.5907 138.147 58.3949C138.285 59.0824 138.565 59.7337 138.968 60.3078Z" fill="#455A64"/>
<path d="M140.136 62.3999C139.691 62.0483 139.281 61.6546 138.912 61.2243C138.458 60.7321 138.097 60.1608 137.848 59.5385C137.692 59.1425 137.629 58.7155 137.665 58.2912C137.714 57.8138 137.901 57.3611 138.203 56.988C138.849 56.191 139.917 55.7686 141.037 55.5335C141.598 55.4179 142.188 55.3262 142.774 55.1788C143.379 55.0519 143.955 54.8127 144.472 54.4734C144.993 54.0903 145.417 53.5891 145.707 53.0109C146.01 52.3977 146.266 51.7622 146.472 51.11C146.684 50.4256 146.951 49.7593 147.269 49.1174C147.61 48.4423 148.126 47.8711 148.764 47.4636C149.411 47.094 150.111 46.8252 150.84 46.6665C151.545 46.4832 152.243 46.3358 152.9 46.1126C154.165 45.6713 155.268 44.8589 156.065 43.7813C156.802 42.8061 157.464 41.7763 158.045 40.7008C158.557 39.7633 159.156 38.876 159.834 38.0507C160.4 37.366 161.095 36.7987 161.879 36.3809C162.471 36.0659 163.12 35.8696 163.788 35.803C164.21 35.7628 164.637 35.7979 165.047 35.9066C165.184 35.943 165.317 35.991 165.446 36.0501C165.446 36.0501 165.298 36.0103 165.019 35.9465C164.612 35.8594 164.194 35.8379 163.78 35.8827C163.127 35.9629 162.496 36.1658 161.919 36.4805C161.154 36.9009 160.477 37.4652 159.926 38.1423C159.263 38.9698 158.676 39.8554 158.173 40.7884C157.599 41.8718 156.944 42.9096 156.212 43.8929C155.802 44.4219 155.33 44.8996 154.805 45.3156C154.257 45.7376 153.641 46.0637 152.984 46.28C152.314 46.5111 151.609 46.6586 150.912 46.8419C150.203 47.0023 149.522 47.2712 148.895 47.6389C148.285 48.032 147.792 48.5828 147.469 49.233C147.151 49.8656 146.884 50.5225 146.672 51.1976C146.456 51.8591 146.19 52.5026 145.874 53.1225C145.566 53.7262 145.121 54.25 144.575 54.6528C144.036 54.9998 143.438 55.2456 142.81 55.3781C142.212 55.5215 141.614 55.6092 141.064 55.7248C139.961 55.9479 138.92 56.3584 138.311 57.0996C138.021 57.4496 137.84 57.876 137.789 58.3271C137.75 58.7325 137.804 59.1415 137.948 59.5226C138.187 60.1352 138.531 60.7015 138.964 61.1964C139.315 61.5949 139.614 61.9097 139.817 62.1129L140.052 62.3401C140.112 62.368 140.14 62.3959 140.136 62.3999Z" fill="#455A64"/>
<path d="M189.193 36.6558C189.138 36.7667 189.068 36.8698 188.986 36.9626C188.842 37.1539 188.631 37.4249 188.356 37.7596C187.814 38.4132 187.033 39.2899 186.117 40.2105C185.662 40.6568 185.236 41.159 184.65 41.3423C184.378 41.4361 184.082 41.4361 183.809 41.3423C183.576 41.2451 183.384 41.0688 183.267 40.8441C183.11 40.5315 183.059 40.1764 183.12 39.8319C183.127 39.7075 183.158 39.5856 183.211 39.4733C183.225 39.5951 183.225 39.718 183.211 39.8399C183.182 40.1632 183.25 40.4879 183.407 40.7724C183.514 40.956 183.682 41.0969 183.881 41.1709C184.115 41.2523 184.369 41.2523 184.602 41.1709C185.112 41.0075 185.523 40.5293 185.981 40.075C186.894 39.1624 187.687 38.3016 188.261 37.6839C188.548 37.3207 188.86 36.9772 189.193 36.6558Z" fill="#923720"/>
<path d="M192.238 36.6558C192.173 36.7707 192.091 36.8754 191.995 36.9666C191.832 37.1579 191.596 37.4289 191.286 37.7636L190.214 38.9233L189.576 39.6008C189.355 39.8557 189.113 40.0904 188.851 40.3022C188.571 40.5249 188.234 40.6631 187.878 40.7007C187.706 40.7187 187.532 40.6914 187.373 40.6215C187.214 40.5516 187.077 40.4416 186.974 40.3022C186.878 40.1671 186.826 40.0056 186.826 39.8399C186.835 39.6887 186.882 39.5422 186.962 39.4135C187.109 39.1744 187.261 38.9911 187.392 38.8077C187.655 38.4451 187.874 38.1542 188.03 37.9549C188.101 37.8447 188.189 37.7454 188.289 37.66C188.239 37.7815 188.175 37.8966 188.097 38.0027C187.962 38.214 187.763 38.5168 187.512 38.8914C187.388 39.0787 187.237 39.2899 187.113 39.4972C187.04 39.5982 187.001 39.7195 187.001 39.8439C187.001 39.9683 187.04 40.0896 187.113 40.1906C187.199 40.3013 187.312 40.3876 187.441 40.4408C187.571 40.494 187.712 40.5121 187.85 40.4935C188.165 40.4597 188.463 40.3382 188.711 40.1428C188.972 39.9455 189.213 39.724 189.432 39.4812L190.082 38.8117L191.186 37.6799C191.501 37.3611 191.76 37.1061 191.943 36.9307C192.028 36.8259 192.127 36.7333 192.238 36.6558Z" fill="#923720"/>
<path d="M233.846 158.66C234.188 157.915 234.706 157.265 235.356 156.765C236.005 156.265 236.767 155.931 237.574 155.791C238.382 155.651 239.211 155.709 239.991 155.961C240.771 156.213 241.478 156.651 242.051 157.238C241.211 158.593 239.906 159.596 238.381 160.059C237.575 160.343 236.699 160.36 235.882 160.108C235.066 159.856 234.352 159.349 233.846 158.66Z" fill="#FFB100"/>
<path d="M231.017 159.314C231.382 159.15 231.766 159.03 232.16 158.955C232.882 158.78 233.886 158.585 234.998 158.401C236.11 158.218 237.122 158.078 237.859 158.003C238.254 157.937 238.654 157.906 239.055 157.911C238.672 158.024 238.28 158.104 237.883 158.15L235.034 158.616C233.926 158.8 232.922 158.975 232.196 159.111C231.807 159.201 231.413 159.268 231.017 159.314Z" fill="#263238"/>
<path d="M91.4048 133.43C92.2546 134.13 92.917 135.03 93.3324 136.05C93.7478 137.069 93.9033 138.176 93.7847 139.27C93.6661 140.365 93.2773 141.412 92.6531 142.319C92.029 143.226 91.1892 143.963 90.2093 144.465C88.7468 140.715 88.1849 136.678 91.4048 133.43Z" fill="#FFB100"/>
<path d="M96.9482 136.308C97.0267 137.729 97.4572 139.109 98.2012 140.322C98.9452 141.536 99.9792 142.546 101.21 143.261C102.441 143.976 103.831 144.373 105.254 144.418C106.677 144.463 108.088 144.153 109.362 143.517C106.572 139.133 102.798 135.439 96.9482 136.3" fill="#FFB100"/>
<path d="M84.248 122.447C84.3184 122.506 84.3813 122.572 84.4353 122.646L84.9335 123.24C85.3559 123.762 85.9736 124.515 86.7547 125.428C88.3089 127.261 90.5047 129.756 93.0911 132.358C94.3862 133.657 95.6575 134.857 96.8371 135.917C98.0167 136.977 99.1326 137.881 100.089 138.607C100.84 139.183 101.624 139.715 102.436 140.201C103.014 140.544 103.357 140.687 103.349 140.707C103.26 140.687 103.174 140.654 103.094 140.611C102.854 140.513 102.621 140.4 102.396 140.273C101.566 139.81 100.767 139.292 100.005 138.722C99.0329 138.005 97.9171 137.1 96.7176 136.056C95.518 135.012 94.2468 133.801 92.9476 132.502C90.3573 129.895 88.1654 127.381 86.6471 125.52C85.878 124.591 85.2802 123.822 84.8737 123.288L84.4035 122.666C84.345 122.598 84.2929 122.525 84.248 122.447Z" fill="#263238"/>
<path d="M91.0984 139.097C91.0626 139.097 91.1941 138.539 91.3097 137.635C91.6054 135.269 91.3546 132.866 90.5764 130.613C90.2775 129.752 90.0344 129.238 90.0663 129.222C90.1491 129.327 90.2175 129.442 90.2695 129.565C90.4358 129.889 90.5848 130.221 90.7159 130.561C91.1456 131.686 91.4269 132.862 91.5528 134.06C91.6768 135.255 91.6433 136.46 91.4531 137.647C91.394 138.013 91.3142 138.377 91.214 138.734C91.1897 138.859 91.1509 138.981 91.0984 139.097Z" fill="#263238"/>
<path d="M266.959 58.4497C266.466 57.7957 266.139 57.0313 266.006 56.2227C265.874 55.414 265.941 54.5854 266.201 53.8083C266.46 53.0311 266.905 52.3289 267.497 51.7621C268.089 51.1954 268.81 50.7811 269.597 50.5552C270.393 51.9348 270.658 53.5572 270.342 55.1182C270.211 55.963 269.81 56.743 269.201 57.3429C268.592 57.9428 267.806 58.3309 266.959 58.4497Z" fill="#FFB100"/>
<path d="M266.201 61.2513C266.229 60.8517 266.305 60.4569 266.428 60.0756C266.616 59.3583 266.919 58.382 267.285 57.3139C267.652 56.2459 268.01 55.2895 268.281 54.6001C268.409 54.2204 268.572 53.8535 268.768 53.5042C268.684 53.8957 268.568 54.2796 268.421 54.6519C268.158 55.413 267.835 56.3456 267.48 57.3817C267.126 58.4178 266.791 59.4141 266.568 60.1155C266.465 60.5001 266.343 60.8792 266.201 61.2513Z" fill="#263238"/>
<path d="M249.424 88.0992C249.012 86.5688 248.978 84.9611 249.326 83.415C249.674 81.8688 250.394 80.4305 251.422 79.2245C252.45 78.0185 253.757 77.0809 255.228 76.4928C256.7 75.9047 258.293 75.6836 259.869 75.8488C260.423 78.8616 259.471 81.9541 257.896 84.5723C256.019 87.6608 252.289 88.956 249.424 88.0992Z" fill="#FFB100"/>
<path d="M169.322 135.47C169.931 134.025 170.891 132.755 172.115 131.774C173.338 130.794 174.787 130.133 176.33 129.853C177.873 129.573 179.461 129.682 180.951 130.17C182.441 130.658 183.786 131.51 184.864 132.649C180.345 136.152 175.073 138.543 169.354 135.47" fill="#FFB100"/>
<path d="M166.784 136.873C166.892 136.766 167.012 136.672 167.143 136.594C167.382 136.423 167.737 136.196 168.191 135.933C170.559 134.564 173.184 133.697 175.902 133.386C176.42 133.331 176.843 133.303 177.134 133.299C177.284 133.278 177.437 133.278 177.588 133.299C177.588 133.331 176.946 133.37 175.918 133.522C174.58 133.718 173.262 134.027 171.977 134.446C170.695 134.87 169.453 135.404 168.263 136.041C167.33 136.551 166.804 136.901 166.784 136.873Z" fill="#263238"/>
<path d="M207.086 130.589C206.956 129.516 207.095 128.428 207.49 127.423C207.886 126.417 208.525 125.526 209.35 124.828C210.175 124.131 211.161 123.65 212.218 123.429C213.276 123.207 214.371 123.252 215.407 123.559C213.905 127.213 211.57 130.461 207.086 130.589Z" fill="#FFB100"/>
<path d="M206.038 132.307C206.16 131.934 206.327 131.578 206.536 131.247C207.477 129.602 208.755 128.176 210.286 127.062C210.593 126.819 210.929 126.614 211.287 126.452C210.994 126.71 210.688 126.952 210.37 127.178C208.907 128.338 207.651 129.738 206.656 131.318C206.469 131.659 206.263 131.989 206.038 132.307Z" fill="#263238"/>
<path d="M2.05859 81.3884C2.29289 80.3337 2.78579 79.3538 3.49293 78.5369C4.20006 77.72 5.09924 77.0918 6.10951 76.7088C7.11978 76.3258 8.20944 76.2 9.2804 76.3428C10.3514 76.4856 11.37 76.8925 12.2446 77.5268C9.61443 80.4718 6.33067 82.7593 2.05859 81.3884Z" fill="#FFB100"/>
<path d="M0.5 82.6596C0.739714 82.3505 1.01529 82.0709 1.32094 81.8267C2.03552 81.2148 2.81298 80.6805 3.64029 80.2326C4.46831 79.7763 5.34356 79.4115 6.25056 79.1447C6.61971 79.0146 7.00415 78.9329 7.3943 78.9016C7.03516 79.0543 6.66799 79.1873 6.2944 79.3001C4.52841 79.9062 2.87879 80.8092 1.41658 81.9702C1.12487 82.2178 0.818816 82.448 0.5 82.6596Z" fill="#263238"/>
<path d="M184.215 29.3825L187.403 23.608C185.357 20.3572 184.601 16.4586 185.283 12.6785C185.965 8.89843 188.037 5.51024 191.09 3.17992C194.144 0.849591 197.958 -0.254328 201.785 0.0851389C205.611 0.424606 209.172 2.18291 211.767 5.01444C214.363 7.84597 215.805 11.5459 215.811 15.3871C215.817 19.2283 214.387 22.9328 211.8 25.7726C209.214 28.6124 205.658 30.382 201.833 30.7336C198.008 31.0852 194.19 29.9934 191.129 27.6728L184.215 29.3825Z" fill="white"/>
<path d="M184.215 29.3825L191.137 27.629L191.109 27.7127L190.866 27.4059L191.185 27.641C192.165 28.3753 193.227 28.9931 194.349 29.4821C195.686 30.0571 197.097 30.4395 198.541 30.6179C199.341 30.7177 200.148 30.7471 200.952 30.7056C201.351 30.6777 201.789 30.6617 202.216 30.6219L203.495 30.4107C207.311 29.6158 210.681 27.3971 212.92 24.2058C214.163 22.4412 215.016 20.4319 215.423 18.3118C215.831 16.0677 215.738 13.7611 215.152 11.5569C214.555 9.2556 213.42 7.12895 211.84 5.35208L211.214 4.67859C211.007 4.45144 210.764 4.28008 210.541 4.05691C210.321 3.84617 210.089 3.64793 209.847 3.46312L209.114 2.92513C208.88 2.74739 208.633 2.58626 208.377 2.44292L207.58 1.97268L206.783 1.57416C206.525 1.43954 206.258 1.32109 205.986 1.21949C203.818 0.383562 201.49 0.0471078 199.175 0.235155C196.984 0.401321 194.858 1.04904 192.946 2.13208C189.509 4.08394 186.951 7.27847 185.797 11.0588C185.34 12.6705 185.128 14.3416 185.167 16.0163C185.259 18.6995 186.056 21.3111 187.479 23.5881V23.612V23.6399L184.231 29.3865L187.391 23.5881V23.6399C185.943 21.3607 185.125 18.7385 185.02 16.0402C184.972 14.3502 185.18 12.6626 185.638 11.0349C186.791 7.2079 189.367 3.96799 192.835 1.98065C194.771 0.882911 196.924 0.224418 199.143 0.0518388C201.489 -0.139343 203.848 0.1998 206.045 1.04414C206.328 1.14632 206.603 1.26611 206.87 1.4028L207.691 1.80132L208.488 2.26758C208.756 2.41626 209.013 2.58268 209.257 2.76572L209.971 3.29973C210.226 3.47508 210.437 3.69824 210.676 3.90149C210.915 4.10473 211.146 4.3 211.358 4.53114L212.007 5.23253C213.611 7.03108 214.762 9.18727 215.363 11.5211C215.946 13.7548 216.031 16.0896 215.61 18.3596C215.2 20.5113 214.333 22.5498 213.067 24.3373C210.8 27.5639 207.386 29.8021 203.523 30.594L202.224 30.8052C201.797 30.845 201.371 30.857 200.952 30.8849C200.139 30.9246 199.325 30.8913 198.518 30.7853C197.06 30.6021 195.636 30.2102 194.289 29.6216C193.156 29.1251 192.085 28.495 191.101 27.7446L191.173 27.6729L191.225 27.7366H191.145L184.215 29.3825Z" fill="#263238"/>
<path d="M196.166 12.8043L198.159 12.7844C198.155 12.5569 198.197 12.331 198.283 12.1202C198.368 11.9094 198.495 11.7179 198.656 11.5572C198.817 11.3965 199.009 11.2699 199.22 11.185C199.431 11.1001 199.657 11.0585 199.884 11.0628C200.221 11.0443 200.554 11.1327 200.837 11.3152C201.119 11.4978 201.337 11.7652 201.459 12.079C201.567 12.3394 201.612 12.6217 201.591 12.9028C201.569 13.184 201.482 13.4561 201.335 13.697C201 14.2589 200.263 14.773 198.912 14.5498L198.956 19.057H200.949L200.913 16.391C201.722 16.1445 202.427 15.6396 202.922 14.9537C203.416 14.2677 203.672 13.4385 203.65 12.5931C203.623 9.67201 200.996 9.00649 199.873 9.0304C199.016 9.05032 196.095 9.28545 196.166 12.8043Z" fill="#D33044"/>
<path d="M200.972 19.9683L198.968 19.9875L198.986 21.8605L200.99 21.8412L200.972 19.9683Z" fill="#D33044"/>
</svg>
