<svg width="273" height="192" viewBox="0 0 273 192" fill="none" xmlns="http://www.w3.org/2000/svg">
<g clip-path="url(#clip0_6634_279096)">
<path d="M272.946 101.856C272.946 129.176 258.126 151.411 234.796 166.846C230.301 169.826 225.486 172.551 220.396 175.011V175.016C198.876 185.421 172.501 191.086 144.701 191.086C76.2608 191.086 0.0507812 163.021 0.0507812 108.126C0.0507812 49.5806 48.6358 22.8056 104.851 15.8156C115.381 14.5056 126.181 13.8906 136.981 13.8906C149.236 13.8906 161.456 14.9506 173.271 17.0106C227.431 26.4306 272.946 56.7906 272.946 101.856Z" fill="#F0F3F7"/>
<path d="M61.633 149.609L54.293 167.774L83.603 179.059L88.073 162.829L61.633 149.609Z" fill="#101828"/>
<path d="M238.583 152.616C238.708 159.676 237.768 163.816 234.798 166.846C233.633 168.036 232.153 169.056 230.303 170.016C227.688 172.441 224.223 174.771 220.398 175.011V175.016C219.353 175.081 218.278 174.991 217.188 174.701C207.542 172.151 198.438 149.761 198.438 149.761L194.952 182.566C177.912 187.721 157.108 188.236 138.428 187.036C122.773 186.501 103.843 184.826 89.8025 180.316L83.6075 179.056L88.3675 172.821L88.0775 162.831L55.9375 146.761C55.9375 146.761 75.0075 107.546 82.7225 101.546C84.8275 99.9056 88.4375 98.8556 92.5725 98.1906C93.2125 96.9356 94.6225 95.8156 95.7625 95.6656L111.578 93.5556C113.988 93.2356 116.437 94.7856 117.432 97.1056L125.848 95.9906L125.353 91.3306L125.318 91.0206L124.512 83.3856C114.577 77.1306 108.212 68.9306 107.627 58.3656C107.627 58.3656 105.652 60.6156 101.472 58.3656C97.2925 56.1156 98.2575 44.5456 101.472 40.6856C102.562 39.3756 103.882 39.7356 105.142 40.7856C103.292 38.4256 101.112 35.0556 101.362 32.5456C101.792 28.2606 101.343 26.9706 101.343 26.9706L97.5075 34.6856C97.5075 34.6856 98.8525 24.8956 104.858 15.8156C115.388 14.5056 126.188 13.8906 136.988 13.8906C149.243 13.8906 161.463 14.9506 173.278 17.0106C173.913 18.1806 174.278 19.4906 174.223 20.9706C174.128 23.5206 173.612 26.2256 172.967 28.5706C172.322 30.9206 171.548 32.9156 170.938 34.0456L168.628 43.0306C169.608 42.4806 170.548 42.3906 171.223 43.2606C173.473 46.1506 174.463 58.7006 169.938 59.3656C168.322 59.6006 166.843 59.3356 165.603 58.9006C164.663 65.7106 159.473 72.6556 153.948 78.2956H154.188V97.3006L157.293 92.5156L166.543 96.6756C174.023 95.9206 185.728 94.9956 190.508 95.9906C194.678 96.8556 204.392 109.151 211.938 119.506L216.312 84.9106C216.312 84.9106 210.038 77.7756 212.543 72.6906C215.048 67.6006 218.118 60.9656 218.118 60.9656C218.118 60.9656 221.273 62.3956 220.628 65.7256C219.983 69.0556 218.607 72.0006 218.607 72.0006L219.327 74.6856L229.878 68.4506L227.963 60.4506L226.258 59.9456C224.023 60.3956 223.308 57.7656 223.308 57.7656L228.893 57.4406L230.848 62.0456L231.838 55.5406C230.633 55.1656 229.048 54.6956 227.663 54.3556C225.008 53.6956 223.158 48.9406 223.158 48.9406C222.618 48.3206 222.283 47.6406 222.258 46.9006L224.283 47.2356L227.798 47.3506C227.078 45.7706 226.863 44.2056 227.943 43.1456L232.988 47.5206L237.668 47.6756L242.168 69.9306L230.438 83.3806L229.263 85.8656C229.263 85.8656 238.383 141.646 238.583 152.616Z" fill="#1F2855"/>
<path d="M211.23 137.68L229.23 167.79C229.23 167.79 220.875 180.715 211.23 178.16C201.585 175.605 192.48 153.215 192.48 153.215L211.23 137.68Z" fill="#D86C6A"/>
<path d="M112.335 100.874C112.335 100.874 84.4805 98.9989 76.7655 104.999C69.0505 110.999 49.9805 150.214 49.9805 150.214L82.1255 166.284L82.6205 183.364C82.6205 183.364 147.155 198.684 189 186.019L192.485 153.214C192.485 153.214 210.485 147.859 216.055 137.359C216.055 137.359 191.84 100.964 184.555 99.4489C177.27 97.9339 153.91 100.879 153.91 100.879H112.34L112.335 100.874Z" fill="white"/>
<path d="M148.231 107.95L136.496 120L120.586 106.02L118.016 81.75H148.231V107.95Z" fill="#E88885"/>
<path d="M148.232 81.75C148.232 81.75 137.837 96.965 129.162 96.645C120.487 96.325 119.402 94.79 119.402 94.79L118.562 86.845L148.237 81.75H148.232Z" fill="#101828"/>
<path d="M143.477 86.045C137.352 91.505 128.457 92.485 121.292 88.475C109.267 81.74 101.617 72.53 101.617 60.22V50.895V16.5H159.797V60.22C159.797 69.54 150.927 79.405 143.477 86.04V86.045Z" fill="#FCA29D"/>
<path d="M103.872 50.8906C103.872 50.8906 98.7275 40.2856 95.5175 44.1406C92.3075 47.9956 91.3375 59.5706 95.5175 61.8206C99.6975 64.0706 101.672 61.8206 101.672 61.8206L103.872 50.8906Z" fill="#FCA29D"/>
<path d="M157.87 51.5324C157.87 51.5324 163.015 43.8174 165.265 46.7124C167.515 49.6074 168.505 62.1574 163.98 62.8174C159.455 63.4774 155.945 60.2124 155.945 60.2124L157.875 51.5324H157.87Z" fill="#FCA29D"/>
<path d="M146.836 23.1464C146.836 23.1464 141.051 28.9314 133.121 31.5014L125.191 34.0714L132.261 28.6064C132.261 28.6064 126.691 32.7864 115.546 34.0714C104.401 35.3564 111.476 30.8564 111.476 30.8564C111.476 30.8564 101.621 36.4264 101.621 40.7114C101.621 44.9964 101.621 47.0614 101.621 47.0614C101.621 47.0614 94.9758 40.2864 95.4058 35.9964C95.8358 31.7064 95.3858 30.4264 95.3858 30.4264L91.5508 38.1414C91.5508 38.1414 95.4058 10.0714 119.196 4.92637C142.986 -0.218634 146.836 0.00136546 146.836 0.00136546C146.836 0.00136546 155.406 10.0714 158.621 12.6464C161.836 15.2214 168.476 18.4314 168.266 24.4314C168.056 30.4314 165.481 37.2864 164.411 38.3614C163.341 39.4364 159.806 49.0414 159.806 49.0414C159.806 49.0414 146.841 38.7914 146.841 23.1464H146.836Z" fill="#344054"/>
<path d="M134.73 37.2366L146.78 41.8966L145.655 38.8416L135.61 35.2266L134.73 37.2366Z" fill="#344054"/>
<path d="M116.085 39.5675L115.58 40.0425L108.21 46.9575L106.605 45.6725L114.64 38.5625" fill="#344054"/>
<path d="M114.154 56.2869C115.706 56.2869 116.964 54.7221 116.964 52.7919C116.964 50.8616 115.706 49.2969 114.154 49.2969C112.602 49.2969 111.344 50.8616 111.344 52.7919C111.344 54.7221 112.602 56.2869 114.154 56.2869Z" fill="#344054"/>
<path d="M139.79 56.0369C141.342 56.0369 142.6 54.4721 142.6 52.5419C142.6 50.6116 141.342 49.0469 139.79 49.0469C138.239 49.0469 136.98 50.6116 136.98 52.5419C136.98 54.4721 138.239 56.0369 139.79 56.0369Z" fill="#344054"/>
<path d="M124.844 55.3906C124.844 55.3906 121.739 60.0506 123.049 61.5806C124.359 63.1106 127.654 62.9106 127.654 62.9106C127.654 62.9106 124.039 62.6256 123.959 60.2956C123.879 57.9656 124.844 55.3956 124.844 55.3956V55.3906Z" fill="#912018"/>
<path d="M123.759 71.3028C125.674 69.3128 131.399 64.4928 140.184 66.8278C140.899 67.0178 141.429 67.6328 141.524 68.3678L142.329 74.5428C142.469 75.6228 141.654 76.5878 140.564 76.6178C137.364 76.7128 131.174 77.2528 127.854 79.8778C126.829 80.6878 125.314 80.1778 124.964 78.9228L123.319 73.0678C123.144 72.4428 123.309 71.7678 123.759 71.2978V71.3028Z" fill="#B54708"/>
<path d="M141.982 71.8762C141.982 71.8762 130.332 69.1062 124.492 77.2462L125.042 79.1962C125.437 80.6012 127.092 81.2112 128.292 80.3812C130.582 78.7962 134.577 76.8162 140.432 76.6012C141.587 76.5612 142.462 75.5412 142.312 74.3912L141.982 71.8762Z" fill="#893409"/>
<path d="M123.758 71.2993L141.203 67.0793C141.203 67.0793 132.818 64.7743 128.538 67.4493C124.258 70.1243 123.758 71.3043 123.758 71.3043V71.2993Z" fill="#F2F2F2"/>
<path d="M101.622 47.07V57.65L99.1875 44.25L101.622 47.07Z" fill="#344054"/>
<path d="M159.801 49.0378V57.6478L164.981 37.5078L159.801 44.2478V49.0378Z" fill="#344054"/>
<path d="M98.3 49.9306C98.3 49.9306 96.315 47.3606 95.675 49.2856C95.035 51.2106 93.105 54.2506 94.87 56.0256C96.635 57.8006 98.3 57.6406 98.3 57.6406C98.3 57.6406 95 56.2056 96.22 53.7106C97.44 51.2156 99.155 51.4656 98.3 53.1056C97.445 54.7456 99.185 55.3906 99.185 55.3906C99.185 55.3906 100.125 52.1756 98.3 49.9256V49.9306Z" fill="#893409"/>
<path d="M166.071 53.7125C166.071 53.7125 165.106 48.3225 164.141 49.2875C163.176 50.2525 161.701 54.2675 161.556 55.3925C161.411 56.5175 161.731 57.8025 163.016 56.2775C164.301 54.7525 162.806 53.3675 163.796 52.5325C164.786 51.6975 166.786 55.7225 164.981 57.6475C163.176 59.5725 167.196 57.6825 166.071 53.7125Z" fill="#893409"/>
<path d="M119.887 99.4453L136.977 118.07L139.787 136.285L133.412 121.07L120.327 130.445C118.717 131.6 116.452 130.76 115.982 128.84L109.117 100.875L119.887 99.4453Z" fill="#7B1D20"/>
<path d="M151.335 95.9766L136.98 118.077L139.79 136.292L141.205 120.007C141.205 120.007 148.55 130.722 153.91 129.222C159.27 127.722 165.695 102.437 165.695 102.437L151.34 95.9816L151.335 95.9766Z" fill="#7B1D20"/>
<g style="mix-blend-mode:multiply" opacity="0.3">
<path d="M85.2322 117.867C85.2322 117.867 90.9222 195.182 161.522 190.377C161.522 190.377 111.072 193.052 82.6172 183.367L85.2322 117.867Z" fill="#212121"/>
</g>
<g style="mix-blend-mode:multiply" opacity="0.3">
<path d="M188.406 125.781L189.831 178.156L192.481 153.211L188.406 125.781Z" fill="#212121"/>
</g>
<path d="M115.785 141.901L100.39 140.836C98.7949 140.941 97.1599 139.731 96.7449 138.141L86.3299 103.411C85.8699 101.646 88.1349 99.3407 89.8049 99.1207L105.62 97.0107C108.365 96.6457 111.16 98.7057 111.8 101.571L119.14 135.236C119.72 137.816 118.4 141.731 115.785 141.896V141.901Z" fill="#344054"/>
<path d="M115.729 141.962L99.0394 143.027C97.4544 143.127 95.8295 141.922 95.4195 140.347L86.2744 105.292C85.8144 103.537 86.7844 101.922 88.4394 101.707L105.889 99.447C107.644 99.222 109.424 100.532 109.839 102.362L118.109 138.797C118.479 140.437 117.409 141.857 115.734 141.962H115.729Z" fill="#667085"/>
<path d="M96.4063 113.88L92.3463 114.325C90.9963 114.47 89.6013 113.44 89.2313 112.025L87.9163 106.945C87.5413 105.505 88.3463 104.18 89.7113 104.01L93.8113 103.495C95.1963 103.32 96.6313 104.38 96.9913 105.845L98.2613 111.005C98.6163 112.44 97.7763 113.735 96.4063 113.885V113.88Z" fill="#344054"/>
<path d="M93.0038 106.848C93.2438 107.808 92.7038 108.668 91.7988 108.773C90.8938 108.878 89.9688 108.193 89.7238 107.243C89.4788 106.288 90.0088 105.418 90.9138 105.308C91.8188 105.198 92.7538 105.888 92.9988 106.848H93.0038Z" fill="#667085"/>
<path d="M94.1263 111.306C94.3663 112.251 93.8263 113.101 92.9263 113.201C92.0263 113.301 91.1063 112.621 90.8663 111.676C90.6263 110.731 91.1563 109.881 92.0563 109.776C92.9563 109.671 93.8863 110.356 94.1263 111.306Z" fill="#667085"/>
<path d="M82.1198 166.283L77.6548 182.512L48.3398 171.223L55.6798 153.062L82.1198 166.283Z" fill="#D86C6A"/>
<path d="M98.3952 141.123C98.3952 141.123 98.7252 133.888 97.0952 129.963C95.4652 126.038 93.0902 126.228 93.0902 126.228L91.9102 145.543L96.4752 157.848L115.575 152.388L122.55 136.578L121.635 121.048C121.635 121.048 120.005 119.128 119.61 123.138C119.215 127.153 118.58 134.668 118.58 134.668L119.045 117.603C119.045 117.603 116.84 114.188 115.98 118.858C115.12 123.528 112.45 134.843 112.45 134.843L114.225 114.883C114.225 114.883 111.53 113.053 109.435 121.923C107.34 130.798 105.915 136.178 105.915 136.178C105.915 136.178 110.075 118.183 108.5 117.608C106.925 117.033 104.005 124.388 103.4 128.448C102.795 132.508 98.3902 141.113 98.3902 141.113L98.3952 141.123Z" fill="#FCA29D"/>
<path d="M96.4812 157.851L77.6562 182.521L102.776 187.631L115.581 152.391L96.4812 157.851Z" fill="#FCA29D"/>
<path d="M220.85 52.7356L217.195 52.3906C217.195 52.3906 219.045 57.1456 221.7 57.8006C224.355 58.4556 227.76 59.5906 227.76 59.5906C227.76 59.5906 227.42 53.1706 220.845 52.7356H220.85Z" fill="#E07777"/>
<path d="M226.127 68.3956L222.937 60.8906L217.352 61.2206C217.352 61.2206 218.067 63.8456 220.302 63.4006L222.007 63.9006L223.922 71.9006L226.127 68.3956Z" fill="#E07777"/>
<path d="M218.33 50.6866L231.715 51.1266L236.215 73.3816L224.485 86.8316L227.76 60.3716L227.77 57.1116C227.77 57.1116 216.44 54.8066 216.305 50.3516L218.33 50.6866Z" fill="#F48A87"/>
<path d="M210.353 88.3588C210.353 88.3588 204.078 81.2238 206.583 76.1388C209.088 71.0538 212.158 64.4188 212.158 64.4188C212.158 64.4188 215.313 65.8437 214.668 69.1737C214.023 72.5037 212.653 75.4537 212.653 75.4537L213.368 78.1388L223.918 71.8988L226.233 56.6587C226.233 56.6587 218.928 49.6037 221.993 46.5938L231.468 54.8138L231.738 71.5187L223.313 89.3137L210.358 88.3588H210.353Z" fill="#FCA29D"/>
<path d="M210.355 88.3594L223.31 89.3144C223.31 89.3144 232.43 145.094 232.63 156.064C232.84 167.854 230.085 171.499 219.885 175.429C219.655 175.519 219.43 175.599 219.205 175.674C209.575 178.899 199.945 170.659 201.22 160.584L210.36 88.3594H210.355Z" fill="#FCA29D"/>
<path d="M38.1112 82.4365C37.0962 82.4365 36.3212 82.1565 36.1412 82.0865C33.6212 81.1015 32.2962 78.4465 32.9862 75.7765C33.1612 75.1015 33.4612 74.4915 33.8512 73.9615C37.0812 68.0615 41.2912 63.4565 46.3712 60.2665C53.3112 55.9115 65.1112 52.4065 81.9162 60.4315C84.5312 61.6815 85.6412 64.8165 84.3912 67.4315C83.1412 70.0465 80.0062 71.1565 77.3912 69.9065C57.0012 60.1615 47.0462 71.5815 42.9262 79.2565C41.5312 81.8565 39.5762 82.4315 38.1112 82.4315V82.4365ZM43.1512 78.4065C43.1512 78.4065 43.1512 78.4065 43.1512 78.4115C43.1512 78.4115 43.1512 78.4115 43.1512 78.4065Z" fill="#1F2855"/>
<path d="M53.6804 91.294C53.3354 91.294 52.9904 91.259 52.6404 91.189C49.7954 90.624 47.9554 87.834 48.5254 84.994C48.7204 84.004 50.6804 75.229 58.4204 71.714C63.7554 69.294 70.0304 70.119 77.0754 74.169C79.5904 75.614 80.4554 78.824 79.0104 81.339C77.5654 83.854 74.3554 84.719 71.8404 83.274C69.1404 81.724 65.3804 80.114 62.7904 81.264C59.8704 82.559 58.8204 87.049 58.8104 87.094C58.3104 89.589 56.1254 91.299 53.6804 91.299V91.294Z" fill="#1F2855"/>
<path d="M23.0708 79.7701C22.5308 79.7701 21.9858 79.6851 21.4458 79.5101C18.6958 78.6151 17.1858 75.6651 18.0758 72.9101C18.3708 72.0051 25.4658 50.6351 44.8858 42.2551C57.0608 37.0001 71.0708 38.0501 86.5208 45.3851C89.1408 46.6301 90.2558 49.7601 89.0108 52.3801C87.7658 55.0001 84.6358 56.1151 82.0158 54.8701C69.4458 48.9051 58.3758 47.8951 49.1108 51.8651C34.0758 58.3101 28.1158 75.9751 28.0558 76.1501C27.3308 78.3601 25.2708 79.7651 23.0658 79.7651L23.0708 79.7701Z" fill="#1F2855"/>
<path d="M67.8737 102.872C71.6873 102.872 74.7787 99.781 74.7787 95.9675C74.7787 92.154 71.6873 89.0625 67.8737 89.0625C64.0602 89.0625 60.9688 92.154 60.9688 95.9675C60.9688 99.781 64.0602 102.872 67.8737 102.872Z" fill="#1F2855"/>
<path d="M49.9729 119.907C49.4429 119.907 48.9079 119.827 48.3779 119.657C45.6129 118.777 44.0879 115.822 44.9679 113.062L73.1329 24.6821C74.0129 21.9221 76.9679 20.3921 79.7279 21.2721C82.4929 22.1521 84.0179 25.1071 83.1379 27.8671L54.9729 116.247C54.2629 118.477 52.1979 119.902 49.9729 119.902V119.907Z" fill="#A11D33"/>
<path d="M180.48 50.3578L189.48 37.5078L195.695 42.7628L181.765 56.0028L180.48 50.3578Z" fill="#1F2855"/>
<path d="M184.98 58.9219H195.695V64.9519L184.98 61.9369V58.9219Z" fill="#1F2855"/>
<path d="M181.551 67.9609L193.336 76.0959L189.266 80.2709L179.621 70.3609L181.551 67.9609Z" fill="#1F2855"/>
</g>
<defs>
<clipPath id="clip0_6634_279096">
<rect width="272.895" height="191.085" fill="white" transform="translate(0.0507812)"/>
</clipPath>
</defs>
</svg>
