<svg width="343" height="220" viewBox="0 0 343 220" fill="none" xmlns="http://www.w3.org/2000/svg">
<g clip-path="url(#clip0_927_2615)">
<path d="M72.453 84.7273C82.8048 82.9653 89.7681 73.1451 88.0061 62.7933C86.2441 52.4416 76.4239 45.4782 66.0721 47.2402C55.7204 49.0023 48.757 58.8224 50.519 69.1742C52.2811 79.526 62.1012 86.4893 72.453 84.7273Z" fill="#EAECF0"/>
<path d="M289.822 137.951C300.69 137.71 309.305 128.705 309.064 117.837C308.823 106.969 299.817 98.3546 288.95 98.5955C278.082 98.8364 269.467 107.842 269.708 118.71C269.949 129.577 278.954 138.192 289.822 137.951Z" fill="#F5F5F5"/>
<path d="M234.69 127.195C232.175 113.147 220.112 100.893 205.889 99.721C198.138 99.0913 190.347 101.534 182.628 100.602C176.086 99.785 170.065 96.6113 165.695 91.675C159.319 84.422 157.163 74.1045 150.412 67.2022C141.111 57.6817 124.879 57.5342 113.561 64.5361C102.244 71.538 95.401 84.1749 92.2687 97.1067L92.1452 101.04C91.4637 114.454 94.9945 130.064 102.778 142.019C110.664 154.134 115.849 159.155 130.219 167.847C142.422 175.243 166.317 178.495 180.583 178.838C194.85 179.181 209.504 174.933 220.236 165.52C230.968 156.107 237.208 141.242 234.69 127.195Z" fill="#EAECF0"/>
<path d="M193.619 123.469C193.749 137.194 190.758 147.688 184.644 154.952C178.531 162.215 170.162 165.895 159.538 165.991C148.858 166.094 140.368 162.577 134.069 155.438C127.77 148.299 124.553 137.869 124.417 124.147L124.186 100.013C124.053 86.341 127.045 75.8467 133.16 68.53C139.276 61.2133 147.673 57.5098 158.351 57.4194C168.978 57.3158 177.443 60.8586 183.748 68.0478C190.052 75.237 193.268 85.6661 193.396 99.3352L193.619 123.469ZM175.754 96.8006C175.666 88.1582 174.161 81.7766 171.238 77.656C168.316 73.5354 164.065 71.5003 158.486 71.5508C152.925 71.6039 148.729 73.72 145.897 77.8991C143.065 82.0782 141.682 88.4876 141.748 97.1274L142.027 126.454C142.11 135.142 143.633 141.559 146.598 145.706C149.563 149.854 153.823 151.901 159.379 151.847C164.934 151.794 169.117 149.678 171.928 145.499C174.739 141.32 176.103 134.863 176.021 126.127L175.754 96.8006Z" fill="#AF282B"/>
<path d="M203.765 123.373C203.898 137.096 200.907 147.59 194.791 154.856C188.675 162.122 180.306 165.802 169.684 165.895C159.004 165.998 150.514 162.48 144.215 155.338C137.916 148.197 134.703 137.764 134.575 124.039L134.344 99.9049C134.211 86.2332 137.203 75.7389 143.319 68.4222C149.434 61.1055 157.831 57.4006 168.509 57.3077C179.136 57.2094 187.602 60.7521 193.906 67.936C200.211 75.1199 203.415 85.5543 203.518 99.2393L203.765 123.373ZM185.9 96.7048C185.815 88.065 184.303 81.6888 181.365 77.5761C178.426 73.4634 174.176 71.4283 168.612 71.4709C163.052 71.5266 158.855 73.6428 156.023 77.8192C153.191 81.9956 151.815 88.4064 151.895 97.0515L152.178 126.374C152.263 135.064 153.786 141.483 156.749 145.63C159.711 149.778 163.971 151.825 169.529 151.771C175.084 151.716 179.267 149.6 182.078 145.423C184.889 141.247 186.252 134.788 186.167 126.047L185.9 96.7048Z" fill="#D33044"/>
<path d="M134.396 101.34C134.416 101.391 132.061 102.328 129.136 103.428C126.211 104.528 123.815 105.357 123.815 105.321C123.815 105.285 126.151 104.332 129.076 103.232C132.001 102.133 134.376 101.284 134.396 101.34Z" fill="#FF725E"/>
<path d="M134.974 110.876C134.993 110.928 132.638 111.864 129.709 112.964C126.78 114.064 124.397 114.909 124.377 114.857C124.357 114.805 126.712 113.869 129.637 112.769C132.563 111.669 134.974 110.82 134.974 110.876Z" fill="#FF725E"/>
<path d="M135.568 120.413C135.588 120.464 133.232 121.401 130.303 122.501C127.374 123.601 125.011 124.445 124.971 124.394C124.931 124.342 127.306 123.405 130.232 122.305C133.157 121.206 135.548 120.357 135.568 120.413Z" fill="#FF725E"/>
<path d="M136.169 129.949C136.189 130.001 133.834 130.937 130.905 132.037C127.976 133.137 125.589 133.982 125.569 133.93C125.549 133.878 127.908 132.942 130.833 131.842C133.758 130.742 136.134 129.893 136.169 129.949Z" fill="#FF725E"/>
<path d="M136.739 139.485C136.624 139.559 136.501 139.619 136.372 139.665C136.133 139.768 135.783 139.912 135.352 140.083C134.483 140.43 133.284 140.88 131.953 141.394C130.622 141.908 129.41 142.335 128.53 142.646C128.091 142.801 127.733 142.925 127.485 143.004C127.358 143.058 127.224 143.093 127.087 143.108C127.201 143.033 127.324 142.973 127.454 142.929C127.693 142.825 128.039 142.681 128.474 142.53C129.339 142.183 130.542 141.733 131.873 141.219C133.204 140.705 134.416 140.274 135.296 139.968C135.735 139.812 136.093 139.689 136.34 139.609C136.466 139.548 136.601 139.506 136.739 139.485Z" fill="#FF725E"/>
<path d="M139.461 148.209C139.077 148.416 138.677 148.593 138.266 148.739C137.509 149.042 136.46 149.448 135.301 149.887C134.141 150.325 133.081 150.708 132.316 150.975C131.907 151.141 131.486 151.274 131.057 151.373C131.44 151.165 131.84 150.988 132.252 150.843C133.005 150.536 134.053 150.13 135.217 149.695C136.381 149.261 137.433 148.875 138.202 148.607C138.61 148.439 139.031 148.306 139.461 148.209Z" fill="#FF725E"/>
<path d="M145.291 156.211C144.948 156.402 144.59 156.563 144.219 156.693C143.546 156.964 142.625 157.327 141.581 157.717C140.537 158.108 139.589 158.447 138.919 158.682C138.555 158.829 138.179 158.945 137.795 159.028C138.137 158.836 138.496 158.674 138.867 158.546C139.537 158.275 140.461 157.913 141.506 157.522C142.55 157.132 143.498 156.793 144.168 156.554C144.531 156.406 144.907 156.292 145.291 156.211Z" fill="#FF725E"/>
<path d="M154.979 161.459C154.635 161.648 154.277 161.808 153.907 161.938C153.233 162.213 152.313 162.575 151.269 162.962C150.225 163.348 149.276 163.691 148.607 163.93C148.243 164.078 147.867 164.192 147.483 164.273C147.826 164.082 148.185 163.921 148.555 163.791C149.228 163.52 150.149 163.157 151.193 162.767C152.237 162.376 153.186 162.037 153.855 161.802C154.218 161.652 154.594 161.538 154.979 161.459Z" fill="#FF725E"/>
<path d="M184.198 141.107C184.222 141.159 181.197 142.57 177.443 144.259C173.689 145.949 170.625 147.272 170.601 147.22C170.577 147.169 173.602 145.758 177.375 144.068C181.149 142.378 184.174 141.055 184.198 141.107Z" fill="#FF725E"/>
<path d="M186.183 132.938C186.207 132.99 183.708 134.161 180.603 135.556C177.499 136.951 174.965 138.043 174.941 137.991C174.917 137.939 177.411 136.764 180.52 135.369C183.628 133.974 186.159 132.886 186.183 132.938Z" fill="#FF725E"/>
<path d="M187.095 123.76C187.119 123.812 184.621 124.983 181.516 126.378C178.412 127.773 175.877 128.865 175.853 128.813C175.829 128.761 178.324 127.586 181.432 126.191C184.541 124.796 187.071 123.688 187.095 123.76Z" fill="#FF725E"/>
<path d="M188.008 114.578C188.032 114.63 185.537 115.806 182.429 117.2C179.32 118.595 176.79 119.683 176.766 119.631C176.742 119.58 179.241 118.408 182.345 117.013C185.449 115.618 187.976 114.522 188.008 114.578Z" fill="#FF725E"/>
<path d="M188.925 105.4C188.945 105.452 186.45 106.628 183.346 108.023C180.241 109.417 177.707 110.505 177.683 110.454C177.659 110.402 180.158 109.23 183.262 107.831C186.366 106.433 188.901 105.357 188.925 105.4Z" fill="#FF725E"/>
<path d="M187.095 97.2269C187.119 97.2787 184.621 98.4543 181.516 99.8491C178.412 101.244 175.877 102.332 175.853 102.28C175.829 102.228 178.324 101.053 181.432 99.6578C184.541 98.263 187.071 97.1751 187.095 97.2269Z" fill="#FF725E"/>
<path d="M187.095 88.4278C187.119 88.4796 184.621 89.6552 181.516 91.05C178.412 92.4448 175.877 93.5328 175.853 93.481C175.829 93.4292 178.324 92.2535 181.432 90.8587C184.541 89.4639 187.071 88.376 187.095 88.4278Z" fill="#FF725E"/>
<path d="M186.183 80.1426C186.207 80.1945 183.708 81.3661 180.603 82.7609C177.499 84.1557 174.965 85.2476 174.941 85.1958C174.917 85.144 177.411 83.9684 180.52 82.5736C183.628 81.1788 186.159 80.0908 186.183 80.1426Z" fill="#FF725E"/>
<path d="M178.312 74.3682C177.218 74.9744 176.091 75.5199 174.937 76.0021C173.81 76.5461 172.654 77.0278 171.474 77.4447C172.566 76.8356 173.693 76.29 174.849 75.8108C175.976 75.2667 177.132 74.7851 178.312 74.3682Z" fill="#FF725E"/>
<path d="M174.104 70.8333C173.009 71.4362 171.882 71.9803 170.729 72.4632C169.602 73.0073 168.446 73.4889 167.266 73.9058C168.36 73.3023 169.487 72.7595 170.641 72.2799C171.768 71.7344 172.924 71.2515 174.104 70.8333Z" fill="#FF725E"/>
<path d="M134.846 89.7786C134.866 89.8304 132.511 90.7669 129.586 91.8668C126.661 92.9667 124.27 93.8156 124.25 93.7598C124.23 93.704 126.585 92.7715 129.514 91.6716C132.443 90.5717 134.826 89.7268 134.846 89.7786Z" fill="#FF725E"/>
<path d="M137.763 77.8869C137.787 77.9387 135.229 78.947 132.06 80.1425C128.892 81.338 126.298 82.2546 126.278 82.2028C126.258 82.151 128.813 81.1388 131.985 79.9472C135.157 78.7557 137.763 77.8311 137.763 77.8869Z" fill="#FF725E"/>
<path d="M145.443 66.1149C145.463 66.1707 142.223 67.434 138.206 68.9444C134.189 70.4548 130.917 71.6344 130.897 71.5825C130.877 71.5307 134.117 70.2595 138.134 68.7491C142.151 67.2387 145.423 66.0631 145.443 66.1149Z" fill="#FF725E"/>
<path d="M202.048 141.223L201.88 141.167L201.402 140.98C201.191 140.904 200.916 140.844 200.605 140.757C200.233 140.684 199.856 140.638 199.477 140.617C197.775 140.51 195.225 141.127 192.758 142.976C191.423 143.988 190.226 145.171 189.199 146.495C188.056 147.894 186.936 149.476 185.665 151.07C184.371 152.78 182.823 154.281 181.074 155.522C179.159 156.813 176.995 157.69 174.721 158.096C172.448 158.505 170.113 158.428 167.871 157.869C165.802 157.326 163.791 156.58 161.869 155.641C160.016 154.784 158.283 153.912 156.633 153.19C155.098 152.513 153.506 151.975 151.875 151.584C150.53 151.266 149.152 151.109 147.77 151.114C146.727 151.122 145.689 151.263 144.681 151.532C144.048 151.718 143.432 151.96 142.84 152.254L142.386 152.493C142.336 152.524 142.282 152.549 142.227 152.569L142.374 152.477L142.82 152.218C143.406 151.905 144.022 151.65 144.657 151.457C145.67 151.171 146.714 151.017 147.766 150.998C149.159 150.98 150.549 151.129 151.906 151.441C153.545 151.827 155.146 152.36 156.689 153.035C158.354 153.752 160.088 154.629 161.937 155.474C163.852 156.403 165.854 157.14 167.915 157.674C170.132 158.227 172.441 158.303 174.69 157.897C176.935 157.495 179.073 156.63 180.966 155.358C182.702 154.132 184.24 152.647 185.525 150.955C186.796 149.361 187.916 147.79 189.076 146.388C190.112 145.06 191.318 143.874 192.663 142.861C195.165 141.012 197.752 140.406 199.473 140.541C199.856 140.567 200.237 140.618 200.613 140.697C200.932 140.796 201.207 140.86 201.41 140.944L201.884 141.151L202.048 141.223Z" fill="white"/>
<path d="M204.562 114.642C204.562 114.662 204.279 114.698 203.785 114.861C203.098 115.113 202.45 115.46 201.86 115.893C201.103 116.423 200.266 117.165 199.306 117.93C198.246 118.757 197.098 119.464 195.883 120.038C193.677 121.095 191.287 121.712 188.845 121.855C188.379 121.895 187.952 121.883 187.582 121.891C187.211 121.899 186.892 121.867 186.633 121.847L186.031 121.787C185.962 121.786 185.894 121.774 185.828 121.752C185.897 121.742 185.967 121.742 186.035 121.752L186.637 121.771H187.582C187.952 121.751 188.379 121.771 188.833 121.708C191.248 121.521 193.609 120.89 195.795 119.847C196.996 119.276 198.134 118.581 199.19 117.774C200.159 117.025 201 116.288 201.781 115.782C202.389 115.351 203.062 115.017 203.773 114.793C203.967 114.738 204.164 114.696 204.363 114.666C204.428 114.648 204.495 114.64 204.562 114.642Z" fill="white"/>
<path d="M152.508 123.876C152.436 123.872 152.363 123.862 152.293 123.844C152.15 123.812 151.938 123.78 151.671 123.704C150.923 123.483 150.205 123.168 149.535 122.768C148.553 122.165 147.62 121.484 146.746 120.731C145.745 119.902 144.677 118.958 143.454 118.113C142.312 117.306 141.029 116.718 139.672 116.38C137.807 115.921 135.858 115.929 133.997 116.404C133.467 116.539 133.18 116.643 133.176 116.623C133.238 116.582 133.305 116.552 133.376 116.531C133.511 116.479 133.71 116.4 133.977 116.324C134.724 116.105 135.492 115.972 136.269 115.925C137.426 115.84 138.589 115.935 139.716 116.208C141.099 116.544 142.406 117.137 143.57 117.958C144.809 118.815 145.877 119.767 146.869 120.6C147.73 121.354 148.647 122.043 149.611 122.66C150.267 123.065 150.966 123.395 151.695 123.645C151.97 123.707 152.241 123.784 152.508 123.876Z" fill="white"/>
<path d="M152.576 86.204C152.362 86.3036 152.139 86.3849 151.911 86.4471C151.649 86.5392 151.383 86.6177 151.114 86.6822C150.799 86.7619 150.444 86.8695 150.042 86.9412C149.639 87.013 149.205 87.1126 148.727 87.1724C148.248 87.2321 147.742 87.2879 147.204 87.3358C146.036 87.4099 144.864 87.3952 143.697 87.2919C142.532 87.1754 141.377 86.9715 140.242 86.6822C139.724 86.5347 139.226 86.3993 138.776 86.2359C138.325 86.0725 137.903 85.921 137.528 85.7656C137.154 85.6102 136.819 85.4468 136.524 85.3113C136.229 85.1758 135.986 85.0443 135.787 84.9327C135.576 84.8275 135.374 84.7063 135.181 84.5701C135.402 84.6514 135.616 84.7486 135.823 84.861C136.026 84.9606 136.277 85.0842 136.572 85.2077C136.867 85.3312 137.202 85.4906 137.584 85.6261C137.967 85.7616 138.381 85.933 138.832 86.0725C139.282 86.2119 139.772 86.3554 140.29 86.4949C142.544 87.0633 144.872 87.2824 147.192 87.1445C147.726 87.1006 148.232 87.0727 148.707 87.001C149.181 86.9293 149.615 86.8695 150.014 86.7978C150.412 86.726 150.767 86.6384 151.082 86.5706C151.397 86.5029 151.668 86.4311 151.879 86.3714C152.107 86.2989 152.34 86.243 152.576 86.204Z" fill="white"/>
<path d="M202.299 86.1045C202.24 86.0829 202.184 86.0548 202.131 86.0208L201.669 85.7538C201.429 85.6078 201.182 85.4747 200.928 85.3552C200.6 85.1796 200.264 85.0213 199.919 84.881L199.322 84.63C199.11 84.5463 198.887 84.4825 198.656 84.4028C198.202 84.2354 197.696 84.1199 197.166 83.9804C194.849 83.4532 192.445 83.4328 190.12 83.9206C189.614 84.0277 189.114 84.1607 188.622 84.3191C188.39 84.3948 188.163 84.4546 187.952 84.5343L187.35 84.7734C187.004 84.9089 186.665 85.0618 186.334 85.2317C186.077 85.3484 185.828 85.4816 185.589 85.6302L185.119 85.8893C185.011 85.945 184.951 85.9729 184.947 85.965C184.993 85.9213 185.044 85.8838 185.099 85.8534L185.545 85.5585C185.781 85.4014 186.027 85.2602 186.282 85.1361C186.609 84.9524 186.948 84.7887 187.295 84.6459L187.896 84.3908C188.107 84.3072 188.339 84.2434 188.57 84.1637C189.065 83.9966 189.569 83.8569 190.08 83.7453C192.431 83.2296 194.868 83.2514 197.21 83.809C197.744 83.9525 198.254 84.076 198.712 84.2514C198.943 84.335 199.17 84.4028 199.377 84.4945L199.979 84.7575C200.322 84.9092 200.657 85.0781 200.983 85.2636C201.235 85.3938 201.477 85.5402 201.709 85.702L202.155 86.0048C202.255 86.0566 202.322 86.0965 202.299 86.1045Z" fill="white"/>
<path d="M177.934 59.0332C177.844 59.1009 177.748 59.1596 177.647 59.2085L176.818 59.6668C176.081 60.0654 175.013 60.6193 173.674 61.2888C171.004 62.6079 167.254 64.4131 162.814 65.537C160.727 66.0616 158.589 66.3582 156.438 66.4217C154.682 66.473 152.927 66.3219 151.205 65.9713C150.045 65.7384 148.911 65.3927 147.818 64.9392C147.42 64.7877 147.145 64.6283 146.945 64.5407C146.842 64.4963 146.742 64.4443 146.646 64.3853C146.755 64.4135 146.861 64.4536 146.961 64.5048C147.169 64.5805 147.455 64.728 147.85 64.8674C148.947 65.2898 150.079 65.6126 151.233 65.8319C152.947 66.1591 154.691 66.2928 156.434 66.2304C158.568 66.1563 160.688 65.8557 162.758 65.3337C167.17 64.2179 170.924 62.4445 173.606 61.1573L176.794 59.5911L177.615 59.1687C177.718 59.1166 177.825 59.0714 177.934 59.0332Z" fill="white"/>
<path d="M97.936 128.471L111.258 129.052L110.641 143.172L97.3183 142.59L96.2941 166.05L78.7595 165.285L79.7837 141.825L34.5483 139.848L34.5842 129.088L82.8044 59.8264L100.905 60.6234L97.936 128.471ZM52.1069 126.478L80.4014 127.713L82.2664 84.9209L81.84 84.7575L80.246 87.8061L52.1069 126.478Z" fill="#AF282B"/>
<path d="M109.07 128.957L122.393 129.538L121.775 143.658L108.453 143.076L107.428 166.536L89.8937 165.771L90.9179 142.311L45.6626 140.318L45.6985 129.558L93.9267 60.3245L112.031 61.1215L109.07 128.957ZM63.2411 126.964L91.5555 128.199L93.4206 85.407L92.9941 85.2436L91.4001 88.2922L63.2411 126.964Z" fill="#D33044"/>
<path d="M45.9416 131.627C45.8078 131.724 45.6634 131.805 45.5112 131.87C45.2283 132.013 44.8138 132.213 44.3157 132.452C43.2915 132.934 41.8608 133.575 40.2628 134.253C38.6647 134.93 37.2102 135.504 36.1501 135.907C35.6201 136.106 35.1857 136.261 34.8868 136.365C34.7339 136.428 34.575 136.476 34.4126 136.509C34.5524 136.418 34.7022 136.345 34.8589 136.289L36.0943 135.767L40.1671 134.05L44.24 132.308L45.4793 131.782C45.6277 131.715 45.7826 131.663 45.9416 131.627Z" fill="#FF725E"/>
<path d="M52.4295 119.703C52.2363 119.822 52.0353 119.927 51.8277 120.018C51.4292 120.209 50.8633 120.48 50.1539 120.815C48.7313 121.461 46.7586 122.325 44.5747 123.254C42.3909 124.182 40.3704 124.975 38.9318 125.541C38.2065 125.828 37.6167 126.051 37.2022 126.199C36.994 126.288 36.7778 126.357 36.5566 126.406C36.7557 126.298 36.9621 126.203 37.1743 126.123L38.876 125.406L44.499 123.043L50.1101 120.652L51.8118 119.93C52.0101 119.835 52.2169 119.759 52.4295 119.703Z" fill="#FF725E"/>
<path d="M60.3478 109.051C60.1473 109.175 59.9367 109.281 59.7182 109.37C59.3196 109.561 58.7099 109.832 57.9687 110.167C56.4822 110.816 54.4219 111.681 52.1344 112.61C49.847 113.538 47.7508 114.347 46.2404 114.917C45.4832 115.2 44.8655 115.423 44.4391 115.57C44.2214 115.66 43.996 115.729 43.7656 115.778C43.9745 115.669 44.1901 115.575 44.4112 115.495L46.1886 114.777L52.0547 112.414L57.9089 110.023L59.6863 109.302C59.9 109.201 60.1211 109.117 60.3478 109.051Z" fill="#FF725E"/>
<path d="M92.0659 121.341C91.9301 121.435 91.7845 121.514 91.6316 121.576C91.3486 121.716 90.9342 121.907 90.4161 122.138C89.3879 122.604 87.9533 123.222 86.3552 123.872C84.7572 124.521 83.2946 125.067 82.2346 125.466C81.7006 125.657 81.2702 125.808 80.9713 125.908C80.8177 125.967 80.6589 126.011 80.4971 126.04C80.6359 125.953 80.7843 125.884 80.9394 125.832L82.1828 125.33L86.2795 123.688L90.3603 122.015L91.5997 121.508C91.7485 121.436 91.9048 121.38 92.0659 121.341Z" fill="#FF725E"/>
<path d="M90.7745 143.235C90.6442 143.329 90.5039 143.408 90.3561 143.47C90.0811 143.606 89.6786 143.801 89.1804 144.032C88.1842 144.499 86.7894 145.116 85.2471 145.762C83.7049 146.408 82.2782 146.957 81.262 147.356C80.7439 147.547 80.3255 147.699 80.0345 147.794C79.8859 147.856 79.7309 147.902 79.5723 147.93C79.7073 147.843 79.8517 147.773 80.0027 147.719L81.1982 147.217L85.1833 145.579L89.1366 143.905L90.3322 143.403C90.4733 143.332 90.6216 143.276 90.7745 143.235Z" fill="#FF725E"/>
<path d="M90.5914 150.911C90.4677 151.002 90.334 151.08 90.1929 151.142C89.9179 151.281 89.5154 151.473 88.9973 151.708C88.0011 152.17 86.6063 152.788 85.06 153.437C83.5138 154.087 82.0951 154.633 81.0749 155.031C80.5608 155.223 80.1423 155.374 79.8474 155.474C79.7011 155.537 79.547 155.582 79.3892 155.605C79.5255 155.522 79.6697 155.453 79.8196 155.398L81.0151 154.896L85.0002 153.258L88.9575 151.584L90.153 151.082C90.2915 151.007 90.4387 150.949 90.5914 150.911Z" fill="#FF725E"/>
<path d="M90.4078 158.582C90.2831 158.674 90.1496 158.752 90.0093 158.817C89.7343 158.957 89.3318 159.148 88.8137 159.379C87.8135 159.846 86.4227 160.463 84.8764 161.109C83.3302 161.754 81.9115 162.304 80.8913 162.703C80.3772 162.894 79.9548 163.046 79.6639 163.141C79.5162 163.202 79.3626 163.248 79.2056 163.277C79.3405 163.19 79.4849 163.119 79.636 163.066L80.8315 162.567L84.8166 160.926L88.7739 159.252L89.9694 158.75C90.109 158.678 90.256 158.622 90.4078 158.582Z" fill="#FF725E"/>
<path d="M92.2731 113.235C92.1361 113.327 91.9907 113.406 91.8387 113.47C91.5557 113.61 91.1413 113.801 90.6431 114.032C89.615 114.499 88.1803 115.116 86.5823 115.766C84.9842 116.415 83.5217 116.961 82.4616 117.36C81.9276 117.551 81.4972 117.703 81.1984 117.798C81.0452 117.859 80.8863 117.905 80.7241 117.934C80.8621 117.845 81.0107 117.774 81.1665 117.723L82.4098 117.22L86.5066 115.583L90.5873 113.909L91.8267 113.407C91.969 113.334 92.1186 113.276 92.2731 113.235Z" fill="#FF725E"/>
<path d="M92.4805 105.129C92.3435 105.221 92.1981 105.3 92.0461 105.365C91.7632 105.5 91.3487 105.695 90.8306 105.926C89.8025 106.393 88.3678 107.01 86.7698 107.656C85.1717 108.302 83.7132 108.852 82.6491 109.25C82.1151 109.441 81.6847 109.589 81.3859 109.688C81.2327 109.749 81.0738 109.795 80.9116 109.824C81.0508 109.735 81.2008 109.664 81.358 109.613L82.5973 109.111L86.6941 107.473L90.7748 105.799L92.0142 105.297C92.163 105.224 92.3194 105.168 92.4805 105.129Z" fill="#FF725E"/>
<path d="M92.6875 97.0237C92.5624 97.1112 92.4289 97.186 92.289 97.2468C92.022 97.3784 91.6274 97.5617 91.1373 97.7848C90.1529 98.2312 88.79 98.825 87.2677 99.4387C85.7454 100.052 84.3506 100.582 83.3383 100.945C82.8322 101.124 82.4217 101.268 82.1428 101.344C81.9966 101.403 81.8442 101.446 81.6885 101.471C81.8223 101.387 81.9654 101.319 82.1149 101.268L83.3104 100.79L87.2119 99.2315L91.1014 97.6374L92.2969 97.1592C92.4216 97.0995 92.5526 97.054 92.6875 97.0237Z" fill="#FF725E"/>
<path d="M93.6038 89.448C92.9676 89.7924 92.3005 90.0766 91.6113 90.2968C90.9441 90.5808 90.2516 90.801 89.543 90.9544C90.1792 90.6088 90.8463 90.3233 91.5355 90.1016C92.2023 89.8176 92.895 89.5987 93.6038 89.448Z" fill="#FF725E"/>
<path d="M68.2506 98.02C68.0496 98.1406 67.8405 98.2471 67.6249 98.3388C67.2264 98.5301 66.6166 98.7971 65.8714 99.1359C64.389 99.7854 62.3286 100.65 60.0372 101.579C57.7457 102.507 55.6535 103.32 54.1471 103.886C53.39 104.169 52.7723 104.392 52.3459 104.54C52.1264 104.625 51.9014 104.696 51.6724 104.751C51.8789 104.637 52.0949 104.541 52.318 104.464L54.0953 103.751L59.9615 101.372L65.8156 98.9804L67.589 98.2591C67.804 98.1648 68.025 98.085 68.2506 98.02Z" fill="#FF725E"/>
<path d="M76.1568 86.9851C75.9563 87.109 75.7457 87.2156 75.5272 87.3039C75.1286 87.4952 74.5189 87.7662 73.7777 88.1009C72.2952 88.7465 70.2309 89.6153 67.9434 90.5399C65.656 91.4644 63.5598 92.2814 62.0534 92.8473C61.2922 93.1342 60.6785 93.3574 60.2481 93.5048C60.0314 93.5932 59.8074 93.6625 59.5786 93.712C59.7853 93.6021 59.9997 93.5076 60.2202 93.4291L61.9976 92.7118L67.8637 90.3486L73.7219 87.9575L75.4953 87.2322C75.7094 87.1336 75.9305 87.0511 76.1568 86.9851Z" fill="#FF725E"/>
<path d="M83.462 75.9543C83.2599 76.0753 83.0495 76.1819 82.8323 76.2732C82.4338 76.4644 81.8241 76.7314 81.0829 77.0702C79.6004 77.7198 77.5361 78.5845 75.2486 79.5131C72.9611 80.4416 70.8649 81.2546 69.3586 81.8205C68.6014 82.1034 67.9837 82.3266 67.5573 82.474C67.3378 82.5596 67.1128 82.6302 66.8838 82.6853C67.0904 82.5713 67.3064 82.4753 67.5294 82.3983L69.3068 81.685L75.1729 79.3218L81.0271 76.9307L82.8005 76.2094C83.013 76.1051 83.2344 76.0197 83.462 75.9543Z" fill="#FF725E"/>
<path d="M91.0656 65.3457C90.8629 65.4656 90.6525 65.5721 90.4359 65.6645C90.0374 65.8558 89.4277 66.1228 88.6864 66.4615C87.2 67.1111 85.1397 67.9759 82.8522 68.9044C80.5647 69.833 78.4685 70.6459 76.9582 71.2118C76.201 71.4948 75.5873 71.7179 75.1569 71.8654C74.9379 71.9523 74.7128 72.0229 74.4834 72.0766C74.6905 71.9637 74.9064 71.8677 75.129 71.7897L76.9064 71.0763L82.7685 68.6932L88.6227 66.3021L90.4001 65.5808C90.6158 65.4862 90.8383 65.4076 91.0656 65.3457Z" fill="#FF725E"/>
<path d="M111.238 81.5534C111.172 81.6497 111.094 81.738 111.007 81.8164C110.782 82.0639 110.541 82.2969 110.286 82.5138C109.356 83.3253 108.313 83.9966 107.19 84.5064C105.513 85.2595 103.703 85.6662 101.865 85.7019C100.78 85.7219 99.6957 85.6 98.6414 85.3393C97.516 85.051 96.4245 84.6436 95.3855 84.1238C93.2415 83.0797 91.3366 81.8483 89.4756 80.9915C87.8444 80.1918 86.069 79.7283 84.255 79.6286C83.0329 79.5659 81.8132 79.794 80.6963 80.2941C80.3952 80.4352 80.106 80.6005 79.8315 80.7882C79.7378 80.8576 79.6393 80.9202 79.5366 80.9755C79.6216 80.8961 79.7122 80.8229 79.8076 80.7564C80.0752 80.553 80.3607 80.3743 80.6604 80.2223C81.7783 79.6884 83.0091 79.434 84.2471 79.4811C86.0867 79.5684 87.889 80.0308 89.5433 80.84C91.4243 81.6968 93.3372 82.9243 95.4613 83.9604C96.4901 84.4698 97.5693 84.8704 98.6812 85.1559C99.7171 85.4141 100.782 85.5374 101.849 85.5226C104.909 85.4805 107.862 84.3936 110.218 82.4421C110.557 82.1711 110.796 81.932 110.963 81.7765C111.049 81.695 111.141 81.6204 111.238 81.5534Z" fill="white"/>
<path d="M105.691 61.8508C105.53 61.9624 105.361 62.061 105.185 62.1457C104.854 62.3251 104.36 62.5442 103.738 62.8232C103.01 63.1297 102.265 63.3957 101.507 63.6202C99.6495 64.1746 97.7289 64.488 95.7919 64.5528C94.9946 64.5818 94.1963 64.5659 93.4008 64.5049C92.7273 64.4531 92.2053 64.3894 91.8068 64.3216C91.6125 64.2998 91.4205 64.2612 91.2329 64.2061C91.4289 64.1992 91.6251 64.2112 91.8187 64.2419C92.1893 64.2858 92.7313 64.3256 93.4128 64.3575C94.0942 64.3894 94.8833 64.3973 95.768 64.3575C96.7263 64.31 97.6815 64.2116 98.6293 64.0626C99.5695 63.9011 100.501 63.6909 101.419 63.4329C102.268 63.1859 103.013 62.9308 103.647 62.6837C104.28 62.4366 104.77 62.2254 105.113 62.07C105.298 61.9787 105.492 61.9053 105.691 61.8508Z" fill="white"/>
<path d="M77.3963 106.11C77.2649 105.988 77.1449 105.855 77.0377 105.711L76.0972 104.587C75.0474 103.366 73.9326 102.202 72.7576 101.1C72.1196 100.495 71.4182 99.9608 70.6654 99.5063C70.0497 99.1379 69.3759 98.8765 68.6728 98.7332C68.0205 98.6166 67.3526 98.6166 66.7002 98.7332C66.7002 98.7332 66.744 98.7093 66.8317 98.6814C66.9614 98.6385 67.0948 98.6078 67.2302 98.5897C67.7196 98.5075 68.2193 98.5075 68.7087 98.5897C69.4349 98.716 70.1326 98.9711 70.769 99.3429C71.5427 99.799 72.2608 100.343 72.909 100.965C74.0926 102.069 75.1978 103.254 76.2167 104.512C76.6152 104.994 76.9101 105.396 77.1094 105.675C77.2202 105.809 77.3164 105.955 77.3963 106.11Z" fill="white"/>
<path d="M109.186 118.149C109.186 118.149 109.134 118.197 109.03 118.269C108.927 118.34 108.771 118.456 108.556 118.575C107.958 118.926 107.33 119.224 106.679 119.464C104.524 120.278 102.182 120.465 99.9254 120.003C97.6685 119.541 95.5886 118.449 93.9266 116.854C93.4227 116.381 92.9638 115.862 92.5557 115.304C92.4083 115.108 92.3126 114.945 92.2409 114.837C92.1692 114.73 92.1373 114.67 92.1452 114.666C92.3139 114.854 92.4722 115.051 92.6195 115.256C93.0502 115.787 93.5204 116.286 94.0262 116.746C95.6897 118.284 97.7421 119.337 99.9612 119.791C102.18 120.246 104.481 120.084 106.615 119.325C107.262 119.101 107.889 118.826 108.492 118.504C108.717 118.373 108.948 118.255 109.186 118.149Z" fill="white"/>
<path d="M120.795 143.383C120.795 143.383 120.755 143.323 120.683 143.196C120.611 143.068 120.5 142.885 120.364 142.646C119.965 141.937 119.509 141.261 119.001 140.625L118.46 139.988L118.169 139.641L117.83 139.31L117.113 138.601L116.276 137.907C114.939 136.845 113.464 135.97 111.892 135.305C109.994 134.502 107.972 134.032 105.914 133.914C103.546 133.787 101.178 134.168 98.9682 135.03C96.6369 135.947 94.3853 137.33 92.0022 138.669C90.7952 139.366 89.5454 139.986 88.2601 140.526C86.9281 141.086 85.5233 141.455 84.0877 141.622C82.651 141.766 81.2005 141.679 79.7917 141.362C78.428 141.063 77.1011 140.615 75.8344 140.027C73.4617 138.879 71.2038 137.508 69.0916 135.931C67.0472 134.476 65.1064 133.069 63.1896 131.946C61.4272 130.866 59.5168 130.05 57.5187 129.523C55.863 129.115 54.1485 129.002 52.4536 129.188C51.1739 129.321 49.9283 129.681 48.7753 130.252C48.054 130.621 47.3841 131.084 46.7827 131.627L46.3205 132.057C46.2208 132.157 46.165 132.205 46.165 132.205C46.165 132.205 46.2089 132.149 46.3085 132.041L46.7429 131.575C47.3406 131.016 48.0108 130.54 48.7355 130.16C49.894 129.571 51.1496 129.195 52.4416 129.052C54.1507 128.852 55.8818 128.956 57.5546 129.359C59.5687 129.884 61.4962 130.697 63.2772 131.774C65.218 132.898 67.1548 134.301 69.2032 135.759C71.3075 137.324 73.556 138.685 75.9181 139.824C77.1698 140.411 78.4821 140.859 79.8315 141.159C81.2209 141.47 82.6511 141.556 84.0677 141.414C85.481 141.25 86.8642 140.888 88.1764 140.338C89.4535 139.801 90.6965 139.186 91.8985 138.497C94.2896 137.162 96.5372 135.775 98.8885 134.855C99.4685 134.627 100.062 134.435 100.666 134.281C100.965 134.205 101.26 134.114 101.555 134.054L102.447 133.906C103.594 133.735 104.756 133.682 105.914 133.747C107.997 133.871 110.042 134.354 111.96 135.174C113.533 135.855 115.008 136.745 116.343 137.82C116.63 138.063 116.909 138.302 117.18 138.525L117.894 139.246L118.228 139.581C118.328 139.701 118.428 139.816 118.519 139.932C118.711 140.159 118.89 140.374 119.057 140.581C119.561 141.224 120.007 141.91 120.392 142.63C120.523 142.874 120.622 143.061 120.691 143.192C120.767 143.315 120.795 143.383 120.795 143.383Z" fill="white"/>
<path d="M108.751 160.029C108.686 160.055 108.618 160.072 108.548 160.081L107.958 160.192C107.649 160.255 107.336 160.301 107.022 160.332C106.655 160.368 106.225 160.427 105.771 160.439L105.037 160.471C104.786 160.471 104.519 160.471 104.24 160.471C103.694 160.471 103.108 160.419 102.495 160.372C101.165 160.226 99.849 159.97 98.5614 159.606C97.2799 159.221 96.0324 158.73 94.8313 158.14C94.2893 157.849 93.7673 157.582 93.305 157.283C93.0738 157.14 92.8427 157.008 92.6315 156.885L92.0337 156.466C91.6352 156.207 91.3284 155.932 91.0374 155.701C90.786 155.508 90.5452 155.302 90.3161 155.083C90.1448 154.916 89.9973 154.78 89.8817 154.685C89.8277 154.639 89.7795 154.587 89.7383 154.529C89.8 154.564 89.8575 154.605 89.9096 154.653L90.3719 155.051C90.5672 155.219 90.8103 155.422 91.1092 155.637C91.4081 155.852 91.7269 156.123 92.1174 156.374L92.7192 156.773C92.9304 156.912 93.1615 157.04 93.3927 157.171C93.8549 157.462 94.377 157.721 94.919 158.004C97.3024 159.179 99.8731 159.928 102.515 160.216C103.124 160.268 103.71 160.332 104.248 160.336C104.519 160.336 104.782 160.36 105.045 160.336H105.771C106.233 160.336 106.651 160.284 107.018 160.26C107.384 160.236 107.699 160.196 107.954 160.156L108.548 160.085C108.613 160.056 108.681 160.037 108.751 160.029Z" fill="white"/>
<path d="M270.995 128.634L284.265 127.339L285.64 141.402L272.369 142.701L274.653 166.07L257.198 167.78L254.926 144.411L209.831 148.819L208.352 138.166L246.35 62.8113L264.383 61.0459L270.995 128.634ZM225.333 133.101L253.536 130.344L249.367 87.7025L248.921 87.6029L247.781 90.8468L225.333 133.101Z" fill="#AF282B"/>
<path d="M282.093 127.55L295.364 126.251L296.743 140.318L283.468 141.621L285.756 164.994L268.297 166.7L266.013 143.331L220.93 147.731L219.459 137.082L257.457 61.7273L275.49 59.9619L282.093 127.55ZM236.436 132.013L264.639 129.268L260.47 86.6265L260.02 86.5229L258.884 89.7668L236.436 132.013Z" fill="#D33044"/>
<path d="M219.961 139.075C219.839 139.188 219.705 139.288 219.562 139.374C219.303 139.557 218.921 139.812 218.446 140.123C217.494 140.745 216.171 141.582 214.684 142.474C213.198 143.367 211.839 144.144 210.843 144.69C210.348 144.961 209.942 145.18 209.647 145.324C209.504 145.408 209.354 145.477 209.197 145.531C209.318 145.422 209.452 145.329 209.595 145.252L210.747 144.563L214.557 142.295L218.343 140L219.494 139.306C219.64 139.211 219.797 139.134 219.961 139.075Z" fill="#FF725E"/>
<path d="M224.703 126.346C224.531 126.493 224.347 126.627 224.154 126.745C223.795 126.988 223.265 127.335 222.607 127.757C221.292 128.598 219.459 129.75 217.427 130.945C215.394 132.141 213.521 133.261 212.162 134.026C211.485 134.424 210.931 134.715 210.544 134.918C210.348 135.033 210.145 135.132 209.935 135.217C210.114 135.079 210.305 134.955 210.504 134.847L212.099 133.898L217.331 130.77L222.548 127.618L224.142 126.665C224.321 126.545 224.508 126.438 224.703 126.346Z" fill="#FF725E"/>
<path d="M231.047 114.698C230.865 114.845 230.672 114.979 230.47 115.096C230.071 115.343 229.537 115.694 228.848 116.12C227.469 116.969 225.548 118.113 223.412 119.356C221.276 120.6 219.327 121.696 217.904 122.493C217.195 122.891 216.617 123.19 216.215 123.397C216.01 123.513 215.797 123.613 215.577 123.696C215.767 123.558 215.967 123.434 216.175 123.326L217.833 122.365L223.308 119.201L228.772 116.013L230.426 115.048C230.624 114.916 230.832 114.799 231.047 114.698Z" fill="#FF725E"/>
<path d="M264.18 122.405C264.058 122.516 263.925 122.614 263.782 122.696C263.523 122.875 263.136 123.122 262.662 123.425C261.705 124.031 260.374 124.844 258.884 125.713C257.393 126.581 256.023 127.331 255.022 127.857C254.524 128.124 254.118 128.331 253.827 128.47C253.684 128.553 253.533 128.62 253.376 128.67C253.499 128.565 253.633 128.475 253.775 128.399L254.935 127.729L258.756 125.529L262.562 123.302L263.722 122.628C263.866 122.537 264.019 122.462 264.18 122.405Z" fill="#FF725E"/>
<path d="M265.982 144.26C265.861 144.372 265.727 144.47 265.583 144.55C265.332 144.726 264.961 144.973 264.499 145.276C263.578 145.874 262.291 146.682 260.849 147.543C259.406 148.404 258.079 149.137 257.111 149.671C256.628 149.934 256.234 150.142 255.959 150.281C255.821 150.364 255.674 150.429 255.521 150.476C255.644 150.374 255.777 150.284 255.919 150.209L257.039 149.544L260.741 147.364L264.423 145.148L265.543 144.483C265.68 144.391 265.827 144.316 265.982 144.26Z" fill="#FF725E"/>
<path d="M266.882 151.883C266.761 151.996 266.628 152.093 266.483 152.174C266.232 152.349 265.862 152.596 265.399 152.899C264.479 153.497 263.192 154.306 261.749 155.163C260.306 156.02 258.979 156.757 258.011 157.295C257.529 157.558 257.134 157.765 256.859 157.905C256.722 157.987 256.574 158.053 256.421 158.1C256.544 157.997 256.678 157.908 256.819 157.833L257.939 157.167L261.641 154.987L265.324 152.772L266.444 152.106C266.58 152.014 266.727 151.94 266.882 151.883Z" fill="#FF725E"/>
<path d="M267.774 159.507C267.654 159.62 267.52 159.717 267.376 159.798C267.125 159.973 266.754 160.22 266.292 160.519C265.371 161.121 264.084 161.93 262.642 162.787C261.199 163.643 259.872 164.381 258.904 164.919C258.421 165.182 258.027 165.389 257.752 165.528C257.613 165.609 257.466 165.674 257.313 165.724C257.437 165.621 257.57 165.531 257.712 165.457L258.832 164.791L262.534 162.611L266.216 160.396L267.336 159.73C267.473 159.638 267.62 159.563 267.774 159.507Z" fill="#FF725E"/>
<path d="M263.244 114.347C263.121 114.459 262.988 114.558 262.845 114.642C262.582 114.817 262.2 115.068 261.721 115.371C260.765 115.973 259.434 116.79 257.943 117.655C256.453 118.52 255.082 119.273 254.086 119.803C253.584 120.066 253.177 120.277 252.89 120.417C252.748 120.499 252.597 120.566 252.44 120.616C252.564 120.513 252.697 120.422 252.838 120.345L253.994 119.675L257.82 117.476L261.626 115.244L262.781 114.574C262.927 114.483 263.082 114.406 263.244 114.347Z" fill="#FF725E"/>
<path d="M262.307 106.293C262.186 106.406 262.052 106.505 261.909 106.588C261.646 106.763 261.263 107.011 260.785 107.313C259.832 107.919 258.501 108.736 257.007 109.601C255.512 110.466 254.15 111.219 253.149 111.749C252.651 112.012 252.245 112.223 251.954 112.363C251.812 112.446 251.661 112.512 251.503 112.558C251.626 112.454 251.76 112.365 251.902 112.291L253.058 111.617L256.883 109.422L260.689 107.19L261.845 106.516C261.991 106.426 262.146 106.352 262.307 106.293Z" fill="#FF725E"/>
<path d="M261.374 98.239C261.261 98.3461 261.135 98.4397 261 98.518C260.749 98.6893 260.382 98.9165 259.928 99.2154C259.023 99.7932 257.756 100.57 256.341 101.395C254.926 102.22 253.615 102.937 252.663 103.44L251.527 104.021C251.391 104.099 251.247 104.162 251.097 104.209C251.22 104.109 251.354 104.022 251.495 103.95L252.595 103.308L256.241 101.216L259.864 99.0879L260.968 98.4502C261.095 98.365 261.231 98.2941 261.374 98.239Z" fill="#FF725E"/>
<path d="M261.215 90.6116C260.634 91.045 260.012 91.4213 259.358 91.7354C258.736 92.1089 258.081 92.4251 257.401 92.6799C257.983 92.2464 258.605 91.8701 259.258 91.556C259.88 91.1817 260.535 90.8656 261.215 90.6116Z" fill="#FF725E"/>
<path d="M237.32 102.663C237.14 102.811 236.948 102.944 236.746 103.061C236.348 103.308 235.81 103.659 235.121 104.085C233.746 104.934 231.825 106.078 229.689 107.321C227.553 108.565 225.604 109.661 224.181 110.434C223.472 110.832 222.89 111.131 222.488 111.338C222.284 111.452 222.072 111.552 221.854 111.637C222.043 111.498 222.243 111.374 222.452 111.267L224.11 110.306L229.585 107.142L235.045 103.954L236.703 102.989C236.9 102.866 237.107 102.757 237.32 102.663Z" fill="#FF725E"/>
<path d="M243.597 90.6116C243.415 90.7591 243.222 90.8923 243.019 91.0101C242.62 91.2572 242.086 91.6079 241.397 92.0343C240.018 92.8831 238.097 94.0268 235.965 95.2702C233.833 96.5136 231.876 97.6095 230.454 98.3826C229.744 98.7811 229.167 99.08 228.764 99.2872C228.559 99.4028 228.346 99.5027 228.126 99.5861C228.316 99.4478 228.516 99.3239 228.724 99.2155L230.382 98.2551L235.858 95.0909L241.321 91.9028L242.979 90.9384C243.176 90.8137 243.383 90.7045 243.597 90.6116Z" fill="#FF725E"/>
<path d="M249.279 78.676C249.097 78.8236 248.904 78.9568 248.702 79.0745C248.303 79.3216 247.769 79.6723 247.08 80.0987C245.701 80.9476 243.78 82.0913 241.644 83.3347C239.508 84.578 237.559 85.6739 236.136 86.4471C235.427 86.8456 234.849 87.1445 234.447 87.3517C234.242 87.4663 234.028 87.5662 233.809 87.6506C233.999 87.5122 234.199 87.3883 234.407 87.2799L236.065 86.3195L241.54 83.1553L247.004 79.9672L248.658 79.0028C248.856 78.8775 249.064 78.7682 249.279 78.676Z" fill="#FF725E"/>
<path d="M255.325 67.0991C255.143 67.2467 254.95 67.3799 254.747 67.4976C254.368 67.7447 253.814 68.0954 253.125 68.5218C251.746 69.3707 249.825 70.5144 247.689 71.7617C245.553 73.0091 243.605 74.097 242.182 74.8741C241.472 75.2726 240.895 75.5676 240.492 75.7748C240.287 75.8915 240.074 75.9927 239.854 76.0776C240.042 75.9351 240.242 75.8097 240.452 75.703L242.11 74.7466L247.586 71.5585L253.049 68.3704L254.703 67.406C254.903 67.2885 255.11 67.1859 255.325 67.0991Z" fill="#FF725E"/>
<path d="M277.566 80.314C277.511 80.4165 277.447 80.5139 277.375 80.6049C277.186 80.8837 276.98 81.1499 276.757 81.4019C275.951 82.3396 275.011 83.1533 273.967 83.8169C272.417 84.8065 270.681 85.4709 268.866 85.7696C267.795 85.941 266.706 85.9718 265.626 85.8613C264.471 85.734 263.333 85.4842 262.231 85.1161C259.96 84.3868 257.903 83.4343 255.939 82.8445C254.211 82.2889 252.39 82.0843 250.583 82.2428C249.363 82.354 248.188 82.7513 247.151 83.4025C246.871 83.5855 246.604 83.7893 246.354 84.0122C246.274 84.0962 246.186 84.1723 246.091 84.2393C246.162 84.1476 246.241 84.0623 246.326 83.9843C246.563 83.7451 246.82 83.5277 247.096 83.3347C248.131 82.6477 249.318 82.2237 250.555 82.0993C252.387 81.9068 254.24 82.0913 255.998 82.6413C257.991 83.2271 260.047 84.1716 262.295 84.9009C263.385 85.2626 264.509 85.511 265.65 85.6421C266.712 85.7507 267.784 85.7226 268.838 85.5584C270.63 85.2734 272.347 84.6325 273.888 83.6734C274.921 83.0248 275.86 82.2363 276.677 81.3302C276.905 81.0869 277.119 80.8314 277.319 80.565C277.395 80.4756 277.478 80.3917 277.566 80.314Z" fill="white"/>
<path d="M269.301 61.5876C269.16 61.7222 269.006 61.8436 268.843 61.9503C268.54 62.1774 268.086 62.4763 267.508 62.823C266.83 63.2292 266.13 63.5977 265.412 63.9269C264.529 64.3257 263.624 64.673 262.702 64.967C261.776 65.252 260.833 65.4822 259.88 65.6565C259.102 65.7928 258.317 65.8886 257.529 65.9434C256.856 65.9872 256.31 65.9952 255.935 65.9833C255.739 65.9915 255.543 65.9795 255.349 65.9474C255.541 65.9146 255.736 65.8999 255.931 65.9036C256.306 65.9036 256.848 65.8557 257.525 65.796C258.202 65.7362 258.984 65.6286 259.852 65.4692C260.793 65.2841 261.724 65.0514 262.642 64.7718C263.557 64.48 264.457 64.1394 265.336 63.7516C266.133 63.3889 266.854 63.0303 267.436 62.6955C268.018 62.3608 268.484 62.0858 268.799 61.8985C268.957 61.7805 269.125 61.6765 269.301 61.5876Z" fill="white"/>
<path d="M247.514 109.386C247.371 109.281 247.238 109.163 247.116 109.035L246.024 108.058C244.814 106.996 243.547 105.999 242.23 105.074C241.513 104.558 240.742 104.123 239.931 103.774C239.269 103.497 238.566 103.334 237.85 103.292C237.188 103.265 236.525 103.354 235.894 103.555C235.894 103.555 235.933 103.523 236.017 103.484C236.138 103.426 236.263 103.378 236.392 103.34C236.866 103.194 237.362 103.128 237.858 103.145C238.594 103.168 239.32 103.322 240.002 103.599C240.831 103.941 241.617 104.379 242.346 104.902C243.674 105.83 244.936 106.849 246.123 107.951C246.578 108.373 246.92 108.748 247.172 108.979C247.301 109.101 247.416 109.237 247.514 109.386Z" fill="white"/>
<path d="M280.679 116.838C280.679 116.838 280.639 116.89 280.543 116.977C280.447 117.065 280.312 117.197 280.117 117.344C279.578 117.778 279 118.16 278.391 118.488C276.372 119.591 274.083 120.101 271.786 119.96C269.49 119.819 267.28 119.032 265.411 117.691C264.848 117.293 264.322 116.843 263.841 116.348C263.666 116.176 263.546 116.029 263.443 115.949C263.395 115.902 263.355 115.849 263.323 115.79C263.323 115.79 263.523 115.973 263.877 116.308C264.375 116.775 264.908 117.203 265.471 117.587C267.332 118.878 269.511 119.635 271.772 119.775C274.033 119.916 276.289 119.435 278.295 118.384C278.904 118.071 279.488 117.711 280.041 117.308C280.244 117.14 280.457 116.983 280.679 116.838Z" fill="white"/>
<path d="M295.726 140.183C295.673 140.134 295.622 140.082 295.575 140.027C295.479 139.912 295.352 139.744 295.176 139.529C294.68 138.884 294.133 138.28 293.542 137.72L292.913 137.162L292.578 136.863L292.179 136.58L291.382 135.982L290.454 135.412C288.985 134.549 287.406 133.89 285.759 133.452C283.764 132.919 281.692 132.733 279.634 132.902C277.272 133.111 274.981 133.821 272.915 134.986C270.735 136.221 268.703 137.907 266.539 139.569C265.441 140.427 264.291 141.216 263.096 141.932C261.853 142.675 260.511 143.237 259.111 143.602C257.707 143.944 256.259 144.061 254.819 143.949C253.424 143.834 252.046 143.566 250.71 143.152C248.2 142.352 245.772 141.312 243.461 140.047C241.229 138.891 239.121 137.776 237.057 136.935C235.152 136.117 233.138 135.581 231.079 135.341C229.382 135.176 227.669 135.311 226.018 135.739C224.77 136.05 223.588 136.582 222.527 137.309C221.862 137.779 221.26 138.33 220.734 138.951L220.355 139.461C220.268 139.577 220.22 139.633 220.22 139.633C220.22 139.633 220.256 139.569 220.335 139.449L220.702 138.927C221.215 138.289 221.813 137.723 222.479 137.246C223.541 136.496 224.731 135.948 225.99 135.628C227.654 135.187 229.382 135.046 231.095 135.209C233.164 135.447 235.187 135.984 237.101 136.803C239.181 137.64 241.297 138.756 243.529 139.904C245.832 141.158 248.248 142.191 250.746 142.988C252.069 143.391 253.432 143.649 254.811 143.757C256.229 143.87 257.657 143.754 259.039 143.415C260.416 143.053 261.735 142.499 262.956 141.769C264.146 141.059 265.289 140.275 266.38 139.422C268.548 137.768 270.592 136.078 272.792 134.835C273.335 134.528 273.897 134.255 274.473 134.018C274.756 133.898 275.031 133.771 275.318 133.667L276.179 133.396C277.291 133.065 278.434 132.848 279.59 132.746C281.669 132.579 283.761 132.77 285.775 133.312C287.432 133.758 289.019 134.429 290.494 135.305L291.422 135.883L292.219 136.496L292.618 136.779L292.953 137.086L293.578 137.652C294.159 138.222 294.692 138.837 295.172 139.493C295.332 139.716 295.459 139.892 295.547 140.007L295.726 140.183Z" fill="white"/>
<path d="M286.138 158.359C286.077 158.392 286.013 158.419 285.947 158.439L285.381 158.634C285.083 158.738 284.78 158.827 284.473 158.901C284.11 158.989 283.707 159.108 283.245 159.184L282.528 159.32C282.277 159.363 282.014 159.387 281.731 159.423C281.189 159.503 280.603 159.531 279.985 159.571C278.654 159.611 277.321 159.543 276 159.367C274.677 159.167 273.373 158.855 272.103 158.435C271.521 158.228 270.967 158.036 270.469 157.805C270.218 157.694 269.971 157.598 269.743 157.486L269.094 157.156C268.671 156.952 268.317 156.725 267.998 156.538C267.723 156.382 267.457 156.212 267.201 156.028L266.711 155.681C266.651 155.644 266.596 155.6 266.547 155.55C266.614 155.573 266.677 155.605 266.735 155.645L267.245 155.96C267.46 156.1 267.731 156.267 268.042 156.438C268.353 156.61 268.719 156.837 269.142 157.024L269.795 157.339C270.022 157.45 270.269 157.542 270.521 157.65C271.019 157.869 271.569 158.048 272.147 158.255C273.421 158.66 274.725 158.962 276.048 159.156C277.362 159.334 278.688 159.407 280.013 159.375C280.623 159.339 281.209 159.323 281.743 159.248C282.01 159.216 282.273 159.196 282.54 159.156L283.257 159.037C283.715 158.973 284.118 158.861 284.481 158.785C284.843 158.71 285.146 158.626 285.393 158.55L285.971 158.395C286.025 158.377 286.081 158.365 286.138 158.359Z" fill="white"/>
<path d="M203.152 99.9925L200.362 99.5542L183.078 93.975L172.972 91.0539C171.552 90.5417 170.041 90.3304 168.535 90.4333C167.03 90.5362 165.562 90.9511 164.225 91.6516C159.442 94.0826 146.268 106.349 146.268 106.349L155.756 116.132L151.289 135.931C156.29 150.15 166.082 151.779 166.082 151.779C170.868 151.984 175.644 151.194 180.109 149.46C189.2 146.005 198.736 137.871 199.932 134.376C200.649 132.28 201.243 127.873 201.713 122.895L216.107 117.029L220.009 97.1033L203.152 99.9925Z" fill="#CD9798"/>
<path d="M182.126 135.245C182.126 135.245 182.082 135.293 181.986 135.369C181.891 135.444 181.751 135.56 181.556 135.687C181.012 136.054 180.433 136.365 179.827 136.616C177.81 137.475 175.575 137.686 173.433 137.219C171.291 136.752 169.347 135.63 167.871 134.01C167.422 133.527 167.021 133.001 166.676 132.44C166.552 132.244 166.476 132.081 166.417 131.973C166.385 131.92 166.36 131.864 166.341 131.806C166.486 131.994 166.619 132.191 166.739 132.396C167.104 132.934 167.514 133.439 167.967 133.906C169.442 135.472 171.355 136.555 173.457 137.014C175.558 137.474 177.749 137.288 179.743 136.48C180.347 136.244 180.93 135.954 181.484 135.616C181.907 135.365 182.114 135.221 182.126 135.245Z" fill="#263238"/>
<path d="M176.658 94.7998C176.674 94.8297 176.685 94.862 176.69 94.8955C176.71 94.9712 176.734 95.0628 176.762 95.1784C176.822 95.4255 176.905 95.7961 177.005 96.2703C177.3 97.6125 177.49 98.9755 177.575 100.347C177.626 101.299 177.571 102.253 177.411 103.193C177.219 104.276 176.834 105.317 176.276 106.265C175.629 107.29 174.832 108.213 173.912 109.003C172.976 109.84 171.94 110.597 170.884 111.418C168.636 113.104 166.452 114.63 164.508 116.017C162.563 117.404 160.829 118.643 159.45 119.687L159.407 119.723L159.363 119.687C158.39 118.915 157.466 118.083 156.597 117.196C156.362 116.958 156.145 116.702 155.947 116.431C155.88 116.34 155.84 116.264 155.808 116.216C155.792 116.19 155.777 116.164 155.764 116.136C155.764 116.136 155.84 116.232 155.979 116.407C156.189 116.665 156.412 116.911 156.649 117.144C157.535 118.005 158.466 118.817 159.438 119.579H159.351C160.722 118.519 162.435 117.256 164.388 115.865C166.341 114.474 168.517 112.94 170.764 111.254C171.816 110.457 172.852 109.68 173.781 108.863C174.688 108.089 175.475 107.183 176.116 106.177C176.669 105.253 177.051 104.236 177.244 103.177C177.409 102.248 177.472 101.305 177.431 100.363C177.36 98.998 177.192 97.6396 176.929 96.2982C176.842 95.832 176.774 95.4653 176.722 95.1983C176.701 95.0841 176.685 94.9884 176.674 94.9114C176.662 94.8755 176.657 94.8377 176.658 94.7998Z" fill="#263238"/>
<path d="M251.711 103.763C255.756 100.292 257.127 94.0468 254.899 89.2048L249.2 88.619C250.634 87.8288 251.796 86.6236 252.534 85.1615C253.271 83.6994 253.55 82.0487 253.333 80.4256C251.756 82.0572 249.709 83.1552 247.477 83.5661C245.246 83.9769 242.942 83.6801 240.887 82.717C238.225 81.4019 236.065 78.9511 233.14 78.437C230.486 77.9707 227.876 79.234 225.333 80.1187C222.791 81.0034 219.714 81.5175 217.61 79.8318C215.944 78.4968 215.426 76.1575 215.534 74.0214C215.641 71.8854 216.259 69.8052 216.391 67.6731C216.486 65.5754 216.122 63.4821 215.324 61.5396C214.526 59.5971 213.314 57.8523 211.772 56.427C211.256 54.7297 210.335 53.1831 209.089 51.9206C207.843 50.6582 206.308 49.7176 204.618 49.18C202.927 48.6423 201.131 48.5237 199.385 48.8344C197.638 49.1451 195.993 49.8758 194.592 50.9634C193.344 51.9278 192.292 53.1752 190.878 53.8726C189.284 54.6696 187.423 54.6696 185.697 55.0681C183.971 55.4666 182.15 56.6383 181.967 58.4116L181.269 62.0421C181.154 62.3011 181.03 62.5562 180.871 62.8073C179.404 65.3817 176.4 67.0753 175.742 69.9805C175.375 71.6025 175.83 73.3599 175.284 74.9301C174.562 76.9983 172.331 78.162 171.299 80.0868C169.872 82.733 170.84 87.3677 173.124 89.3204C175.407 91.2731 180.114 93.3454 183.055 93.9711C183.852 90.9145 184.557 87.6466 185.239 84.3031C186.434 85.4548 187.698 86.5507 188.949 87.6387C192.221 90.4841 195.564 93.3733 197.836 97.0675C202.152 104.093 202.219 113.407 207.659 119.6C208.723 120.815 210.018 121.895 211.565 122.365C213.111 122.835 214.944 122.584 216.088 121.445C217.439 120.098 217.614 117.826 219.108 116.643C221.101 115.068 223.994 116.324 226.126 117.691C227.672 118.679 229.219 119.723 230.968 120.265C232.718 120.807 234.758 120.771 236.248 119.703C237.739 118.635 238.393 116.356 237.317 114.869C236.886 114.275 236.245 113.861 235.818 113.275C235.392 112.689 235.268 111.733 235.854 111.283C236.44 110.832 237.4 111.283 238.098 111.681C239.809 112.687 241.722 113.298 243.699 113.472C245.676 113.646 247.667 113.377 249.527 112.685C251.387 111.993 253.069 110.896 254.452 109.472C255.835 108.049 256.883 106.335 257.521 104.456C255.557 104.75 253.55 104.51 251.711 103.763Z" fill="#0C111D"/>
<path d="M248.152 72.4991C248.334 72.6317 248.506 72.7782 248.666 72.9375C249.147 73.385 249.551 73.9087 249.861 74.4877C250.077 74.9095 250.225 75.3627 250.3 75.8307C250.391 76.4369 250.306 77.0567 250.055 77.6158C249.803 78.1749 249.396 78.6495 248.881 78.9829C248.578 79.179 248.235 79.303 247.877 79.3456C247.497 79.3858 247.114 79.331 246.761 79.1862C245.282 78.5804 244.537 76.8708 242.939 76.1096C241.381 75.2847 239.388 75.2289 237.476 75.6673C235.563 76.1056 233.694 77.1458 231.809 78.2058C229.924 79.2659 227.919 80.4016 225.612 80.7962C224.479 81.0155 223.314 81.0074 222.185 80.7722C221.63 80.6458 221.094 80.4475 220.59 80.1824C220.102 79.9148 219.651 79.5823 219.251 79.1941C218.492 78.4217 217.907 77.4947 217.538 76.4763C217.176 75.5098 216.938 74.5016 216.829 73.4755C216.617 71.4829 216.785 69.57 216.805 67.8046C216.884 66.1664 216.722 64.5255 216.322 62.9347C216.132 62.2479 215.878 61.5807 215.561 60.9422C215.284 60.3678 214.961 59.8173 214.593 59.2963C214.01 58.4583 213.326 57.6954 212.556 57.0248C212.066 56.6039 211.546 56.2202 210.998 55.8771L210.564 55.618L210.42 55.5264C210.475 55.5464 210.527 55.5718 210.576 55.6021L211.022 55.8412C212.471 56.6988 213.721 57.8548 214.688 59.2326C215.486 60.3437 216.086 61.584 216.462 62.8989C216.878 64.5006 217.051 66.1555 216.976 67.8086C216.976 69.586 216.805 71.4829 217.02 73.4555C217.128 74.4638 217.363 75.4545 217.717 76.4045C218.079 77.395 218.65 78.2961 219.391 79.0467C219.775 79.4232 220.21 79.745 220.682 80.0031C221.168 80.2557 221.683 80.4472 222.216 80.573C223.32 80.7988 224.458 80.8056 225.564 80.5929C227.828 80.1944 229.812 79.0825 231.697 78.0265C233.582 76.9704 235.443 75.9303 237.42 75.48C238.376 75.2546 239.36 75.1714 240.341 75.2329C240.81 75.2658 241.276 75.3418 241.732 75.4601C242.174 75.5795 242.601 75.7465 243.007 75.9582C244.661 76.7552 245.398 78.4848 246.805 79.0467C247.126 79.1833 247.475 79.2388 247.823 79.2082C248.171 79.1777 248.505 79.0619 248.797 78.8713C249.333 78.5335 249.751 78.0378 249.993 77.4526C250.203 76.9492 250.272 76.3982 250.192 75.8586C250.131 75.4003 249.996 74.9549 249.794 74.5395C249.499 73.9648 249.117 73.4392 248.662 72.9813C248.506 72.8219 248.383 72.7063 248.299 72.6306C248.216 72.5549 248.152 72.4991 248.152 72.4991Z" fill="#263238"/>
<path d="M183.015 95.5013C183.015 95.5013 183.015 95.4415 182.983 95.3219C182.962 95.1452 182.926 94.9705 182.875 94.7999C182.692 94.1398 182.358 93.5314 181.899 93.0225C181.159 92.2293 180.258 91.603 179.257 91.1854C178.101 90.6553 176.666 90.3883 175.096 90.1014C173.526 89.8145 171.745 89.4718 170.143 88.4037C169.253 87.8029 168.506 87.0145 167.954 86.0941C167.401 85.1736 167.057 84.1434 166.946 83.0757C166.834 82.0081 166.957 80.929 167.307 79.9141C167.657 78.8993 168.225 77.9734 168.971 77.2015C170.621 75.5078 172.956 74.6669 174.861 73.1805C175.328 72.8059 175.748 72.3764 176.113 71.9013C176.455 71.4166 176.714 70.8777 176.878 70.3072C177.196 69.1754 177.169 67.9918 177.276 66.8401C177.32 66.2629 177.426 65.6922 177.595 65.1385C177.772 64.59 178.058 64.083 178.436 63.648C179.219 62.8626 180.206 62.3106 181.285 62.054C182.309 61.7551 183.33 61.5678 184.29 61.3048C185.229 61.0649 186.119 60.6601 186.916 60.1092C187.652 59.5882 188.313 58.9688 188.881 58.2681C189.413 57.6403 189.909 56.983 190.367 56.2994C191.248 54.9684 192.001 53.721 192.802 52.7128C193.465 51.8425 194.247 51.0698 195.126 50.4174C195.684 50.0078 196.304 49.6903 196.963 49.4769C197.189 49.3973 197.423 49.3386 197.66 49.3015C197.66 49.3015 197.417 49.3573 196.975 49.5167C196.328 49.7442 195.72 50.0709 195.173 50.4851C194.31 51.1414 193.543 51.9154 192.894 52.7845C192.097 53.7808 191.364 55.0242 190.503 56.3712C190.05 57.079 189.555 57.759 189.02 58.4076C188.445 59.1221 187.774 59.755 187.028 60.2886C186.215 60.8407 185.311 61.2454 184.358 61.4841C183.385 61.7551 182.365 61.9424 181.357 62.2413C180.313 62.4857 179.358 63.0171 178.599 63.7756C178.241 64.1902 177.97 64.6726 177.802 65.1943C177.639 65.7338 177.536 66.2898 177.495 66.8521C177.388 67.9918 177.42 69.1834 177.097 70.359C176.926 70.9475 176.657 71.5027 176.3 72.0009C175.924 72.49 175.491 72.9316 175.009 73.316C174.033 74.0347 173.009 74.6858 171.944 75.2647C170.929 75.8251 169.992 76.515 169.154 77.3171C168.427 78.0688 167.874 78.9704 167.532 79.9586C167.19 80.9469 167.068 81.998 167.175 83.0382C167.282 84.0785 167.615 85.0828 168.152 85.9807C168.688 86.8786 169.413 87.6485 170.278 88.2364C171.832 89.2845 173.602 89.6192 175.16 89.934C176.718 90.2489 178.173 90.5079 179.337 91.0539C180.348 91.4843 181.255 92.1287 181.995 92.9428C182.453 93.4654 182.781 94.0897 182.951 94.764C182.997 94.9375 183.026 95.115 183.039 95.294C183.015 95.4415 183.015 95.5013 183.015 95.5013Z" fill="#263238"/>
<path d="M214.832 59.7268C214.727 59.7164 214.625 59.6895 214.529 59.6471C214.257 59.5581 213.991 59.4516 213.732 59.3283C212.007 58.5157 210.534 57.2499 209.472 55.6659C209.312 55.4278 209.167 55.1803 209.038 54.9247C208.981 54.8352 208.939 54.7369 208.914 54.6338C208.942 54.6338 209.169 55.0004 209.592 55.5783C210.698 57.09 212.136 58.3279 213.796 59.1968C214.43 59.5275 214.848 59.6949 214.832 59.7268Z" fill="#455A64"/>
<path d="M228.082 86.9094C228.082 86.9094 227.831 86.8456 227.381 86.75C226.743 86.6152 226.096 86.5352 225.444 86.5109C224.479 86.4846 223.513 86.5126 222.551 86.5946C221.459 86.6703 220.256 86.7819 218.984 86.754C217.78 86.754 216.587 86.5297 215.465 86.0924C214.555 85.7121 213.746 85.1222 213.106 84.3709C212.677 83.8633 212.367 83.2653 212.202 82.6214C212.158 82.4475 212.13 82.2702 212.118 82.0914C212.109 82.0292 212.109 81.9662 212.118 81.9041C212.142 81.9041 212.154 82.1591 212.281 82.6015C212.475 83.2194 212.797 83.7896 213.226 84.2752C213.862 84.9946 214.655 85.5566 215.545 85.9171C216.647 86.3329 217.815 86.5462 218.992 86.5467C220.248 86.5746 221.447 86.471 222.543 86.4033C223.512 86.3278 224.485 86.3145 225.456 86.3634C226.114 86.4018 226.767 86.5046 227.405 86.6703C227.578 86.7161 227.748 86.7707 227.915 86.8337C227.975 86.8499 228.031 86.8755 228.082 86.9094Z" fill="#455A64"/>
<path d="M251.567 105.03C251.567 105.03 251.531 105.03 251.451 105.082C251.338 105.133 251.219 105.172 251.097 105.197C250.624 105.298 250.132 105.276 249.67 105.134C248.943 104.9 248.286 104.489 247.757 103.938C247.086 103.183 246.564 102.309 246.219 101.36C245.785 100.339 245.422 99.1678 244.709 98.0838C244.349 97.5225 243.925 97.005 243.445 96.5416C242.928 96.0572 242.362 95.6284 241.756 95.2623C239.253 93.752 235.965 93.1343 232.59 93.3335C229.214 93.5328 226.038 94.1704 223.101 94.3737C220.497 94.6527 217.863 94.3811 215.37 93.5766C213.683 93.0284 212.159 92.0699 210.934 90.787C210.745 90.5872 210.568 90.3755 210.404 90.1534C210.277 89.9968 210.162 89.8302 210.062 89.6552C209.982 89.5237 209.918 89.4161 209.866 89.3364C209.842 89.302 209.822 89.2645 209.807 89.2249C209.807 89.2249 209.839 89.2567 209.886 89.3245L210.094 89.6313C210.203 89.7994 210.323 89.9605 210.452 90.1135C210.619 90.331 210.8 90.5373 210.994 90.7312C212.227 91.9741 213.744 92.8986 215.414 93.4252C217.892 94.2018 220.504 94.4569 223.085 94.1744C226.006 93.9592 229.178 93.2897 232.578 93.1144C235.977 92.939 239.293 93.5408 241.835 95.087C242.452 95.4625 243.028 95.902 243.553 96.3981C244.041 96.8779 244.472 97.4129 244.836 97.9922C245.557 99.104 245.912 100.288 246.338 101.304C246.667 102.241 247.17 103.108 247.821 103.858C248.331 104.403 248.967 104.814 249.674 105.054C250.123 105.205 250.603 105.239 251.069 105.153C251.408 105.098 251.563 105.014 251.567 105.03Z" fill="#455A64"/>
<path d="M188.796 59.889C188.05 59.8704 187.324 60.1323 186.762 60.623C186.2 61.1137 185.842 61.7974 185.759 62.5391L182.535 96.098C181.977 100.816 188.15 110.935 193.207 111.493C198.312 112.054 198.815 109.58 199.476 105.116C200.584 97.6482 200.955 94.8347 200.951 94.8785C200.947 94.9223 207.526 94.6593 209.965 86.438C211.161 82.3492 211.87 75.4749 212.256 69.8319C212.603 64.7508 210.081 58.1315 204.988 58L188.796 59.889Z" fill="#FFBF9D"/>
<path d="M210.126 74.1092C210.093 74.3934 209.948 74.6529 209.724 74.8308C209.5 75.0086 209.214 75.0902 208.93 75.0577C208.792 75.0506 208.656 75.016 208.531 74.9557C208.406 74.8955 208.295 74.8109 208.203 74.707C208.111 74.603 208.041 74.4818 207.997 74.3504C207.953 74.219 207.935 74.0801 207.946 73.9418C207.981 73.6582 208.126 73.3996 208.349 73.2215C208.573 73.0435 208.857 72.9601 209.141 72.9894C209.28 72.9964 209.416 73.0312 209.541 73.0917C209.666 73.1521 209.778 73.2371 209.87 73.3415C209.962 73.4459 210.032 73.5676 210.075 73.6995C210.119 73.8313 210.136 73.9706 210.126 74.1092Z" fill="#263238"/>
<path d="M210.584 71.9372C210.456 72.0887 209.595 71.5387 208.428 71.6224C207.26 71.7061 206.435 72.3477 206.312 72.2162C206.248 72.1564 206.363 71.8934 206.71 71.5945C207.191 71.21 207.778 70.9832 208.392 70.9449C208.998 70.8997 209.602 71.0491 210.117 71.3713C210.504 71.6224 210.643 71.8814 210.584 71.9372Z" fill="#263238"/>
<path d="M199.872 74.7147C199.732 74.8542 198.927 74.2206 197.76 74.1927C196.592 74.1648 195.719 74.7227 195.596 74.5912C195.536 74.5234 195.679 74.2724 196.062 74.0133C196.577 73.6754 197.184 73.5068 197.799 73.5311C198.406 73.5465 198.992 73.7545 199.473 74.1249C199.824 74.3959 199.931 74.6709 199.872 74.7147Z" fill="#263238"/>
<path d="M202.048 80.8878C202.048 80.8201 202.789 80.7922 203.977 80.7962C204.276 80.7962 204.562 80.7962 204.642 80.585C204.706 80.2832 204.677 79.9691 204.559 79.6843C204.375 78.9298 204.183 78.1328 203.981 77.2932C203.184 73.9258 202.654 71.1721 202.785 71.1402C202.917 71.1083 203.674 73.8182 204.467 77.1856C204.658 78.0145 204.837 78.8036 205.009 79.5767C205.152 79.9624 205.152 80.3865 205.009 80.7723C204.952 80.8706 204.874 80.9547 204.78 81.0182C204.686 81.0818 204.579 81.123 204.467 81.1389C204.296 81.1607 204.123 81.1607 203.953 81.1389C202.773 81.0472 202.044 80.9516 202.048 80.8878Z" fill="#263238"/>
<path d="M201.043 94.7044C197.08 94.2424 193.323 92.6874 190.192 90.2131C190.192 90.2131 192.268 96.3582 200.776 96.681L201.043 94.7044Z" fill="#FF9A6C"/>
<path d="M200.035 72.7182C199.852 73.0012 198.748 72.5867 197.377 72.4353C196.006 72.2839 194.838 72.3954 194.727 72.0766C194.679 71.9252 194.934 71.6781 195.44 71.4828C196.104 71.2431 196.817 71.1665 197.516 71.2597C198.22 71.3366 198.894 71.5798 199.485 71.969C199.931 72.2799 200.119 72.5827 200.035 72.7182Z" fill="#263238"/>
<path d="M210.409 70.3711C210.217 70.6461 209.401 70.4149 208.416 70.4508C207.432 70.4867 206.639 70.7178 206.424 70.4508C206.336 70.3193 206.452 70.0523 206.794 69.7813C207.258 69.445 207.816 69.2637 208.388 69.2632C208.953 69.2462 209.51 69.4034 209.982 69.7135C210.369 69.9686 210.492 70.2396 210.409 70.3711Z" fill="#263238"/>
<path d="M199.226 83.0039C199.761 82.6386 200.417 82.4957 201.055 82.6054C201.381 82.6503 201.681 82.8066 201.904 83.0477C202.145 83.4043 202.251 83.8353 202.203 84.2632C202.205 84.5214 202.166 84.7783 202.087 85.0243C202.006 85.2703 201.831 85.4747 201.601 85.5942C201.345 85.6865 201.068 85.7004 200.804 85.6341C200.366 85.5779 199.945 85.4255 199.573 85.1877C199.387 85.0688 199.23 84.911 199.111 84.7252C198.993 84.5394 198.917 84.3301 198.887 84.1117C198.863 83.8921 198.909 83.6704 199.021 83.4795C199.132 83.2885 199.302 83.1385 199.505 83.0517" fill="#F36A57"/>
<path d="M202.371 85.5624C202.287 85.5943 202.132 85.3392 201.853 84.9925C201.506 84.5373 201.071 84.1566 200.574 83.8731C200.077 83.5897 199.528 83.4092 198.959 83.3426C198.517 83.2789 198.222 83.2749 198.202 83.1872C198.182 83.0996 198.461 82.9521 198.967 82.9003C199.635 82.8481 200.303 82.998 200.884 83.3307C201.467 83.6598 201.936 84.1589 202.227 84.7614C202.442 85.2197 202.446 85.5385 202.371 85.5624Z" fill="#263238"/>
<path d="M182.178 93.6244C184.948 93.0705 187.084 90.6914 188.036 88.0452C188.989 85.3991 188.937 82.486 188.686 79.6764C188.693 79.4946 188.663 79.3133 188.598 79.1434C188.533 78.9735 188.434 78.8186 188.307 78.6881C187.889 78.3653 187.287 78.6283 186.833 78.9033C185.086 79.9651 183.413 81.142 181.823 82.4262C180.341 83.6217 178.874 84.9966 178.304 86.8098C177.432 89.5994 179.277 92.927 182.102 93.6603" fill="#263238"/>
<path d="M245.841 92.9748L232.781 71.981L229.171 64.5926C229.171 64.5926 228.019 63.0663 226.824 61.7631C224.863 59.6231 222.922 61.2849 222.922 61.2849C222.813 61.0323 222.629 60.8198 222.394 60.6769C222.159 60.5341 221.885 60.468 221.611 60.4879C221.259 60.4877 220.911 60.571 220.598 60.731C220.284 60.891 220.012 61.1232 219.806 61.4084C219.806 61.4084 219.272 60.8147 217.789 60.723C217.452 60.719 217.123 60.8253 216.853 61.0259C216.366 60.5995 215.474 59.9857 214.617 60.2966C213.948 60.5397 209.887 63.6282 208.886 65.1824C208.392 65.9515 209.309 66.9478 210.544 66.4815C211.052 66.3173 211.548 66.1162 212.027 65.8798C212.402 65.6691 212.741 65.4 213.031 65.0827C213.031 65.0827 212.007 66.8761 213.031 67.1909C213.366 67.2581 213.712 67.2512 214.045 67.1707C214.377 67.0902 214.688 66.9379 214.956 66.7246C215.354 66.3978 215.793 65.9714 216.219 65.553L216.171 65.6247C215.605 66.4616 217.08 67.701 217.793 67.1989C218.125 66.9649 218.443 66.7121 218.746 66.4417C220.403 67.6372 218.104 69.1874 217.132 69.1077C215.635 68.9943 214.133 68.9943 212.636 69.1077C211.792 69.1755 211.042 69.3787 210.58 69.845C210.03 70.4109 210.608 71.5985 211.377 71.718C212.808 71.9412 214.633 72.256 216.53 72.7462C218.762 73.32 224.608 75.221 224.608 75.221L225.178 75.6832L233.12 95.055L219.523 97.9363L216.486 115.168L241.035 108.505C246.558 105.596 249.192 98.2351 245.841 92.9748Z" fill="#FFBF9D"/>
<path d="M224.612 75.185C224.506 75.1698 224.402 75.1444 224.301 75.1093L223.42 74.8582L220.188 73.8978L217.96 73.2243C217.163 72.9773 216.307 72.7222 215.398 72.4911C214.452 72.2357 213.491 72.0374 212.521 71.8973C211.988 71.8881 211.461 71.7925 210.959 71.6143C210.825 71.5536 210.705 71.4654 210.608 71.3553C210.555 71.2917 210.514 71.2187 210.488 71.1401L210.46 70.9289C210.418 70.6468 210.436 70.3589 210.512 70.084C210.61 69.8016 210.813 69.5676 211.078 69.4305C211.32 69.305 211.574 69.2036 211.835 69.1276C212.353 68.9793 212.891 68.9134 213.429 68.9323C214.465 68.9323 215.442 69.0917 216.374 69.0519C216.827 69.0412 217.279 68.9973 217.725 68.9204C218.16 68.8407 218.574 68.7291 218.981 68.6255C219.732 68.3906 220.518 68.2894 221.304 68.3266C221.949 68.3884 222.581 68.5497 223.177 68.8048C223.625 68.9916 224.062 69.2059 224.484 69.4464C224.831 69.6417 225.094 69.8051 225.281 69.9127C225.373 69.9658 225.461 70.0257 225.544 70.092C225.444 70.0537 225.348 70.0057 225.257 69.9485L224.46 69.5182C224.035 69.2918 223.597 69.0896 223.149 68.9124C222.561 68.6731 221.94 68.5253 221.308 68.474C220.54 68.4462 219.772 68.5527 219.04 68.7889C218.642 68.8965 218.219 69.016 217.777 69.0997C217.32 69.1826 216.858 69.2306 216.394 69.2432C215.446 69.287 214.457 69.1475 213.445 69.1356C212.934 69.1201 212.423 69.1833 211.931 69.3229C211.445 69.4823 210.891 69.6536 210.735 70.1478C210.671 70.3948 210.656 70.6522 210.692 70.905L210.719 71.0883C210.734 71.1376 210.76 71.1827 210.795 71.2198C210.875 71.3074 210.971 71.3791 211.078 71.431C211.56 71.5948 212.064 71.6835 212.572 71.694C213.551 71.8394 214.52 72.0443 215.474 72.3078C216.386 72.5429 217.239 72.8059 218.036 73.0609L220.26 73.7583L223.472 74.7825L224.341 75.0695C224.434 75.0997 224.525 75.1384 224.612 75.185Z" fill="#923720"/>
<path d="M214.541 60.3245C214.565 60.3563 213.928 60.723 212.987 61.4363C212.438 61.8546 211.917 62.3072 211.425 62.7913C210.867 63.3332 210.281 63.9868 209.588 64.5647C209.241 64.802 208.983 65.1484 208.854 65.549C208.805 65.7255 208.828 65.9142 208.918 66.074C209.007 66.2338 209.156 66.3517 209.333 66.4018C209.676 66.4978 210.038 66.5047 210.385 66.4217C210.698 66.3635 211.005 66.2755 211.301 66.1587C211.884 65.9114 212.427 65.5812 212.915 65.1784C212.818 65.3224 212.696 65.449 212.557 65.553C212.196 65.8578 211.794 66.1088 211.361 66.2982C211.059 66.4265 210.746 66.5253 210.425 66.5931C210.048 66.6906 209.653 66.6906 209.277 66.5931C209.053 66.5306 208.862 66.3822 208.746 66.18C208.63 65.9778 208.599 65.7382 208.659 65.5131C208.795 65.068 209.076 64.681 209.456 64.4132C210.138 63.8314 210.723 63.2177 211.297 62.6598C211.795 62.1775 212.328 61.7326 212.891 61.3287C213.378 60.982 213.788 60.7349 214.087 60.5676C214.23 60.4722 214.382 60.3908 214.541 60.3245Z" fill="#923720"/>
<path d="M219.527 61.9664C219.385 62.1582 219.23 62.3406 219.064 62.5123L217.753 63.955L215.789 66.079C215.396 66.5098 214.929 66.8662 214.41 67.1311C214.125 67.2744 213.812 67.352 213.493 67.3583C213.324 67.3611 213.155 67.3302 212.998 67.2672C212.841 67.2043 212.697 67.1106 212.577 66.9916C212.452 66.8534 212.377 66.6785 212.361 66.4935C212.348 66.3217 212.365 66.1489 212.413 65.9834C212.504 65.6709 212.647 65.3758 212.836 65.1107C213.541 64.3654 214.195 63.664 214.78 63.0185C215.366 62.3729 215.952 61.8667 216.422 61.4244C216.624 61.2131 216.853 61.0295 217.104 60.8784C217.306 60.7889 217.524 60.7401 217.745 60.735C218.1 60.7111 218.307 60.735 218.287 60.7828C218.109 60.7614 217.929 60.7695 217.753 60.8067C217.545 60.8246 217.341 60.8785 217.151 60.9661C216.917 61.1252 216.702 61.3111 216.51 61.52C216.056 61.9743 215.494 62.5004 214.916 63.138C214.338 63.7756 213.688 64.5009 212.987 65.2541C212.812 65.4967 212.678 65.7658 212.589 66.0511C212.547 66.1934 212.531 66.3417 212.541 66.4895C212.557 66.6297 212.615 66.7618 212.708 66.8681C212.914 67.0646 213.189 67.172 213.473 67.167C213.76 67.1615 214.042 67.0921 214.298 66.9637C214.796 66.7116 215.246 66.3729 215.625 65.9635L217.618 63.8713L218.977 62.4765L219.355 62.1019C219.462 62.0062 219.519 61.9611 219.527 61.9664Z" fill="#923720"/>
<path d="M225.632 63.8871C225.632 63.8871 225.632 64.0107 225.472 64.1222C225.38 64.1946 225.273 64.2467 225.159 64.2754C225.045 64.3041 224.926 64.3086 224.81 64.2887C224.694 64.2688 224.583 64.225 224.485 64.1599C224.388 64.0949 224.304 64.0101 224.241 63.911C224.149 63.7596 224.149 63.644 224.173 63.64C224.197 63.6361 224.253 63.7158 224.356 63.8194C224.488 63.9542 224.658 64.0459 224.843 64.0824C225.03 64.1101 225.222 64.0809 225.393 63.9987C225.528 63.9349 225.608 63.8672 225.632 63.8871Z" fill="#923720"/>
<path d="M226.11 65.7165C226.066 65.7524 225.767 65.4535 225.504 65.0032C225.313 64.7499 225.198 64.447 225.173 64.1304C225.225 64.1105 225.424 64.4692 225.683 64.8996C225.865 65.1492 226.009 65.4245 226.11 65.7165Z" fill="#923720"/>
<path d="M226.991 72.8419C226.816 72.5903 226.688 72.3096 226.612 72.013C226.385 71.3091 226.275 70.5727 226.285 69.8331C226.3 69.0937 226.435 68.3615 226.684 67.6652C226.766 67.3698 226.901 67.0917 227.082 66.8442C226.747 67.8088 226.552 68.8168 226.505 69.8371C226.52 70.857 226.684 71.8692 226.991 72.8419Z" fill="#923720"/>
<path d="M237.719 100.455C237.679 100.455 237.639 100.033 237.432 99.3829C237.308 99.0044 237.15 98.6376 236.961 98.287C236.491 97.4313 235.838 96.6897 235.048 96.1151C234.727 95.8809 234.384 95.6768 234.024 95.5054C233.411 95.2145 232.992 95.1069 233 95.083C233.101 95.079 233.202 95.0924 233.299 95.1228C233.572 95.181 233.838 95.2637 234.096 95.3699C234.474 95.5285 234.835 95.7262 235.172 95.9597C236.002 96.5332 236.678 97.3024 237.141 98.1993C237.329 98.5635 237.477 98.947 237.583 99.3431C237.656 99.6038 237.706 99.8705 237.73 100.14C237.743 100.245 237.739 100.351 237.719 100.455Z" fill="#923720"/>
<path d="M192.137 138.832C191.013 138.636 189.856 138.783 188.817 139.254C187.044 138.457 184.856 139.824 184.856 139.824C184.214 139.517 180.349 142.044 180.349 142.044L175.535 144.316L149.819 125.207L157.107 117.635L146.893 107.007L134.938 119.321C133.474 120.906 132.625 122.963 132.547 125.119C132.432 127.415 132.991 129.694 134.154 131.676C135.317 133.659 137.034 135.258 139.095 136.277L169.382 151.82C171.708 151.69 174.016 151.331 176.272 150.748C178.886 150.066 183.354 148.081 183.354 148.081C183.354 148.081 183.354 148.217 184.151 149.767C185.589 152.557 187.697 149.544 187.697 149.544C187.907 150.034 188.183 150.493 188.518 150.907C190.34 152.672 191.603 150.301 191.603 150.301C191.603 150.301 192.149 151.254 193.775 150.544C195.401 149.835 193.54 144.941 193.54 144.941C193.54 144.941 194.086 146.005 195.134 144.658C196.182 143.311 193.878 139.199 192.137 138.832Z" fill="#FFBF9D"/>
<path d="M188.498 139.505C188.598 139.436 188.712 139.391 188.833 139.374C189.156 139.303 189.491 139.314 189.809 139.406C190.277 139.539 190.714 139.762 191.096 140.063C191.326 140.234 191.541 140.425 191.738 140.633C191.936 140.878 192.105 141.145 192.24 141.43C192.712 142.381 193.105 143.368 193.416 144.383C193.535 144.782 193.615 145.088 193.667 145.312C193.704 145.425 193.721 145.543 193.719 145.662C193.691 145.662 193.547 145.188 193.276 144.427C192.925 143.436 192.516 142.466 192.053 141.522C191.927 141.257 191.769 141.01 191.583 140.785C191.397 140.584 191.196 140.399 190.981 140.231C190.624 139.939 190.22 139.713 189.785 139.561C189.367 139.438 188.925 139.418 188.498 139.505Z" fill="#923720"/>
<path d="M191.595 150.313C191.503 150.174 191.427 150.026 191.367 149.871L190.805 148.651C190.331 147.619 189.638 146.208 188.976 144.602C188.71 143.839 188.358 143.107 187.928 142.422C187.557 141.885 187.046 141.459 186.45 141.191C186.054 140.999 185.612 140.921 185.174 140.964C184.864 141.004 184.704 141.087 184.696 141.068C184.688 141.048 184.732 141.04 184.808 141C184.918 140.944 185.037 140.905 185.159 140.884C185.616 140.806 186.086 140.866 186.509 141.056C187.142 141.319 187.687 141.756 188.084 142.315C188.531 143.005 188.895 143.746 189.168 144.523C189.825 146.117 190.499 147.543 190.941 148.591C191.16 149.114 191.339 149.544 191.443 149.839C191.511 149.991 191.562 150.15 191.595 150.313Z" fill="#923720"/>
<path d="M179.791 144.164C179.915 144.075 180.049 143.999 180.189 143.937L181.337 143.383C181.584 143.267 181.843 143.14 182.134 143.012C182.461 142.882 182.815 142.83 183.166 142.861C183.557 142.892 183.932 143.03 184.25 143.259C184.571 143.522 184.841 143.84 185.047 144.2C185.266 144.558 185.445 144.929 185.605 145.272C185.764 145.614 185.952 145.945 186.127 146.256C186.474 146.874 186.8 147.428 187.04 147.914C187.236 148.294 187.407 148.686 187.55 149.089C187.613 149.233 187.656 149.384 187.677 149.54C187.645 149.54 187.43 148.922 186.912 147.982C186.653 147.511 186.318 146.969 185.96 146.352C185.78 146.041 185.601 145.71 185.426 145.363C185.25 145.017 185.083 144.654 184.872 144.307C184.679 143.971 184.429 143.67 184.134 143.419C183.85 143.201 183.513 143.064 183.158 143.02C182.836 142.985 182.509 143.026 182.206 143.14C181.919 143.255 181.644 143.383 181.408 143.482L180.233 144.012C180.092 144.081 179.944 144.131 179.791 144.164Z" fill="#923720"/>
<path d="M180.348 142.048C180.242 142.136 180.124 142.21 179.998 142.267C179.767 142.399 179.428 142.582 179.005 142.805C178.165 143.251 176.993 143.857 175.694 144.511C174.395 145.164 173.215 145.746 172.354 146.161L171.334 146.639C171.208 146.705 171.074 146.755 170.936 146.786C171.044 146.698 171.163 146.623 171.29 146.563C171.521 146.435 171.86 146.252 172.283 146.029C173.123 145.583 174.295 144.981 175.594 144.323C176.893 143.666 178.073 143.088 178.93 142.677C179.36 142.47 179.727 142.307 179.954 142.195C180.078 142.127 180.21 142.078 180.348 142.048Z" fill="#923720"/>
<path d="M150.161 125.254C149.156 125.103 148.137 125.069 147.124 125.155C146.119 125.306 145.135 125.574 144.191 125.952C144.431 125.761 144.7 125.61 144.988 125.505C145.662 125.216 146.373 125.026 147.101 124.939C147.83 124.853 148.568 124.872 149.292 124.995C149.594 125.034 149.887 125.121 150.161 125.254Z" fill="#923720"/>
<path d="M206.953 56.2238C200.584 56.1326 194.227 56.8015 188.016 58.2163C186.577 58.5471 185.055 58.9695 184.083 60.0774C183.05 61.249 182.887 62.9188 182.736 64.4611C182.571 66.3553 182.406 68.2483 182.241 70.1399C181.968 70.6085 181.666 71.0597 181.337 71.4909C179.838 73.4476 177.929 75.0775 176.555 77.1338C175.18 79.1902 174.438 81.916 175.546 84.1158C176.22 85.4468 177.463 86.3873 178.372 87.5669C179.914 89.5595 180.416 92.1538 181.317 94.517C182.217 96.8802 183.843 99.2992 186.326 99.7615C187.522 99.9886 188.741 99.7376 189.933 99.9129C191.714 100.172 193.212 101.34 194.627 102.451C196.042 103.563 197.58 104.695 199.374 104.874C201.167 105.054 203.219 103.838 203.255 102.037C202.59 102.412 201.836 102.599 201.073 102.578C200.309 102.557 199.567 102.328 198.923 101.917C197.879 101.228 197.206 100.112 196.309 99.2434C194.105 97.1074 190.558 96.4299 189.024 93.7718C187.829 91.6716 188.295 89.0374 188.845 86.6743C189.319 84.6259 189.805 82.4062 189.211 80.4375C189.259 80.1208 189.284 79.8012 189.287 79.4811C189.287 77.3849 188.47 75.1373 189.447 73.2842C190.738 70.8293 194.46 70.5185 195.763 68.0756C196.524 66.6529 196.257 64.8357 197.086 63.4528C197.863 62.1537 199.421 61.5559 200.904 61.2331C202.386 60.9103 203.944 60.7629 205.252 59.9977C206.559 59.2326 207.547 57.6146 206.953 56.2238Z" fill="#0C111D"/>
<path d="M211.784 98.9805C211.769 99.0164 211.749 99.05 211.724 99.0801L211.529 99.3551C211.261 99.6996 210.953 100.011 210.612 100.284C210.064 100.709 209.448 101.039 208.791 101.26C207.921 101.562 206.996 101.669 206.081 101.575C204.963 101.466 203.901 101.031 203.028 100.323C202.08 99.5942 201.235 98.6258 200.163 97.8567C199.626 97.4563 198.999 97.1923 198.338 97.0875C197.639 97.0303 196.938 97.1581 196.305 97.4582C195.631 97.7763 194.924 98.0195 194.197 98.1835C193.417 98.2959 192.621 98.1562 191.926 97.7849C191.246 97.4267 190.603 97.0008 190.009 96.5137C189.414 96.0669 188.852 95.5782 188.327 95.0511C187.808 94.54 187.401 93.9266 187.132 93.2499C186.891 92.5858 186.844 91.8672 186.996 91.1776C187.142 90.5382 187.343 89.9129 187.598 89.3085C187.829 88.7227 188.028 88.1449 188.204 87.579C188.524 86.535 188.77 85.4696 188.941 84.3909C189.187 82.8189 189.274 81.226 189.2 79.6366C189.176 79.0747 189.14 78.6363 189.108 78.3414C189.108 78.202 189.108 78.0944 189.08 78.0067C189.074 77.9684 189.074 77.9294 189.08 77.8911C189.094 77.9268 189.102 77.9645 189.104 78.0027L189.152 78.3374C189.196 78.6323 189.248 79.0667 189.283 79.6326C189.389 81.229 189.325 82.8319 189.092 84.4148C188.929 85.5077 188.69 86.5877 188.375 87.6467C188.2 88.2126 188 88.7984 187.773 89.3922C187.524 89.98 187.325 90.5879 187.179 91.2095C187.035 91.8651 187.082 92.5484 187.315 93.1781C187.576 93.8283 187.97 94.4172 188.471 94.9077C188.989 95.4264 189.545 95.9072 190.132 96.3463C190.716 96.8241 191.346 97.242 192.013 97.5937C192.668 97.9534 193.421 98.0931 194.161 97.9922C194.873 97.8295 195.565 97.5903 196.226 97.2788C196.892 96.9704 197.626 96.8412 198.358 96.9042C199.05 97.0109 199.707 97.2845 200.271 97.7013C201.362 98.4983 202.199 99.4707 203.132 100.192C203.975 100.888 205.005 101.319 206.093 101.431C207.678 101.605 209.27 101.178 210.556 100.236C211.014 99.8678 211.426 99.4463 211.784 98.9805Z" fill="#263238"/>
<path d="M171.968 86.3078C171.853 86.1667 171.747 86.019 171.649 85.8654C171.378 85.4184 171.186 84.9275 171.083 84.4148C170.926 83.5999 170.94 82.7614 171.123 81.952C171.362 80.8779 171.833 79.8688 172.502 78.995C173.325 77.9554 174.294 77.04 175.379 76.2772C176.523 75.4243 177.822 74.6313 179.117 73.7107C180.499 72.7861 181.7 71.618 182.664 70.2636C183.139 69.5242 183.502 68.7184 183.74 67.8725C183.995 67.0197 184.17 66.127 184.378 65.2264C184.557 64.3284 184.824 63.4502 185.175 62.6041C185.525 61.773 186.061 61.0328 186.741 60.4402C187.405 59.8808 188.173 59.457 189 59.1928C189.786 58.9385 190.6 58.778 191.423 58.7146C192.939 58.6377 194.459 58.6857 195.966 58.8581C197.272 58.9976 198.587 59.015 199.896 58.9099C200.972 58.8063 202.018 58.495 202.976 57.9933C203.7 57.6169 204.341 57.0993 204.861 56.471C205.19 56.0723 205.448 55.621 205.626 55.136C205.738 54.8012 205.782 54.6179 205.79 54.6219C205.761 54.8012 205.72 54.9783 205.666 55.1519C205.501 55.6485 205.25 56.1124 204.925 56.5228C204.408 57.1762 203.764 57.7184 203.032 58.1169C202.064 58.6366 201.004 58.9629 199.912 59.0773C198.593 59.193 197.267 59.1837 195.95 59.0494C194.453 58.8864 192.944 58.8451 191.439 58.9258C190.626 58.9892 189.823 59.1497 189.048 59.4041C188.247 59.6567 187.503 60.0628 186.856 60.5996C186.201 61.1748 185.684 61.8916 185.346 62.6958C184.996 63.5295 184.729 64.3959 184.549 65.2821C184.342 66.1788 184.15 67.0755 183.903 67.9402C183.661 68.8017 183.288 69.6214 182.8 70.3712C181.826 71.7432 180.611 72.9262 179.213 73.8622C177.906 74.7867 176.607 75.5718 175.467 76.4126C174.39 77.1604 173.426 78.0597 172.606 79.0827C171.938 79.9324 171.466 80.9189 171.223 81.9719C171.029 82.7656 171.004 83.5907 171.147 84.3949C171.285 85.0824 171.565 85.7337 171.968 86.3078Z" fill="#455A64"/>
<path d="M173.135 88.3999C172.691 88.0483 172.281 87.6546 171.912 87.2243C171.457 86.7321 171.097 86.1608 170.848 85.5385C170.691 85.1425 170.629 84.7155 170.665 84.2912C170.714 83.8138 170.901 83.3611 171.203 82.988C171.848 82.191 172.916 81.7686 174.036 81.5335C174.598 81.4179 175.188 81.3262 175.774 81.1788C176.379 81.0519 176.954 80.8127 177.471 80.4734C177.993 80.0903 178.416 79.5891 178.707 79.0109C179.01 78.3977 179.266 77.7622 179.472 77.11C179.684 76.4256 179.951 75.7593 180.269 75.1174C180.61 74.4423 181.126 73.8711 181.763 73.4636C182.411 73.094 183.111 72.8252 183.839 72.6665C184.545 72.4832 185.242 72.3358 185.9 72.1126C187.165 71.6713 188.268 70.8589 189.064 69.7813C189.801 68.8061 190.463 67.7763 191.045 66.7008C191.557 65.7633 192.156 64.876 192.834 64.0507C193.4 63.366 194.094 62.7987 194.878 62.3809C195.471 62.0659 196.119 61.8696 196.787 61.803C197.21 61.7628 197.636 61.7979 198.047 61.9066C198.183 61.943 198.317 61.991 198.445 62.0501C198.445 62.0501 198.298 62.0103 198.019 61.9465C197.612 61.8594 197.193 61.8379 196.779 61.8827C196.127 61.9629 195.495 62.1658 194.918 62.4805C194.153 62.9009 193.477 63.4652 192.926 64.1423C192.263 64.9698 191.676 65.8554 191.172 66.7884C190.599 67.8718 189.943 68.9096 189.211 69.8929C188.801 70.4219 188.329 70.8996 187.805 71.3156C187.257 71.7376 186.641 72.0637 185.983 72.28C185.314 72.5111 184.609 72.6586 183.911 72.8419C183.202 73.0023 182.522 73.2712 181.895 73.6389C181.284 74.032 180.791 74.5828 180.468 75.233C180.15 75.8656 179.884 76.5225 179.671 77.1976C179.456 77.8591 179.19 78.5026 178.874 79.1225C178.565 79.7262 178.12 80.25 177.575 80.6528C177.035 80.9998 176.437 81.2456 175.809 81.3781C175.212 81.5215 174.614 81.6092 174.064 81.7248C172.96 81.9479 171.92 82.3584 171.31 83.0996C171.021 83.4496 170.84 83.876 170.788 84.3271C170.749 84.7325 170.804 85.1415 170.948 85.5226C171.187 86.1352 171.531 86.7015 171.964 87.1964C172.314 87.5949 172.613 87.9097 172.817 88.1129L173.052 88.3401C173.111 88.368 173.139 88.3959 173.135 88.3999Z" fill="#455A64"/>
<path d="M222.193 62.6558C222.137 62.7667 222.068 62.8698 221.985 62.9626C221.842 63.1539 221.631 63.4249 221.356 63.7596C220.814 64.4132 220.033 65.2899 219.116 66.2105C218.662 66.6568 218.235 67.159 217.65 67.3423C217.377 67.4361 217.081 67.4361 216.809 67.3423C216.575 67.2451 216.383 67.0688 216.267 66.8441C216.11 66.5315 216.058 66.1764 216.119 65.8319C216.126 65.7075 216.157 65.5856 216.211 65.4733C216.224 65.5951 216.224 65.718 216.211 65.8399C216.182 66.1632 216.25 66.4879 216.406 66.7724C216.514 66.956 216.681 67.0969 216.881 67.1709C217.114 67.2523 217.368 67.2523 217.602 67.1709C218.112 67.0075 218.522 66.5293 218.981 66.075C219.893 65.1624 220.686 64.3016 221.26 63.6839C221.548 63.3207 221.859 62.9772 222.193 62.6558Z" fill="#923720"/>
<path d="M225.237 62.6558C225.172 62.7707 225.09 62.8754 224.994 62.9666C224.831 63.1579 224.595 63.4289 224.285 63.7636L223.213 64.9233L222.575 65.6008C222.354 65.8557 222.112 66.0904 221.85 66.3022C221.57 66.5249 221.233 66.6631 220.877 66.7007C220.705 66.7187 220.531 66.6914 220.372 66.6215C220.213 66.5516 220.076 66.4416 219.973 66.3022C219.877 66.1671 219.825 66.0056 219.825 65.8399C219.834 65.6887 219.881 65.5422 219.961 65.4135C220.108 65.1744 220.26 64.9911 220.391 64.8077C220.654 64.4451 220.873 64.1542 221.029 63.9549C221.101 63.8447 221.188 63.7454 221.288 63.66C221.238 63.7815 221.174 63.8966 221.096 64.0027C220.961 64.214 220.762 64.5168 220.511 64.8914C220.387 65.0787 220.236 65.2899 220.112 65.4972C220.039 65.5982 220 65.7195 220 65.8439C220 65.9683 220.039 66.0896 220.112 66.1906C220.198 66.3013 220.311 66.3876 220.44 66.4408C220.57 66.494 220.711 66.5121 220.849 66.4935C221.164 66.4597 221.462 66.3382 221.71 66.1428C221.971 65.9455 222.212 65.724 222.431 65.4812L223.081 64.8117L224.185 63.6799C224.5 63.3611 224.759 63.1061 224.942 62.9307C225.027 62.8259 225.126 62.7333 225.237 62.6558Z" fill="#923720"/>
<path d="M266.846 184.66C267.188 183.915 267.707 183.265 268.356 182.765C269.006 182.265 269.767 181.931 270.575 181.791C271.382 181.651 272.212 181.709 272.992 181.961C273.772 182.213 274.479 182.651 275.052 183.238C274.212 184.593 272.907 185.596 271.381 186.059C270.575 186.343 269.699 186.36 268.883 186.108C268.066 185.856 267.352 185.349 266.846 184.66Z" fill="#FFB100"/>
<path d="M264.017 185.314C264.382 185.15 264.766 185.03 265.16 184.955C265.882 184.78 266.886 184.585 267.998 184.401C269.11 184.218 270.122 184.078 270.859 184.003C271.254 183.937 271.654 183.906 272.055 183.911C271.672 184.024 271.28 184.104 270.883 184.15L268.034 184.616C266.926 184.8 265.922 184.975 265.196 185.111C264.807 185.201 264.413 185.268 264.017 185.314Z" fill="#263238"/>
<path d="M124.405 159.43C125.255 160.13 125.917 161.03 126.333 162.05C126.748 163.069 126.904 164.176 126.785 165.27C126.667 166.365 126.278 167.412 125.654 168.319C125.03 169.226 124.19 169.963 123.21 170.465C121.747 166.715 121.185 162.678 124.405 159.43Z" fill="#FFB100"/>
<path d="M129.948 162.308C130.027 163.729 130.457 165.109 131.201 166.322C131.945 167.536 132.979 168.546 134.21 169.261C135.441 169.976 136.831 170.373 138.254 170.418C139.677 170.463 141.088 170.153 142.362 169.517C139.572 165.133 135.798 161.439 129.948 162.3" fill="#FFB100"/>
<path d="M117.248 148.447C117.318 148.506 117.381 148.572 117.435 148.646L117.933 149.24C118.356 149.762 118.974 150.515 119.755 151.428C121.309 153.261 123.505 155.756 126.091 158.358C127.386 159.657 128.658 160.857 129.837 161.917C131.017 162.977 132.133 163.881 133.089 164.607C133.84 165.183 134.624 165.715 135.436 166.201C136.014 166.544 136.357 166.687 136.349 166.707C136.26 166.687 136.174 166.654 136.094 166.611C135.854 166.513 135.621 166.4 135.396 166.273C134.566 165.81 133.767 165.292 133.005 164.722C132.033 164.005 130.917 163.1 129.718 162.056C128.518 161.012 127.247 159.801 125.948 158.502C123.357 155.895 121.165 153.381 119.647 151.52C118.878 150.591 118.28 149.822 117.874 149.288L117.403 148.666C117.345 148.598 117.293 148.525 117.248 148.447Z" fill="#263238"/>
<path d="M124.098 165.097C124.063 165.097 124.194 164.539 124.31 163.635C124.605 161.269 124.355 158.866 123.576 156.613C123.278 155.752 123.034 155.238 123.066 155.222C123.149 155.327 123.217 155.442 123.27 155.565C123.436 155.889 123.585 156.221 123.716 156.561C124.146 157.686 124.427 158.862 124.553 160.06C124.677 161.255 124.643 162.46 124.453 163.647C124.394 164.013 124.314 164.377 124.214 164.734C124.19 164.859 124.151 164.981 124.098 165.097Z" fill="#263238"/>
<path d="M299.959 84.4497C299.465 83.7957 299.138 83.0313 299.006 82.2227C298.874 81.414 298.941 80.5854 299.2 79.8083C299.46 79.0311 299.905 78.3289 300.497 77.7621C301.088 77.1954 301.809 76.7811 302.597 76.5552C303.392 77.9348 303.657 79.5572 303.342 81.1182C303.21 81.963 302.81 82.743 302.201 83.3429C301.591 83.9428 300.805 84.3309 299.959 84.4497Z" fill="#FFB100"/>
<path d="M299.201 87.2513C299.229 86.8517 299.305 86.4569 299.428 86.0756C299.616 85.3583 299.919 84.382 300.285 83.3139C300.652 82.2459 301.01 81.2895 301.281 80.6001C301.409 80.2204 301.572 79.8535 301.768 79.5042C301.684 79.8957 301.568 80.2796 301.421 80.6519C301.158 81.413 300.835 82.3456 300.48 83.3817C300.126 84.4178 299.791 85.4141 299.568 86.1155C299.465 86.5001 299.343 86.8792 299.201 87.2513Z" fill="#263238"/>
<path d="M282.424 114.099C282.012 112.569 281.978 110.961 282.326 109.415C282.674 107.869 283.394 106.431 284.422 105.225C285.45 104.019 286.757 103.081 288.228 102.493C289.7 101.905 291.293 101.684 292.869 101.849C293.423 104.862 292.471 107.954 290.896 110.572C289.019 113.661 285.289 114.956 282.424 114.099Z" fill="#FFB100"/>
<path d="M202.323 161.47C202.932 160.025 203.892 158.755 205.115 157.774C206.339 156.794 207.787 156.133 209.33 155.853C210.873 155.573 212.461 155.682 213.952 156.17C215.442 156.658 216.787 157.51 217.865 158.649C213.346 162.152 208.073 164.543 202.355 161.47" fill="#FFB100"/>
<path d="M199.784 162.873C199.892 162.766 200.012 162.672 200.143 162.594C200.382 162.423 200.737 162.196 201.191 161.933C203.559 160.564 206.184 159.697 208.902 159.386C209.42 159.331 209.843 159.303 210.134 159.299C210.284 159.278 210.437 159.278 210.588 159.299C210.588 159.331 209.946 159.37 208.918 159.522C207.58 159.718 206.262 160.027 204.977 160.446C203.695 160.87 202.453 161.404 201.263 162.041C200.33 162.551 199.804 162.901 199.784 162.873Z" fill="#263238"/>
<path d="M240.086 156.589C239.956 155.516 240.095 154.428 240.49 153.423C240.885 152.417 241.524 151.526 242.349 150.828C243.175 150.131 244.16 149.65 245.218 149.429C246.275 149.207 247.371 149.252 248.407 149.559C246.904 153.213 244.569 156.461 240.086 156.589Z" fill="#FFB100"/>
<path d="M239.038 158.307C239.159 157.934 239.327 157.578 239.536 157.247C240.476 155.602 241.754 154.176 243.286 153.062C243.593 152.819 243.929 152.614 244.286 152.452C243.994 152.71 243.688 152.952 243.369 153.178C241.906 154.338 240.651 155.738 239.655 157.318C239.468 157.659 239.262 157.989 239.038 158.307Z" fill="#263238"/>
<path d="M35.0581 107.388C35.2924 106.334 35.7853 105.354 36.4924 104.537C37.1996 103.72 38.0987 103.092 39.109 102.709C40.1193 102.326 41.2089 102.2 42.2799 102.343C43.3509 102.486 44.3695 102.892 45.2441 103.527C42.6139 106.472 39.3302 108.759 35.0581 107.388Z" fill="#FFB100"/>
<path d="M33.5 108.66C33.7397 108.35 34.0153 108.071 34.3209 107.827C35.0355 107.215 35.813 106.68 36.6403 106.233C37.4683 105.776 38.3436 105.412 39.2506 105.145C39.6197 105.015 40.0042 104.933 40.3943 104.902C40.0352 105.054 39.668 105.187 39.2944 105.3C37.5284 105.906 35.8788 106.809 34.4166 107.97C34.1249 108.218 33.8188 108.448 33.5 108.66Z" fill="#263238"/>
<path d="M217.215 55.3825L220.403 49.608C218.357 46.3572 217.601 42.4586 218.283 38.6785C218.965 34.8984 221.037 31.5102 224.09 29.1799C227.144 26.8496 230.958 25.7457 234.785 26.0851C238.611 26.4246 242.172 28.1829 244.767 31.0144C247.363 33.846 248.805 37.5459 248.811 41.3871C248.817 45.2283 247.387 48.9328 244.8 51.7726C242.214 54.6124 238.658 56.382 234.833 56.7336C231.008 57.0852 227.19 55.9934 224.129 53.6728L217.215 55.3825Z" fill="white"/>
<path d="M217.215 55.3825L224.137 53.629L224.109 53.7127L223.866 53.4059L224.185 53.641C225.165 54.3753 226.227 54.9931 227.349 55.4821C228.686 56.0571 230.097 56.4395 231.541 56.6179C232.341 56.7177 233.148 56.7471 233.952 56.7056C234.351 56.6777 234.789 56.6617 235.216 56.6219L236.495 56.4107C240.311 55.6158 243.681 53.3971 245.92 50.2058C247.163 48.4412 248.016 46.4319 248.423 44.3118C248.831 42.0677 248.738 39.7611 248.152 37.5569C247.555 35.2556 246.42 33.1289 244.84 31.3521L244.214 30.6786C244.007 30.4514 243.764 30.2801 243.541 30.0569C243.321 29.8462 243.089 29.6479 242.847 29.4631L242.114 28.9251C241.88 28.7474 241.633 28.5863 241.377 28.4429L240.58 27.9727L239.783 27.5742C239.525 27.4395 239.258 27.3211 238.986 27.2195C236.818 26.3836 234.49 26.0471 232.175 26.2352C229.984 26.4013 227.858 27.049 225.946 28.1321C222.509 30.0839 219.951 33.2785 218.797 37.0588C218.34 38.6705 218.128 40.3416 218.167 42.0163C218.259 44.6995 219.056 47.3111 220.479 49.5881V49.612V49.6399L217.231 55.3865L220.391 49.5881V49.6399C218.943 47.3607 218.125 44.7385 218.02 42.0402C217.972 40.3502 218.18 38.6626 218.638 37.0349C219.791 33.2079 222.367 29.968 225.835 27.9806C227.771 26.8829 229.924 26.2244 232.143 26.0518C234.489 25.8607 236.848 26.1998 239.045 27.0441C239.328 27.1463 239.603 27.2661 239.87 27.4028L240.691 27.8013L241.488 28.2676C241.756 28.4163 242.013 28.5827 242.257 28.7657L242.971 29.2997C243.226 29.4751 243.437 29.6982 243.676 29.9015C243.915 30.1047 244.146 30.3 244.358 30.5311L245.007 31.2325C246.611 33.0311 247.762 35.1873 248.363 37.5211C248.946 39.7548 249.031 42.0896 248.61 44.3596C248.2 46.5113 247.333 48.5498 246.067 50.3373C243.8 53.5639 240.386 55.8021 236.523 56.594L235.224 56.8052C234.797 56.845 234.371 56.857 233.952 56.8849C233.139 56.9246 232.325 56.8913 231.518 56.7853C230.06 56.6021 228.636 56.2102 227.289 55.6216C226.156 55.1251 225.085 54.495 224.101 53.7446L224.173 53.6729L224.225 53.7366H224.145L217.215 55.3825Z" fill="#263238"/>
<path d="M229.166 38.8043L231.159 38.7844C231.155 38.5569 231.197 38.331 231.283 38.1202C231.368 37.9094 231.495 37.7179 231.656 37.5572C231.817 37.3965 232.009 37.2699 232.22 37.185C232.431 37.1001 232.657 37.0585 232.884 37.0628C233.221 37.0443 233.554 37.1327 233.837 37.3152C234.119 37.4978 234.337 37.7652 234.459 38.079C234.567 38.3394 234.612 38.6217 234.591 38.9028C234.569 39.184 234.482 39.4561 234.335 39.697C234 40.2589 233.263 40.773 231.912 40.5498L231.956 45.057H233.949L233.913 42.391C234.722 42.1445 235.427 41.6396 235.922 40.9537C236.416 40.2677 236.672 39.4385 236.65 38.5931C236.623 35.672 233.996 35.0065 232.873 35.0304C232.016 35.0503 229.095 35.2854 229.166 38.8043Z" fill="#D33044"/>
<path d="M233.973 45.9683L231.968 45.9875L231.986 47.8605L233.991 47.8412L233.973 45.9683Z" fill="#D33044"/>
</g>
<defs>
<clipPath id="clip0_927_2615">
<rect width="276" height="200" fill="white" transform="translate(33.5 10)"/>
</clipPath>
</defs>
</svg>
