<svg width="343" height="220" viewBox="0 0 343 220" fill="none" xmlns="http://www.w3.org/2000/svg">
<g clip-path="url(#clip0_927_4013)">
<path d="M72.453 84.7273C82.8048 82.9653 89.7681 73.1451 88.0061 62.7933C86.2441 52.4416 76.4239 45.4782 66.0721 47.2402C55.7204 49.0023 48.757 58.8224 50.519 69.1742C52.2811 79.526 62.1012 86.4893 72.453 84.7273Z" fill="#EAECF0"/>
<path d="M289.822 137.951C300.689 137.71 309.304 128.705 309.063 117.837C308.822 106.969 299.817 98.3546 288.949 98.5955C278.082 98.8364 269.467 107.842 269.708 118.71C269.949 129.577 278.954 138.192 289.822 137.951Z" fill="#F5F5F5"/>
<path d="M234.69 127.195C232.175 113.147 220.112 100.893 205.889 99.721C198.138 99.0913 190.347 101.534 182.628 100.602C176.086 99.785 170.065 96.6113 165.695 91.675C159.319 84.422 157.163 74.1045 150.412 67.2022C141.111 57.6817 124.879 57.5342 113.561 64.5361C102.244 71.538 95.401 84.1749 92.2687 97.1067L92.1452 101.04C91.4637 114.454 94.9945 130.064 102.778 142.019C110.664 154.134 115.849 159.155 130.219 167.847C142.422 175.243 166.317 178.495 180.583 178.838C194.85 179.181 209.504 174.933 220.236 165.52C230.968 156.107 237.208 141.242 234.69 127.195Z" fill="#EAECF0"/>
<path d="M184.199 141.107C184.222 141.159 181.198 142.57 177.444 144.26C173.69 145.949 170.625 147.272 170.601 147.221C170.577 147.169 173.602 145.758 177.376 144.068C181.15 142.379 184.175 141.056 184.199 141.107Z" fill="#FF725E"/>
<path d="M186.183 132.938C186.207 132.99 183.708 134.161 180.603 135.556C177.499 136.951 174.965 138.043 174.941 137.991C174.917 137.939 177.411 136.764 180.52 135.369C183.628 133.974 186.159 132.886 186.183 132.938Z" fill="#FF725E"/>
<path d="M187.095 123.76C187.119 123.812 184.621 124.983 181.516 126.378C178.412 127.773 175.877 128.865 175.853 128.813C175.829 128.761 178.324 127.586 181.432 126.191C184.541 124.796 187.071 123.688 187.095 123.76Z" fill="#FF725E"/>
<path d="M188.008 114.578C188.032 114.63 185.537 115.806 182.429 117.2C179.32 118.595 176.79 119.683 176.766 119.631C176.742 119.58 179.241 118.408 182.345 117.013C185.449 115.618 187.976 114.522 188.008 114.578Z" fill="#FF725E"/>
<path d="M188.925 105.4C188.945 105.452 186.45 106.628 183.346 108.023C180.241 109.417 177.707 110.505 177.683 110.454C177.659 110.402 180.158 109.23 183.262 107.831C186.366 106.433 188.901 105.357 188.925 105.4Z" fill="#FF725E"/>
<path d="M187.095 97.2269C187.119 97.2787 184.621 98.4543 181.516 99.8491C178.412 101.244 175.877 102.332 175.853 102.28C175.829 102.228 178.324 101.053 181.432 99.6578C184.541 98.263 187.071 97.1751 187.095 97.2269Z" fill="#FF725E"/>
<path d="M187.095 88.4278C187.119 88.4796 184.621 89.6552 181.516 91.05C178.412 92.4448 175.877 93.5328 175.853 93.481C175.829 93.4292 178.324 92.2535 181.432 90.8587C184.541 89.4639 187.071 88.376 187.095 88.4278Z" fill="#FF725E"/>
<path d="M186.183 80.1426C186.207 80.1945 183.708 81.3661 180.603 82.7609C177.499 84.1557 174.965 85.2476 174.941 85.1958C174.917 85.144 177.411 83.9684 180.52 82.5736C183.628 81.1788 186.159 80.0908 186.183 80.1426Z" fill="#FF725E"/>
<path d="M204.562 114.642C204.562 114.662 204.279 114.698 203.785 114.861C203.098 115.113 202.45 115.46 201.86 115.893C201.103 116.423 200.266 117.165 199.306 117.93C198.246 118.757 197.098 119.464 195.883 120.038C193.677 121.095 191.287 121.712 188.845 121.855C188.379 121.895 187.952 121.883 187.582 121.891C187.211 121.899 186.892 121.867 186.633 121.847L186.031 121.787C185.962 121.786 185.894 121.774 185.828 121.752C185.897 121.742 185.967 121.742 186.035 121.752L186.637 121.771H187.582C187.952 121.751 188.379 121.771 188.833 121.708C191.248 121.521 193.609 120.89 195.795 119.847C196.996 119.276 198.134 118.581 199.19 117.774C200.159 117.025 201 116.288 201.781 115.782C202.389 115.351 203.062 115.017 203.773 114.793C203.967 114.738 204.164 114.696 204.363 114.666C204.428 114.648 204.495 114.64 204.562 114.642Z" fill="white"/>
<path d="M202.299 86.1045C202.24 86.0829 202.184 86.0548 202.131 86.0208L201.669 85.7538C201.429 85.6078 201.182 85.4747 200.928 85.3552C200.6 85.1796 200.264 85.0213 199.919 84.881L199.322 84.63C199.11 84.5463 198.887 84.4825 198.656 84.4028C198.202 84.2354 197.696 84.1199 197.166 83.9804C194.849 83.4532 192.445 83.4328 190.12 83.9206C189.614 84.0277 189.114 84.1607 188.622 84.3191C188.39 84.3948 188.163 84.4546 187.952 84.5343L187.35 84.7734C187.004 84.9089 186.665 85.0618 186.334 85.2317C186.077 85.3484 185.828 85.4816 185.589 85.6302L185.119 85.8893C185.011 85.945 184.951 85.9729 184.947 85.965C184.993 85.9213 185.044 85.8838 185.099 85.8534L185.545 85.5585C185.781 85.4014 186.027 85.2602 186.282 85.1361C186.609 84.9524 186.948 84.7887 187.295 84.6459L187.896 84.3908C188.107 84.3072 188.339 84.2434 188.57 84.1637C189.065 83.9966 189.569 83.8569 190.08 83.7453C192.431 83.2296 194.868 83.2514 197.21 83.809C197.744 83.9525 198.254 84.076 198.712 84.2514C198.943 84.335 199.17 84.4028 199.377 84.4945L199.979 84.7575C200.322 84.9092 200.657 85.0781 200.983 85.2636C201.235 85.3938 201.477 85.5402 201.709 85.702L202.155 86.0048C202.255 86.0566 202.322 86.0965 202.299 86.1045Z" fill="white"/>
<path d="M201.619 123.469C201.749 137.194 198.758 147.688 192.644 154.952C186.531 162.215 178.162 165.895 167.538 165.991C156.858 166.094 148.368 162.577 142.069 155.438C135.77 148.299 132.553 137.869 132.417 124.147L132.186 100.013C132.053 86.341 135.045 75.8467 141.16 68.53C147.276 61.2133 155.673 57.5098 166.351 57.4194C176.978 57.3158 185.443 60.8586 191.748 68.0478C198.052 75.237 201.268 85.6661 201.396 99.3352L201.619 123.469ZM183.754 96.8006C183.666 88.1582 182.161 81.7766 179.238 77.656C176.316 73.5354 172.065 71.5003 166.486 71.5508C160.925 71.6039 156.729 73.72 153.897 77.8991C151.065 82.0782 149.682 88.4876 149.748 97.1274L150.027 126.454C150.11 135.142 151.633 141.559 154.598 145.706C157.563 149.854 161.823 151.901 167.379 151.847C172.934 151.794 177.117 149.678 179.928 145.499C182.739 141.32 184.103 134.863 184.021 126.127L183.754 96.8006Z" fill="#AF282B"/>
<path d="M211.765 123.373C211.898 137.096 208.907 147.59 202.791 154.856C196.675 162.122 188.306 165.802 177.684 165.895C167.004 165.998 158.514 162.48 152.215 155.338C145.916 148.197 142.703 137.764 142.575 124.039L142.344 99.9049C142.211 86.2332 145.203 75.7389 151.319 68.4222C157.434 61.1055 165.831 57.4006 176.509 57.3077C187.136 57.2094 195.602 60.7521 201.906 67.936C208.211 75.1199 211.415 85.5543 211.518 99.2393L211.765 123.373ZM193.9 96.7048C193.815 88.065 192.303 81.6888 189.365 77.5761C186.426 73.4634 182.176 71.4283 176.612 71.4709C171.052 71.5266 166.855 73.6428 164.023 77.8192C161.191 81.9956 159.815 88.4064 159.895 97.0515L160.178 126.374C160.263 135.064 161.786 141.483 164.749 145.63C167.711 149.778 171.971 151.825 177.529 151.771C183.084 151.716 187.267 149.6 190.078 145.423C192.889 141.247 194.252 134.788 194.167 126.047L193.9 96.7048Z" fill="#D33044"/>
<path d="M142.396 101.34C142.416 101.391 140.061 102.328 137.136 103.428C134.211 104.528 131.815 105.357 131.815 105.321C131.815 105.285 134.151 104.332 137.076 103.232C140.001 102.133 142.376 101.284 142.396 101.34Z" fill="#FF725E"/>
<path d="M142.974 110.876C142.994 110.928 140.639 111.864 137.71 112.964C134.781 114.064 132.397 114.909 132.378 114.857C132.358 114.805 134.713 113.869 137.638 112.769C140.563 111.669 142.974 110.82 142.974 110.876Z" fill="#FF725E"/>
<path d="M143.568 120.413C143.588 120.464 141.232 121.401 138.303 122.501C135.374 123.601 133.011 124.445 132.971 124.394C132.931 124.342 135.306 123.405 138.232 122.305C141.157 121.206 143.548 120.357 143.568 120.413Z" fill="#FF725E"/>
<path d="M144.169 129.949C144.189 130.001 141.834 130.937 138.905 132.037C135.976 133.137 133.589 133.982 133.569 133.93C133.549 133.878 135.908 132.942 138.833 131.842C141.758 130.742 144.134 129.893 144.169 129.949Z" fill="#FF725E"/>
<path d="M144.739 139.485C144.625 139.559 144.502 139.619 144.373 139.665C144.134 139.768 143.783 139.912 143.353 140.083C142.484 140.43 141.284 140.88 139.953 141.394C138.622 141.908 137.411 142.335 136.53 142.646C136.092 142.801 135.733 142.925 135.486 143.004C135.359 143.058 135.225 143.093 135.087 143.108C135.202 143.033 135.325 142.973 135.454 142.929C135.693 142.825 136.04 142.681 136.474 142.53C137.339 142.183 138.543 141.733 139.874 141.219C141.205 140.705 142.416 140.274 143.297 139.968C143.735 139.812 144.094 139.689 144.341 139.609C144.467 139.548 144.601 139.506 144.739 139.485Z" fill="#FF725E"/>
<path d="M147.461 148.209C147.077 148.416 146.677 148.593 146.266 148.739C145.509 149.042 144.46 149.448 143.301 149.887C142.141 150.325 141.081 150.708 140.316 150.975C139.907 151.141 139.486 151.274 139.057 151.373C139.44 151.165 139.84 150.988 140.252 150.843C141.005 150.536 142.053 150.13 143.217 149.695C144.381 149.261 145.433 148.875 146.202 148.607C146.61 148.439 147.031 148.306 147.461 148.209Z" fill="#FF725E"/>
<path d="M153.291 156.211C152.948 156.402 152.59 156.563 152.219 156.693C151.546 156.964 150.625 157.327 149.581 157.717C148.537 158.108 147.589 158.447 146.919 158.682C146.555 158.829 146.179 158.945 145.795 159.028C146.137 158.836 146.496 158.674 146.867 158.546C147.537 158.275 148.461 157.913 149.506 157.522C150.55 157.132 151.498 156.793 152.168 156.554C152.531 156.406 152.907 156.292 153.291 156.211Z" fill="#FF725E"/>
<path d="M162.979 161.459C162.636 161.648 162.277 161.808 161.907 161.938C161.234 162.213 160.313 162.575 159.269 162.962C158.225 163.348 157.277 163.691 156.607 163.93C156.244 164.078 155.867 164.192 155.483 164.273C155.826 164.082 156.185 163.921 156.555 163.791C157.229 163.52 158.149 163.157 159.194 162.767C160.238 162.376 161.186 162.037 161.856 161.802C162.218 161.652 162.595 161.538 162.979 161.459Z" fill="#FF725E"/>
<path d="M186.312 74.3682C185.218 74.9744 184.091 75.5199 182.937 76.0021C181.81 76.5461 180.654 77.0278 179.474 77.4447C180.566 76.8356 181.693 76.29 182.849 75.8108C183.976 75.2667 185.132 74.7851 186.312 74.3682Z" fill="#FF725E"/>
<path d="M182.104 70.8333C181.009 71.4362 179.882 71.9803 178.729 72.4632C177.602 73.0073 176.446 73.4889 175.266 73.9058C176.36 73.3023 177.487 72.7595 178.641 72.2799C179.768 71.7344 180.924 71.2515 182.104 70.8333Z" fill="#FF725E"/>
<path d="M142.846 89.7786C142.866 89.8304 140.511 90.7669 137.586 91.8668C134.661 92.9667 132.27 93.8156 132.25 93.7598C132.23 93.704 134.585 92.7715 137.514 91.6716C140.443 90.5717 142.826 89.7268 142.846 89.7786Z" fill="#FF725E"/>
<path d="M145.764 77.8869C145.788 77.9387 143.229 78.947 140.061 80.1425C136.893 81.338 134.298 82.2546 134.278 82.2028C134.259 82.151 136.813 81.1388 139.985 79.9472C143.157 78.7557 145.764 77.8311 145.764 77.8869Z" fill="#FF725E"/>
<path d="M153.443 66.1149C153.463 66.1707 150.223 67.434 146.206 68.9444C142.189 70.4548 138.917 71.6344 138.897 71.5825C138.877 71.5307 142.117 70.2595 146.134 68.7491C150.151 67.2387 153.423 66.0631 153.443 66.1149Z" fill="#FF725E"/>
<path d="M210.048 141.223L209.88 141.167L209.402 140.98C209.191 140.904 208.916 140.844 208.605 140.757C208.233 140.684 207.856 140.638 207.477 140.617C205.775 140.51 203.225 141.127 200.758 142.976C199.423 143.988 198.226 145.171 197.199 146.495C196.056 147.894 194.936 149.476 193.665 151.07C192.371 152.78 190.823 154.281 189.074 155.522C187.159 156.813 184.995 157.69 182.721 158.096C180.448 158.505 178.113 158.428 175.871 157.869C173.802 157.326 171.791 156.58 169.869 155.641C168.016 154.784 166.283 153.912 164.633 153.19C163.098 152.513 161.506 151.975 159.875 151.584C158.53 151.266 157.152 151.109 155.77 151.114C154.727 151.122 153.689 151.263 152.681 151.532C152.048 151.718 151.432 151.96 150.84 152.254L150.386 152.493C150.336 152.524 150.282 152.549 150.227 152.569L150.374 152.477L150.82 152.218C151.406 151.905 152.022 151.65 152.657 151.457C153.67 151.171 154.714 151.017 155.766 150.998C157.159 150.98 158.549 151.129 159.906 151.441C161.545 151.827 163.146 152.36 164.689 153.035C166.354 153.752 168.088 154.629 169.937 155.474C171.852 156.403 173.854 157.14 175.915 157.674C178.132 158.227 180.441 158.303 182.69 157.897C184.935 157.495 187.073 156.63 188.966 155.358C190.702 154.132 192.24 152.647 193.525 150.955C194.796 149.361 195.916 147.79 197.076 146.388C198.112 145.06 199.318 143.874 200.663 142.861C203.165 141.012 205.752 140.406 207.473 140.541C207.856 140.567 208.237 140.618 208.613 140.697C208.932 140.796 209.207 140.86 209.41 140.944L209.884 141.151L210.048 141.223Z" fill="white"/>
<path d="M160.509 123.876C160.436 123.872 160.364 123.862 160.293 123.844C160.15 123.812 159.939 123.78 159.672 123.704C158.923 123.483 158.206 123.168 157.536 122.768C156.553 122.165 155.62 121.484 154.746 120.731C153.746 119.902 152.678 118.958 151.454 118.113C150.312 117.306 149.03 116.718 147.673 116.38C145.808 115.921 143.859 115.929 141.998 116.404C141.468 116.539 141.181 116.643 141.177 116.623C141.238 116.582 141.305 116.552 141.376 116.531C141.512 116.479 141.711 116.4 141.978 116.324C142.724 116.105 143.493 115.972 144.269 115.925C145.426 115.84 146.589 115.935 147.716 116.208C149.1 116.544 150.407 117.137 151.57 117.958C152.809 118.815 153.877 119.767 154.87 120.6C155.731 121.354 156.647 122.043 157.611 122.66C158.267 123.065 158.967 123.395 159.696 123.645C159.971 123.707 160.242 123.784 160.509 123.876Z" fill="white"/>
<path d="M160.576 86.204C160.362 86.3036 160.139 86.3849 159.911 86.4471C159.649 86.5392 159.383 86.6177 159.114 86.6822C158.799 86.7619 158.444 86.8695 158.042 86.9412C157.639 87.013 157.205 87.1126 156.727 87.1724C156.248 87.2321 155.742 87.2879 155.204 87.3358C154.036 87.4099 152.864 87.3952 151.697 87.2919C150.532 87.1754 149.377 86.9715 148.242 86.6822C147.724 86.5347 147.226 86.3993 146.776 86.2359C146.325 86.0725 145.903 85.921 145.528 85.7656C145.154 85.6102 144.819 85.4468 144.524 85.3113C144.229 85.1758 143.986 85.0443 143.787 84.9327C143.576 84.8275 143.374 84.7063 143.181 84.5701C143.402 84.6514 143.616 84.7486 143.823 84.861C144.026 84.9606 144.277 85.0842 144.572 85.2077C144.867 85.3312 145.202 85.4906 145.584 85.6261C145.967 85.7616 146.381 85.933 146.832 86.0725C147.282 86.2119 147.772 86.3554 148.29 86.4949C150.544 87.0633 152.872 87.2824 155.192 87.1445C155.726 87.1006 156.232 87.0727 156.707 87.001C157.181 86.9293 157.615 86.8695 158.014 86.7978C158.412 86.726 158.767 86.6384 159.082 86.5706C159.397 86.5029 159.668 86.4311 159.879 86.3714C160.107 86.2989 160.34 86.243 160.576 86.204Z" fill="white"/>
<path d="M185.934 59.0334C185.844 59.1012 185.748 59.1599 185.647 59.2088L184.818 59.6671C184.081 60.0656 183.013 60.6195 181.674 61.289C179.004 62.6081 175.254 64.4134 170.814 65.5372C168.727 66.0618 166.589 66.3585 164.438 66.4219C162.682 66.4732 160.927 66.3221 159.205 65.9716C158.045 65.7387 156.911 65.393 155.818 64.9394C155.42 64.788 155.145 64.6286 154.945 64.5409C154.842 64.4965 154.742 64.4446 154.646 64.3855C154.755 64.4137 154.861 64.4538 154.961 64.505C155.169 64.5808 155.455 64.7282 155.85 64.8677C156.947 65.29 158.079 65.6128 159.233 65.8321C160.947 66.1594 162.691 66.293 164.434 66.2306C166.568 66.1565 168.688 65.8559 170.758 65.334C175.17 64.2181 178.924 62.4447 181.606 61.1575L184.794 59.5914L185.615 59.1689C185.718 59.1169 185.825 59.0716 185.934 59.0334Z" fill="white"/>
<path d="M295.367 120.879C296.177 134.577 293.715 145.293 287.98 153.027C282.246 160.761 274.085 165.093 263.498 166.022C252.856 166.963 244.218 164.116 237.585 157.481C230.951 150.845 227.227 140.68 226.412 126.985L224.986 102.899C224.176 89.2542 226.638 78.5382 232.373 70.7506C238.107 62.963 246.295 58.6053 256.935 57.6773C267.524 56.74 276.139 59.6143 282.78 66.3C289.422 72.9857 293.144 83.1497 293.949 96.7919L295.367 120.879ZM276.235 95.6447C275.72 87.0197 273.903 80.7641 270.786 76.8778C267.668 72.9915 263.329 71.2925 257.77 71.7806C252.229 72.27 248.151 74.7127 245.534 79.1089C242.918 83.5051 241.857 90.0151 242.351 98.6391L244.082 127.908C244.595 136.578 246.432 142.868 249.593 146.778C252.754 150.687 257.103 152.398 262.638 151.909C268.174 151.42 272.239 148.978 274.834 144.583C277.429 140.189 278.47 133.633 277.955 124.914L276.235 95.6447Z" fill="#AF282B"/>
<path d="M277.674 73.0389C276.613 73.7302 275.517 74.3634 274.39 74.9356C273.293 75.5675 272.165 76.1392 271.009 76.6482C272.068 75.9541 273.165 75.3208 274.293 74.7515C275.39 74.1196 276.518 73.5479 277.674 73.0389Z" fill="#FF725E"/>
<path d="M273.304 69.8385C272.242 70.5266 271.145 71.1584 270.02 71.7312C268.923 72.363 267.794 72.9348 266.639 73.4438C267.7 72.7551 268.796 72.1246 269.923 71.555C271.019 70.9218 272.148 70.3488 273.304 69.8385Z" fill="#FF725E"/>
<path d="M283.797 77.7386C282.271 78.7782 280.684 79.7737 279.042 80.7207C277.454 81.7162 275.807 82.6631 274.109 83.557C275.633 82.5171 277.221 81.5229 278.865 80.5788C280.453 79.5819 282.099 78.6337 283.797 77.7386Z" fill="#FF725E"/>
<path d="M285.908 86C284.383 87.0397 282.795 88.0351 281.153 88.9821C279.565 89.9777 277.919 90.9246 276.22 91.8185C277.745 90.7786 279.332 89.7844 280.977 88.8402C282.564 87.8434 284.21 86.8952 285.908 86Z" fill="#FF725E"/>
<path d="M286.908 96C285.383 97.0397 283.795 98.0351 282.153 98.9821C280.565 99.9777 278.919 100.925 277.22 101.818C278.745 100.779 280.332 99.7844 281.977 98.8402C283.564 97.8434 285.21 96.8952 286.908 96Z" fill="#FF725E"/>
<path d="M286.908 105C285.383 106.04 283.795 107.035 282.153 107.982C280.565 108.978 278.919 109.925 277.22 110.818C278.745 109.779 280.332 108.784 281.977 107.84C283.564 106.843 285.21 105.895 286.908 105Z" fill="#FF725E"/>
<path d="M287.908 116C286.383 117.04 284.795 118.035 283.153 118.982C281.565 119.978 279.919 120.925 278.22 121.818C279.745 120.779 281.332 119.784 282.977 118.84C284.564 117.843 286.21 116.895 287.908 116Z" fill="#FF725E"/>
<path d="M287.908 125C286.383 126.04 284.795 127.035 283.153 127.982C281.565 128.978 279.919 129.925 278.22 130.818C279.745 129.779 281.332 128.784 282.977 127.84C284.564 126.843 286.21 125.895 287.908 125Z" fill="#FF725E"/>
<path d="M292.066 133.302C289.57 135.002 286.974 136.631 284.288 138.179C281.691 139.808 278.998 141.356 276.22 142.818C278.713 141.118 281.31 139.492 283.999 137.947C286.596 136.317 289.288 134.766 292.066 133.302Z" fill="#FF725E"/>
<path d="M287.524 142C285.028 143.7 282.432 145.329 279.746 146.877C277.149 148.506 274.456 150.054 271.678 151.516C274.171 149.816 276.768 148.19 279.457 146.645C282.054 145.015 284.746 143.464 287.524 142Z" fill="#FF725E"/>
<path d="M305.477 119.987C306.289 133.682 303.827 144.398 298.09 152.135C292.353 159.872 284.192 164.204 273.608 165.13C262.966 166.072 254.328 163.223 247.694 156.585C241.061 149.946 237.34 139.778 236.533 126.08L235.107 101.994C234.297 88.3496 236.76 77.6335 242.494 69.8459C248.229 62.0584 256.416 57.6993 267.056 56.7686C277.645 55.8367 286.26 58.7109 292.901 65.3913C299.542 72.0717 303.254 82.242 304.035 95.902L305.477 119.987ZM286.345 94.7529C285.833 86.1304 284.01 79.8806 280.876 76.0035C277.743 72.1264 273.405 70.4274 267.861 70.9063C262.32 71.3983 258.242 73.8411 255.625 78.2346C253.009 82.6281 251.954 89.139 252.462 97.7672L254.197 127.032C254.712 135.705 256.549 141.996 259.708 145.906C262.867 149.815 267.215 151.526 272.753 151.036C278.289 150.545 282.354 148.103 284.949 143.711C287.545 139.319 288.583 132.762 288.065 124.039L286.345 94.7529Z" fill="#D33044"/>
<path d="M235.23 103.423C235.252 103.473 232.951 104.593 230.089 105.921C227.227 107.249 224.881 108.265 224.879 108.229C224.877 108.193 227.158 107.059 230.02 105.731C232.881 104.403 235.207 103.369 235.23 103.423Z" fill="#FF725E"/>
<path d="M236.278 112.902C236.301 112.953 233.999 114.073 231.134 115.401C228.268 116.729 225.934 117.76 225.912 117.71C225.889 117.66 228.191 116.54 231.053 115.212C233.914 113.884 236.276 112.847 236.278 112.902Z" fill="#FF725E"/>
<path d="M237.343 122.38C237.365 122.431 235.064 123.551 232.198 124.879C229.333 126.207 227.018 127.237 226.976 127.188C226.934 127.139 229.255 126.018 232.117 124.69C234.978 123.362 237.32 122.326 237.343 122.38Z" fill="#FF725E"/>
<path d="M238.415 131.858C238.438 131.908 236.136 133.028 233.271 134.357C230.405 135.685 228.067 136.716 228.045 136.666C228.022 136.616 230.328 135.495 233.189 134.167C236.051 132.839 238.377 131.805 238.415 131.858Z" fill="#FF725E"/>
<path d="M239.456 141.338C239.345 141.421 239.225 141.49 239.099 141.546C238.866 141.668 238.523 141.839 238.103 142.044C237.254 142.458 236.08 143.002 234.779 143.62C233.477 144.238 232.291 144.759 231.428 145.138C230.999 145.328 230.648 145.48 230.405 145.579C230.281 145.642 230.149 145.687 230.013 145.713C230.123 145.63 230.243 145.56 230.37 145.505C230.603 145.383 230.941 145.213 231.367 145.027C232.212 144.613 233.389 144.069 234.691 143.451C235.992 142.833 237.179 142.308 238.041 141.933C238.471 141.743 238.822 141.592 239.065 141.493C239.187 141.422 239.319 141.369 239.456 141.338Z" fill="#FF725E"/>
<path d="M242.601 149.837C242.228 150.074 241.839 150.283 241.436 150.461C240.696 150.822 239.671 151.311 238.537 151.84C237.402 152.368 236.365 152.834 235.615 153.16C235.216 153.358 234.803 153.524 234.379 153.657C234.752 153.419 235.141 153.211 235.545 153.034C236.281 152.668 237.305 152.18 238.444 151.655C239.583 151.13 240.612 150.661 241.366 150.334C241.764 150.134 242.177 149.968 242.601 149.837Z" fill="#FF725E"/>
<path d="M248.81 157.372C248.478 157.59 248.128 157.779 247.766 157.938C247.108 158.261 246.208 158.696 245.186 159.168C244.165 159.64 243.236 160.052 242.58 160.34C242.225 160.516 241.855 160.661 241.477 160.774C241.808 160.555 242.158 160.365 242.522 160.209C243.176 159.885 244.08 159.451 245.101 158.979C246.123 158.507 247.051 158.094 247.707 157.803C248.062 157.627 248.431 157.483 248.81 157.372Z" fill="#FF725E"/>
<path d="M258.728 161.854C258.394 162.069 258.045 162.257 257.683 162.416C257.025 162.743 256.125 163.178 255.104 163.646C254.082 164.114 253.153 164.53 252.498 164.822C252.142 164.998 251.773 165.142 251.394 165.252C251.727 165.035 252.076 164.845 252.439 164.686C253.097 164.363 253.997 163.929 255.018 163.457C256.04 162.985 256.969 162.572 257.624 162.284C257.979 162.106 258.348 161.962 258.728 161.854Z" fill="#FF725E"/>
<path d="M235.106 91.8408C235.128 91.891 232.827 93.0111 229.965 94.3391C227.104 95.6672 224.762 96.7026 224.739 96.6484C224.717 96.5943 227.019 95.4781 229.884 94.1498C232.75 92.8214 235.084 91.7906 235.106 91.8408Z" fill="#FF725E"/>
<path d="M237.425 79.7348C237.451 79.7847 234.95 80.9924 231.851 82.4351C228.752 83.8777 226.211 84.9967 226.189 84.9465C226.166 84.8964 228.663 83.685 231.766 82.246C234.869 80.807 237.422 79.6791 237.425 79.7348Z" fill="#FF725E"/>
<path d="M244.497 67.3748C244.52 67.429 241.352 68.9449 237.423 70.7686C233.493 72.5923 230.29 74.0271 230.267 73.9769C230.245 73.9268 233.412 72.4029 237.341 70.5792C241.271 68.7555 244.475 67.3246 244.497 67.3748Z" fill="#FF725E"/>
<path d="M304.649 137.949L304.48 137.907L303.994 137.757C303.779 137.698 303.502 137.66 303.188 137.597C302.813 137.553 302.435 137.536 302.057 137.546C300.355 137.572 297.843 138.389 295.475 140.429C294.194 141.545 293.06 142.82 292.102 144.223C291.031 145.71 289.993 147.378 288.805 149.07C287.6 150.879 286.131 152.5 284.449 153.876C282.604 155.316 280.49 156.362 278.243 156.946C275.997 157.533 273.665 157.639 271.403 157.256C269.313 156.876 267.272 156.289 265.309 155.502C263.419 154.792 261.648 154.056 259.968 153.465C258.404 152.909 256.79 152.497 255.144 152.234C253.788 152.022 252.406 151.973 251.029 152.087C249.99 152.177 248.962 152.398 247.971 152.747C247.348 152.982 246.746 153.272 246.171 153.612L245.73 153.886C245.682 153.921 245.629 153.951 245.575 153.974L245.717 153.871L246.149 153.578C246.718 153.219 247.319 152.916 247.943 152.673C248.938 152.309 249.972 152.073 251.019 151.972C252.407 151.844 253.8 151.884 255.169 152.089C256.822 152.345 258.444 152.753 260.015 153.305C261.712 153.891 263.483 154.631 265.369 155.33C267.324 156.107 269.356 156.686 271.437 157.058C273.674 157.437 275.98 157.332 278.202 156.749C280.421 156.172 282.509 155.14 284.333 153.721C286.003 152.36 287.462 150.756 288.66 148.965C289.848 147.273 290.887 145.617 291.974 144.125C292.94 142.718 294.084 141.439 295.374 140.321C297.778 138.278 300.326 137.47 302.049 137.471C302.432 137.466 302.814 137.488 303.193 137.536C303.516 137.611 303.793 137.653 304 137.721L304.483 137.89L304.649 137.949Z" fill="white"/>
<path d="M254.403 124.51C254.331 124.513 254.258 124.508 254.187 124.495C254.042 124.475 253.83 124.459 253.56 124.405C252.803 124.242 252.072 123.984 251.384 123.637C250.375 123.112 249.411 122.505 248.503 121.822C247.464 121.073 246.353 120.213 245.091 119.465C243.913 118.749 242.605 118.262 241.235 118.031C239.353 117.718 237.411 117.88 235.579 118.5C235.057 118.677 234.776 118.803 234.771 118.783C234.831 118.738 234.896 118.702 234.966 118.676C235.098 118.613 235.293 118.518 235.555 118.422C236.288 118.145 237.048 117.951 237.82 117.844C238.969 117.668 240.133 117.672 241.27 117.856C242.666 118.083 243.999 118.573 245.199 119.301C246.477 120.059 247.589 120.927 248.619 121.681C249.515 122.367 250.463 122.983 251.455 123.524C252.129 123.876 252.842 124.151 253.581 124.343C253.858 124.384 254.133 124.44 254.403 124.51Z" fill="white"/>
<path d="M303.258 87.966C303.195 87.9645 303.133 87.9703 303.072 87.9834C302.948 88.0056 302.766 88.0233 302.535 88.081C301.885 88.2519 301.257 88.5179 300.665 88.8728C299.796 89.4093 298.966 90.0268 298.183 90.7193C297.288 91.48 296.33 92.3516 295.243 93.1132C294.228 93.8428 293.104 94.3437 291.929 94.5906C290.315 94.9237 288.651 94.7845 287.086 94.1854C286.641 94.0145 286.401 93.8917 286.396 93.9114C286.447 93.9558 286.503 93.9911 286.562 94.0163C286.675 94.0771 286.841 94.1701 287.065 94.2637C287.692 94.532 288.341 94.7172 289.002 94.8157C289.985 94.9787 290.982 94.9615 291.958 94.7646C293.155 94.5224 294.301 94.0174 295.334 93.2762C296.435 92.5037 297.394 91.6242 298.282 90.859C299.054 90.1632 299.871 89.5369 300.724 88.9854C301.304 88.6253 301.917 88.3426 302.552 88.1423C302.79 88.0982 303.025 88.0394 303.258 87.966Z" fill="white"/>
<path d="M306.168 120.971C306.103 120.973 306.038 120.967 305.974 120.954C305.844 120.932 305.654 120.915 305.411 120.859C304.732 120.69 304.075 120.426 303.457 120.073C302.549 119.54 301.681 118.925 300.863 118.236C299.929 117.478 298.927 116.61 297.793 115.852C296.732 115.126 295.557 114.629 294.328 114.387C292.639 114.059 290.898 114.205 289.259 114.81C288.792 114.982 288.541 115.106 288.536 115.086C288.589 115.042 288.647 115.006 288.71 114.981C288.828 114.919 289.002 114.826 289.237 114.731C289.893 114.461 290.573 114.273 291.264 114.172C292.294 114.006 293.338 114.019 294.358 114.212C295.611 114.45 296.808 114.951 297.888 115.689C299.038 116.457 300.039 117.334 300.967 118.096C301.774 118.789 302.627 119.412 303.519 119.961C304.125 120.319 304.766 120.599 305.43 120.797C305.678 120.84 305.925 120.898 306.168 120.971Z" fill="white"/>
<path d="M252.604 86.8794C252.395 86.9957 252.177 87.0944 251.953 87.1744C251.697 87.2869 251.435 87.3862 251.17 87.4718C250.86 87.5761 250.512 87.7114 250.114 87.8146C249.716 87.9178 249.288 88.0514 248.814 88.1486C248.341 88.2459 247.839 88.3413 247.305 88.4313C246.144 88.597 244.974 88.6743 243.807 88.6626C242.639 88.6376 241.478 88.5247 240.332 88.3247C239.808 88.2181 239.305 88.1219 238.848 87.994C238.391 87.8662 237.962 87.7481 237.581 87.6222C237.2 87.4964 236.858 87.3595 236.557 87.2473C236.257 87.1351 236.008 87.0228 235.803 86.927C235.588 86.8384 235.38 86.7332 235.182 86.6123C235.406 86.6762 235.624 86.7565 235.836 86.8525C236.043 86.9361 236.3 87.0398 236.6 87.14C236.9 87.2403 237.241 87.3732 237.63 87.4785C238.018 87.5838 238.439 87.7225 238.895 87.8265C239.351 87.9304 239.847 88.0353 240.37 88.1339C242.645 88.5248 244.977 88.561 247.283 88.2412C247.814 88.1555 248.317 88.0879 248.786 87.9791C249.255 87.8702 249.685 87.7764 250.079 87.6735C250.473 87.5706 250.822 87.4552 251.132 87.3628C251.443 87.2705 251.71 87.1776 251.917 87.1013C252.141 87.0111 252.371 86.9369 252.604 86.8794Z" fill="white"/>
<path d="M276.537 57.7527C276.451 57.8274 276.358 57.8936 276.26 57.9504L275.456 58.4731C274.741 58.929 273.704 59.5661 272.402 60.3398C269.805 61.8668 266.156 63.964 261.786 65.4348C259.732 66.1225 257.615 66.5865 255.474 66.8187C253.726 67.0077 251.968 66.9945 250.235 66.7794C249.067 66.6378 247.919 66.3816 246.807 66.0143C246.402 65.8943 246.12 65.7567 245.917 65.6848C245.812 65.6485 245.71 65.6045 245.611 65.553C245.721 65.5726 245.829 65.6044 245.931 65.6477C246.141 65.7071 246.435 65.8318 246.835 65.9402C247.949 66.276 249.094 66.5095 250.256 66.6379C251.98 66.8304 253.726 66.827 255.46 66.6279C257.584 66.3865 259.682 65.9199 261.721 65.2362C266.063 63.7756 269.718 61.7098 272.328 60.2138L275.429 58.3994L276.226 57.9131C276.326 57.853 276.43 57.7994 276.537 57.7527Z" fill="white"/>
<path d="M237.32 102.663C237.14 102.811 236.948 102.944 236.746 103.061C236.348 103.308 235.81 103.659 235.121 104.085C233.746 104.934 231.825 106.078 229.689 107.321C227.553 108.565 225.604 109.661 224.181 110.434C223.472 110.832 222.89 111.131 222.488 111.338C222.284 111.452 222.072 111.552 221.854 111.637C222.043 111.498 222.243 111.374 222.452 111.267L224.11 110.306L229.585 107.142L235.045 103.954L236.703 102.989C236.9 102.866 237.107 102.757 237.32 102.663Z" fill="#FF725E"/>
<path d="M243.597 90.6116C243.415 90.7591 243.222 90.8923 243.019 91.0101C242.62 91.2572 242.086 91.6079 241.397 92.0343C240.018 92.8831 238.097 94.0268 235.965 95.2702C233.833 96.5136 231.876 97.6095 230.454 98.3826C229.744 98.7811 229.167 99.08 228.764 99.2872C228.559 99.4028 228.346 99.5027 228.126 99.5861C228.316 99.4478 228.516 99.3239 228.724 99.2155L230.382 98.2551L235.858 95.0909L241.321 91.9028L242.979 90.9384C243.176 90.8137 243.383 90.7045 243.597 90.6116Z" fill="#FF725E"/>
<path d="M247.514 109.386C247.371 109.281 247.238 109.163 247.116 109.035L246.024 108.058C244.814 106.996 243.547 105.999 242.23 105.074C241.513 104.558 240.742 104.123 239.931 103.774C239.269 103.497 238.566 103.334 237.85 103.292C237.188 103.265 236.525 103.354 235.894 103.555C235.894 103.555 235.933 103.523 236.017 103.484C236.138 103.426 236.263 103.378 236.392 103.34C236.866 103.194 237.362 103.128 237.858 103.145C238.594 103.168 239.32 103.322 240.002 103.599C240.831 103.941 241.617 104.379 242.346 104.902C243.674 105.83 244.936 106.849 246.123 107.951C246.578 108.373 246.92 108.748 247.172 108.979C247.301 109.101 247.416 109.237 247.514 109.386Z" fill="white"/>
<path d="M203.152 99.9928L200.362 99.5544L183.078 93.9752L172.972 91.0541C171.552 90.542 170.041 90.3306 168.535 90.4335C167.03 90.5364 165.562 90.9513 164.225 91.6519C159.442 94.0828 146.268 106.349 146.268 106.349L155.756 116.133L151.289 135.931C156.29 150.15 166.082 151.78 166.082 151.78C170.868 151.984 175.644 151.194 180.109 149.46C189.2 146.005 198.736 137.872 199.932 134.377C200.649 132.28 201.243 127.873 201.713 122.895L216.107 117.029L220.009 97.1036L203.152 99.9928Z" fill="#CD9798"/>
<path d="M182.126 135.245C182.126 135.245 182.082 135.293 181.986 135.369C181.891 135.445 181.751 135.56 181.556 135.688C181.012 136.054 180.433 136.365 179.827 136.616C177.81 137.475 175.575 137.686 173.433 137.219C171.291 136.752 169.347 135.631 167.871 134.01C167.422 133.527 167.021 133.001 166.676 132.44C166.552 132.245 166.476 132.081 166.417 131.974C166.385 131.921 166.36 131.865 166.341 131.806C166.486 131.994 166.619 132.191 166.739 132.396C167.104 132.934 167.514 133.44 167.967 133.906C169.442 135.472 171.355 136.555 173.457 137.014C175.558 137.474 177.749 137.288 179.743 136.481C180.347 136.244 180.93 135.954 181.484 135.616C181.907 135.365 182.114 135.221 182.126 135.245Z" fill="#263238"/>
<path d="M176.658 94.8C176.674 94.8299 176.685 94.8622 176.69 94.8957C176.71 94.9714 176.734 95.0631 176.762 95.1786C176.822 95.4257 176.905 95.7963 177.005 96.2706C177.3 97.6127 177.49 98.9758 177.575 100.347C177.626 101.299 177.571 102.253 177.411 103.193C177.219 104.276 176.834 105.317 176.276 106.265C175.629 107.291 174.832 108.213 173.912 109.003C172.976 109.84 171.94 110.597 170.884 111.418C168.636 113.104 166.452 114.63 164.508 116.017C162.563 117.404 160.829 118.643 159.45 119.687L159.407 119.723L159.363 119.687C158.39 118.915 157.466 118.084 156.597 117.197C156.362 116.958 156.145 116.702 155.947 116.431C155.88 116.34 155.84 116.264 155.808 116.216C155.792 116.191 155.777 116.164 155.764 116.136C155.764 116.136 155.84 116.232 155.979 116.407C156.189 116.665 156.412 116.911 156.649 117.145C157.535 118.005 158.466 118.818 159.438 119.58H159.351C160.722 118.52 162.435 117.256 164.388 115.866C166.341 114.475 168.517 112.94 170.764 111.255C171.816 110.458 172.852 109.681 173.781 108.864C174.688 108.089 175.475 107.184 176.116 106.178C176.669 105.253 177.051 104.237 177.244 103.177C177.409 102.249 177.472 101.305 177.431 100.363C177.36 98.9982 177.192 97.6399 176.929 96.2985C176.842 95.8322 176.774 95.4656 176.722 95.1986C176.701 95.0843 176.685 94.9887 176.674 94.9116C176.662 94.8757 176.657 94.8379 176.658 94.8Z" fill="#263238"/>
<path d="M251.711 103.763C255.756 100.292 257.127 94.0468 254.899 89.2048L249.2 88.619C250.634 87.8288 251.796 86.6236 252.534 85.1615C253.271 83.6994 253.55 82.0487 253.333 80.4256C251.756 82.0572 249.709 83.1552 247.477 83.5661C245.246 83.9769 242.942 83.6801 240.887 82.717C238.225 81.4019 236.065 78.9511 233.14 78.437C230.486 77.9707 227.876 79.234 225.333 80.1187C222.791 81.0034 219.714 81.5175 217.61 79.8318C215.944 78.4968 215.426 76.1575 215.534 74.0214C215.641 71.8854 216.259 69.8052 216.391 67.6731C216.486 65.5754 216.122 63.4821 215.324 61.5396C214.526 59.5971 213.314 57.8523 211.772 56.427C211.256 54.7297 210.335 53.1831 209.089 51.9206C207.843 50.6582 206.308 49.7176 204.618 49.18C202.927 48.6423 201.131 48.5237 199.385 48.8344C197.638 49.1451 195.993 49.8758 194.592 50.9634C193.344 51.9278 192.292 53.1752 190.878 53.8726C189.284 54.6696 187.423 54.6696 185.697 55.0681C183.971 55.4666 182.15 56.6383 181.967 58.4116L181.269 62.0421C181.154 62.3011 181.03 62.5562 180.871 62.8073C179.404 65.3817 176.4 67.0753 175.742 69.9805C175.375 71.6025 175.83 73.3599 175.284 74.9301C174.562 76.9983 172.331 78.162 171.299 80.0868C169.872 82.733 170.84 87.3677 173.124 89.3204C175.407 91.2731 180.114 93.3454 183.055 93.9711C183.852 90.9145 184.557 87.6466 185.239 84.3031C186.434 85.4548 187.698 86.5507 188.949 87.6387C192.221 90.4841 195.564 93.3733 197.836 97.0675C202.152 104.093 202.219 113.407 207.659 119.6C208.723 120.815 210.018 121.895 211.565 122.365C213.111 122.835 214.944 122.584 216.088 121.445C217.439 120.098 217.614 117.826 219.108 116.643C221.101 115.068 223.994 116.324 226.126 117.691C227.672 118.679 229.219 119.723 230.968 120.265C232.718 120.807 234.758 120.771 236.248 119.703C237.739 118.635 238.393 116.356 237.317 114.869C236.886 114.275 236.245 113.861 235.818 113.275C235.392 112.689 235.268 111.733 235.854 111.283C236.44 110.832 237.4 111.283 238.098 111.681C239.809 112.687 241.722 113.298 243.699 113.472C245.676 113.646 247.667 113.377 249.527 112.685C251.387 111.993 253.069 110.896 254.452 109.472C255.835 108.049 256.883 106.335 257.521 104.456C255.557 104.75 253.55 104.51 251.711 103.763Z" fill="#0C111D"/>
<path d="M248.152 72.4991C248.334 72.6317 248.506 72.7782 248.666 72.9375C249.147 73.385 249.551 73.9087 249.861 74.4877C250.077 74.9095 250.225 75.3627 250.3 75.8307C250.391 76.4369 250.306 77.0567 250.055 77.6158C249.803 78.1749 249.396 78.6495 248.881 78.9829C248.578 79.179 248.235 79.303 247.877 79.3456C247.497 79.3858 247.114 79.331 246.761 79.1862C245.282 78.5804 244.537 76.8708 242.939 76.1096C241.381 75.2847 239.388 75.2289 237.476 75.6673C235.563 76.1056 233.694 77.1458 231.809 78.2058C229.924 79.2659 227.919 80.4016 225.612 80.7962C224.479 81.0155 223.314 81.0074 222.185 80.7722C221.63 80.6458 221.094 80.4475 220.59 80.1824C220.102 79.9148 219.651 79.5823 219.251 79.1941C218.492 78.4217 217.907 77.4947 217.538 76.4763C217.176 75.5098 216.938 74.5016 216.829 73.4755C216.617 71.4829 216.785 69.57 216.805 67.8046C216.884 66.1664 216.722 64.5255 216.322 62.9347C216.132 62.2479 215.878 61.5807 215.561 60.9422C215.284 60.3678 214.961 59.8173 214.593 59.2963C214.01 58.4583 213.326 57.6954 212.556 57.0248C212.066 56.6039 211.546 56.2202 210.998 55.8771L210.564 55.618L210.42 55.5264C210.475 55.5464 210.527 55.5718 210.576 55.6021L211.022 55.8412C212.471 56.6988 213.721 57.8548 214.688 59.2326C215.486 60.3437 216.086 61.584 216.462 62.8989C216.878 64.5006 217.051 66.1555 216.976 67.8086C216.976 69.586 216.805 71.4829 217.02 73.4555C217.128 74.4638 217.363 75.4545 217.717 76.4045C218.079 77.395 218.65 78.2961 219.391 79.0467C219.775 79.4232 220.21 79.745 220.682 80.0031C221.168 80.2557 221.683 80.4472 222.216 80.573C223.32 80.7988 224.458 80.8056 225.564 80.5929C227.828 80.1944 229.812 79.0825 231.697 78.0265C233.582 76.9704 235.443 75.9303 237.42 75.48C238.376 75.2546 239.36 75.1714 240.341 75.2329C240.81 75.2658 241.276 75.3418 241.732 75.4601C242.174 75.5795 242.601 75.7465 243.007 75.9582C244.661 76.7552 245.398 78.4848 246.805 79.0467C247.126 79.1833 247.475 79.2388 247.823 79.2082C248.171 79.1777 248.505 79.0619 248.797 78.8713C249.333 78.5335 249.751 78.0378 249.993 77.4526C250.203 76.9492 250.272 76.3982 250.192 75.8586C250.131 75.4003 249.996 74.9549 249.794 74.5395C249.499 73.9648 249.117 73.4392 248.662 72.9813C248.506 72.8219 248.383 72.7063 248.299 72.6306C248.216 72.5549 248.152 72.4991 248.152 72.4991Z" fill="#263238"/>
<path d="M183.015 95.5013C183.015 95.5013 183.015 95.4415 182.983 95.3219C182.962 95.1452 182.926 94.9705 182.875 94.7999C182.692 94.1398 182.358 93.5314 181.899 93.0225C181.159 92.2293 180.258 91.603 179.257 91.1854C178.101 90.6553 176.666 90.3883 175.096 90.1014C173.526 89.8145 171.745 89.4718 170.143 88.4037C169.253 87.8029 168.506 87.0145 167.954 86.0941C167.401 85.1736 167.057 84.1434 166.946 83.0757C166.834 82.0081 166.957 80.929 167.307 79.9141C167.657 78.8993 168.225 77.9734 168.971 77.2015C170.621 75.5078 172.956 74.6669 174.861 73.1805C175.328 72.8059 175.748 72.3764 176.113 71.9013C176.455 71.4166 176.714 70.8777 176.878 70.3072C177.196 69.1754 177.169 67.9918 177.276 66.8401C177.32 66.2629 177.426 65.6922 177.595 65.1385C177.772 64.59 178.058 64.083 178.436 63.648C179.219 62.8626 180.206 62.3106 181.285 62.054C182.309 61.7551 183.33 61.5678 184.29 61.3048C185.229 61.0649 186.119 60.6601 186.916 60.1092C187.652 59.5882 188.313 58.9688 188.881 58.2681C189.413 57.6403 189.909 56.983 190.367 56.2994C191.248 54.9684 192.001 53.721 192.802 52.7128C193.465 51.8425 194.247 51.0698 195.126 50.4174C195.684 50.0078 196.304 49.6903 196.963 49.4769C197.189 49.3973 197.423 49.3386 197.66 49.3015C197.66 49.3015 197.417 49.3573 196.975 49.5167C196.328 49.7442 195.72 50.0709 195.173 50.4851C194.31 51.1414 193.543 51.9154 192.894 52.7845C192.097 53.7808 191.364 55.0242 190.503 56.3712C190.05 57.079 189.555 57.759 189.02 58.4076C188.445 59.1221 187.774 59.755 187.028 60.2886C186.215 60.8407 185.311 61.2454 184.358 61.4841C183.385 61.7551 182.365 61.9424 181.357 62.2413C180.313 62.4857 179.358 63.0171 178.599 63.7756C178.241 64.1902 177.97 64.6726 177.802 65.1943C177.639 65.7338 177.536 66.2898 177.495 66.8521C177.388 67.9918 177.42 69.1834 177.097 70.359C176.926 70.9475 176.657 71.5027 176.3 72.0009C175.924 72.49 175.491 72.9316 175.009 73.316C174.033 74.0347 173.009 74.6858 171.944 75.2647C170.929 75.8251 169.992 76.515 169.154 77.3171C168.427 78.0688 167.874 78.9704 167.532 79.9586C167.19 80.9469 167.068 81.998 167.175 83.0382C167.282 84.0785 167.615 85.0828 168.152 85.9807C168.688 86.8786 169.413 87.6485 170.278 88.2364C171.832 89.2845 173.602 89.6192 175.16 89.934C176.718 90.2489 178.173 90.5079 179.337 91.0539C180.348 91.4843 181.255 92.1287 181.995 92.9428C182.453 93.4654 182.781 94.0897 182.951 94.764C182.997 94.9375 183.026 95.115 183.039 95.294C183.015 95.4415 183.015 95.5013 183.015 95.5013Z" fill="#263238"/>
<path d="M214.832 59.7268C214.727 59.7164 214.625 59.6895 214.529 59.6471C214.257 59.5581 213.991 59.4516 213.732 59.3283C212.007 58.5157 210.534 57.2499 209.472 55.6659C209.312 55.4278 209.167 55.1803 209.038 54.9247C208.981 54.8352 208.939 54.7369 208.914 54.6338C208.942 54.6338 209.169 55.0004 209.592 55.5783C210.698 57.09 212.136 58.3279 213.796 59.1968C214.43 59.5275 214.848 59.6949 214.832 59.7268Z" fill="#455A64"/>
<path d="M228.083 86.9094C228.083 86.9094 227.832 86.8456 227.382 86.75C226.744 86.6152 226.096 86.5352 225.445 86.5109C224.48 86.4846 223.514 86.5126 222.552 86.5946C221.46 86.6703 220.256 86.7819 218.985 86.754C217.781 86.754 216.588 86.5297 215.466 86.0924C214.555 85.7121 213.747 85.1222 213.107 84.3709C212.677 83.8633 212.368 83.2653 212.202 82.6214C212.159 82.4475 212.131 82.2702 212.118 82.0914C212.11 82.0292 212.11 81.9662 212.118 81.9041C212.142 81.9041 212.154 82.1591 212.282 82.6015C212.476 83.2194 212.798 83.7896 213.226 84.2752C213.862 84.9946 214.656 85.5566 215.546 85.9171C216.647 86.3329 217.815 86.5462 218.993 86.5467C220.248 86.5746 221.448 86.471 222.544 86.4033C223.513 86.3278 224.486 86.3145 225.457 86.3634C226.115 86.4018 226.767 86.5046 227.405 86.6703C227.578 86.7161 227.748 86.7707 227.916 86.8337C227.975 86.8499 228.032 86.8755 228.083 86.9094Z" fill="#455A64"/>
<path d="M251.567 105.03C251.567 105.03 251.531 105.03 251.451 105.082C251.338 105.133 251.219 105.172 251.097 105.197C250.624 105.298 250.132 105.276 249.67 105.134C248.943 104.9 248.286 104.489 247.757 103.938C247.086 103.183 246.564 102.309 246.219 101.36C245.785 100.339 245.422 99.1678 244.709 98.0838C244.349 97.5225 243.925 97.005 243.445 96.5416C242.928 96.0572 242.362 95.6284 241.756 95.2623C239.253 93.752 235.965 93.1343 232.59 93.3335C229.214 93.5328 226.038 94.1704 223.101 94.3737C220.497 94.6527 217.863 94.3811 215.37 93.5766C213.683 93.0284 212.159 92.0699 210.934 90.787C210.745 90.5872 210.568 90.3755 210.404 90.1534C210.277 89.9968 210.162 89.8302 210.062 89.6552C209.982 89.5237 209.918 89.4161 209.866 89.3364C209.842 89.302 209.822 89.2645 209.807 89.2249C209.807 89.2249 209.839 89.2567 209.886 89.3245L210.094 89.6313C210.203 89.7994 210.323 89.9605 210.452 90.1135C210.619 90.331 210.8 90.5373 210.994 90.7312C212.227 91.9741 213.744 92.8986 215.414 93.4252C217.892 94.2018 220.504 94.4569 223.085 94.1744C226.006 93.9592 229.178 93.2897 232.578 93.1144C235.977 92.939 239.293 93.5408 241.835 95.087C242.452 95.4625 243.028 95.902 243.553 96.3981C244.041 96.8779 244.472 97.4129 244.836 97.9922C245.557 99.104 245.912 100.288 246.338 101.304C246.667 102.241 247.17 103.108 247.821 103.858C248.331 104.403 248.967 104.814 249.674 105.054C250.123 105.205 250.603 105.239 251.069 105.153C251.408 105.098 251.563 105.014 251.567 105.03Z" fill="#455A64"/>
<path d="M188.796 59.889C188.05 59.8704 187.324 60.1323 186.762 60.623C186.2 61.1137 185.842 61.7974 185.759 62.5391L182.535 96.098C181.977 100.816 188.15 110.935 193.207 111.493C198.312 112.054 198.815 109.58 199.476 105.116C200.584 97.6482 200.955 94.8347 200.951 94.8785C200.947 94.9223 207.526 94.6593 209.965 86.438C211.161 82.3492 211.87 75.4749 212.256 69.8319C212.603 64.7508 210.081 58.1315 204.988 58L188.796 59.889Z" fill="#FFBF9D"/>
<path d="M210.126 74.1092C210.093 74.3934 209.948 74.6529 209.724 74.8308C209.5 75.0086 209.214 75.0902 208.93 75.0577C208.792 75.0506 208.656 75.016 208.531 74.9557C208.406 74.8955 208.295 74.8109 208.203 74.707C208.111 74.603 208.041 74.4818 207.997 74.3504C207.953 74.219 207.935 74.0801 207.946 73.9418C207.981 73.6582 208.126 73.3996 208.349 73.2215C208.573 73.0435 208.857 72.9601 209.141 72.9894C209.28 72.9964 209.416 73.0312 209.541 73.0917C209.666 73.1521 209.778 73.2371 209.87 73.3415C209.962 73.4459 210.032 73.5676 210.075 73.6995C210.119 73.8313 210.136 73.9706 210.126 74.1092Z" fill="#263238"/>
<path d="M210.584 71.9372C210.456 72.0887 209.595 71.5387 208.428 71.6224C207.26 71.7061 206.435 72.3477 206.312 72.2162C206.248 72.1564 206.363 71.8934 206.71 71.5945C207.191 71.21 207.778 70.9832 208.392 70.9449C208.998 70.8997 209.602 71.0491 210.117 71.3713C210.504 71.6224 210.643 71.8814 210.584 71.9372Z" fill="#263238"/>
<path d="M199.872 74.715C199.732 74.8544 198.927 74.2208 197.76 74.1929C196.592 74.165 195.719 74.7229 195.596 74.5914C195.536 74.5237 195.679 74.2726 196.062 74.0136C196.577 73.6756 197.184 73.507 197.799 73.5314C198.406 73.5468 198.992 73.7547 199.473 74.1252C199.824 74.3961 199.931 74.6711 199.872 74.715Z" fill="#263238"/>
<path d="M202.048 80.8878C202.048 80.8201 202.789 80.7922 203.977 80.7962C204.276 80.7962 204.562 80.7962 204.642 80.585C204.706 80.2832 204.677 79.9691 204.559 79.6843C204.375 78.9298 204.183 78.1328 203.981 77.2932C203.184 73.9258 202.654 71.1721 202.785 71.1402C202.917 71.1083 203.674 73.8182 204.467 77.1856C204.658 78.0145 204.837 78.8036 205.009 79.5767C205.152 79.9624 205.152 80.3865 205.009 80.7723C204.952 80.8706 204.874 80.9547 204.78 81.0182C204.686 81.0818 204.579 81.123 204.467 81.1389C204.296 81.1607 204.123 81.1607 203.953 81.1389C202.773 81.0472 202.044 80.9516 202.048 80.8878Z" fill="#263238"/>
<path d="M201.043 94.7044C197.08 94.2424 193.323 92.6874 190.192 90.2131C190.192 90.2131 192.268 96.3582 200.776 96.681L201.043 94.7044Z" fill="#FF9A6C"/>
<path d="M200.035 72.7182C199.852 73.0012 198.748 72.5867 197.377 72.4353C196.006 72.2839 194.838 72.3954 194.727 72.0766C194.679 71.9252 194.934 71.6781 195.44 71.4828C196.104 71.2431 196.817 71.1665 197.516 71.2597C198.22 71.3366 198.894 71.5798 199.485 71.969C199.931 72.2799 200.119 72.5827 200.035 72.7182Z" fill="#263238"/>
<path d="M210.409 70.3711C210.217 70.6461 209.401 70.4149 208.416 70.4508C207.432 70.4867 206.639 70.7178 206.424 70.4508C206.336 70.3193 206.452 70.0523 206.794 69.7813C207.258 69.445 207.816 69.2637 208.388 69.2632C208.953 69.2462 209.51 69.4034 209.982 69.7135C210.369 69.9686 210.492 70.2396 210.409 70.3711Z" fill="#263238"/>
<path d="M199.226 83.0039C199.761 82.6386 200.417 82.4957 201.056 82.6054C201.381 82.6503 201.681 82.8066 201.905 83.0477C202.146 83.4043 202.252 83.8353 202.203 84.2632C202.205 84.5214 202.166 84.7783 202.088 85.0243C202.006 85.2703 201.832 85.4747 201.602 85.5942C201.346 85.6865 201.068 85.7004 200.805 85.6341C200.366 85.5779 199.946 85.4255 199.573 85.1877C199.388 85.0688 199.23 84.911 199.112 84.7252C198.994 84.5394 198.917 84.3301 198.888 84.1117C198.863 83.8921 198.91 83.6704 199.021 83.4795C199.132 83.2885 199.302 83.1385 199.505 83.0517" fill="#F36A57"/>
<path d="M202.371 85.5624C202.287 85.5943 202.132 85.3392 201.853 84.9925C201.506 84.5373 201.071 84.1566 200.574 83.8731C200.077 83.5897 199.528 83.4092 198.959 83.3426C198.517 83.2789 198.222 83.2749 198.202 83.1872C198.182 83.0996 198.461 82.9521 198.967 82.9003C199.635 82.8481 200.303 82.998 200.884 83.3307C201.467 83.6598 201.936 84.1589 202.227 84.7614C202.442 85.2197 202.446 85.5385 202.371 85.5624Z" fill="#263238"/>
<path d="M182.178 93.6244C184.948 93.0705 187.084 90.6914 188.036 88.0452C188.989 85.3991 188.937 82.486 188.686 79.6764C188.693 79.4946 188.663 79.3133 188.598 79.1434C188.533 78.9735 188.434 78.8186 188.307 78.6881C187.889 78.3653 187.287 78.6283 186.833 78.9033C185.086 79.9651 183.413 81.142 181.823 82.4262C180.341 83.6217 178.874 84.9966 178.304 86.8098C177.432 89.5994 179.277 92.927 182.102 93.6603" fill="#263238"/>
<path d="M245.841 92.9748L232.781 71.981L229.171 64.5926C229.171 64.5926 228.019 63.0663 226.824 61.7631C224.863 59.6231 222.922 61.2849 222.922 61.2849C222.813 61.0323 222.629 60.8198 222.394 60.6769C222.159 60.5341 221.885 60.468 221.611 60.4879C221.259 60.4877 220.911 60.571 220.598 60.731C220.284 60.891 220.012 61.1232 219.806 61.4084C219.806 61.4084 219.272 60.8147 217.789 60.723C217.452 60.719 217.123 60.8253 216.853 61.0259C216.366 60.5995 215.474 59.9857 214.617 60.2966C213.948 60.5397 209.887 63.6282 208.886 65.1824C208.392 65.9515 209.309 66.9478 210.544 66.4815C211.052 66.3173 211.548 66.1162 212.027 65.8798C212.402 65.6691 212.741 65.4 213.031 65.0827C213.031 65.0827 212.007 66.8761 213.031 67.1909C213.366 67.2581 213.712 67.2512 214.045 67.1707C214.377 67.0902 214.688 66.9379 214.956 66.7246C215.354 66.3978 215.793 65.9714 216.219 65.553L216.171 65.6247C215.605 66.4616 217.08 67.701 217.793 67.1989C218.125 66.9649 218.443 66.7121 218.746 66.4417C220.403 67.6372 218.104 69.1874 217.132 69.1077C215.635 68.9943 214.133 68.9943 212.636 69.1077C211.792 69.1755 211.042 69.3787 210.58 69.845C210.03 70.4109 210.608 71.5985 211.377 71.718C212.808 71.9412 214.633 72.256 216.53 72.7462C218.762 73.32 224.608 75.221 224.608 75.221L225.178 75.6832L233.12 95.055L219.523 97.9363L216.486 115.168L241.035 108.505C246.558 105.596 249.192 98.2351 245.841 92.9748Z" fill="#FFBF9D"/>
<path d="M224.612 75.1853C224.506 75.17 224.402 75.1447 224.301 75.1096L223.42 74.8585L220.188 73.8981L217.96 73.2246C217.163 72.9775 216.307 72.7225 215.398 72.4913C214.452 72.2359 213.491 72.0376 212.521 71.8975C211.988 71.8883 211.461 71.7927 210.959 71.6146C210.825 71.5539 210.705 71.4656 210.608 71.3555C210.555 71.292 210.514 71.219 210.488 71.1404L210.46 70.9291C210.418 70.647 210.436 70.3592 210.512 70.0843C210.61 69.8019 210.813 69.5678 211.078 69.4307C211.32 69.3053 211.574 69.2038 211.835 69.1279C212.353 68.9795 212.891 68.9136 213.429 68.9326C214.465 68.9326 215.442 69.092 216.374 69.0521C216.827 69.0415 217.279 68.9975 217.725 68.9206C218.16 68.8409 218.574 68.7293 218.981 68.6257C219.732 68.3908 220.518 68.2897 221.304 68.3268C221.949 68.3886 222.581 68.5499 223.177 68.8051C223.625 68.9919 224.062 69.2062 224.484 69.4467C224.831 69.6419 225.094 69.8053 225.281 69.9129C225.373 69.966 225.461 70.026 225.544 70.0923C225.444 70.054 225.348 70.0059 225.257 69.9488L224.46 69.5184C224.035 69.2921 223.597 69.0898 223.149 68.9127C222.561 68.6734 221.94 68.5255 221.308 68.4743C220.54 68.4464 219.772 68.553 219.04 68.7891C218.642 68.8967 218.219 69.0163 217.777 69.1C217.32 69.1829 216.858 69.2308 216.394 69.2434C215.446 69.2873 214.457 69.1478 213.445 69.1358C212.934 69.1204 212.423 69.1835 211.931 69.3231C211.445 69.4825 210.891 69.6539 210.735 70.148C210.671 70.395 210.656 70.6524 210.692 70.9052L210.719 71.0885C210.734 71.1378 210.76 71.183 210.795 71.2201C210.875 71.3077 210.971 71.3794 211.078 71.4313C211.56 71.595 212.064 71.6838 212.572 71.6943C213.551 71.8396 214.52 72.0446 215.474 72.308C216.386 72.5431 217.239 72.8061 218.036 73.0612L220.26 73.7586L223.472 74.7828L224.341 75.0697C224.434 75.1 224.525 75.1386 224.612 75.1853Z" fill="#923720"/>
<path d="M214.541 60.3245C214.565 60.3563 213.928 60.723 212.987 61.4363C212.438 61.8546 211.917 62.3072 211.425 62.7913C210.867 63.3332 210.281 63.9868 209.588 64.5647C209.241 64.802 208.983 65.1484 208.854 65.549C208.805 65.7255 208.828 65.9142 208.918 66.074C209.007 66.2338 209.156 66.3517 209.333 66.4018C209.676 66.4978 210.038 66.5047 210.385 66.4217C210.698 66.3635 211.005 66.2755 211.301 66.1587C211.884 65.9114 212.427 65.5812 212.915 65.1784C212.818 65.3224 212.696 65.449 212.557 65.553C212.196 65.8578 211.794 66.1088 211.361 66.2982C211.059 66.4265 210.746 66.5253 210.425 66.5931C210.048 66.6906 209.653 66.6906 209.277 66.5931C209.053 66.5306 208.862 66.3822 208.746 66.18C208.63 65.9778 208.599 65.7382 208.659 65.5131C208.795 65.068 209.076 64.681 209.456 64.4132C210.138 63.8314 210.723 63.2177 211.297 62.6598C211.795 62.1775 212.328 61.7326 212.891 61.3287C213.378 60.982 213.788 60.7349 214.087 60.5676C214.23 60.4722 214.382 60.3908 214.541 60.3245Z" fill="#923720"/>
<path d="M219.527 61.9664C219.385 62.1582 219.23 62.3406 219.064 62.5123L217.753 63.955L215.789 66.079C215.396 66.5098 214.929 66.8662 214.41 67.1311C214.125 67.2744 213.812 67.352 213.493 67.3583C213.324 67.3611 213.155 67.3302 212.998 67.2672C212.841 67.2043 212.697 67.1106 212.577 66.9916C212.452 66.8534 212.377 66.6785 212.361 66.4935C212.348 66.3217 212.365 66.1489 212.413 65.9834C212.504 65.6709 212.647 65.3758 212.836 65.1107C213.541 64.3654 214.195 63.664 214.78 63.0185C215.366 62.3729 215.952 61.8667 216.422 61.4244C216.624 61.2131 216.853 61.0295 217.104 60.8784C217.306 60.7889 217.524 60.7401 217.745 60.735C218.1 60.7111 218.307 60.735 218.287 60.7828C218.109 60.7614 217.929 60.7695 217.753 60.8067C217.545 60.8246 217.341 60.8785 217.151 60.9661C216.917 61.1252 216.702 61.3111 216.51 61.52C216.056 61.9743 215.494 62.5004 214.916 63.138C214.338 63.7756 213.688 64.5009 212.987 65.2541C212.812 65.4967 212.678 65.7658 212.589 66.0511C212.547 66.1934 212.531 66.3417 212.541 66.4895C212.557 66.6297 212.615 66.7618 212.708 66.8681C212.914 67.0646 213.189 67.172 213.473 67.167C213.76 67.1615 214.042 67.0921 214.298 66.9637C214.796 66.7116 215.246 66.3729 215.625 65.9635L217.618 63.8713L218.977 62.4765L219.355 62.1019C219.462 62.0062 219.519 61.9611 219.527 61.9664Z" fill="#923720"/>
<path d="M225.632 63.8874C225.632 63.8874 225.632 64.0109 225.472 64.1225C225.38 64.1948 225.273 64.247 225.159 64.2756C225.045 64.3043 224.926 64.3088 224.81 64.289C224.694 64.2691 224.583 64.2252 224.485 64.1602C224.388 64.0951 224.304 64.0104 224.241 63.9113C224.149 63.7598 224.149 63.6443 224.173 63.6403C224.197 63.6363 224.253 63.716 224.356 63.8196C224.488 63.9544 224.658 64.0461 224.843 64.0826C225.03 64.1103 225.222 64.0812 225.393 63.9989C225.528 63.9352 225.608 63.8674 225.632 63.8874Z" fill="#923720"/>
<path d="M226.11 65.7165C226.066 65.7524 225.768 65.4535 225.505 65.0032C225.313 64.7499 225.198 64.447 225.174 64.1304C225.226 64.1105 225.425 64.4692 225.684 64.8996C225.866 65.1492 226.01 65.4245 226.11 65.7165Z" fill="#923720"/>
<path d="M226.991 72.8419C226.816 72.5903 226.688 72.3096 226.612 72.013C226.385 71.3091 226.275 70.5727 226.285 69.8331C226.3 69.0937 226.435 68.3615 226.684 67.6652C226.766 67.3698 226.901 67.0917 227.082 66.8442C226.747 67.8088 226.552 68.8168 226.505 69.8371C226.52 70.857 226.684 71.8692 226.991 72.8419Z" fill="#923720"/>
<path d="M237.719 100.455C237.679 100.455 237.639 100.033 237.432 99.3829C237.308 99.0044 237.15 98.6376 236.961 98.287C236.491 97.4313 235.838 96.6897 235.048 96.1151C234.727 95.8809 234.384 95.6768 234.024 95.5054C233.411 95.2145 232.992 95.1069 233 95.083C233.101 95.079 233.202 95.0924 233.299 95.1228C233.572 95.181 233.838 95.2637 234.096 95.3699C234.474 95.5285 234.835 95.7262 235.172 95.9597C236.002 96.5332 236.678 97.3024 237.141 98.1993C237.329 98.5635 237.477 98.947 237.583 99.3431C237.656 99.6038 237.706 99.8705 237.73 100.14C237.743 100.245 237.739 100.351 237.719 100.455Z" fill="#923720"/>
<path d="M192.137 138.832C191.013 138.636 189.856 138.783 188.817 139.254C187.044 138.457 184.856 139.824 184.856 139.824C184.214 139.517 180.349 142.044 180.349 142.044L175.535 144.316L149.819 125.207L157.107 117.635L146.893 107.007L134.938 119.321C133.474 120.906 132.625 122.963 132.547 125.119C132.432 127.415 132.991 129.694 134.154 131.676C135.317 133.659 137.034 135.258 139.095 136.277L169.382 151.82C171.708 151.69 174.016 151.331 176.272 150.748C178.886 150.066 183.354 148.081 183.354 148.081C183.354 148.081 183.354 148.217 184.151 149.767C185.589 152.557 187.697 149.544 187.697 149.544C187.907 150.034 188.183 150.493 188.518 150.907C190.34 152.672 191.603 150.301 191.603 150.301C191.603 150.301 192.149 151.254 193.775 150.544C195.401 149.835 193.54 144.941 193.54 144.941C193.54 144.941 194.086 146.005 195.134 144.658C196.182 143.311 193.878 139.199 192.137 138.832Z" fill="#FFBF9D"/>
<path d="M188.499 139.505C188.598 139.436 188.713 139.391 188.833 139.374C189.156 139.303 189.492 139.314 189.81 139.406C190.278 139.539 190.715 139.762 191.097 140.063C191.327 140.234 191.541 140.425 191.738 140.633C191.937 140.878 192.106 141.145 192.241 141.43C192.713 142.381 193.106 143.368 193.416 144.383C193.536 144.782 193.615 145.088 193.667 145.312C193.704 145.425 193.722 145.543 193.719 145.662C193.691 145.662 193.548 145.188 193.277 144.427C192.925 143.436 192.517 142.466 192.053 141.522C191.928 141.257 191.77 141.01 191.583 140.785C191.397 140.584 191.196 140.399 190.981 140.231C190.625 139.939 190.22 139.713 189.786 139.561C189.368 139.438 188.926 139.418 188.499 139.505Z" fill="#923720"/>
<path d="M191.595 150.313C191.503 150.174 191.427 150.026 191.368 149.871L190.806 148.651C190.332 147.619 189.638 146.208 188.977 144.602C188.71 143.839 188.359 143.107 187.929 142.422C187.557 141.885 187.046 141.459 186.45 141.191C186.054 140.999 185.613 140.921 185.175 140.964C184.864 141.004 184.705 141.087 184.697 141.068C184.689 141.048 184.733 141.04 184.808 141C184.919 140.944 185.037 140.905 185.159 140.884C185.616 140.806 186.087 140.866 186.51 141.056C187.142 141.319 187.688 141.756 188.084 142.315C188.532 143.005 188.896 143.746 189.168 144.523C189.826 146.117 190.499 147.543 190.941 148.591C191.161 149.114 191.34 149.544 191.444 149.839C191.511 149.991 191.562 150.15 191.595 150.313Z" fill="#923720"/>
<path d="M179.791 144.164C179.915 144.075 180.049 143.999 180.189 143.937L181.337 143.383C181.584 143.267 181.843 143.14 182.134 143.012C182.461 142.882 182.815 142.83 183.166 142.861C183.557 142.892 183.932 143.03 184.25 143.259C184.571 143.522 184.841 143.84 185.047 144.2C185.266 144.558 185.445 144.929 185.605 145.272C185.764 145.614 185.952 145.945 186.127 146.256C186.474 146.874 186.8 147.428 187.04 147.914C187.236 148.294 187.407 148.686 187.55 149.089C187.613 149.233 187.656 149.384 187.677 149.54C187.645 149.54 187.43 148.922 186.912 147.982C186.653 147.511 186.318 146.969 185.96 146.352C185.78 146.041 185.601 145.71 185.426 145.363C185.25 145.017 185.083 144.654 184.872 144.307C184.679 143.971 184.429 143.67 184.134 143.419C183.85 143.201 183.513 143.064 183.158 143.02C182.836 142.985 182.509 143.026 182.206 143.14C181.919 143.255 181.644 143.383 181.408 143.482L180.233 144.012C180.092 144.081 179.944 144.131 179.791 144.164Z" fill="#923720"/>
<path d="M180.348 142.048C180.242 142.136 180.124 142.21 179.998 142.267C179.767 142.399 179.428 142.582 179.005 142.805C178.165 143.251 176.993 143.857 175.694 144.511C174.395 145.164 173.215 145.746 172.354 146.161L171.334 146.639C171.208 146.705 171.074 146.755 170.936 146.786C171.044 146.698 171.163 146.623 171.29 146.563C171.521 146.435 171.86 146.252 172.283 146.029C173.123 145.583 174.295 144.981 175.594 144.323C176.893 143.666 178.073 143.088 178.93 142.677C179.36 142.47 179.727 142.307 179.954 142.195C180.078 142.127 180.21 142.078 180.348 142.048Z" fill="#923720"/>
<path d="M150.161 125.255C149.156 125.103 148.137 125.069 147.124 125.155C146.119 125.306 145.135 125.574 144.191 125.952C144.431 125.761 144.7 125.61 144.988 125.506C145.662 125.216 146.373 125.026 147.101 124.94C147.83 124.854 148.568 124.872 149.292 124.995C149.594 125.034 149.887 125.122 150.161 125.255Z" fill="#923720"/>
<path d="M206.954 56.2238C200.585 56.1326 194.227 56.8015 188.016 58.2163C186.578 58.5471 185.055 58.9695 184.083 60.0774C183.051 61.249 182.887 62.9188 182.736 64.4611C182.571 66.3553 182.407 68.2483 182.242 70.1399C181.969 70.6085 181.667 71.0597 181.337 71.4909C179.839 73.4476 177.93 75.0775 176.555 77.1338C175.18 79.1902 174.439 81.916 175.547 84.1158C176.22 85.4468 177.464 86.3873 178.372 87.5669C179.915 89.5595 180.417 92.1538 181.317 94.517C182.218 96.8802 183.844 99.2992 186.327 99.7615C187.522 99.9886 188.742 99.7376 189.933 99.9129C191.715 100.172 193.213 101.34 194.628 102.451C196.042 103.563 197.581 104.695 199.374 104.874C201.167 105.054 203.22 103.838 203.256 102.037C202.591 102.412 201.836 102.599 201.073 102.578C200.31 102.557 199.567 102.328 198.924 101.917C197.88 101.228 197.206 100.112 196.309 99.2434C194.106 97.1074 190.559 96.4299 189.025 93.7718C187.829 91.6716 188.295 89.0374 188.845 86.6743C189.319 84.6259 189.806 82.4062 189.212 80.4375C189.259 80.1208 189.284 79.8012 189.288 79.4811C189.288 77.3849 188.471 75.1373 189.447 73.2842C190.738 70.8293 194.46 70.5185 195.763 68.0756C196.525 66.6529 196.258 64.8357 197.087 63.4528C197.864 62.1537 199.422 61.5559 200.904 61.2331C202.387 60.9103 203.945 60.7629 205.252 59.9977C206.559 59.2326 207.548 57.6146 206.954 56.2238Z" fill="#0C111D"/>
<path d="M211.784 98.9805C211.769 99.0164 211.749 99.05 211.724 99.0801L211.529 99.3551C211.261 99.6996 210.953 100.011 210.612 100.284C210.064 100.709 209.448 101.039 208.791 101.26C207.921 101.562 206.996 101.669 206.081 101.575C204.963 101.466 203.901 101.031 203.028 100.323C202.08 99.5942 201.235 98.6258 200.163 97.8567C199.626 97.4563 198.999 97.1923 198.338 97.0875C197.639 97.0303 196.938 97.1581 196.305 97.4582C195.631 97.7763 194.924 98.0195 194.197 98.1835C193.417 98.2959 192.621 98.1562 191.926 97.7849C191.246 97.4267 190.603 97.0008 190.009 96.5137C189.414 96.0669 188.852 95.5782 188.327 95.0511C187.808 94.54 187.401 93.9266 187.132 93.2499C186.891 92.5858 186.844 91.8672 186.996 91.1776C187.142 90.5382 187.343 89.9129 187.598 89.3085C187.829 88.7227 188.028 88.1449 188.204 87.579C188.524 86.535 188.77 85.4696 188.941 84.3909C189.187 82.8189 189.274 81.226 189.2 79.6366C189.176 79.0747 189.14 78.6363 189.108 78.3414C189.108 78.202 189.108 78.0944 189.08 78.0067C189.074 77.9684 189.074 77.9294 189.08 77.8911C189.094 77.9268 189.102 77.9645 189.104 78.0027L189.152 78.3374C189.196 78.6323 189.248 79.0667 189.283 79.6326C189.389 81.229 189.325 82.8319 189.092 84.4148C188.929 85.5077 188.69 86.5877 188.375 87.6467C188.2 88.2126 188 88.7984 187.773 89.3922C187.524 89.98 187.325 90.5879 187.179 91.2095C187.035 91.8651 187.082 92.5484 187.315 93.1781C187.576 93.8283 187.97 94.4172 188.471 94.9077C188.989 95.4264 189.545 95.9072 190.132 96.3463C190.716 96.8241 191.346 97.242 192.013 97.5937C192.668 97.9534 193.421 98.0931 194.161 97.9922C194.873 97.8295 195.565 97.5903 196.226 97.2788C196.892 96.9704 197.626 96.8412 198.358 96.9042C199.05 97.0109 199.707 97.2845 200.271 97.7013C201.362 98.4983 202.199 99.4707 203.132 100.192C203.975 100.888 205.005 101.319 206.093 101.431C207.678 101.605 209.27 101.178 210.556 100.236C211.014 99.8678 211.426 99.4463 211.784 98.9805Z" fill="#263238"/>
<path d="M171.968 86.3078C171.853 86.1667 171.747 86.019 171.649 85.8654C171.378 85.4184 171.186 84.9275 171.083 84.4148C170.926 83.5999 170.94 82.7614 171.123 81.952C171.362 80.8779 171.833 79.8688 172.502 78.995C173.325 77.9554 174.294 77.04 175.379 76.2772C176.523 75.4243 177.822 74.6313 179.117 73.7107C180.499 72.7861 181.7 71.618 182.664 70.2636C183.139 69.5242 183.502 68.7184 183.74 67.8725C183.995 67.0197 184.17 66.127 184.378 65.2264C184.557 64.3284 184.824 63.4502 185.175 62.6041C185.525 61.773 186.061 61.0328 186.741 60.4402C187.405 59.8808 188.173 59.457 189 59.1928C189.786 58.9385 190.6 58.778 191.423 58.7146C192.939 58.6377 194.459 58.6857 195.966 58.8581C197.272 58.9976 198.587 59.015 199.896 58.9099C200.972 58.8063 202.018 58.495 202.976 57.9933C203.7 57.6169 204.341 57.0993 204.861 56.471C205.19 56.0723 205.448 55.621 205.626 55.136C205.738 54.8012 205.782 54.6179 205.79 54.6219C205.761 54.8012 205.72 54.9783 205.666 55.1519C205.501 55.6485 205.25 56.1124 204.925 56.5228C204.408 57.1762 203.764 57.7184 203.032 58.1169C202.064 58.6366 201.004 58.9629 199.912 59.0773C198.593 59.193 197.267 59.1837 195.95 59.0494C194.453 58.8864 192.944 58.8451 191.439 58.9258C190.626 58.9892 189.823 59.1497 189.048 59.4041C188.247 59.6567 187.503 60.0628 186.856 60.5996C186.201 61.1748 185.684 61.8916 185.346 62.6958C184.996 63.5295 184.729 64.3959 184.549 65.2821C184.342 66.1788 184.15 67.0755 183.903 67.9402C183.661 68.8017 183.288 69.6214 182.8 70.3712C181.826 71.7432 180.611 72.9262 179.213 73.8622C177.906 74.7867 176.607 75.5718 175.467 76.4126C174.39 77.1604 173.426 78.0597 172.606 79.0827C171.938 79.9324 171.466 80.9189 171.223 81.9719C171.029 82.7656 171.004 83.5907 171.147 84.3949C171.285 85.0824 171.565 85.7337 171.968 86.3078Z" fill="#455A64"/>
<path d="M173.135 88.3999C172.691 88.0483 172.281 87.6546 171.912 87.2243C171.457 86.7321 171.097 86.1608 170.848 85.5385C170.691 85.1425 170.629 84.7155 170.665 84.2912C170.714 83.8138 170.901 83.3611 171.203 82.988C171.848 82.191 172.916 81.7686 174.036 81.5335C174.598 81.4179 175.188 81.3262 175.774 81.1788C176.379 81.0519 176.954 80.8127 177.471 80.4734C177.993 80.0903 178.416 79.5891 178.707 79.0109C179.01 78.3977 179.266 77.7622 179.472 77.11C179.684 76.4256 179.951 75.7593 180.269 75.1174C180.61 74.4423 181.126 73.8711 181.763 73.4636C182.411 73.094 183.111 72.8252 183.839 72.6665C184.545 72.4832 185.242 72.3358 185.9 72.1126C187.165 71.6713 188.268 70.8589 189.064 69.7813C189.801 68.8061 190.463 67.7763 191.045 66.7008C191.557 65.7633 192.156 64.876 192.834 64.0507C193.4 63.366 194.094 62.7987 194.878 62.3809C195.471 62.0659 196.119 61.8696 196.787 61.803C197.21 61.7628 197.636 61.7979 198.047 61.9066C198.183 61.943 198.317 61.991 198.445 62.0501C198.445 62.0501 198.298 62.0103 198.019 61.9465C197.612 61.8594 197.193 61.8379 196.779 61.8827C196.127 61.9629 195.495 62.1658 194.918 62.4805C194.153 62.9009 193.477 63.4652 192.926 64.1423C192.263 64.9698 191.676 65.8554 191.172 66.7884C190.599 67.8718 189.943 68.9096 189.211 69.8929C188.801 70.4219 188.329 70.8996 187.805 71.3156C187.257 71.7376 186.641 72.0637 185.983 72.28C185.314 72.5111 184.609 72.6586 183.911 72.8419C183.202 73.0023 182.522 73.2712 181.895 73.6389C181.284 74.032 180.791 74.5828 180.468 75.233C180.15 75.8656 179.884 76.5225 179.671 77.1976C179.456 77.8591 179.19 78.5026 178.874 79.1225C178.565 79.7262 178.12 80.25 177.575 80.6528C177.035 80.9998 176.437 81.2456 175.809 81.3781C175.212 81.5215 174.614 81.6092 174.064 81.7248C172.96 81.9479 171.92 82.3584 171.31 83.0996C171.021 83.4496 170.84 83.876 170.788 84.3271C170.749 84.7325 170.804 85.1415 170.948 85.5226C171.187 86.1352 171.531 86.7015 171.964 87.1964C172.314 87.5949 172.613 87.9097 172.817 88.1129L173.052 88.3401C173.111 88.368 173.139 88.3959 173.135 88.3999Z" fill="#455A64"/>
<path d="M222.193 62.6558C222.137 62.7667 222.068 62.8698 221.985 62.9626C221.842 63.1539 221.631 63.4249 221.356 63.7596C220.814 64.4132 220.033 65.2899 219.116 66.2105C218.662 66.6568 218.235 67.159 217.65 67.3423C217.377 67.4361 217.081 67.4361 216.809 67.3423C216.575 67.2451 216.383 67.0688 216.267 66.8441C216.11 66.5315 216.058 66.1764 216.119 65.8319C216.126 65.7075 216.157 65.5856 216.211 65.4733C216.224 65.5951 216.224 65.718 216.211 65.8399C216.182 66.1632 216.25 66.4879 216.406 66.7724C216.514 66.956 216.681 67.0969 216.881 67.1709C217.114 67.2523 217.368 67.2523 217.602 67.1709C218.112 67.0075 218.522 66.5293 218.981 66.075C219.893 65.1624 220.686 64.3016 221.26 63.6839C221.548 63.3207 221.859 62.9772 222.193 62.6558Z" fill="#923720"/>
<path d="M225.237 62.6558C225.172 62.7707 225.09 62.8754 224.994 62.9666C224.831 63.1579 224.595 63.4289 224.285 63.7636L223.213 64.9233L222.575 65.6008C222.354 65.8557 222.112 66.0904 221.85 66.3022C221.57 66.5249 221.233 66.6631 220.877 66.7007C220.705 66.7187 220.531 66.6914 220.372 66.6215C220.213 66.5516 220.076 66.4416 219.973 66.3022C219.877 66.1671 219.825 66.0056 219.825 65.8399C219.834 65.6887 219.881 65.5422 219.961 65.4135C220.108 65.1744 220.26 64.9911 220.391 64.8077C220.654 64.4451 220.873 64.1542 221.029 63.9549C221.101 63.8447 221.188 63.7454 221.288 63.66C221.238 63.7815 221.174 63.8966 221.096 64.0027C220.961 64.214 220.762 64.5168 220.511 64.8914C220.387 65.0787 220.236 65.2899 220.112 65.4972C220.039 65.5982 220 65.7195 220 65.8439C220 65.9683 220.039 66.0896 220.112 66.1906C220.198 66.3013 220.311 66.3876 220.44 66.4408C220.57 66.494 220.711 66.5121 220.849 66.4935C221.164 66.4597 221.462 66.3382 221.71 66.1428C221.971 65.9455 222.212 65.724 222.431 65.4812L223.081 64.8117L224.185 63.6799C224.5 63.3611 224.759 63.1061 224.942 62.9307C225.027 62.8259 225.126 62.7333 225.237 62.6558Z" fill="#923720"/>
<path d="M266.846 184.66C267.188 183.915 267.706 183.265 268.356 182.765C269.005 182.265 269.767 181.931 270.574 181.791C271.382 181.651 272.211 181.709 272.991 181.961C273.771 182.213 274.478 182.651 275.051 183.238C274.211 184.593 272.906 185.596 271.381 186.059C270.575 186.343 269.699 186.36 268.882 186.108C268.066 185.856 267.352 185.349 266.846 184.66Z" fill="#FFB100"/>
<path d="M264.017 185.314C264.382 185.15 264.766 185.03 265.16 184.955C265.882 184.78 266.886 184.585 267.998 184.401C269.11 184.218 270.122 184.078 270.859 184.003C271.254 183.937 271.654 183.906 272.055 183.911C271.672 184.024 271.28 184.104 270.883 184.15L268.034 184.616C266.926 184.8 265.922 184.975 265.196 185.111C264.807 185.201 264.413 185.268 264.017 185.314Z" fill="#263238"/>
<path d="M124.405 159.43C125.255 160.13 125.917 161.03 126.333 162.05C126.748 163.069 126.904 164.176 126.785 165.27C126.667 166.365 126.278 167.412 125.654 168.319C125.03 169.226 124.19 169.963 123.21 170.465C121.747 166.715 121.185 162.678 124.405 159.43Z" fill="#FFB100"/>
<path d="M129.948 162.308C130.027 163.729 130.457 165.109 131.201 166.322C131.945 167.536 132.979 168.546 134.21 169.261C135.441 169.976 136.831 170.373 138.254 170.418C139.677 170.463 141.088 170.153 142.362 169.517C139.572 165.133 135.798 161.439 129.948 162.3" fill="#FFB100"/>
<path d="M117.248 148.447C117.318 148.506 117.381 148.572 117.435 148.646L117.933 149.24C118.356 149.762 118.974 150.515 119.755 151.428C121.309 153.261 123.505 155.756 126.091 158.358C127.386 159.657 128.658 160.857 129.837 161.917C131.017 162.977 132.133 163.881 133.089 164.607C133.84 165.183 134.624 165.715 135.436 166.201C136.014 166.544 136.357 166.687 136.349 166.707C136.26 166.687 136.174 166.654 136.094 166.611C135.854 166.513 135.621 166.4 135.396 166.273C134.566 165.81 133.767 165.292 133.005 164.722C132.033 164.005 130.917 163.1 129.718 162.056C128.518 161.012 127.247 159.801 125.948 158.502C123.357 155.895 121.165 153.381 119.647 151.52C118.878 150.591 118.28 149.822 117.874 149.288L117.403 148.666C117.345 148.598 117.293 148.525 117.248 148.447Z" fill="#263238"/>
<path d="M124.098 165.097C124.063 165.097 124.194 164.539 124.31 163.635C124.605 161.269 124.355 158.866 123.576 156.613C123.278 155.752 123.034 155.238 123.066 155.222C123.149 155.327 123.217 155.442 123.27 155.565C123.436 155.889 123.585 156.221 123.716 156.561C124.146 157.686 124.427 158.862 124.553 160.06C124.677 161.255 124.643 162.46 124.453 163.647C124.394 164.013 124.314 164.377 124.214 164.734C124.19 164.859 124.151 164.981 124.098 165.097Z" fill="#263238"/>
<path d="M299.959 84.4497C299.466 83.7957 299.139 83.0313 299.006 82.2227C298.874 81.414 298.941 80.5854 299.201 79.8083C299.46 79.0311 299.905 78.3289 300.497 77.7621C301.089 77.1954 301.81 76.7811 302.597 76.5552C303.393 77.9348 303.658 79.5572 303.342 81.1182C303.211 81.963 302.81 82.743 302.201 83.3429C301.592 83.9428 300.806 84.3309 299.959 84.4497Z" fill="#FFB100"/>
<path d="M299.201 87.2513C299.229 86.8517 299.305 86.4569 299.428 86.0756C299.616 85.3583 299.919 84.382 300.285 83.3139C300.652 82.2459 301.01 81.2895 301.281 80.6001C301.409 80.2204 301.572 79.8535 301.768 79.5042C301.684 79.8957 301.568 80.2796 301.421 80.6519C301.158 81.413 300.835 82.3456 300.48 83.3817C300.126 84.4178 299.791 85.4141 299.568 86.1155C299.465 86.5001 299.343 86.8792 299.201 87.2513Z" fill="#263238"/>
<path d="M282.424 114.099C282.012 112.569 281.978 110.961 282.326 109.415C282.674 107.869 283.394 106.431 284.422 105.225C285.45 104.019 286.757 103.081 288.228 102.493C289.7 101.905 291.293 101.684 292.869 101.849C293.423 104.862 292.471 107.954 290.896 110.572C289.019 113.661 285.289 114.956 282.424 114.099Z" fill="#FFB100"/>
<path d="M202.323 161.47C202.932 160.025 203.892 158.755 205.115 157.774C206.339 156.794 207.787 156.133 209.33 155.853C210.873 155.573 212.461 155.682 213.952 156.17C215.442 156.658 216.787 157.51 217.865 158.649C213.346 162.152 208.073 164.543 202.355 161.47" fill="#FFB100"/>
<path d="M199.784 162.873C199.892 162.766 200.012 162.672 200.143 162.594C200.382 162.423 200.737 162.196 201.191 161.933C203.559 160.564 206.184 159.697 208.902 159.386C209.42 159.331 209.843 159.303 210.134 159.299C210.284 159.278 210.437 159.278 210.588 159.299C210.588 159.331 209.946 159.37 208.918 159.522C207.58 159.718 206.262 160.027 204.977 160.446C203.695 160.87 202.453 161.404 201.263 162.041C200.33 162.551 199.804 162.901 199.784 162.873Z" fill="#263238"/>
<path d="M240.086 156.589C239.956 155.516 240.095 154.428 240.49 153.423C240.885 152.417 241.524 151.526 242.349 150.828C243.175 150.131 244.16 149.65 245.218 149.429C246.275 149.207 247.371 149.252 248.407 149.559C246.904 153.213 244.569 156.461 240.086 156.589Z" fill="#FFB100"/>
<path d="M239.038 158.307C239.159 157.934 239.327 157.578 239.536 157.247C240.476 155.602 241.754 154.176 243.286 153.062C243.593 152.819 243.929 152.614 244.286 152.452C243.994 152.71 243.688 152.952 243.369 153.178C241.906 154.338 240.651 155.738 239.655 157.318C239.468 157.659 239.262 157.989 239.038 158.307Z" fill="#263238"/>
<path d="M35.0581 107.388C35.2924 106.334 35.7853 105.354 36.4924 104.537C37.1996 103.72 38.0987 103.092 39.109 102.709C40.1193 102.326 41.2089 102.2 42.2799 102.343C43.3509 102.486 44.3695 102.892 45.2441 103.527C42.6139 106.472 39.3302 108.759 35.0581 107.388Z" fill="#FFB100"/>
<path d="M33.5 108.66C33.7397 108.35 34.0153 108.071 34.3209 107.827C35.0355 107.215 35.813 106.68 36.6403 106.233C37.4683 105.776 38.3436 105.412 39.2506 105.145C39.6197 105.015 40.0042 104.933 40.3943 104.902C40.0352 105.054 39.668 105.187 39.2944 105.3C37.5284 105.906 35.8788 106.809 34.4166 107.97C34.1249 108.218 33.8188 108.448 33.5 108.66Z" fill="#263238"/>
<path d="M217.215 55.3825L220.403 49.608C218.357 46.3572 217.601 42.4586 218.283 38.6785C218.965 34.8984 221.037 31.5102 224.09 29.1799C227.144 26.8496 230.958 25.7457 234.785 26.0851C238.611 26.4246 242.172 28.1829 244.767 31.0144C247.363 33.846 248.805 37.5459 248.811 41.3871C248.817 45.2283 247.387 48.9328 244.8 51.7726C242.214 54.6124 238.658 56.382 234.833 56.7336C231.008 57.0852 227.19 55.9934 224.129 53.6728L217.215 55.3825Z" fill="white"/>
<path d="M217.215 55.3825L224.137 53.629L224.109 53.7127L223.866 53.4059L224.185 53.641C225.165 54.3753 226.227 54.9931 227.349 55.4821C228.686 56.0571 230.097 56.4395 231.541 56.6179C232.341 56.7177 233.148 56.7471 233.952 56.7056C234.351 56.6777 234.789 56.6617 235.216 56.6219L236.495 56.4107C240.311 55.6158 243.681 53.3971 245.92 50.2058C247.163 48.4412 248.016 46.4319 248.423 44.3118C248.831 42.0677 248.738 39.7611 248.152 37.5569C247.555 35.2556 246.42 33.1289 244.84 31.3521L244.214 30.6786C244.007 30.4514 243.764 30.2801 243.541 30.0569C243.321 29.8462 243.089 29.6479 242.847 29.4631L242.114 28.9251C241.88 28.7474 241.633 28.5863 241.377 28.4429L240.58 27.9727L239.783 27.5742C239.525 27.4395 239.258 27.3211 238.986 27.2195C236.818 26.3836 234.49 26.0471 232.175 26.2352C229.984 26.4013 227.858 27.049 225.946 28.1321C222.509 30.0839 219.951 33.2785 218.797 37.0588C218.34 38.6705 218.128 40.3416 218.167 42.0163C218.259 44.6995 219.056 47.3111 220.479 49.5881V49.612V49.6399L217.231 55.3865L220.391 49.5881V49.6399C218.943 47.3607 218.125 44.7385 218.02 42.0402C217.972 40.3502 218.18 38.6626 218.638 37.0349C219.791 33.2079 222.367 29.968 225.835 27.9806C227.771 26.8829 229.924 26.2244 232.143 26.0518C234.489 25.8607 236.848 26.1998 239.045 27.0441C239.328 27.1463 239.603 27.2661 239.87 27.4028L240.691 27.8013L241.488 28.2676C241.756 28.4163 242.013 28.5827 242.257 28.7657L242.971 29.2997C243.226 29.4751 243.437 29.6982 243.676 29.9015C243.915 30.1047 244.146 30.3 244.358 30.5311L245.007 31.2325C246.611 33.0311 247.762 35.1873 248.363 37.5211C248.946 39.7548 249.031 42.0896 248.61 44.3596C248.2 46.5113 247.333 48.5498 246.067 50.3373C243.8 53.5639 240.386 55.8021 236.523 56.594L235.224 56.8052C234.797 56.845 234.371 56.857 233.952 56.8849C233.139 56.9246 232.325 56.8913 231.518 56.7853C230.06 56.6021 228.636 56.2102 227.289 55.6216C226.156 55.1251 225.085 54.495 224.101 53.7446L224.173 53.6729L224.225 53.7366H224.145L217.215 55.3825Z" fill="#263238"/>
<path d="M229.166 38.8043L231.159 38.7844C231.155 38.5569 231.197 38.331 231.283 38.1202C231.368 37.9094 231.495 37.7179 231.656 37.5572C231.817 37.3965 232.009 37.2699 232.22 37.185C232.431 37.1001 232.657 37.0585 232.884 37.0628C233.221 37.0443 233.554 37.1327 233.837 37.3152C234.119 37.4978 234.337 37.7652 234.459 38.079C234.567 38.3394 234.612 38.6217 234.591 38.9028C234.569 39.184 234.482 39.4561 234.335 39.697C234 40.2589 233.263 40.773 231.912 40.5498L231.956 45.057H233.949L233.913 42.391C234.722 42.1445 235.427 41.6396 235.922 40.9537C236.416 40.2677 236.672 39.4385 236.65 38.5931C236.623 35.672 233.996 35.0065 232.873 35.0304C232.016 35.0503 229.095 35.2854 229.166 38.8043Z" fill="#D33044"/>
<path d="M233.973 45.9683L231.968 45.9875L231.986 47.8605L233.991 47.8412L233.973 45.9683Z" fill="#D33044"/>
<path d="M69.3611 161.28C62.5212 161.101 56.6499 159.709 51.7471 157.106C46.8766 154.503 43.2744 150.998 40.9404 146.589C38.6065 142.181 37.8889 137.18 38.7878 131.587L59.1139 132.119C58.6486 135.883 59.7014 138.973 62.2722 141.388C64.8429 143.804 68.1932 145.066 72.3229 145.174C75.6138 145.26 78.6482 144.625 81.4261 143.27C84.2421 141.884 86.5951 139.931 88.4851 137.41C90.4131 134.859 91.685 131.909 92.3006 128.562C92.9278 125.151 92.7374 122.131 91.7295 119.503C90.7538 116.875 89.109 114.801 86.7951 113.281C84.4811 111.761 81.6655 110.941 78.3481 110.823C75.4444 110.747 72.5139 111.257 69.5566 112.354C66.6316 113.451 64.2251 114.991 62.337 116.972L44.3058 113.216L58.4082 62.1787L118.999 63.7653L115.916 80.5344L72.6017 79.4002L65.5679 103.634L66.1486 103.649C68.3322 101.295 71.3276 99.374 75.1347 97.8871C78.9418 96.4002 83.0231 95.7137 87.3787 95.8278C93.3475 95.9841 98.4184 97.4972 102.591 100.367C106.764 103.237 109.765 107.108 111.592 111.979C113.425 116.818 113.754 122.348 112.577 128.569C111.407 135.107 108.79 140.877 104.726 145.88C100.699 150.851 95.6279 154.717 89.512 157.476C83.4342 160.204 76.7172 161.472 69.3611 161.28Z" fill="#AF282B"/>
<path d="M73.0047 64.4431C72.7936 64.568 72.5745 64.6789 72.3489 64.7752C71.9338 64.9744 71.2987 65.2525 70.5267 65.6053C68.9785 66.2819 66.8325 67.1826 64.45 68.1497C62.0675 69.1169 59.8842 69.9636 58.311 70.553C57.5224 70.8477 56.8832 71.0802 56.4349 71.2338C56.2068 71.3243 55.9723 71.3978 55.7334 71.4538C55.9491 71.3361 56.174 71.2362 56.4058 71.1549L58.2571 70.4119L64.3628 67.9298L70.4603 65.4393L72.3115 64.688C72.5362 64.5894 72.7679 64.5076 73.0047 64.4431Z" fill="#FF725E"/>
<path d="M70.9388 74.4988C70.7277 74.6236 70.5086 74.7346 70.283 74.8308C69.8679 75.0301 69.2328 75.3082 68.4608 75.661C66.9126 76.3376 64.7666 77.2383 62.3841 78.2054C60.0015 79.1725 57.8182 80.0193 56.2451 80.6087C55.4565 80.9034 54.8172 81.1358 54.369 81.2894C54.1409 81.3799 53.9064 81.4535 53.6675 81.5094C53.8832 81.3918 54.108 81.2918 54.3399 81.2106L56.1911 80.4676L62.2969 77.9854L68.3944 75.495L70.2456 74.7437C70.4703 74.6451 70.702 74.5632 70.9388 74.4988Z" fill="#FF725E"/>
<path d="M67.8143 84.9143C67.6032 85.0392 67.3841 85.1501 67.1585 85.2464C66.7434 85.4456 66.1083 85.7237 65.3363 86.0765C63.788 86.7531 61.6421 87.6538 59.2596 88.6209C56.877 89.5881 54.6937 90.4348 53.1206 91.0242C52.3319 91.3189 51.6927 91.5514 51.2444 91.705C51.0164 91.7955 50.7819 91.869 50.543 91.9249C50.7587 91.8073 50.9835 91.7074 51.2154 91.6261L53.0666 90.8831L59.1724 88.4009L65.2699 85.9105L67.1211 85.1592C67.3458 85.0606 67.5775 84.9788 67.8143 84.9143Z" fill="#FF725E"/>
<path d="M64.6893 97.4131C64.4782 97.538 64.2591 97.6489 64.0335 97.7451C63.6184 97.9444 62.9833 98.2225 62.2113 98.5753C60.663 99.2519 58.5171 100.153 56.1346 101.12C53.752 102.087 51.5687 102.934 49.9956 103.523C49.2069 103.818 48.5677 104.05 48.1194 104.204C47.8914 104.294 47.6569 104.368 47.418 104.424C47.6337 104.306 47.8585 104.206 48.0904 104.125L49.9416 103.382L56.0474 100.9L62.1449 98.4093L63.9961 97.658C64.2208 97.5594 64.4525 97.4775 64.6893 97.4131Z" fill="#FF725E"/>
<path d="M67.8143 106.787C67.6032 106.912 67.3841 107.023 67.1585 107.119C66.7434 107.318 66.1083 107.597 65.3363 107.949C63.788 108.626 61.6421 109.527 59.2596 110.494C56.877 111.461 54.6937 112.308 53.1206 112.897C52.3319 113.192 51.6927 113.424 51.2444 113.578C51.0164 113.668 50.7819 113.742 50.543 113.798C50.7587 113.68 50.9835 113.58 51.2154 113.499L53.0666 112.756L59.1724 110.274L65.2699 107.783L67.1211 107.032C67.3458 106.933 67.5775 106.852 67.8143 106.787Z" fill="#FF725E"/>
<path d="M85.5208 96.3713C85.3097 96.4962 85.0906 96.6071 84.865 96.7034C84.4499 96.9026 83.8149 97.1807 83.0428 97.5335C81.4946 98.2101 79.3486 99.1108 76.9661 100.078C74.5836 101.045 72.4003 101.892 70.8271 102.481C70.0385 102.776 69.3993 103.008 68.951 103.162C68.7229 103.252 68.4884 103.326 68.2495 103.382C68.4652 103.264 68.6901 103.164 68.9219 103.083L70.7732 102.34L76.8789 99.858L82.9764 97.3675L84.8276 96.6162C85.0524 96.5176 85.284 96.4358 85.5208 96.3713Z" fill="#FF725E"/>
<path d="M106.352 107.829C106.141 107.953 105.922 108.064 105.696 108.161C105.281 108.36 104.646 108.638 103.874 108.991C102.326 109.667 100.18 110.568 97.7972 111.535C95.4146 112.502 93.2313 113.349 91.6582 113.939C90.8695 114.233 90.2303 114.466 89.782 114.619C89.554 114.71 89.3195 114.783 89.0806 114.839C89.2963 114.722 89.5211 114.622 89.753 114.54L91.6042 113.797L97.71 111.315L103.807 108.825L105.659 108.074C105.883 107.975 106.115 107.893 106.352 107.829Z" fill="#FF725E"/>
<path d="M110.518 118.244C110.307 118.369 110.088 118.48 109.862 118.576C109.447 118.775 108.812 119.054 108.04 119.406C106.492 120.083 104.346 120.984 101.963 121.951C99.5806 122.918 97.3973 123.765 95.8242 124.354C95.0356 124.649 94.3963 124.881 93.9481 125.035C93.72 125.125 93.4855 125.199 93.2466 125.255C93.4623 125.137 93.6871 125.037 93.919 124.956L95.7702 124.213L101.876 121.731L107.973 119.24L109.825 118.489C110.049 118.39 110.281 118.309 110.518 118.244Z" fill="#FF725E"/>
<path d="M107.393 128.66C107.182 128.785 106.963 128.895 106.738 128.992C106.322 129.191 105.687 129.469 104.915 129.822C103.367 130.498 101.221 131.399 98.8387 132.366C96.4561 133.333 94.2728 134.18 92.6997 134.77C91.911 135.064 91.2718 135.297 90.8235 135.45C90.5955 135.541 90.361 135.614 90.1221 135.67C90.3378 135.553 90.5626 135.453 90.7945 135.371L92.6457 134.628L98.7515 132.146L104.849 129.656L106.7 128.905C106.925 128.806 107.157 128.724 107.393 128.66Z" fill="#FF725E"/>
<path d="M96.9779 139.075C96.7667 139.2 96.5477 139.311 96.322 139.407C95.907 139.607 95.2719 139.885 94.4999 140.238C92.9516 140.914 90.8057 141.815 88.4231 142.782C86.0406 143.749 83.8573 144.596 82.2842 145.185C81.4955 145.48 80.8563 145.713 80.408 145.866C80.1799 145.957 79.9455 146.03 79.7065 146.086C79.9222 145.968 80.1471 145.868 80.379 145.787L82.2302 145.044L88.336 142.562L94.4334 140.072L96.2847 139.32C96.5094 139.222 96.7411 139.14 96.9779 139.075Z" fill="#FF725E"/>
<path d="M57.3988 133.868C57.1876 133.993 56.9685 134.103 56.7429 134.2C56.3279 134.399 55.6928 134.677 54.9208 135.03C53.3725 135.706 51.2266 136.607 48.844 137.574C46.4615 138.541 44.2782 139.388 42.7051 139.978C41.9164 140.272 41.2772 140.505 40.8289 140.658C40.6008 140.749 40.3664 140.822 40.1274 140.878C40.3431 140.761 40.568 140.661 40.7999 140.579L42.6511 139.836L48.7569 137.354L54.8543 134.864L56.7056 134.113C56.9303 134.014 57.162 133.932 57.3988 133.868Z" fill="#FF725E"/>
<path d="M60.5233 142.2C60.3121 142.325 60.0931 142.436 59.8674 142.532C59.4524 142.731 58.8173 143.009 58.0453 143.362C56.497 144.039 54.3511 144.939 51.9685 145.907C49.586 146.874 47.4027 147.72 45.8296 148.31C45.0409 148.605 44.4017 148.837 43.9534 148.991C43.7253 149.081 43.4909 149.155 43.252 149.211C43.4676 149.093 43.6925 148.993 43.9244 148.912L45.7756 148.169L51.8814 145.687L57.9788 143.196L59.8301 142.445C60.0548 142.346 60.2865 142.264 60.5233 142.2Z" fill="#FF725E"/>
<path d="M67.8143 148.449C67.6032 148.574 67.3841 148.685 67.1585 148.782C66.7434 148.981 66.1083 149.259 65.3363 149.612C63.788 150.288 61.6421 151.189 59.2596 152.156C56.877 153.123 54.6937 153.97 53.1206 154.559C52.3319 154.854 51.6927 155.087 51.2444 155.24C51.0164 155.331 50.7819 155.404 50.543 155.46C50.7587 155.342 50.9835 155.243 51.2154 155.161L53.0666 154.418L59.1724 151.936L65.2699 149.446L67.1211 148.694C67.3458 148.596 67.5775 148.514 67.8143 148.449Z" fill="#FF725E"/>
<path d="M79.7767 161.28C72.9368 161.101 67.0654 159.709 62.1626 157.106C57.2921 154.503 53.6899 150.998 51.3559 146.589C49.022 142.181 48.3044 137.18 49.2033 131.587L69.5294 132.119C69.0642 135.883 70.1169 138.973 72.6877 141.388C75.2585 143.804 78.6087 145.066 82.7385 145.174C86.0293 145.26 89.0637 144.625 91.8416 143.27C94.6576 141.884 97.0106 139.931 98.9006 137.41C100.829 134.859 102.101 131.909 102.716 128.562C103.343 125.151 103.153 122.131 102.145 119.503C101.169 116.875 99.5246 114.801 97.2106 113.281C94.8967 111.761 92.081 110.941 88.7637 110.823C85.8599 110.747 82.9294 111.257 79.9722 112.354C77.0471 113.451 74.6406 114.991 72.7525 116.972L54.7213 113.216L68.8238 62.1787L129.415 63.7653L126.331 80.5344L83.0172 79.4002L75.9834 103.634L76.5641 103.649C78.7477 101.295 81.7431 99.374 85.5502 97.8871C89.3573 96.4002 93.4387 95.7137 97.7943 95.8278C103.763 95.9841 108.834 97.4972 113.007 100.367C117.18 103.237 120.18 107.108 122.007 111.979C123.841 116.818 124.169 122.348 122.993 128.569C121.823 135.107 119.206 140.877 115.141 145.88C111.115 150.851 106.043 154.717 99.9276 157.476C93.8497 160.204 87.1328 161.472 79.7767 161.28Z" fill="#D33044"/>
<path d="M92.9739 104.239C92.9045 104.339 92.8237 104.431 92.7331 104.513C92.4984 104.771 92.2475 105.013 91.9819 105.239C91.0137 106.084 89.9272 106.784 88.7567 107.315C87.011 108.099 85.1248 108.523 83.2113 108.56C82.0803 108.581 80.9514 108.454 79.8533 108.182C78.6812 107.882 77.5443 107.457 76.4622 106.916C74.2291 105.829 72.245 104.546 70.3066 103.654C68.6076 102.821 66.7584 102.338 64.8691 102.234C63.5961 102.169 62.3258 102.406 61.1625 102.927C60.8489 103.074 60.5476 103.246 60.2617 103.442C60.1641 103.514 60.0615 103.579 59.9546 103.637C60.0431 103.554 60.1375 103.478 60.2368 103.409C60.5156 103.197 60.8129 103.011 61.1251 102.852C62.2894 102.296 63.5714 102.031 64.8608 102.08C66.7768 102.171 68.6541 102.653 70.3772 103.496C72.3363 104.388 74.3287 105.667 76.541 106.746C77.6126 107.276 78.7367 107.694 79.8948 107.991C80.9737 108.26 82.0829 108.388 83.1947 108.373C86.3812 108.329 89.4569 107.197 91.9113 105.164C92.2641 104.882 92.5132 104.633 92.6875 104.471C92.7767 104.386 92.8725 104.309 92.9739 104.239Z" fill="white"/>
<path d="M113.805 144.935C113.736 144.835 113.655 144.743 113.565 144.662C113.33 144.404 113.079 144.161 112.813 143.935C111.845 143.09 110.759 142.391 109.588 141.86C107.843 141.075 105.956 140.652 104.043 140.615C102.912 140.594 101.783 140.721 100.685 140.992C99.5127 141.292 98.3759 141.717 97.2937 142.258C95.0606 143.346 93.0765 144.628 91.1381 145.521C89.4391 146.354 87.59 146.836 85.7006 146.94C84.4277 147.006 83.1574 146.768 81.994 146.247C81.6804 146.1 81.3792 145.928 81.0933 145.732C80.9957 145.66 80.893 145.595 80.7861 145.537C80.8747 145.62 80.969 145.696 81.0684 145.766C81.3471 145.977 81.6444 146.164 81.9567 146.322C83.121 146.878 84.403 147.143 85.6923 147.094C87.6084 147.003 89.4856 146.521 91.2087 145.678C93.1679 144.786 95.1602 143.508 97.3726 142.428C98.4442 141.898 99.5682 141.481 100.726 141.183C101.805 140.914 102.914 140.786 104.026 140.801C107.213 140.845 110.288 141.977 112.743 144.01C113.096 144.292 113.345 144.541 113.519 144.703C113.608 144.788 113.704 144.866 113.805 144.935Z" fill="white"/>
<path d="M79.6615 88.5838C79.4622 88.7287 79.251 88.8565 79.0301 88.9659C78.7814 89.1125 78.5253 89.2462 78.2627 89.3662C77.957 89.5109 77.6161 89.6921 77.2191 89.8462C76.8222 90.0003 76.3982 90.1894 75.9215 90.3465C75.4447 90.5036 74.9387 90.6622 74.3984 90.8191C73.2192 91.1295 72.0181 91.3499 70.8055 91.4784C69.5911 91.5932 68.3698 91.6168 67.1518 91.549C66.5928 91.5023 66.0564 91.4638 65.5634 91.3873C65.0704 91.3107 64.6082 91.2407 64.1942 91.1571C63.7801 91.0735 63.4052 90.9737 63.0766 90.8944C62.748 90.8151 62.4731 90.7295 62.2471 90.6555C62.0104 90.5903 61.7791 90.5071 61.5552 90.4065C61.797 90.4453 62.0357 90.5016 62.2693 90.575C62.4971 90.636 62.7785 90.7119 63.1047 90.7789C63.4309 90.846 63.805 90.9417 64.2232 91.0033C64.6414 91.065 65.0994 91.1569 65.5876 91.2091C66.0759 91.2612 66.6056 91.3094 67.1631 91.3479C69.5808 91.4763 72.004 91.2329 74.3478 90.626C74.8848 90.474 75.3964 90.3439 75.8667 90.1753C76.337 90.0068 76.7689 89.8585 77.1618 89.7052C77.5547 89.5518 77.8996 89.391 78.2078 89.2586C78.5159 89.1261 78.7785 88.9984 78.9823 88.8949C79.201 88.7751 79.428 88.6711 79.6615 88.5838Z" fill="white"/>
<path d="M104.092 119.498C104.265 119.322 104.453 119.162 104.653 119.018C104.874 118.832 105.105 118.658 105.344 118.497C105.622 118.304 105.929 118.07 106.295 117.853C106.662 117.636 107.049 117.38 107.494 117.147C107.938 116.914 108.412 116.675 108.919 116.432C110.032 115.933 111.18 115.519 112.356 115.193C113.535 114.882 114.736 114.658 115.949 114.526C116.508 114.481 117.043 114.431 117.542 114.426C118.041 114.421 118.508 114.414 118.931 114.429C119.353 114.444 119.739 114.481 120.076 114.505C120.413 114.53 120.698 114.569 120.933 114.605C121.178 114.631 121.419 114.675 121.657 114.738C121.412 114.739 121.167 114.723 120.925 114.688C120.69 114.665 120.4 114.637 120.067 114.624C119.734 114.611 119.35 114.578 118.927 114.585C118.504 114.593 118.038 114.577 117.547 114.606C117.057 114.634 116.527 114.673 115.97 114.726C113.564 114.995 111.214 115.632 109 116.614C108.496 116.852 108.012 117.064 107.576 117.307C107.139 117.55 106.738 117.767 106.375 117.983C106.013 118.198 105.699 118.413 105.416 118.594C105.134 118.775 104.896 118.944 104.712 119.08C104.515 119.234 104.309 119.373 104.092 119.498Z" fill="white"/>
<path d="M53.8747 148.58C54.1479 148.753 54.4353 148.902 54.7337 149.027C55.0717 149.197 55.4184 149.35 55.7724 149.485C56.1849 149.648 56.6466 149.857 57.1794 150.024C57.7122 150.192 58.2832 150.404 58.9207 150.569C59.5582 150.734 60.2341 150.898 60.9547 151.057C62.5248 151.363 64.1159 151.549 65.7141 151.614C67.3136 151.661 68.9143 151.587 70.5028 151.395C71.2307 151.286 71.9294 151.19 72.5683 151.048C73.2072 150.905 73.8061 150.774 74.341 150.629C74.8759 150.485 75.3581 150.322 75.7815 150.19C76.2049 150.059 76.5574 149.923 76.847 149.807C77.1512 149.701 77.4469 149.573 77.7314 149.422C77.4182 149.493 77.1106 149.587 76.811 149.703C76.5181 149.803 76.1562 149.926 75.7349 150.042C75.3137 150.157 74.8321 150.314 74.2899 150.431C73.7477 150.547 73.1561 150.706 72.5214 150.816C71.8867 150.926 71.1974 151.035 70.4709 151.133C67.317 151.507 64.1244 151.395 61.0045 150.8C60.2886 150.647 59.6078 150.52 58.9778 150.34C58.3478 150.159 57.7698 150.002 57.2424 149.835C56.715 149.668 56.2498 149.487 55.8351 149.34C55.4205 149.192 55.0659 149.048 54.7902 148.93C54.4938 148.791 54.1878 148.675 53.8747 148.58Z" fill="white"/>
<path d="M127.664 71.0093C127.664 71.0093 127.626 70.978 127.556 70.9094C127.486 70.8409 127.378 70.7435 127.245 70.6151C126.854 70.2343 126.42 69.8808 125.948 69.558L125.449 69.2388L125.18 69.0647L124.874 68.9065L124.226 68.5659L123.483 68.2504C122.3 67.7742 121.023 67.4294 119.688 67.2254C118.076 66.9791 116.396 66.9512 114.722 67.1429C112.795 67.3686 110.917 67.9037 109.214 68.7122C107.418 69.5692 105.732 70.7003 103.934 71.8215C103.026 72.401 102.076 72.9391 101.089 73.4324C100.066 73.9447 98.9662 74.3494 97.8217 74.6344C96.6743 74.9065 95.4933 75.0388 94.324 75.0265C93.1927 75.0182 92.0769 74.9152 90.9962 74.7193C88.9674 74.3233 87.0098 73.7762 85.1502 73.0855C83.3572 72.4606 81.6526 71.8516 79.9946 71.412C78.4658 70.9798 76.8428 70.7268 75.1767 70.6611C73.7989 70.6246 72.4021 70.775 71.0499 71.1054C70.0283 71.3502 69.0561 71.7293 68.1792 72.2248C67.6318 72.5423 67.1349 72.9098 66.7012 73.3179L66.3691 73.6394C66.2982 73.7128 66.2577 73.7491 66.2577 73.7491C66.2577 73.7491 66.2877 73.7095 66.3579 73.6312L66.664 73.2914C67.0932 72.8743 67.5891 72.4984 68.1382 72.174C69.0178 71.6664 69.9965 71.2769 71.0272 71.0244C72.3894 70.6834 73.7987 70.5251 75.1899 70.5569C76.8686 70.6189 78.5053 70.868 80.0489 71.2963C81.7262 71.7329 83.4272 72.34 85.2238 72.9668C87.0759 73.6512 89.0249 74.1929 91.0443 74.5847C92.1127 74.7822 93.2168 74.8871 94.3366 74.8975C95.4897 74.909 96.6541 74.7784 97.7856 74.5107C98.9122 74.2299 99.9953 73.8321 101.003 73.3289C101.983 72.838 102.929 72.3041 103.834 71.7303C105.638 70.6105 107.321 69.4775 109.133 68.6155C109.58 68.4024 110.041 68.2096 110.514 68.0382C110.749 67.9538 110.978 67.8602 111.211 67.786L111.918 67.5819C112.829 67.3308 113.763 67.1496 114.705 67.0409C116.401 66.85 118.1 66.8824 119.73 67.1366C121.068 67.3503 122.346 67.704 123.529 68.1883C123.784 68.2997 124.033 68.4098 124.274 68.5111L124.92 68.8594L125.223 69.0206C125.315 69.0807 125.406 69.1384 125.492 69.1971C125.668 69.3111 125.834 69.4193 125.989 69.5242C126.458 69.8516 126.885 70.2122 127.266 70.6018C127.395 70.7341 127.494 70.8355 127.562 70.906C127.635 70.9716 127.664 71.0093 127.664 71.0093Z" fill="white"/>
</g>
<defs>
<clipPath id="clip0_927_4013">
<rect width="276" height="200" fill="white" transform="translate(33.5 10)"/>
</clipPath>
</defs>
</svg>
