<svg width="216" height="41" viewBox="0 0 216 41" fill="none" xmlns="http://www.w3.org/2000/svg">
<g id="logo-black 1" clip-path="url(#clip0_119_30990)">
<g id="Clip path group">
<mask id="mask0_119_30990" style="mask-type:luminance" maskUnits="userSpaceOnUse" x="0" y="0" width="216" height="41">
<g id="clip0_9499_86582">
<path id="Vector" d="M216 0H0V40.36H216V0Z" fill="white"/>
</g>
</mask>
<g mask="url(#mask0_119_30990)">
<g id="Group">
<path id="Vector_2" d="M39.0497 22.7836L23.3096 20.8972C22.0565 20.7483 20.9536 21.7908 21.104 23.0815L23.0088 38.6695C23.2595 40.556 25.816 41.0524 26.7183 39.3149L30.8789 31.372C31.0794 31.0245 31.3802 30.7266 31.7311 30.528L39.7515 26.4076C41.4558 25.5637 40.9546 23.0319 39.0497 22.7836Z" fill="#26AFE5"/>
<path id="Vector_3" d="M1.75603 17.5723L17.4961 19.4587C18.7493 19.6077 19.8521 18.5652 19.7017 17.2745L17.7468 1.73611C17.4961 -0.150336 14.9396 -0.646769 14.0373 1.09075L9.87671 9.03369C9.67619 9.38121 9.37541 9.67908 9.02459 9.87757L1.00412 13.998C-0.650087 14.7923 -0.198939 17.3738 1.75603 17.5723Z" fill="#26AFE5"/>
<path id="Vector_4" d="M17.7469 38.6725L19.6518 23.0844C19.8022 21.8434 18.7495 20.7512 17.4462 20.9001L1.75626 22.7866C-0.148591 23.0348 -0.649868 25.5666 1.1046 26.4602L9.12503 30.5806C9.47594 30.7792 9.77672 31.077 9.97724 31.4246L14.1378 39.3674C14.9398 41.0553 17.5465 40.5589 17.7469 38.6725Z" fill="#0070D2"/>
<path id="Vector_5" d="M23.0094 1.73642L21.1046 17.3245C20.9542 18.5655 22.0069 19.6576 23.3102 19.5087L39.0503 17.6222C40.9551 17.3741 41.4564 14.8423 39.702 13.9486L31.6815 9.82833C31.3306 9.62974 31.0298 9.33187 30.8293 8.98435L26.6687 1.04142C25.8166 -0.646452 23.2601 -0.199662 23.0094 1.73642Z" fill="#0070D2"/>
<path id="Vector_6" d="M73.2881 0.348206V29.4392H64.0646V18.0709H55.2922V29.4392H46.0687V0.348206H55.2922V10.823H64.0646V0.348206H73.2881Z" fill="#26AFE5"/>
<path id="Vector_7" d="M86.4212 0.348206V16.7305C86.4212 18.0709 86.722 19.1133 87.3235 19.9077C87.9251 20.702 88.8775 21.0991 90.2312 21.0991C91.5839 21.0991 92.537 20.702 93.1886 19.9077C93.8402 19.1133 94.1408 18.0709 94.1408 16.7305V0.348206H103.315V16.7305C103.315 19.5105 102.712 21.8438 101.56 23.8295C100.407 25.7656 98.8028 27.2549 96.7976 28.2478C94.7924 29.2406 92.537 29.7371 90.0305 29.7371C87.524 29.7371 85.3184 29.2406 83.4136 28.2478C81.5087 27.2549 80.0049 25.8152 78.902 23.8295C77.7993 21.8934 77.298 19.5105 77.298 16.7305V0.348206H86.4212Z" fill="#26AFE5"/>
<path id="Vector_8" d="M131.087 17.0283C132.089 18.3191 132.54 19.7587 132.54 21.4466C132.54 23.9784 131.688 25.9642 129.983 27.3542C128.28 28.7442 125.823 29.4392 122.664 29.4392H107.275V0.348206H122.264C125.272 0.348206 127.627 0.993568 129.332 2.28429C131.036 3.57503 131.889 5.46147 131.889 7.89399C131.889 9.58183 131.437 11.0216 130.535 12.213C129.632 13.3547 128.43 14.1491 126.926 14.5462C128.73 14.9434 130.134 15.7873 131.087 17.0283ZM116.499 11.6669H120.058C120.91 11.6669 121.512 11.5179 121.913 11.1705C122.314 10.823 122.514 10.3265 122.514 9.63147C122.514 8.93652 122.314 8.39042 121.913 8.04292C121.512 7.69542 120.91 7.54649 120.058 7.54649H116.499V11.6669ZM122.565 21.6452C122.966 21.3473 123.166 20.8012 123.166 20.1063C123.166 18.7163 122.364 18.0212 120.71 18.0212H116.499V22.1416H120.71C121.512 22.1416 122.163 21.9431 122.565 21.6452Z" fill="#26AFE5"/>
<path id="Vector_9" d="M163.868 29.4392H154.645L144.87 14.7944V29.4392H135.647V0.348206H144.87L154.645 15.2412V0.348206H163.868V29.4392Z" fill="#0070D2"/>
<path id="Vector_10" d="M177.253 7.59613V11.1705H186.376V18.0212H177.253V22.1416H187.629V29.4392H168.029V0.348206H187.629V7.64577H177.253V7.59613Z" fill="#0070D2"/>
<path id="Vector_11" d="M214.195 0.348206V7.59613H206.375V29.4888H197.152V7.54649H189.432V0.348206H214.195Z" fill="#0070D2"/>
<path id="Vector_12" d="M46.1659 39.862C45.8651 39.7627 45.6646 39.5641 45.5143 39.3656C45.3639 39.1671 45.2637 38.8692 45.2637 38.6209H46.0155C46.0657 38.8692 46.1659 39.0678 46.3163 39.2663C46.5168 39.4152 46.7675 39.5145 47.1184 39.5145C47.4693 39.5145 47.7199 39.4152 47.9204 39.2663C48.1209 39.1174 48.2212 38.8692 48.2212 38.6209C48.2212 38.4224 48.171 38.2734 48.0708 38.1245C47.9705 37.9756 47.8201 37.9259 47.6697 37.8266C47.5193 37.777 47.2688 37.6777 46.968 37.628C46.6171 37.5287 46.3163 37.4295 46.1158 37.3303C45.9153 37.231 45.7148 37.082 45.5645 36.8834C45.4141 36.6849 45.3138 36.4366 45.3138 36.0891C45.3138 35.7912 45.3639 35.5431 45.5143 35.3445C45.6646 35.1459 45.8651 34.9474 46.1158 34.8481C46.3664 34.7488 46.6672 34.6495 47.0181 34.6495C47.5194 34.6495 47.9204 34.7488 48.2713 34.997C48.5721 35.2452 48.7726 35.5927 48.8227 35.9898H48.0708C48.0206 35.7912 47.9204 35.5927 47.77 35.4438C47.5695 35.2949 47.3189 35.1956 47.0181 35.1956C46.7174 35.1956 46.4667 35.2949 46.3163 35.4438C46.1158 35.5927 46.0155 35.7912 46.0155 36.0891C46.0155 36.2877 46.0657 36.4366 46.1659 36.5359C46.2662 36.6352 46.4166 36.7345 46.567 36.8338C46.7174 36.8834 46.968 36.9827 47.2688 37.0324C47.6196 37.1317 47.9204 37.231 48.1209 37.3303C48.3214 37.4295 48.5219 37.5784 48.6723 37.777C48.8227 37.9756 48.923 38.2238 48.923 38.5713C48.923 38.8195 48.8729 39.0678 48.7225 39.316C48.5721 39.5641 48.3716 39.7131 48.1209 39.862C47.8703 40.0109 47.5193 40.0606 47.1685 40.0606C46.7675 40.0606 46.4667 40.0109 46.1659 39.862Z" fill="#141414"/>
<path id="Vector_13" d="M50.627 34.6982V40.0101H49.9253V34.6982H50.627Z" fill="#141414"/>
<path id="Vector_14" d="M52.5326 39.862C52.2319 39.7627 52.0314 39.5641 51.881 39.3656C51.7306 39.1671 51.6304 38.8692 51.6304 38.6209H52.3822C52.4324 38.8692 52.5326 39.0678 52.683 39.2663C52.8835 39.4152 53.1342 39.5145 53.4851 39.5145C53.836 39.5145 54.0867 39.4152 54.2872 39.2663C54.4876 39.1174 54.5879 38.8692 54.5879 38.6209C54.5879 38.4224 54.5377 38.2734 54.4375 38.1245C54.3372 37.9756 54.1869 37.9259 54.0365 37.8266C53.8861 37.777 53.6355 37.6777 53.3347 37.628C52.9838 37.5287 52.683 37.4295 52.4825 37.3303C52.2821 37.231 52.0815 37.082 51.9312 36.8834C51.7808 36.6849 51.6805 36.4366 51.6805 36.0891C51.6805 35.7912 51.7306 35.5431 51.881 35.3445C52.0314 35.1459 52.2319 34.9474 52.4825 34.8481C52.7331 34.7488 53.0339 34.6495 53.3848 34.6495C53.8861 34.6495 54.2871 34.7488 54.638 34.997C54.9388 35.2452 55.1393 35.5927 55.1894 35.9898H54.4375C54.3873 35.7912 54.2871 35.5927 54.1368 35.4438C53.9363 35.2949 53.6856 35.1956 53.3848 35.1956C53.0841 35.1956 52.8334 35.2949 52.683 35.4438C52.4825 35.5927 52.3822 35.7912 52.3822 36.0891C52.3822 36.2877 52.4324 36.4366 52.5326 36.5359C52.6329 36.6352 52.7833 36.7345 52.9337 36.8338C53.0841 36.8834 53.3347 36.9827 53.6355 37.0324C53.9864 37.1317 54.2871 37.231 54.4876 37.3303C54.6881 37.4295 54.8886 37.5784 55.039 37.777C55.1894 37.9756 55.2897 38.2238 55.2897 38.5713C55.2897 38.8195 55.2396 39.0678 55.0892 39.316C54.9388 39.5641 54.7383 39.7131 54.4876 39.862C54.237 40.0109 53.8861 40.0606 53.5352 40.0606C53.1342 40.0606 52.8334 40.0109 52.5326 39.862Z" fill="#141414"/>
<path id="Vector_15" d="M59.5989 34.6982V35.2443H58.1452V39.9604H57.4435V35.2443H55.9897V34.6982H59.5989Z" fill="#141414"/>
<path id="Vector_16" d="M61.1529 35.294V37.0811H63.1079V37.6272H61.1529V39.464H63.3084V40.0101H60.4512V34.6982H63.3084V35.2443H61.1529V35.294Z" fill="#141414"/>
<path id="Vector_17" d="M69.7742 34.7504V40.0126H69.0725V36.0908L67.318 40.0126H66.8167L65.0623 36.0908V40.0126H64.3605V34.7504H65.1124L67.0674 39.0694L69.0224 34.7504H69.7742Z" fill="#141414"/>
<path id="Vector_18" d="M76.1415 37.3293C75.8408 37.6272 75.3896 37.7761 74.738 37.7761H73.7354V39.9604H73.0336V34.6982H74.738C75.3395 34.6982 75.7906 34.8472 76.0914 35.1451C76.3922 35.4428 76.5426 35.7904 76.5426 36.2372C76.5927 36.684 76.4423 37.0811 76.1415 37.3293ZM75.5901 36.9819C75.7906 36.8329 75.8909 36.5847 75.8909 36.2868C75.8909 35.6414 75.4898 35.294 74.738 35.294H73.7354V37.2301H74.738C75.1389 37.2301 75.3896 37.1308 75.5901 36.9819Z" fill="#141414"/>
<path id="Vector_19" d="M78.1474 35.294V37.0811H80.1024V37.6272H78.1474V39.464H80.3029V40.0101H77.4457V34.6982H80.3029V35.2443H78.1474V35.294Z" fill="#141414"/>
<path id="Vector_20" d="M85.5657 40.0101H84.8639L82.0568 35.7904V40.0101H81.355V34.6982H82.0568L84.8639 38.9179V34.6982H85.5657V40.0101Z" fill="#141414"/>
<path id="Vector_21" d="M90.8298 36.2397C90.6795 35.9418 90.4788 35.6936 90.1782 35.5447C89.8771 35.3957 89.5763 35.2965 89.1754 35.2965C88.7744 35.2965 88.4736 35.3957 88.1728 35.5447C87.872 35.6936 87.6214 35.9418 87.4711 36.2894C87.3207 36.5872 87.2204 36.9844 87.2204 37.3815C87.2204 37.7786 87.3207 38.1758 87.4711 38.4737C87.6214 38.7715 87.872 39.0198 88.1728 39.2183C88.4736 39.3672 88.8245 39.4665 89.1754 39.4665C89.6766 39.4665 90.1278 39.3176 90.4788 39.0198C90.8298 38.7219 91.0305 38.2751 91.08 37.7786H88.9749V37.2326H91.8324V37.7786C91.782 38.2254 91.6317 38.6226 91.431 38.9701C91.1808 39.3176 90.8793 39.6154 90.5292 39.814C90.1782 40.0126 89.7267 40.1119 89.2255 40.1119C88.7242 40.1119 88.2731 40.0126 87.872 39.7644C87.4711 39.5161 87.1202 39.2183 86.9196 38.8212C86.669 38.424 86.5687 37.9276 86.5687 37.4311C86.5687 36.9347 86.669 36.4383 86.9196 36.0411C87.1703 35.644 87.4711 35.2965 87.872 35.0979C88.2731 34.8497 88.7242 34.7504 89.2255 34.7504C89.7769 34.7504 90.2781 34.8994 90.729 35.1476C91.1808 35.4454 91.4814 35.8425 91.6821 36.339H90.8298V36.2397Z" fill="#141414"/>
<path id="Vector_22" d="M96.8454 34.6982V40.0101H96.1434V37.6272H93.4371V40.0101H92.7351V34.6982H93.4371V37.0315H96.1434V34.6982H96.8454Z" fill="#141414"/>
<path id="Vector_23" d="M98.6975 34.6982V38.0243C98.6975 38.4711 98.7983 38.8683 99.0485 39.0669C99.2996 39.315 99.6002 39.4143 100.002 39.4143C100.402 39.4143 100.753 39.315 100.954 39.0669C101.204 38.8187 101.305 38.4711 101.305 38.0243V34.6982H102.006V38.0243C102.006 38.4711 101.906 38.8187 101.756 39.1165C101.555 39.4143 101.354 39.6625 101.054 39.8115C100.753 39.9604 100.402 40.0101 100.051 40.0101C99.7001 40.0101 99.35 39.9604 99.0485 39.8115C98.7479 39.6625 98.4977 39.464 98.3474 39.1165C98.1467 38.8187 98.0963 38.4215 98.0963 38.0243V34.6982H98.6975Z" fill="#141414"/>
<path id="Vector_24" d="M106.42 37.5279C106.57 37.6768 106.721 37.8257 106.821 37.9747C106.921 38.1236 106.971 38.3718 106.971 38.5704C106.971 38.8187 106.921 39.0669 106.771 39.315C106.62 39.5136 106.42 39.7122 106.169 39.8115C105.918 39.9604 105.618 40.0101 105.217 40.0101H103.212V34.6982H105.116C105.467 34.6982 105.768 34.7479 106.019 34.8968C106.269 34.9961 106.47 35.1947 106.57 35.3933C106.721 35.5918 106.771 35.84 106.771 36.0882C106.771 36.3861 106.671 36.684 106.52 36.8826C106.37 37.0811 106.119 37.2301 105.818 37.3293C106.069 37.2796 106.22 37.3789 106.42 37.5279ZM103.913 36.9819H105.066C105.417 36.9819 105.668 36.8826 105.818 36.7336C106.019 36.5847 106.069 36.3861 106.069 36.0882C106.069 35.84 105.969 35.5918 105.818 35.4428C105.618 35.294 105.368 35.1947 105.066 35.1947H103.913V36.9819ZM105.918 39.1662C106.119 39.0172 106.22 38.769 106.22 38.4711C106.22 38.1733 106.119 37.925 105.918 37.7761C105.719 37.6272 105.417 37.5279 105.116 37.5279H103.913V39.4143H105.167C105.467 39.4143 105.719 39.3647 105.918 39.1662Z" fill="#141414"/>
<path id="Vector_25" d="M108.573 34.6982V38.0243C108.573 38.4711 108.674 38.8683 108.924 39.0669C109.174 39.315 109.476 39.4143 109.876 39.4143C110.278 39.4143 110.629 39.315 110.83 39.0669C111.08 38.8187 111.18 38.4711 111.18 38.0243V34.6982H111.882V38.0243C111.882 38.4711 111.782 38.8187 111.631 39.1165C111.431 39.4143 111.23 39.6625 110.929 39.8115C110.629 39.9604 110.278 40.0101 109.927 40.0101C109.576 40.0101 109.225 39.9604 108.924 39.8115C108.624 39.6625 108.373 39.464 108.222 39.1165C108.022 38.8187 107.972 38.4215 107.972 38.0243V34.6982H108.573Z" fill="#141414"/>
<path id="Vector_26" d="M117.248 40.0101H116.546L113.739 35.7904V40.0101H113.038V34.6982H113.739L116.546 38.9179V34.6982H117.248V40.0101Z" fill="#141414"/>
<path id="Vector_27" d="M122.509 36.2397C122.358 35.9418 122.158 35.6936 121.857 35.5447C121.557 35.3957 121.256 35.2965 120.855 35.2965C120.453 35.2965 120.153 35.3957 119.852 35.5447C119.551 35.6936 119.3 35.9418 119.15 36.2894C119 36.5872 118.9 36.9844 118.9 37.3815C118.9 37.7786 119 38.1758 119.15 38.4737C119.3 38.7715 119.551 39.0198 119.852 39.2183C120.153 39.3672 120.504 39.4665 120.855 39.4665C121.356 39.4665 121.807 39.3176 122.158 39.0198C122.509 38.7219 122.709 38.2751 122.759 37.7786H120.654V37.2326H123.511V37.7786C123.461 38.2254 123.311 38.6226 123.11 38.9701C122.86 39.3176 122.559 39.6154 122.208 39.814C121.857 40.0126 121.406 40.1119 120.905 40.1119C120.404 40.1119 119.952 40.0126 119.551 39.7644C119.15 39.5161 118.799 39.2183 118.599 38.8212C118.348 38.424 118.248 37.9276 118.248 37.4311C118.248 36.9347 118.348 36.4383 118.599 36.0411C118.849 35.644 119.15 35.2965 119.551 35.0979C119.952 34.8497 120.404 34.7504 120.905 34.7504C121.456 34.7504 121.957 34.8994 122.409 35.1476C122.86 35.4454 123.16 35.8425 123.361 36.339H122.509V36.2397Z" fill="#141414"/>
<path id="Vector_28" d="M127.173 39.4143H129.027V39.9604H126.471V34.6982H127.173V39.4143Z" fill="#141414"/>
<path id="Vector_29" d="M132.936 38.8212H130.63L130.179 40.0126H129.428L131.332 34.7504H132.134L134.04 40.0126H133.338L132.936 38.8212ZM132.736 38.2751L131.783 35.5943L130.831 38.2751H132.736Z" fill="#141414"/>
<path id="Vector_30" d="M138.651 34.6982L136.897 37.9747V39.9604H136.195V37.9747L134.441 34.6982H135.193L136.496 37.3789L137.8 34.6982H138.651Z" fill="#141414"/>
<path id="Vector_31" d="M142.563 38.8212H140.257L139.805 40.0126H139.054L141.008 34.7504H141.81L143.716 40.0126H142.963L142.563 38.8212ZM142.362 38.2751L141.41 35.5943L140.457 38.2751H142.362Z" fill="#141414"/>
<path id="Vector_32" d="M148.776 40.0101H148.075L145.268 35.7904V40.0101H144.566V34.6982H145.268L148.075 38.9179V34.6982H148.776V40.0101Z" fill="#141414"/>
<path id="Vector_33" d="M153.088 38.8212H150.782L150.331 40.0126H149.579L151.534 34.7504H152.337L154.241 40.0126H153.489L153.088 38.8212ZM152.887 38.2751L151.935 35.5943L150.983 38.2751H152.887Z" fill="#141414"/>
<path id="Vector_34" d="M159.303 40.0101H158.601L155.794 35.7904V40.0101H155.092V34.6982H155.794L158.601 38.9179V34.6982H159.303V40.0101Z" fill="#141414"/>
<path id="Vector_35" d="M165.82 34.6982V35.2443H164.366V39.9604H163.665V35.2443H162.211V34.6982H165.82Z" fill="#141414"/>
<path id="Vector_36" d="M169.479 40.0101L168.226 37.8257H167.374V40.0101H166.672V34.6982H168.376C168.778 34.6982 169.129 34.7479 169.379 34.8968C169.68 35.0458 169.88 35.1947 169.98 35.4428C170.131 35.6911 170.181 35.9393 170.181 36.2372C170.181 36.5847 170.081 36.9322 169.88 37.1804C169.68 37.4782 169.329 37.6272 168.928 37.7265L170.282 39.9604H169.479V40.0101ZM167.374 37.2796H168.376C168.778 37.2796 169.028 37.1804 169.229 36.9819C169.429 36.7833 169.529 36.535 169.529 36.2372C169.529 35.9393 169.429 35.6911 169.229 35.4925C169.028 35.3436 168.778 35.2443 168.376 35.2443H167.374V37.2796Z" fill="#141414"/>
<path id="Vector_37" d="M174.491 38.8212H172.185L171.734 40.0126H170.982L172.938 34.7504H173.74L175.644 40.0126H174.943L174.491 38.8212ZM174.29 38.2751L173.338 35.5943L172.386 38.2751H174.29Z" fill="#141414"/>
<path id="Vector_38" d="M180.709 40.0101H180.007L177.2 35.7904V40.0101H176.498V34.6982H177.2L180.007 38.9179V34.6982H180.709V40.0101Z" fill="#141414"/>
<path id="Vector_39" d="M182.614 39.862C182.314 39.7627 182.113 39.5641 181.963 39.3656C181.812 39.1671 181.712 38.8692 181.712 38.6209H182.464C182.514 38.8692 182.614 39.0678 182.765 39.2663C182.965 39.4152 183.216 39.5145 183.567 39.5145C183.918 39.5145 184.169 39.4152 184.368 39.2663C184.569 39.1174 184.669 38.8692 184.669 38.6209C184.669 38.4224 184.62 38.2734 184.519 38.1245C184.419 37.9756 184.269 37.9259 184.118 37.8266C183.968 37.777 183.717 37.6777 183.416 37.628C183.065 37.5287 182.765 37.4295 182.564 37.3303C182.363 37.231 182.163 37.082 182.013 36.8834C181.862 36.6849 181.762 36.4366 181.762 36.0891C181.762 35.7912 181.812 35.5431 181.963 35.3445C182.113 35.1459 182.314 34.9474 182.564 34.8481C182.815 34.7488 183.116 34.6495 183.467 34.6495C183.968 34.6495 184.368 34.7488 184.719 34.997C185.02 35.2452 185.221 35.5927 185.271 35.9898H184.519C184.469 35.7912 184.368 35.5927 184.218 35.4438C184.017 35.2949 183.767 35.1956 183.467 35.1956C183.166 35.1956 182.915 35.2949 182.765 35.4438C182.564 35.5927 182.464 35.7912 182.464 36.0891C182.464 36.2877 182.514 36.4366 182.614 36.5359C182.714 36.6352 182.865 36.7345 183.015 36.8338C183.166 36.8834 183.416 36.9827 183.717 37.0324C184.068 37.1317 184.368 37.231 184.569 37.3303C184.77 37.4295 184.971 37.5784 185.121 37.777C185.271 37.9756 185.371 38.2238 185.371 38.5713C185.371 38.8195 185.322 39.0678 185.17 39.316C185.02 39.5641 184.82 39.7131 184.569 39.862C184.319 40.0109 183.968 40.0606 183.617 40.0606C183.216 40.0606 182.915 40.0109 182.614 39.862Z" fill="#141414"/>
<path id="Vector_40" d="M189.481 37.3293C189.181 37.6272 188.73 37.7761 188.078 37.7761H187.076V39.9604H186.374V34.6982H188.078C188.68 34.6982 189.13 34.8472 189.432 35.1451C189.733 35.4428 189.883 35.7904 189.883 36.2372C189.933 36.684 189.782 37.0811 189.481 37.3293ZM188.98 36.9819C189.181 36.8329 189.281 36.5847 189.281 36.2868C189.281 35.6414 188.88 35.294 188.128 35.294H187.125V37.2301H188.128C188.479 37.2301 188.78 37.1308 188.98 36.9819Z" fill="#141414"/>
<path id="Vector_41" d="M191.885 39.7122C191.484 39.464 191.133 39.1662 190.933 38.769C190.682 38.3718 190.582 37.8754 190.582 37.3789C190.582 36.8826 190.682 36.3861 190.933 35.9889C191.183 35.5918 191.484 35.2443 191.885 35.0458C192.287 34.7975 192.738 34.6982 193.239 34.6982C193.74 34.6982 194.191 34.7975 194.593 35.0458C194.993 35.294 195.344 35.5918 195.545 35.9889C195.795 36.3861 195.896 36.8826 195.896 37.3789C195.896 37.8754 195.795 38.3718 195.545 38.769C195.294 39.1662 194.993 39.5136 194.593 39.7122C194.191 39.9604 193.74 40.0597 193.239 40.0597C192.738 40.0597 192.287 39.9604 191.885 39.7122ZM194.242 39.2157C194.542 39.0669 194.792 38.8187 194.943 38.4711C195.094 38.1733 195.194 37.7761 195.194 37.3789C195.194 36.9322 195.094 36.5847 194.943 36.2868C194.792 35.9889 194.542 35.7407 194.242 35.5421C193.941 35.3436 193.59 35.294 193.239 35.294C192.888 35.294 192.537 35.3932 192.236 35.5421C191.936 35.6911 191.685 35.9393 191.534 36.2868C191.384 36.6343 191.284 36.9819 191.284 37.3789C191.284 37.7761 191.384 38.1733 191.534 38.4711C191.685 38.769 191.936 39.0172 192.236 39.2157C192.537 39.3647 192.888 39.464 193.239 39.464C193.59 39.464 193.941 39.3647 194.242 39.2157Z" fill="#141414"/>
<path id="Vector_42" d="M199.658 40.0101L198.404 37.8257H197.552V40.0101H196.851V34.6982H198.554C198.956 34.6982 199.307 34.7479 199.557 34.8968C199.858 35.0458 200.058 35.1947 200.159 35.4428C200.309 35.6911 200.359 35.9393 200.359 36.2372C200.359 36.5847 200.259 36.9322 200.058 37.1804C199.859 37.4782 199.508 37.6272 199.106 37.7265L200.46 39.9604H199.658V40.0101ZM197.552 37.2796H198.554C198.956 37.2796 199.206 37.1804 199.407 36.9819C199.607 36.7833 199.707 36.535 199.707 36.2372C199.707 35.9393 199.607 35.6911 199.407 35.4925C199.206 35.3436 198.956 35.2443 198.554 35.2443H197.552V37.2796Z" fill="#141414"/>
<path id="Vector_43" d="M204.77 34.6982V35.2443H203.316V39.9604H202.614V35.2443H201.161V34.6982H204.77Z" fill="#141414"/>
<path id="Vector_44" d="M208.779 38.8212H206.473L206.023 40.0126H205.27L207.225 34.7504H208.027L209.932 40.0126H209.181L208.779 38.8212ZM208.579 38.2751L207.626 35.5943L206.674 38.2751H208.579Z" fill="#141414"/>
<path id="Vector_45" d="M211.538 39.862C211.236 39.7627 211.037 39.5641 210.886 39.3656C210.735 39.1671 210.635 38.8692 210.635 38.6209H211.388C211.437 38.8692 211.538 39.0678 211.688 39.2663C211.888 39.4152 212.139 39.5145 212.49 39.5145C212.841 39.5145 213.091 39.4152 213.292 39.2663C213.493 39.1174 213.593 38.8692 213.593 38.6209C213.593 38.4224 213.542 38.2734 213.442 38.1245C213.342 37.9756 213.192 37.9259 213.042 37.8266C212.891 37.777 212.64 37.6777 212.34 37.628C211.989 37.5287 211.688 37.4295 211.487 37.3303C211.287 37.231 211.086 37.082 210.936 36.8834C210.785 36.6849 210.686 36.4366 210.686 36.0891C210.686 35.7912 210.735 35.5431 210.886 35.3445C211.037 35.1459 211.236 34.9474 211.487 34.8481C211.738 34.7488 212.039 34.6495 212.389 34.6495C212.891 34.6495 213.292 34.7488 213.643 34.997C213.944 35.2452 214.144 35.5927 214.195 35.9898H213.442C213.392 35.7912 213.292 35.5927 213.142 35.4438C212.941 35.2949 212.691 35.1956 212.389 35.1956C212.089 35.1956 211.838 35.2949 211.688 35.4438C211.487 35.5927 211.388 35.7912 211.388 36.0891C211.388 36.2877 211.437 36.4366 211.538 36.5359C211.638 36.6352 211.788 36.7345 211.938 36.8338C212.089 36.8834 212.34 36.9827 212.64 37.0324C212.991 37.1317 213.292 37.231 213.493 37.3303C213.693 37.4295 213.893 37.5784 214.043 37.777C214.195 37.9756 214.295 38.2238 214.295 38.5713C214.295 38.8195 214.244 39.0678 214.094 39.316C213.944 39.5641 213.743 39.7131 213.493 39.862C213.242 40.0109 212.891 40.0606 212.54 40.0606C212.139 40.0606 211.838 40.0109 211.538 39.862Z" fill="#141414"/>
<path id="Vector_46" d="M215.999 34.6982V40.0101H215.297V34.6982H215.999Z" fill="#141414"/>
</g>
</g>
</g>
</g>
<defs>
<clipPath id="clip0_119_30990">
<rect width="216" height="41" fill="white"/>
</clipPath>
</defs>
</svg>
